<svg id="Layer_1" data-name="Layer 1" xmlns="http://www.w3.org/2000/svg" viewBox="0 0 648 273.6"><defs><style>.cls-1{fill:#fff;}.cls-2{fill:#454849;}.cls-3{fill:#002f5e;}</style></defs><title>bannerlco</title><path class="cls-1" d="M491.74,242.87l-.2-.12-.11,0a5.79,5.79,0,0,0-1.49.84l-.5-4.41c.25,0,.55-.09,1-.19l.57-.14.18-.08.14-.16,0-.13c-.17-.23-.44-.24-.86-.25a9.49,9.49,0,0,0-1.06.08,30.93,30.93,0,0,0-1.25-6.12l.16-.2.2-.24.05-.12v-.29h0l-.1-.35-.29-.18h0l-.27.15-.12.13a.78.78,0,0,0-.72-.38h-.14a.6.6,0,0,0-.61.59v.07h0a7,7,0,0,0,.32,1.07,49,49,0,0,0-4.74,6.71l-.46,0h0l-.46,0a5.86,5.86,0,0,0-.67.11,6.06,6.06,0,0,0-.61.16,1.27,1.27,0,0,0-.52.26l0,.06-.13.34v.07l.19.19.19,0h.08l.74-.06.25,0h0l.24,0,.24,0,.24,0,.1,0a25.55,25.55,0,0,0-1.6,3.7,8.64,8.64,0,0,0-.46,2.76,6.64,6.64,0,0,0,.05.89,5,5,0,0,0,.44,1.53c.23.5.56.82,1,.82h.09l.32-.07.2-.26v0l0-.09-.23-.28,0,0a2.12,2.12,0,0,1-.62-1.46,7.3,7.3,0,0,1-.06-.94,9.83,9.83,0,0,1,.19-1.84,13.67,13.67,0,0,1,.7-2.39c.26-.6.65-1.43,1.16-2.44l6.15-.77,0,.21c.05.39.1.92.15,1.6s.11,1.36.15,2,.07,1.15.09,1.55a3.32,3.32,0,0,0-.48.64h0a1.57,1.57,0,0,0-.28.73v.06a.4.4,0,0,0,.38.42h0l.1,0,.17-.15,0,0a8.33,8.33,0,0,1,2.67-2.79h0c.21-.18.34-.28.36-.49v0Zm-4.8-9.38a15.69,15.69,0,0,1,.8,2.38,24.09,24.09,0,0,1,.55,2.54l-5.46.63A34.15,34.15,0,0,1,486.94,233.49Z"/><path class="cls-1" d="M484.8,228.61l.07.06c.81.33,1.61.64,2.4.92a5.9,5.9,0,0,0,1.48.41h.09l.07,0,.11-.1v-.18l0-.09h0a2.94,2.94,0,0,0-.86-.67c-.39-.22-.87-.47-1.42-.74a13,13,0,0,1-1.27-.68l-.05,0-.16,0h-.11l-.18.07-.06,0-.15.16,0,0-.09.19,0,.06,0,.2,0,.11Z"/><path class="cls-1" d="M502.66,235.21l-.12-.37-.31-.19h0c-.3,0-.53.29-.79.69a1.8,1.8,0,0,0-.38.88v.1l.12.31.11.32v.21a10.62,10.62,0,0,1-.52,1.82,8.17,8.17,0,0,1-.78,1.51c-.3.45-.56.81-.78,1.1s-.45.55-.69.81l-.09.09v-.31c0-1,0-3,.06-5.92l0-.1A.52.52,0,0,0,498,236h-.11a1,1,0,0,0-.92.6,2.14,2.14,0,0,0-.1.73,6,6,0,0,0,.06.79,1.52,1.52,0,0,0,.24.81.75.75,0,0,1,.15.45c.07.74.12,1.38.14,1.93,0,.3,0,.57,0,.79v.46a4.86,4.86,0,0,1-.06.68l-.09.29-.11.14h0l-.08.1,0,.09,0,.2.08.16.14.09.11,0a2.74,2.74,0,0,0,1.38-.92,17.15,17.15,0,0,0,1.69-2,15.5,15.5,0,0,0,1.5-2.71,8.65,8.65,0,0,0,.76-2.81h0v-.63Z"/><path class="cls-1" d="M509.18,236.48l-.22-.26-.37-.07h0l-.28-.22a3.2,3.2,0,0,1-.36-.83,4.62,4.62,0,0,0-.36-.9c-.12-.21-.24-.37-.46-.38h0a.76.76,0,0,0-.56.34l-.13.46h0a1.93,1.93,0,0,0-1.32.91,6.2,6.2,0,0,0-.91,1.88,18.73,18.73,0,0,0-.5,2,12.45,12.45,0,0,0-.22,1.46h0v.33a4.87,4.87,0,0,0,0,.66c.11,1.11.58,1.79,1.4,1.78h.19a3.59,3.59,0,0,0,2.46-2.1,6.8,6.8,0,0,0,.87-3.42,8.24,8.24,0,0,0-.05-.85,1.57,1.57,0,0,0,.46-.21.64.64,0,0,0,.36-.48v0Zm-1.71,1.37a6.87,6.87,0,0,1-.65,2.92c-.54,1.2-1.1,1.78-1.53,1.81h-.05l-.28-.16a1.49,1.49,0,0,1-.18-.64,4.12,4.12,0,0,1,0-.51v-.35a14.49,14.49,0,0,1,.71-3.09,7.26,7.26,0,0,1,.62-1.49c.18-.29.35-.43.48-.46a2.84,2.84,0,0,1,.32.49,2.49,2.49,0,0,0,.53.7A6.81,6.81,0,0,1,507.47,237.85Z"/><path class="cls-1" d="M519.58,233.8c0-.41-.28-.74-.66-.72h-.1c-.74.1-1.46.87-2.29,2.26-.5.86-.91,1.62-1.24,2.31,0-.13,0-.25.07-.38.12-.62.25-1.13.36-1.53s.24-.85.38-1.31.21-.71.22-.79l-.1-.18-.31-.13h-.08a1.33,1.33,0,0,0-1.09.68h0l-.1-.11-.25,0-.35,0-1.78.2c.35-1.42.63-2.46.85-3.1v-.11a.45.45,0,0,0-.43-.28h-.11a1.36,1.36,0,0,0-1.08.64,6,6,0,0,0-.58,1.91h0l0,.26v.09l.06.12,0,.12,0,.32,0,.16-1.21.14-.07,0-.42.25-.05.05-.24.38,0,.11.18.24.29.06.22,0a9.66,9.66,0,0,0,1.16-.19c-.47,3-.73,4.54-.75,4.68a16,16,0,0,0-.29,2v.1c0,.41.27.72.64.71h.1c.62-.09,1.43-.78,2.6-2.09h0a.57.57,0,0,0,.23-.49V240l0-.11-.12-.11-.14-.05-.11.05a8.05,8.05,0,0,0-.78.85,2.25,2.25,0,0,1-1,.82h0l-.05-.17h0v-.09a3.62,3.62,0,0,1,0-.49,54.94,54.94,0,0,1,1-5.69,17,17,0,0,0,1.72-.31,3.69,3.69,0,0,0,.72-.22l.06,0a8.37,8.37,0,0,0-.3,1.46h0l0,.24v.07l.06.16.05.15v.3l-.11.89h0c-.06.57-.17,1.45-.34,2.62a1,1,0,0,0-.29.61,2.92,2.92,0,0,0-.05.6l0,.48.11.14.2.08H514l.44-.22,0,0,.36-.39,0-.08a19.3,19.3,0,0,1,1.6-4.6,11.58,11.58,0,0,1,1-1.8,1.61,1.61,0,0,1,.65-.58h0a3.23,3.23,0,0,1-.11.6,3.11,3.11,0,0,0-.14.64v0l.06.11.14.11h.2l.41-.26,0,0,.39-.5v0a2.59,2.59,0,0,0,.37-1.25Z"/><path class="cls-1" d="M524.16,234.23h0c-.26-.79-.64-1.27-1.2-1.28h-.1a2.47,2.47,0,0,0-2.25,1.47h0l-.7,1.9h0l-.33.11-.15.3v.05h0a.51.51,0,0,0,.34.41c0,.15-.07.41-.14.78a14,14,0,0,0-.21,1.6h0v.58h0a1.43,1.43,0,0,0,.63,1.15,1.75,1.75,0,0,0,.88.25h.21a3.42,3.42,0,0,0,1.79-1.29,3.3,3.3,0,0,0,1-1.79v-.09l-.06-.11-.16-.15-.13,0-.16.09a4.57,4.57,0,0,0-.43.59h0a10.72,10.72,0,0,1-.88,1.2,1.48,1.48,0,0,1-.84.61h-.08c-.26,0-.38-.13-.46-.61l0-.4a9.41,9.41,0,0,1,.36-2.25l.16,0,.48,0a5.71,5.71,0,0,0,.77-.14,8.59,8.59,0,0,0,.9-.3,2,2,0,0,0,.83-.61,1.26,1.26,0,0,0,.26-.78v-.15A5.3,5.3,0,0,0,524.16,234.23Zm-1.61-.17.21.08a1.24,1.24,0,0,1,.24.41,3.24,3.24,0,0,1,.2.84v.11a.59.59,0,0,1-.24.55,2.87,2.87,0,0,1-1.13.3h0a3.38,3.38,0,0,1-.49,0h-.09a9.34,9.34,0,0,1,.58-1.43C522.11,234.36,522.4,234.09,522.55,234.06Z"/><path class="cls-1" d="M529.33,236.43a5.94,5.94,0,0,0,1.15.71,8.07,8.07,0,0,1,1.08.6c.33.21.46.41.47.51v0c0,.17-.3.52-1,.87a6.53,6.53,0,0,1-1.82.63l-.12.07-.2.27,0,.18.14.27.09.08.29.11h.08a5.22,5.22,0,0,0,2.39-1.16,2.6,2.6,0,0,0,1.28-1.91v-.16a1.17,1.17,0,0,0-.68-.95c-.35-.19-.77-.38-1.26-.59a2.08,2.08,0,0,1-1-.73l-.13-.36v-.07a1.41,1.41,0,0,1,.65-1,4.66,4.66,0,0,1,1.24-.8l.46-.13.13,0h.11l.16.13v0a3.35,3.35,0,0,1-.14.68,3.32,3.32,0,0,0-.15.79v.06l0,.09.1.12.14.06.43-.3a4,4,0,0,0,.39-.66,3.28,3.28,0,0,0,.43-1.31h0v0a.88.88,0,0,0-.88-.91H533a2.26,2.26,0,0,0-.57.18h0l-.22.11-.29.15h0l-.31.17h0l-.37.22-.38.25h0l-.41.3h0l-.4.34h0l-.39.39h0l-.35.43h0l-.34.49h0a1.2,1.2,0,0,0-.21.67v.13A1.52,1.52,0,0,0,529.33,236.43Z"/><path class="cls-1" d="M534.74,239.65a1.63,1.63,0,0,0,.88.25h.21a3.39,3.39,0,0,0,1.79-1.29,3.25,3.25,0,0,0,1-1.78v-.1l-.06-.11-.16-.15-.14,0-.16.09a5.18,5.18,0,0,0-.42.6h0a9.16,9.16,0,0,1-.88,1.2,1.47,1.47,0,0,1-.85.61h-.07c-.26,0-.39-.13-.46-.61l0-.4a9.41,9.41,0,0,1,.36-2.25l.16,0,.47,0h0a5.58,5.58,0,0,0,.76-.14,5.92,5.92,0,0,0,.9-.3,1.84,1.84,0,0,0,.83-.6,1.25,1.25,0,0,0,.27-.78v-.16a5.38,5.38,0,0,0-.25-1.06h0c-.26-.78-.64-1.27-1.2-1.28h-.11a2.46,2.46,0,0,0-2.24,1.47h0l-.71,1.91h0l-.33.11-.15.3v.05a.5.5,0,0,0,.34.41c0,.15-.07.42-.14.78a13.88,13.88,0,0,0-.21,1.61l0,.31,0,.27A1.42,1.42,0,0,0,534.74,239.65Zm2.55-7.27.21.08a1.3,1.3,0,0,1,.24.41,3.07,3.07,0,0,1,.19.84v.11a.59.59,0,0,1-.24.55,2.92,2.92,0,0,1-1.13.3,3.48,3.48,0,0,1-.49,0H536a10.82,10.82,0,0,1,.57-1.43C536.85,232.69,537.13,232.41,537.29,232.38Z"/><path class="cls-1" d="M539.33,239.28l.2.08h.14l.44-.22,0,0,.36-.39,0-.08a19.3,19.3,0,0,1,1.6-4.6,10.74,10.74,0,0,1,1.05-1.8,1.55,1.55,0,0,1,.65-.58h0a2.54,2.54,0,0,1-.11.6,3.41,3.41,0,0,0-.14.64v0l.06.11.14.12h.2l.41-.27,0,0,.39-.5,0,0a2.57,2.57,0,0,0,.36-1.25v-.22c0-.42-.28-.74-.66-.73h-.1c-.74.1-1.46.87-2.29,2.26-.5.86-.91,1.63-1.24,2.32,0-.13,0-.26.07-.39q.19-.93.36-1.53c.12-.41.24-.84.38-1.31s.21-.72.22-.78l-.1-.19-.31-.13h-.08a1.33,1.33,0,0,0-1.09.68,6.13,6.13,0,0,0-.5,1.92v.32l.06.16,0,.15v.31l-.11.89h0c-.06.57-.17,1.45-.34,2.62a1,1,0,0,0-.29.61,2.67,2.67,0,0,0,0,.58l0,.5Z"/><path class="cls-1" d="M545.92,233.32a.79.79,0,0,1,.15.46c.07.73.12,1.38.14,1.92,0,.32,0,.6,0,.82V237a4.86,4.86,0,0,1-.06.68l-.1.32-.1.12-.09.1,0,.1v.19l.07.16.14.09.11,0a2.84,2.84,0,0,0,1.39-.93,16.48,16.48,0,0,0,1.68-2,14.82,14.82,0,0,0,1.51-2.71,8.55,8.55,0,0,0,.75-2.81h0v-.62l-.12-.38-.31-.18h0c-.3,0-.53.29-.79.69a1.79,1.79,0,0,0-.38.89v.1l.12.31.11.32v.21a9.69,9.69,0,0,1-.52,1.81,9.34,9.34,0,0,1-.78,1.52c-.3.44-.55.8-.78,1.09a9.17,9.17,0,0,1-.69.81l-.08.09a2.18,2.18,0,0,1,0-.27c0-1,0-3,0-6l0-.1a.56.56,0,0,0-.47-.22h-.1a1,1,0,0,0-.92.6,2.08,2.08,0,0,0-.1.72c0,.23,0,.5,0,.8A1.6,1.6,0,0,0,545.92,233.32Z"/><path class="cls-1" d="M554.46,227.79l.43.23H555c.31-.13.46-.46.6-.95h0a2.71,2.71,0,0,1,.4-.65h0a1.46,1.46,0,0,0,.36-.79v-.07l-.11-.13-.13,0H556a2.08,2.08,0,0,0-1.17.7,1.64,1.64,0,0,0-.58,1.08v.09A1.28,1.28,0,0,0,554.46,227.79Z"/><path class="cls-1" d="M559.44,230.57v.08l.12.35.31.15h0c.25,0,.41-.23.53-.5a1.62,1.62,0,0,0,.13-.66v-.22h-.17l.17,0a1,1,0,0,0-1.06-1l-.22,0a1.55,1.55,0,0,0-.62.19,4.51,4.51,0,0,0-.61.37h0c-.22.15-.44.27-.63.38h0a5.12,5.12,0,0,0-1.44,2.62,9.76,9.76,0,0,0-.58,3.06c0,.12,0,.24,0,.35l-.08-.09-.17-.06h-.08a2.1,2.1,0,0,0-.76.43l-.41.27-.09.06-.11-.11v-.08c.06-.55.15-1.1.25-1.66s.21-1,.32-1.44.23-.83.37-1.28.27-.79.35-1,.19-.51.32-.83.2-.52.21-.53v-.13l-.09-.11-.33-.15h-.09a1.43,1.43,0,0,0-1.12.63,6.62,6.62,0,0,0-.63,1.9v0l0,.27v.08l0,.11,0,.13v.17l0,.29-.07.41h0c0,.13-.07.34-.13.61s-.12.54-.17.8l-.25,1.1c-.1.48-.21.94-.31,1.39v0l0,.44v0a.5.5,0,0,0,.52.49H553a3.68,3.68,0,0,0,1.47-.87,9.63,9.63,0,0,0,.74-.67,1.08,1.08,0,0,0,.25-.41v0c.09.93.59,1.51,1.39,1.49h.24a3.23,3.23,0,0,0,1.74-.85,6.17,6.17,0,0,0,1.28-1.5,2.55,2.55,0,0,0,.41-1.07v-.08l0-.09-.12-.13-.15-.06-.1,0-.15.22-.3.48a6.28,6.28,0,0,1-1.09,1.32,2.31,2.31,0,0,1-1.37.72h-.08c-.25,0-.36-.12-.43-.56l0-.37a10.27,10.27,0,0,1,.44-2.54,8.77,8.77,0,0,1,.86-2.35,4.16,4.16,0,0,1,.7-.68,1.68,1.68,0,0,1,.66-.4h.05l.15.14h0v.08l0,.37Z"/><path class="cls-1" d="M564.11,235.58a3.22,3.22,0,0,0,1-1.78v-.1l-.05-.1-.16-.15-.14,0-.16.09a4.85,4.85,0,0,0-.42.6,11.15,11.15,0,0,1-.88,1.21,1.52,1.52,0,0,1-.85.6h-.08c-.25,0-.38-.13-.45-.62l0-.39a9.41,9.41,0,0,1,.36-2.26h.16l.47,0h0a4.55,4.55,0,0,0,.76-.14,6.17,6.17,0,0,0,.9-.29,2,2,0,0,0,.83-.6,1.29,1.29,0,0,0,.27-.77l0-.17h0a5.25,5.25,0,0,0-.24-1.06h0c-.27-.79-.65-1.28-1.21-1.28h-.1a2.48,2.48,0,0,0-2.24,1.47h0l-.71,1.91h0l-.33.12-.15.3v0h0a.5.5,0,0,0,.34.4c0,.16-.07.42-.14.78a12.46,12.46,0,0,0-.22,1.61v.58a1.46,1.46,0,0,0,.64,1.16,1.72,1.72,0,0,0,.88.25l.21,0A3.34,3.34,0,0,0,564.11,235.58Zm-.32-6.21.21.08a1.37,1.37,0,0,1,.24.41,3.75,3.75,0,0,1,.19.84v.11a.57.57,0,0,1-.23.54,2.76,2.76,0,0,1-1.14.3l-.49,0h-.09a9.69,9.69,0,0,1,.58-1.42C563.35,229.67,563.63,229.39,563.79,229.37Z"/><path class="cls-1" d="M532,255.08l-.15-.06-.23.17-.24.32a5.75,5.75,0,0,1-.64.8,1,1,0,0,1-.58.4h0l0,0-.07-.27h0v-.13a17.89,17.89,0,0,1,.34-2.48c.24-1.34.47-2.33.66-3h.2l.08,0,.2-.14.05-.21-.12-.26-.07-.08-.12-.08c.14-.61.33-1.36.57-2.3s.49-1.83.64-2.46a6.26,6.26,0,0,0,.19-1.2v-.19l-.09-.18-.09-.08-.52-.1h-.14l-.07,0-.32.2-.06.07a3.57,3.57,0,0,0-.47,1.54v.15l.06.11.18.16c-.08.35-.43,1.75-1,4.12l-.49-.08a4.47,4.47,0,0,0-.73-.08l-.23,0h0l-.41.21h0l-.3.18h0c-.53.08-.94.65-1.43,1.65a16.76,16.76,0,0,0-1.15,3.29,10.51,10.51,0,0,0-.35,2.33l0,.4c0,.4.24.73.61.73h.08c.6-.08,1.21-.66,2-1.69.53-.73,1-1.42,1.38-2.08a12.53,12.53,0,0,0-.23,2.1,4.1,4.1,0,0,0,0,.51.55.55,0,0,0,.55.55h.09a2.83,2.83,0,0,0,1.36-.81,11.43,11.43,0,0,0,1.22-1.27l0,0,0-.08,0-.05,0-.18v-.19l0-.12Zm-3.7-.6,0,0h0a5.28,5.28,0,0,1-.34.51l-.64.91a6.61,6.61,0,0,1-.63.77c-.23.25-.41.36-.46.35h0l0-.16v-.23a9.87,9.87,0,0,1,.9-3.34,19.61,19.61,0,0,1,.88-1.93,1.81,1.81,0,0,1,.5-.69,2.15,2.15,0,0,1,.47-.09,6.45,6.45,0,0,1,.75-.06l.3,0c0,.13-.1.35-.21.71a15.67,15.67,0,0,1-.58,1.64A7.81,7.81,0,0,1,528.33,254.48Z"/><path class="cls-1" d="M536.76,254.46l-.06-.1-.16-.15-.15,0-.26.22-.31.46a11.15,11.15,0,0,1-.88,1.21,1.47,1.47,0,0,1-.85.61H534c-.26,0-.39-.13-.46-.61l0-.4a9.41,9.41,0,0,1,.36-2.26h.16l.47,0h0a7,7,0,0,0,1.66-.44,1.86,1.86,0,0,0,.83-.61,1.23,1.23,0,0,0,.27-.78v-.16a6.21,6.21,0,0,0-.25-1.06h0c-.27-.79-.65-1.27-1.2-1.28h-.11a2.46,2.46,0,0,0-2.24,1.46h0c-.06.17-.3.82-.71,1.91h0l-.33.11-.15.29v.05a.5.5,0,0,0,.34.41c0,.15-.07.42-.14.78a12.38,12.38,0,0,0-.22,1.62v.57a1.47,1.47,0,0,0,.64,1.16,1.72,1.72,0,0,0,.88.25l.21,0a3.29,3.29,0,0,0,1.78-1.29,3.22,3.22,0,0,0,1-1.78Zm-1.33-4.33.21.07a1.39,1.39,0,0,1,.24.42,3.27,3.27,0,0,1,.19.84v.11a.6.6,0,0,1-.24.54,2.76,2.76,0,0,1-1.14.3l-.49,0h-.08a9.18,9.18,0,0,1,.57-1.43C535,250.43,535.27,250.16,535.43,250.13Z"/><path class="cls-1" d="M543.86,251.69l0-.05.18-.28,0-.15-.11-.11-.15,0h-.1l-.45.11h0l-.48.23h0l-.22.11a5.39,5.39,0,0,0-2.23-3l.13-.41v0l0-.4,0-.14-.19-.19-.14-.05a1.32,1.32,0,0,0-.74.47,1.19,1.19,0,0,0-.37.75v.06l0,.08h0l-.14.07h0c-.22.13-.38.26-.39.48v0l.1.14.25.11h.1c-.12.7-.45,2.39-1,5.1a1,1,0,0,0-.39.8v.15l.09.31-.46,1.85c-.31,1.22-.53,2.2-.68,3a8,8,0,0,0-.18,1.41v.2l.12.44.33.21h0c.33,0,.55-.32.72-.73a2.25,2.25,0,0,0,.24-.86v-.11l-.11-.24v0l-.07-.13v0c.11-.47.27-1.22.5-2.26l.43-1.94a2.83,2.83,0,0,0,1.3.3l.54,0a3,3,0,0,0,2-1,2.86,2.86,0,0,0,.64-2c0-.2,0-.41,0-.63a7.8,7.8,0,0,0-.21-1.07l.42-.19A3.59,3.59,0,0,0,543.86,251.69Zm-4.71,2.92a11.66,11.66,0,0,1,1.34-1.15,6.26,6.26,0,0,1,1.14-.75c.08.34.15.64.18.88l0,.39a2.46,2.46,0,0,1-.32,1.26,1.65,1.65,0,0,1-1.37.8h-.22a2.45,2.45,0,0,1-1-.26Zm1-4.78.2.18a5,5,0,0,1,.56.9,8.68,8.68,0,0,1,.5,1.19,13,13,0,0,0-2,1.24c.07-.34.15-.77.25-1.29.15-.78.28-1.37.37-1.78A3.91,3.91,0,0,1,540.14,249.83Z"/><path class="cls-1" d="M550.76,253.93l-.1-.14-.18-.08-.09,0a2.17,2.17,0,0,0-1,.68c-.21.19-.37.34-.5.44l0,0a16.9,16.9,0,0,1,.21-1.68q.25-1.56.51-2.67c.11-.5.26-1.12.44-1.86s.29-1.17.32-1.31l-.08-.18L550,247l-.11,0a1.34,1.34,0,0,0-1.16.92,3.23,3.23,0,0,0-.27,1.24v.16a14,14,0,0,1-3.1,4.84l-.21.2c.06-.29.19-.83.4-1.62q.43-1.68,1.32-4.83v-.11a.48.48,0,0,0-.45-.26h-.09a1.4,1.4,0,0,0-1.13.63,6.26,6.26,0,0,0-.49,1.9h0l0,.24,0,.07,0,.15.06.17v.09a4,4,0,0,1-.17,1c-.14.54-.33,1.21-.58,2-.12.39-.22.68-.28.88l-.07.22,0,.1h0a3.47,3.47,0,0,0-.14.84V256a.47.47,0,0,0,.45.49h.07c.66-.09,1.38-.81,2.34-2.15.71-1,1.3-1.92,1.79-2.76-.33,2.28-.57,3.69-.72,4.2a1.76,1.76,0,0,1-.34.52h0a1.09,1.09,0,0,0-.33.58v0h0a.39.39,0,0,0,.4.35h.08l.07,0,.4-.25,0,0a5.09,5.09,0,0,0,.48-.57h0c.16-.22.28-.37.36-.46l.6-.47c.38-.29.72-.56,1-.82s.45-.42.47-.66Z"/><path class="cls-1" d="M554.39,244.13a1.42,1.42,0,0,0,.35-.79v-.07l-.11-.14-.13,0h-.08a2.1,2.1,0,0,0-1.17.71,1.62,1.62,0,0,0-.59,1.07v.1a1.09,1.09,0,0,0,.18.55l.43.24h.11c.3-.12.46-.45.6-.94h0A2.71,2.71,0,0,1,554.39,244.13Z"/><path class="cls-1" d="M553.44,246.67a1.47,1.47,0,0,0-1.12.63,6.88,6.88,0,0,0-.64,1.9v0l0,.28v.08l0,.11,0,.12V250l0,.3-.07.4c0,.13-.07.34-.13.62l-.18.8c-.05.25-.13.62-.24,1.1s-.21.94-.31,1.39v0l0,.45v0a.51.51,0,0,0,.53.49h.1a3.72,3.72,0,0,0,1.46-.88,6.89,6.89,0,0,0,.74-.66.9.9,0,0,0,.29-.51v0l-.11-.14-.17-.06h-.08a2,2,0,0,0-.76.42l-.41.28-.1.05-.1-.1v-.09c.06-.54.14-1.1.25-1.65s.21-1,.32-1.44.23-.83.37-1.28l.35-1h0c.09-.23.19-.51.32-.83s.2-.51.21-.54v-.13l-.42-.27Z"/><path class="cls-1" d="M558.52,246.2h-.15a2.31,2.31,0,0,0-.58.18h0l-.22.11-.29.15-.32.17h0l-.36.22h0l-.37.25h0l-.41.3h0l-.39.34h0l-.39.38v0l-.36.42h0l-.35.5h0a1.26,1.26,0,0,0-.21.68v.13a1.51,1.51,0,0,0,.63,1,5.53,5.53,0,0,0,1.15.72,6.64,6.64,0,0,1,1.08.6c.33.21.47.41.47.51v0c0,.18-.28.52-1,.87a6.22,6.22,0,0,1-1.82.63l-.12.07-.2.28v.17l.13.27.09.09.29.1h.08a5,5,0,0,0,2.39-1.15,2.64,2.64,0,0,0,1.29-1.92v-.16a1.22,1.22,0,0,0-.68-1c-.36-.18-.78-.38-1.27-.58a2,2,0,0,1-1-.73l-.14-.36v-.07a1.47,1.47,0,0,1,.65-1.05,4.73,4.73,0,0,1,1.24-.79l.46-.13.14,0H558l.15.12h0v0a3.07,3.07,0,0,1-.14.67h0a3.41,3.41,0,0,0-.15.79v.06l0,.09.1.12.15.06c.33-.07.52-.39.82-.95a3.2,3.2,0,0,0,.42-1.32h0v0A.88.88,0,0,0,558.52,246.2Z"/><path class="cls-1" d="M574,246.22a5.34,5.34,0,0,0,1.36-3l0-.27a1.36,1.36,0,0,0-1.52-1.31l-.38,0a8.8,8.8,0,0,0-3.5,1.24,14,14,0,0,0-3.07,2.43l0,.06-.08.23,0,.18.19.18.2,0,.15-.08.06,0a9.47,9.47,0,0,1,3.89-2.6c.23-.08.44-.15.64-.2a3.23,3.23,0,0,1,.55-.12H573l.33.1.22.22.11.37v.17h0v.08a4.23,4.23,0,0,1-.65,2,11.74,11.74,0,0,1-1.7,2,49.85,49.85,0,0,1-4.78,3.78h-.09a4.39,4.39,0,0,0-.52.09h0a5.9,5.9,0,0,0-.6.17l-.56.2h0l-.42.2h0a2.31,2.31,0,0,0-.68.64h0a1.21,1.21,0,0,0-.25.64v.07a.43.43,0,0,0,.48.36H564a2.24,2.24,0,0,0,1-.4,8.64,8.64,0,0,0,.88-.72,2.34,2.34,0,0,1,.62-.46H567a3.32,3.32,0,0,1,.59.08l.55.11h0l.58.14.53.15a12.76,12.76,0,0,0,2.85.4,5.41,5.41,0,0,0,.59,0,3.81,3.81,0,0,0,1.84-.67,1.55,1.55,0,0,0,.72-1.25v-.17c-.08-.7-.7-1.12-1.69-1.27h-.07l-.24.07-.12.09v.15l.1.2.12.09c.68.14,1,.38,1,.69l0,.24c-.13.43-.64.75-1.64.86-.22,0-.46,0-.71,0a12.42,12.42,0,0,1-2.24-.24,21,21,0,0,0-2.18-.36,36.05,36.05,0,0,0,4.14-3.09A19.88,19.88,0,0,0,574,246.22Z"/><path class="cls-1" d="M586,240.71l-.27-.16a.88.88,0,0,1,.16,0h0l.19,0,.25-.09.11-.24v0a.52.52,0,0,0-.33-.41,1.58,1.58,0,0,0-.66-.1l-.59,0a5.07,5.07,0,0,0-1.34.32l-.3,0h0l-.33.06h0l-.31.12-.17.27,0,.08a14.15,14.15,0,0,0-2.8,2.35,11.52,11.52,0,0,0-2.13,3.07,8.84,8.84,0,0,0-1,3.72c0,.21,0,.42,0,.62a2.72,2.72,0,0,0,.59,1.49,1.66,1.66,0,0,0,1.29.59h.05a4.82,4.82,0,0,0,.65,0,6.82,6.82,0,0,0,1.43-.32,8.63,8.63,0,0,0,1.47-.67,10.75,10.75,0,0,0,1.52-1.06A12.83,12.83,0,0,0,585,249a9.72,9.72,0,0,0,1.81-2.9,6.58,6.58,0,0,0,.5-2.41,4.93,4.93,0,0,0,0-.55A3.41,3.41,0,0,0,586,240.71Zm-8.25,9.85,0-.46a8.41,8.41,0,0,1,1-3.77,15.57,15.57,0,0,1,2.11-3.15,8.19,8.19,0,0,1,2.91-2.35,4.23,4.23,0,0,1,1.61.6,1.4,1.4,0,0,1,.4.56,3.09,3.09,0,0,1,.28,1.06,4,4,0,0,1,0,.6,6.19,6.19,0,0,1-.08.95,6.77,6.77,0,0,1-.67,1.87,8.64,8.64,0,0,1-1.42,2,13.27,13.27,0,0,1-2.43,2.14,5.7,5.7,0,0,1-2.56,1h-.21a.82.82,0,0,1-.6-.2A1.59,1.59,0,0,1,577.7,250.56Z"/><path class="cls-1" d="M597.58,239.39a2.4,2.4,0,0,0-.27-.16.88.88,0,0,1,.16,0h0l.2,0,.24-.08.11-.25v0a.5.5,0,0,0-.33-.4,1.52,1.52,0,0,0-.65-.11,4.52,4.52,0,0,0-.6,0,4.71,4.71,0,0,0-1.34.32h-.32l-.33.07h0l-.32.12-.17.26,0,.09a13.71,13.71,0,0,0-2.79,2.34,11.61,11.61,0,0,0-2.14,3.08,9,9,0,0,0-1,3.72,4.08,4.08,0,0,0,0,.61,2.67,2.67,0,0,0,.58,1.5,1.75,1.75,0,0,0,1.3.59h0a5.49,5.49,0,0,0,.68,0,6.69,6.69,0,0,0,1.43-.32,9.17,9.17,0,0,0,1.48-.68,12.23,12.23,0,0,0,1.52-1.05,13.79,13.79,0,0,0,1.46-1.41,9.55,9.55,0,0,0,1.81-2.89,6.49,6.49,0,0,0,.51-2.42,5.07,5.07,0,0,0,0-.55A3.4,3.4,0,0,0,597.58,239.39Zm-8.25,9.85,0-.47a8.61,8.61,0,0,1,1-3.77,15.53,15.53,0,0,1,2.11-3.14,8.21,8.21,0,0,1,2.92-2.35,4.15,4.15,0,0,1,1.6.59,1.45,1.45,0,0,1,.41.56,3.48,3.48,0,0,1,.28,1.07,5.49,5.49,0,0,1,0,.58,6.45,6.45,0,0,1-.08,1,6.88,6.88,0,0,1-.67,1.87,8.84,8.84,0,0,1-1.41,2,13.73,13.73,0,0,1-2.44,2.15,5.56,5.56,0,0,1-2.56,1h-.2a.84.84,0,0,1-.6-.19A1.58,1.58,0,0,1,589.33,249.24Z"/><path class="cls-1" d="M610.53,240.47a3.35,3.35,0,0,0-1.32-2.4,1.53,1.53,0,0,0-.27-.17l.16,0h0l.2,0,.25-.09.1-.24v0a.51.51,0,0,0-.32-.41,1.8,1.8,0,0,0-.66-.1,4.52,4.52,0,0,0-.6,0,5.1,5.1,0,0,0-1.34.31l-.3,0h0l-.33.06h0l-.32.13-.17.26.06.09a13.75,13.75,0,0,0-2.8,2.34,12,12,0,0,0-2.14,3.07,9,9,0,0,0-1,3.72c0,.21,0,.42,0,.62a2.71,2.71,0,0,0,.58,1.49,1.68,1.68,0,0,0,1.3.59h0l.69,0a7.29,7.29,0,0,0,1.42-.33,9.08,9.08,0,0,0,1.48-.67,11.35,11.35,0,0,0,1.52-1.06,12.83,12.83,0,0,0,1.47-1.4,9.64,9.64,0,0,0,1.8-2.89,6.49,6.49,0,0,0,.51-2.42A4.93,4.93,0,0,0,610.53,240.47ZM601,247.92l0-.47a8.79,8.79,0,0,1,1-3.78,17.07,17.07,0,0,1,2.11-3.14,8.21,8.21,0,0,1,2.92-2.35,4.19,4.19,0,0,1,1.6.6,1.3,1.3,0,0,1,.41.56,3.4,3.4,0,0,1,.28,1.07,5.3,5.3,0,0,1,0,.57,5.47,5.47,0,0,1-.08,1,6.82,6.82,0,0,1-.66,1.87,9.22,9.22,0,0,1-1.42,2,13.33,13.33,0,0,1-2.44,2.14,5.62,5.62,0,0,1-2.55,1.05h-.22a.83.83,0,0,1-.59-.19A1.52,1.52,0,0,1,601,247.92Z"/><path class="cls-2" d="M175.06,19c-1.65.29-.05,5.05,4,5.25s26.21-6.43,31.36-6.88a45.29,45.29,0,0,1,14.13,1.57A56.47,56.47,0,0,1,237.2,24.8c3.23,2.08,9.21,9.65,10.52,11.38.21-1.28-3.38-10-10.85-15.83s-18.15-7.89-26-7.16-23.74,1.1-26.33,1.26S177.21,18.6,175.06,19Z"/><path class="cls-2" d="M224.61,70.59c2.33-1.16,9-7.24,16.28-9.54s17.8-3.59,23.38-4.41S273.09,53,273.76,50c-1.43,1.86-5.36,5.31-15.93,5.49s-15.14-.91-18,0-5.37,3.49-8,3.39c2.91-3.15,6.11-6.25,9.05-6.68s16.13-1.65,19.73-2,4.7-.14,6.79-1.68,6.08-5.19,3.89-6.89S256.48,38.09,255,37.79c-2.86-.6-4.09-2.63-.26-2.45,2.53.11,11.12.5,13.07.66s5.27.74,7.35,2.36,2.55,6.83.15,9.92c.91.7,1,3.53-1.47,6.69s-9.77,6.93-17.32,7.84-17.2,3.52-21.33,6.53-1.41,2.54-7.81,4.07Z"/><path class="cls-3" d="M199.66,66.77a6.07,6.07,0,0,0-3.87-1.22,7.14,7.14,0,0,0-5.12,2,13.19,13.19,0,0,0-3.31,6l-.77-.2c0-1.14.09-2.28.19-3.43s.26-2.31.48-3.49l-1.63-1c-.84.46-2,1.15-3.36,2l-.36.28c-2.23,0-4,.11-5.34.21a32,32,0,0,0-3.48.42v2.15h.5c1.62,0,2.7.44,3.23,1.31s.8,3.23.8,7v5.48c0,4.46-.31,7.23-.93,8.27s-1.81,1.61-3.6,1.73l0,2.13c1.58-.1,3.17-.27,4.83-.53s3.32-.59,5.08-1c2,.44,4,.8,5.91,1.06s3.86.41,5.78.48V94.35q-3.81-.3-5.1-1.91c-.88-1.1-1.31-4-1.31-8.66V80.64q0-4.31,1-6.16a3.56,3.56,0,0,1,3.35-1.83,4.74,4.74,0,0,1,2.57.74,6.4,6.4,0,0,1,2,2.11,9.44,9.44,0,0,0,2.87-2.63,5.17,5.17,0,0,0,1-3A3.86,3.86,0,0,0,199.66,66.77Z"/><path class="cls-3" d="M226.65,59.47a5.79,5.79,0,0,0,2.13-1A2.26,2.26,0,0,0,229.6,57a2.52,2.52,0,0,0-.44-2,2.62,2.62,0,0,0-1.76-1,3.06,3.06,0,0,0-1.74.22,10.35,10.35,0,0,0-2.31,1.44l-5.78,5.05.76,1.3Z"/><path class="cls-3" d="M332.61,111.47a5,5,0,0,0,1.86-.87,2,2,0,0,0,.72-1.25,2.25,2.25,0,0,0-.39-1.71,2.29,2.29,0,0,0-1.53-.92,2.73,2.73,0,0,0-1.52.2,8.48,8.48,0,0,0-2,1.26l-5.05,4.4.66,1.13Z"/><path class="cls-3" d="M230.47,91.58a13.1,13.1,0,0,1-4.68.87,10.51,10.51,0,0,1-7.93-3.27A11.35,11.35,0,0,1,214.71,81c0-.91.2-1.53.59-1.79a4.72,4.72,0,0,1,2.48-.44h16.86c.06-.49.11-.88.12-1.13s0-.49,0-.69a10.3,10.3,0,0,0-4-8.25,15.31,15.31,0,0,0-10-3.32,17.06,17.06,0,0,0-12.29,4.67,15.62,15.62,0,0,0-4.88,11.8A14.37,14.37,0,0,0,208.06,93c3,2.83,7,4.21,12,4.21a24.87,24.87,0,0,0,9.17-1.59,15.24,15.24,0,0,0,6.48-4.48l-1-2A14,14,0,0,1,230.47,91.58Zm-16-15.9c0-.27,0-.53,0-.77a7.83,7.83,0,0,1,1.38-4.8,4.32,4.32,0,0,1,3.66-1.85,4.91,4.91,0,0,1,3.87,1.95,7,7,0,0,1,1.61,4.58,1.37,1.37,0,0,1-.32,1,3,3,0,0,1-1.5.26h-8.63A3.53,3.53,0,0,0,214.44,75.68Z"/><path class="cls-3" d="M259.92,91.68a6.41,6.41,0,0,0,2.18,4A6.61,6.61,0,0,0,266.42,97a9.27,9.27,0,0,0,4.29-1.19,13,13,0,0,0,4-3.14l-.84-1.6a9.84,9.84,0,0,1-1.09.36,3.1,3.1,0,0,1-.82.1,2.05,2.05,0,0,1-2-1.26c-.37-.87-.54-2.76-.54-5.64v-6c0-4.64-1-8-3.09-10s-5.43-3-10.09-3A20.75,20.75,0,0,0,246,67.71c-2.6,1.46-3.91,3.3-3.91,5.56a3.75,3.75,0,0,0,1.13,2.83,4.3,4.3,0,0,0,3,1.05,12.15,12.15,0,0,0,2.67-.26,9.59,9.59,0,0,0,2.3-.84,10.69,10.69,0,0,1-.58-1.84,7.38,7.38,0,0,1-.21-1.7,4.16,4.16,0,0,1,1.19-3.07,4.28,4.28,0,0,1,3.14-1.18,3.41,3.41,0,0,1,3.2,1.5c.61,1,.91,3,.91,5.93a3.84,3.84,0,0,1-.9,2.93c-.58.55-2.38,1.1-5.38,1.64q-7.72,1.41-10.63,3.5A6.68,6.68,0,0,0,239,89.53a6.57,6.57,0,0,0,2.5,5.45,10.9,10.9,0,0,0,6.91,2,16,16,0,0,0,6.85-1.41A10.32,10.32,0,0,0,259.92,91.68ZM251.18,91a4.08,4.08,0,0,1-1.09-3q0-4.11,8.29-6.51l.36-.08v4.7a7.31,7.31,0,0,1-1.16,4.48,4.15,4.15,0,0,1-3.51,1.49A4,4,0,0,1,251.18,91Z"/><path class="cls-3" d="M280.8,82.05q0,9,2.42,12c1.64,2,4.44,3,8.44,3A15.54,15.54,0,0,0,297.57,96a14.88,14.88,0,0,0,4.95-3.22l-1.27-2.2A8,8,0,0,1,299,92.07a5.9,5.9,0,0,1-2.33.51,4.17,4.17,0,0,1-3.76-1.84c-.8-1.23-1.19-3.18-1.19-5.87V71.47l7.25.18V67.79l-7.25.12V59.14h-4.87A11,11,0,0,1,284,66a10.8,10.8,0,0,1-6.74,2.87v2.61h3.59Z"/><path class="cls-3" d="M314.17,94.94a41.88,41.88,0,0,0,5.29,1.1,42.41,42.41,0,0,0,5.18.44V94.35c-2-.19-3.31-.74-4-1.67s-1-3.32-1-7.13V75.92c0-2.3,0-4.13.11-5.52a31.06,31.06,0,0,1,.42-3.8l-1.92-1.18c-.73.39-1.43.81-2,1.21a20.76,20.76,0,0,0-1.75,1.26c-.46,0-.89,0-1.35,0h-1.36c-1,0-2.1,0-3.3.17s-2.52.28-4,.48v2.15h.35c1.63,0,2.72.41,3.22,1.22s.82,3,.82,6.63v6.33c0,4.26-.37,6.87-1.06,7.88s-2,1.54-4,1.65v2.13a37.24,37.24,0,0,0,5-.41A55,55,0,0,0,314.17,94.94Z"/><path class="cls-3" d="M313.48,62.1a5.27,5.27,0,0,0,3.87-1.58,5.35,5.35,0,0,0,1.59-3.88,5.46,5.46,0,0,0-1.57-3.89,5.68,5.68,0,0,0-7.8,0,5.63,5.63,0,0,0,0,7.77A5.31,5.31,0,0,0,313.48,62.1Z"/><path class="cls-3" d="M359.41,69.84q-5.1-4.41-13.42-4.42c-5.58,0-10.07,1.48-13.45,4.41a14.47,14.47,0,0,0-5.11,11.48,14.5,14.5,0,0,0,5.11,11.5q5.07,4.38,13.45,4.37t13.42-4.37a14.48,14.48,0,0,0,5.09-11.5A14.49,14.49,0,0,0,359.41,69.84ZM351,91a5.45,5.45,0,0,1-10,0c-1.1-2.19-1.67-5.43-1.67-9.77s.57-7.54,1.67-9.72a5.46,5.46,0,0,1,10,0c1.16,2.2,1.75,5.45,1.75,9.71S352.17,88.82,351,91Z"/><path class="cls-3" d="M372.83,84.35c0,4.45-.32,7.19-.94,8.23s-1.82,1.61-3.61,1.74l.05,2.16a40.93,40.93,0,0,0,4.56-.44c1.64-.21,3.38-.55,5.28-1a47.56,47.56,0,0,0,5.08,1,43.18,43.18,0,0,0,4.87.44l0-2.13c-1.82-.17-3-.76-3.68-1.77s-1-3.62-1-7.76V79.58q0-4.86,1.42-7.27a4.68,4.68,0,0,1,4.27-2.38,4.28,4.28,0,0,1,4.18,2.3c.78,1.52,1.17,4.72,1.17,9.53,0,3.1-.05,5.89-.15,8.42s-.26,4.59-.43,6.3a28.59,28.59,0,0,0,3.16-.49,30.55,30.55,0,0,0,3.32-.92,44.21,44.21,0,0,0,5,1.07,31.44,31.44,0,0,0,4.56.34V94.35c-1.8-.17-3-.74-3.68-1.77s-.94-3.58-.94-7.7V80.13c0-5.12-.95-8.84-2.83-11.19s-4.83-3.52-8.89-3.52a13.29,13.29,0,0,0-6.42,1.48A10.11,10.11,0,0,0,383,71.12l-.7-.24c0-.74.1-1.46.17-2.2s.19-1.46.33-2.23l-1.61-1a13.81,13.81,0,0,0-1.53.9c-.59.38-1.23.86-2,1.42l-.76,0c-.35,0-.61,0-.81,0-1.09,0-2.3,0-3.57.16s-2.69.28-4.26.53v2.15h.52c1.6,0,2.67.44,3.21,1.31s.82,3.23.82,7.06v5.46Z"/><path class="cls-3" d="M417.3,96a27.15,27.15,0,0,0,8.6,1.11q7.43,0,11.53-2.63a8.3,8.3,0,0,0,4.12-7.36,7.47,7.47,0,0,0-2.15-5.54Q437.27,79.36,431,77c-3-1.16-4.9-2-5.62-2.7a3.23,3.23,0,0,1-1.11-2.49,3.05,3.05,0,0,1,1.29-2.5,5.44,5.44,0,0,1,3.35-1,7.44,7.44,0,0,1,5.12,1.9,10.45,10.45,0,0,1,3,5.46h2.62a15.55,15.55,0,0,0-.17-2.19,13.18,13.18,0,0,0-.44-2,5.18,5.18,0,0,0,.68-1.19,2.89,2.89,0,0,0,.21-1c0-1.08-1.06-2-3.17-2.72a24.73,24.73,0,0,0-8-1.1c-4.61,0-8.16.79-10.65,2.42a8.32,8.32,0,0,0-1.78,12.31,17.69,17.69,0,0,0,6.58,4c.54.2,1.34.49,2.33.87,4.06,1.51,6.11,3.21,6.11,5.07a3.53,3.53,0,0,1-1.49,3,6.46,6.46,0,0,1-3.94,1.11,7.86,7.86,0,0,1-6-2.39,10.43,10.43,0,0,1-2.6-6.62h-3A24.53,24.53,0,0,0,414.5,88a30,30,0,0,0,.5,3,5.67,5.67,0,0,0-.68,1.22,2.7,2.7,0,0,0-.22.92C414.1,94.29,415.15,95.27,417.3,96Z"/><path class="cls-3" d="M283.1,110c-3.37-3.06-7.67-4.59-12.94-4.59a18.52,18.52,0,0,0-12.93,4.6,16.1,16.1,0,0,0,0,23.38A18.48,18.48,0,0,0,270.16,138c5.27,0,9.57-1.53,12.94-4.61a15.21,15.21,0,0,0,5.06-11.72A15,15,0,0,0,283.1,110Zm-6.67,22.21a7.13,7.13,0,0,1-12.52,0c-1.48-2.48-2.2-6-2.2-10.54s.72-8,2.2-10.5a7.15,7.15,0,0,1,12.52,0q2.22,3.7,2.22,10.49C278.65,126.23,277.91,129.73,276.43,132.21Z"/><path class="cls-3" d="M309.06,134.38a8.32,8.32,0,0,1-2.53.37,6.8,6.8,0,0,1-5.75-3,13,13,0,0,1-2.2-7.8,7.84,7.84,0,0,1,1.14-4.54,3.69,3.69,0,0,1,3.18-1.62,3.46,3.46,0,0,1,2.82,1.42,8.07,8.07,0,0,1,1.53,4,6.67,6.67,0,0,0,3.29-.81,2.31,2.31,0,0,0,1.09-2.06,4,4,0,0,0-2.08-3.38,9.56,9.56,0,0,0-5.38-1.35,13.69,13.69,0,0,0-9.51,3.33,10.92,10.92,0,0,0-3.7,8.57,9.8,9.8,0,0,0,3.07,7.63,12,12,0,0,0,8.36,2.8,17.93,17.93,0,0,0,5.69-.86,10.71,10.71,0,0,0,4.18-2.44l-.82-1.47A8.82,8.82,0,0,1,309.06,134.38Z"/><path class="cls-3" d="M333.14,134a9.79,9.79,0,0,1-3.29.6,7.51,7.51,0,0,1-5.63-2.32,8,8,0,0,1-2.22-5.73,1.47,1.47,0,0,1,.43-1.26,3.47,3.47,0,0,1,1.75-.3h11.9c0-.35.07-.61.08-.81a4,4,0,0,0,0-.48,7.25,7.25,0,0,0-2.82-5.79,10.81,10.81,0,0,0-7.06-2.35,12,12,0,0,0-8.65,3.29,11,11,0,0,0-3.44,8.31,10.24,10.24,0,0,0,3.17,7.83,11.82,11.82,0,0,0,8.41,3,17.65,17.65,0,0,0,6.46-1.14,10.89,10.89,0,0,0,4.56-3.15l-.73-1.38A10.14,10.14,0,0,1,333.14,134ZM321.8,122.85v-.54a5.58,5.58,0,0,1,.95-3.39,3.13,3.13,0,0,1,2.6-1.31A3.4,3.4,0,0,1,328.1,119a4.82,4.82,0,0,1,1.17,3.24.85.85,0,0,1-.25.72,1.87,1.87,0,0,1-1,.2h-6.14A2,2,0,0,0,321.8,122.85Z"/><path class="cls-3" d="M362.7,133.9a2.35,2.35,0,0,1-.59.09,1.44,1.44,0,0,1-1.43-.9,12.23,12.23,0,0,1-.38-4v-4.29c0-3.24-.73-5.57-2.16-7s-3.78-2.13-7-2.13a14.46,14.46,0,0,0-7.1,1.52c-1.82,1-2.71,2.31-2.71,3.9a2.52,2.52,0,0,0,.79,2,2.93,2.93,0,0,0,2.1.74,7.77,7.77,0,0,0,1.88-.19,6.12,6.12,0,0,0,1.61-.6,8.93,8.93,0,0,1-.41-1.28,4.64,4.64,0,0,1-.14-1.19,3,3,0,0,1,.82-2.16,2.94,2.94,0,0,1,2.19-.83,2.35,2.35,0,0,1,2.24,1.06,9.35,9.35,0,0,1,.63,4.18,2.82,2.82,0,0,1-.63,2.08c-.39.39-1.66.78-3.75,1.15-3.61.67-6.1,1.48-7.48,2.46a4.72,4.72,0,0,0-2,4.05,4.66,4.66,0,0,0,1.74,3.85,7.62,7.62,0,0,0,4.83,1.38,11.15,11.15,0,0,0,4.81-1,7.36,7.36,0,0,0,3.25-2.71,4.51,4.51,0,0,0,1.52,2.77,4.67,4.67,0,0,0,3,.93,6.5,6.5,0,0,0,3-.83,9.4,9.4,0,0,0,2.78-2.21l-.58-1.14A6,6,0,0,1,362.7,133.9Zm-9.78-3.69a5.15,5.15,0,0,1-.83,3.13,2.87,2.87,0,0,1-2.44,1.07,2.68,2.68,0,0,1-2-.8,2.83,2.83,0,0,1-.77-2.08c0-1.93,1.94-3.44,5.76-4.55l.27-.06Z"/><path class="cls-3" d="M392.34,134.75c-.44-.71-.67-2.51-.67-5.4V126c0-3.64-.66-6.28-2-7.94s-3.39-2.49-6.24-2.49a9.44,9.44,0,0,0-4.51,1.05,7.12,7.12,0,0,0-3,3l-.51-.18c0-.52.08-1.05.14-1.58s.13-1,.21-1.58l-1.12-.75c-.31.17-.68.38-1.09.64s-.85.62-1.36,1l-.57,0h-.53c-.78,0-1.65,0-2.54.11s-1.91.21-3,.41v1.52H366a2.48,2.48,0,0,1,2.27.92c.4.61.57,2.26.57,5V129c0,3.14-.2,5.07-.64,5.78A3,3,0,0,1,365.6,136l0,1.48a27.75,27.75,0,0,0,3.23-.32c1.14-.18,2.39-.41,3.74-.72,1.2.31,2.35.54,3.49.72a28.59,28.59,0,0,0,3.37.32l0-1.47a3,3,0,0,1-2.52-1.25q-.67-1.08-.67-5.44v-3.67a10.35,10.35,0,0,1,1-5.14,3.24,3.24,0,0,1,3-1.7,3,3,0,0,1,2.93,1.62c.55,1.08.82,3.33.82,6.71,0,2.16,0,4.15-.12,5.9s-.18,3.26-.3,4.44a16.18,16.18,0,0,0,2.23-.37c.76-.17,1.54-.41,2.33-.67a29.8,29.8,0,0,0,3.49.78,19.32,19.32,0,0,0,3.16.26V136A3,3,0,0,1,392.34,134.75Z"/><path class="cls-3" d="M415.55,134a9.65,9.65,0,0,1-3.29.6,7.52,7.52,0,0,1-5.63-2.32,8,8,0,0,1-2.19-5.73c0-.64.12-1,.4-1.26a3.51,3.51,0,0,1,1.77-.3h11.87c0-.35.08-.61.09-.81a4,4,0,0,0,0-.48,7.28,7.28,0,0,0-2.82-5.79,10.81,10.81,0,0,0-7.08-2.35,12,12,0,0,0-8.62,3.29,11.05,11.05,0,0,0-3.45,8.31,10.18,10.18,0,0,0,3.19,7.83,11.78,11.78,0,0,0,8.4,3,17.68,17.68,0,0,0,6.45-1.14,10.89,10.89,0,0,0,4.56-3.15l-.72-1.38A10.19,10.19,0,0,1,415.55,134Zm-11.32-11.19a5,5,0,0,1,0-.54,5.65,5.65,0,0,1,1-3.39,3.11,3.11,0,0,1,2.61-1.31,3.49,3.49,0,0,1,2.76,1.38,4.89,4.89,0,0,1,1.14,3.24.8.8,0,0,1-.27.72,1.76,1.76,0,0,1-1,.2h-6.12S404.24,123,404.23,122.85Z"/><path class="cls-3" d="M434.28,123.83a15.54,15.54,0,0,1-4-1.89,2.22,2.22,0,0,1-.78-1.73,2.17,2.17,0,0,1,.9-1.76,4,4,0,0,1,2.36-.66,5.27,5.27,0,0,1,3.63,1.32,7.42,7.42,0,0,1,2.07,3.81h1.84a9.74,9.74,0,0,0-.12-1.55,8.43,8.43,0,0,0-.31-1.38,3.7,3.7,0,0,0,.48-.83,1.64,1.64,0,0,0,.15-.7c0-.74-.75-1.4-2.23-1.91a17.55,17.55,0,0,0-5.63-.78c-3.23,0-5.73.58-7.47,1.74a5.81,5.81,0,0,0-1.24,8.63,12.27,12.27,0,0,0,4.58,2.83l1.63.61c2.89,1,4.33,2.23,4.33,3.51a2.48,2.48,0,0,1-1.05,2.08,4.51,4.51,0,0,1-2.79.76,5.51,5.51,0,0,1-4.18-1.65,7.16,7.16,0,0,1-1.84-4.59h-2.07a14.62,14.62,0,0,0,.12,1.82c.08.64.19,1.33.35,2.07a5.83,5.83,0,0,0-.48.84,1.66,1.66,0,0,0-.15.65c0,.83.74,1.49,2.24,2a19.85,19.85,0,0,0,6,.76c3.48,0,6.19-.61,8.09-1.83a5.79,5.79,0,0,0,2.9-5.15,5.3,5.3,0,0,0-1.5-3.86C439.16,126,437.18,124.92,434.28,123.83Z"/><path class="cls-3" d="M268.73,117.32c-1-1.56-2.74-1.88-5.2-1.88l-1.62,0h0l-1.11,0h-.07c-4.19,0-8.56-3.18-10.91-4.88l-1-.75-.06,0a17.27,17.27,0,0,0-3.11-2c-.18-2.8-1.29-6.49-2.61-10.66-.28-.87-.57-1.78-.82-2.61a30.67,30.67,0,0,1-.84-7.16c-.12-3.12-.21-5.38-2.6-6.17a3.38,3.38,0,0,0-1-.17,3.81,3.81,0,0,0-2.86,1.41l-.48.58c-4.73,5.77-7,13.63-6.47,22.13.54,8.07-.4,9.35-1,10.2l0,0a22.61,22.61,0,0,1-4.83,3.7c-11.69,6.61-23.64,10-35.5,10-15.71,0-29.27-4.87-40.31-14.46s-16.48-21-16.48-34.29c0-13.51,5.12-24.1,15.66-32.38s24.88-12.53,42.43-12.53a90.63,90.63,0,0,1,31.08,5.49c3.73,1.47,5,1.67,5.82,1.67A9.18,9.18,0,0,0,232.3,39c1.71-2.18,2.57-5.15,2.57-8.86,0-7-2.24-11.84-6.67-14.25-3.93-2.16-11.63-3.2-23.56-3.2a111.49,111.49,0,0,0-30.1,4.21A113.4,113.4,0,0,0,146.3,29.07a93.23,93.23,0,0,0-21.89,17.3,62.81,62.81,0,0,0-12.69,20.45,34.92,34.92,0,0,0-7.26,11.35,41,41,0,0,0-2.29,14.46c0,16.21,6.38,30,19,41.13s28.25,16.58,47,16.58a96.12,96.12,0,0,0,27.23-4,101.53,101.53,0,0,0,25.46-11.43,72.24,72.24,0,0,0,8.95-6.54l.41-.34.56-.49c.25-.19,1.25-.93,1.79-1.29a6.08,6.08,0,0,1,3.95-1.34,58.08,58.08,0,0,1,6.67.74h.05c.95.14,2.14.31,3.45.48a45.7,45.7,0,0,0,6.17.44,32,32,0,0,0,9-1.19c2.94-.87,5.31-2.19,6.48-3.62h0a4.63,4.63,0,0,0,.62-1A3.6,3.6,0,0,0,268.73,117.32Z"/><path class="cls-2" d="M260.58,118.7c-5.13,0-10-3.52-12.71-5.46s-4.05-3.3-5.83-2.65c1.47-2.24-1.31-9.7-2.92-15s-.38-12.82-1.92-11c-4.5,5.18-6.67,12.39-6.14,20.31s-.24,10.43-1.65,12.37a17.11,17.11,0,0,1-2.68,2.61c-.56.26-1.35.69-2.39,1.28q-18.78,10.85-37.82,10.83-24.74,0-42.2-15.17T126.85,80.29q0-21.45,16.76-34.64T187.82,32.5A93.2,93.2,0,0,1,220,38.19a18.64,18.64,0,0,0,4.76,1.47,6.35,6.35,0,0,0,5.3-2.5c1.33-1.66,2-4,2-7.07,0-5.92-1.72-9.84-5.18-11.73S216,15.52,204.64,15.52a108.2,108.2,0,0,0-29.33,4.11,109.7,109.7,0,0,0-27.56,11.92,89.57,89.57,0,0,0-21.2,16.78,59,59,0,0,0-12.32,20,32,32,0,0,0-7.07,10.81,38,38,0,0,0-2.11,13.45q0,23.12,18,39t45.08,15.85a93,93,0,0,0,26.42-3.91,98,98,0,0,0,24.75-11.13,52.24,52.24,0,0,0,8.46-6.14,13.15,13.15,0,0,0,1.41-1.6l1.66-1.11c4.15-2.77,5.79-2.07,16.36-.64,12.32,1.66,18.35-2.27,18.87-3.42S262.7,118.71,260.58,118.7Z"/><path class="cls-1" d="M267.32,118.27c-.76-1.16-2.46-1.18-5.41-1.11l-1.27,0c-4.72,0-9.36-3.38-11.86-5.18l-1.1-.81A11.13,11.13,0,0,0,244,109c.11-2.59-1-6.38-2.56-11.31-.29-.92-.57-1.8-.82-2.63a31.36,31.36,0,0,1-.92-7.57c-.11-2.84-.16-4.26-1.49-4.7a1.9,1.9,0,0,0-2.08.73C231.32,89,229,96.64,229.55,105c.54,8-.33,10-1.35,11.34-.71,1-4.1,3.8-9.9,6.74a71.85,71.85,0,0,1-31.78,7.75c-16.15,0-30.11-5-41.49-14.9S128,94.09,128,80.29,133.44,55,144.29,46.52,169.88,33.6,187.82,33.6a92.31,92.31,0,0,1,31.74,5.62c3.48,1.37,4.59,1.54,5.16,1.54a7.49,7.49,0,0,0,6.17-2.92c1.46-1.83,2.2-4.44,2.2-7.75,0-6.34-1.92-10.61-5.75-12.7-3.64-2-11.06-3-22.7-3a112.25,112.25,0,0,0-57.45,16.19,91.11,91.11,0,0,0-21.46,17,60.76,60.76,0,0,0-12.46,20.2,33.55,33.55,0,0,0-7.14,11A39.19,39.19,0,0,0,104,92.63c0,15.67,6.17,29.06,18.36,39.8s27.52,16.12,45.81,16.12a94.77,94.77,0,0,0,26.73-3.94,100.12,100.12,0,0,0,15.71-6.08l.37-.18c2.62-1.39,5.29-2.83,7.8-4.3l1.15-.71a99.67,99.67,0,0,0,8.58-6.23s2.42-1.79,3.16-2.29c3.15-2.1,4.47-1.91,11.8-.87l3.5.48a34.63,34.63,0,0,0,14.49-.7c2.61-.76,4.71-1.91,5.63-3a2.71,2.71,0,0,0,.38-.6A1.89,1.89,0,0,0,267.32,118.27Zm-1.27,1.24c-.52,1.15-6.55,5.08-18.87,3.42-10-1.35-12-2.05-15.66.19l-.34.21-.07,0c-2,1.28-5.52,3.74-6.82,4.64-1.61,1.18-3.81,2.61-5.82,3.85a94.69,94.69,0,0,1-24.23,10.63,92.62,92.62,0,0,1-26.12,3.85c-17.75,0-32.66-5.24-44.36-15.56s-17.61-23.16-17.61-38.16a37,37,0,0,1,2-13.06A31.33,31.33,0,0,1,115,69.15l.23-.29.06-.12a58.28,58.28,0,0,1,12.08-19.69,89.45,89.45,0,0,1,21-16.56,108.36,108.36,0,0,1,27.3-11.8,107,107,0,0,1,29-4.08c11.08,0,18.37.91,21.65,2.71,3.06,1.66,4.6,5.29,4.6,10.77,0,2.8-.58,4.95-1.73,6.4a5.3,5.3,0,0,1-4.44,2.07c-.2,0-1.1-.1-4.38-1.4a94.68,94.68,0,0,0-32.52-5.76c-18.47,0-33.58,4.51-44.88,13.4s-17.19,20.88-17.19,35.49c0,14.46,6,27,17.84,37.29S169.82,133,186.52,133a73.62,73.62,0,0,0,35.77-9.53c3.26-1.92,5.76-3.72,7.63-6.27,1.63-2.24,1.66-4.46,1.14-12.39s1.64-15.13,6.14-20.31c1.54-1.77.32,5.74,1.92,11s4.39,12.78,2.92,15c1.78-.65,3.15.72,5.83,2.65s7.58,5.43,12.71,5.46C262.7,118.71,266.56,118.36,266.05,119.51Z"/><path class="cls-3" d="M422.41,140c.25,0,.54,0,.85.07s.65.08,1,.13l1-.13c.31,0,.59-.06.85-.07v.23a1.13,1.13,0,0,0-.87.38,3.35,3.35,0,0,0-.22,1.56V145a3.37,3.37,0,0,0,.23,1.61,1.05,1.05,0,0,0,.86.39v.24c-.26,0-.54,0-.85-.07l-1-.12-1.08.13-.77.06V147a1,1,0,0,0,.86-.38,3.15,3.15,0,0,0,.23-1.56v-2.84a3.4,3.4,0,0,0-.23-1.61,1.09,1.09,0,0,0-.86-.4Z"/><path class="cls-3" d="M427.69,145.28v-.77a2.73,2.73,0,0,0-.15-1.19.65.65,0,0,0-.57-.22h-.11v-.23l.81-.11a5.29,5.29,0,0,1,.66,0l.23-.18.23-.14.19.09-.05.47,0,.49.08,0a1.77,1.77,0,0,1,.74-.79,2.41,2.41,0,0,1,1.15-.25,1.75,1.75,0,0,1,1.42.52,2.77,2.77,0,0,1,.44,1.75v.75a3,3,0,0,0,.17,1.29.86.86,0,0,0,.67.28v.23a5.28,5.28,0,0,1-.66,0c-.23,0-.48-.07-.75-.13l-.39.11a4.34,4.34,0,0,1-.47.07,7.47,7.47,0,0,0,0-.78c0-.3,0-.72,0-1.25a4.37,4.37,0,0,0-.24-1.81.87.87,0,0,0-.85-.44,1.06,1.06,0,0,0-.92.43,2.21,2.21,0,0,0-.31,1.28v.77a2.81,2.81,0,0,0,.17,1.29.88.88,0,0,0,.67.28v.23a5,5,0,0,1-.64,0l-.87-.13c-.32,0-.61.1-.85.12a4.25,4.25,0,0,1-.67.06V147a.9.9,0,0,0,.68-.28,3.32,3.32,0,0,0,.17-1.38Z"/><path class="cls-3" d="M438,143.93a1.64,1.64,0,0,0-.44-.85,1.17,1.17,0,0,0-.8-.29,1.13,1.13,0,0,0-.93.44,1.76,1.76,0,0,0-.37,1.15,2.49,2.49,0,0,0,.6,1.72,1.91,1.91,0,0,0,1.51.68,2.21,2.21,0,0,0,.69-.1,2.27,2.27,0,0,0,.63-.3l.15.23a2.64,2.64,0,0,1-1,.56,3.91,3.91,0,0,1-1.31.21,2.81,2.81,0,0,1-1.93-.64,2.21,2.21,0,0,1-.72-1.72,2.35,2.35,0,0,1,.87-1.86,3.23,3.23,0,0,1,2.19-.72,2.61,2.61,0,0,1,1.23.25.77.77,0,0,1,.47.66l-.23.4A1.32,1.32,0,0,1,438,143.93Z"/><path class="cls-3" d="M440.9,146a.77.77,0,0,1,.52.19.61.61,0,0,1,0,1,.77.77,0,0,1-.52.2.72.72,0,0,1-.52-.2.63.63,0,0,1-.22-.47.66.66,0,0,1,.22-.48A.81.81,0,0,1,440.9,146Z"/><path class="cls-3" d="M111.53,15.05a1.63,1.63,0,0,1,.49-.68,2.09,2.09,0,0,1,.75-.43c.32-.12.49-.27.49-.45l-.11-.35-.32-.12-.4,0a27.68,27.68,0,0,1-2.8.16,18,18,0,0,1-1.91-.1l-1-.09a.6.6,0,0,0-.42.12l-.14.35c0,.26.26.43.78.49a2.38,2.38,0,0,1,1.15.39,2.32,2.32,0,0,1,.49.86,6.3,6.3,0,0,1,.15,1.57v8.86a3.22,3.22,0,0,1-.23,1.32,1.49,1.49,0,0,1-.69.73,4,4,0,0,1-.53.32c-.36.19-.54.38-.54.58l.14.35a.68.68,0,0,0,.42.11l1.22-.09c.8-.07,1.58-.1,2.35-.1s1.44,0,2.37.1,1.56.09,1.86.09a4.7,4.7,0,0,0,1.8-.3,2.75,2.75,0,0,0,1.19-1,5.64,5.64,0,0,0,.61-1.28,4,4,0,0,0,.26-1.2l-.09-.31-.24-.14c-.14,0-.33.21-.57.61a4,4,0,0,1-.82,1,5.15,5.15,0,0,1-1.79,1,7.08,7.08,0,0,1-2.23.36,2.39,2.39,0,0,1-1.42-.3c-.24-.21-.36-.76-.36-1.67V16.58A5.69,5.69,0,0,1,111.53,15.05Z"/><path class="cls-3" d="M124.49,14.39a2.59,2.59,0,0,1,1.42-.28,8.82,8.82,0,0,1,2.59.28,1.92,1.92,0,0,1,1.18,1,2.5,2.5,0,0,1,.18.8q0,.54.42.54l.29-.09a.62.62,0,0,0,.07-.37v-.2c0-.59,0-1.17,0-1.74v-.46a1.09,1.09,0,0,0-.15-.69,1.28,1.28,0,0,0-.75-.14c-.26,0-1.05,0-2.36.09s-2.51.1-3.57.1c-1.47,0-2.84-.06-4.09-.17l-.27,0a.66.66,0,0,0-.42.12l-.15.35c0,.26.25.43.78.51a2.26,2.26,0,0,1,1.17.46,1.75,1.75,0,0,1,.47.77,6.29,6.29,0,0,1,.13,1.59v8.85A3.44,3.44,0,0,1,121.2,27a1.6,1.6,0,0,1-.69.76,3.18,3.18,0,0,1-.5.29c-.36.18-.54.38-.54.58l.14.34a.66.66,0,0,0,.4.11l1.23-.09c.79-.07,1.57-.1,2.33-.1s1.42,0,2.36.1,1.55.09,1.86.09a4.74,4.74,0,0,0,1.8-.3,2.78,2.78,0,0,0,1.18-1,5.27,5.27,0,0,0,.63-1.28,3.93,3.93,0,0,0,.25-1.2l-.09-.32-.23-.13c-.14,0-.33.21-.57.61a4.44,4.44,0,0,1-.86,1,5.05,5.05,0,0,1-1.79.95,7,7,0,0,1-2.22.36,2.23,2.23,0,0,1-1.45-.34,2.74,2.74,0,0,1-.35-1.73V22.17a1.71,1.71,0,0,1,.2-1,1,1,0,0,1,.75-.23h.88a3.65,3.65,0,0,1,1.54.25,1.66,1.66,0,0,1,.74.92,3.39,3.39,0,0,1,.15.67c.06.4.21.61.45.61l.25-.1.08-.33s0-.15,0-.34c-.07-.95-.09-1.88-.09-2.8a8.44,8.44,0,0,1,0-1l.06-.5-.09-.35-.27-.13c-.25,0-.46.22-.65.63a3.76,3.76,0,0,1-.35.66,1.69,1.69,0,0,1-.76.59,3.38,3.38,0,0,1-1.22.18h-.73a1,1,0,0,1-.74-.23.92.92,0,0,1-.23-.72V15.39A1.14,1.14,0,0,1,124.49,14.39Z"/><path class="cls-3" d="M133.94,27.83a.76.76,0,0,0,.7.61,9.41,9.41,0,0,1,1.64.42,6.49,6.49,0,0,0,1.92.36,4.74,4.74,0,0,0,5.08-5.08,5.38,5.38,0,0,0-.34-2,4.11,4.11,0,0,0-1-1.53A9.43,9.43,0,0,0,139,19.11l-.62-.23a7.84,7.84,0,0,1-2.49-1.33,2.08,2.08,0,0,1-.69-1.57,2,2,0,0,1,.71-1.59,2.61,2.61,0,0,1,1.8-.64,4.1,4.1,0,0,1,2.08.57,4.29,4.29,0,0,1,1.57,1.51,5.24,5.24,0,0,1,.6,1.4c.14.48.32.73.54.73l.26-.11.09-.31a10.57,10.57,0,0,0-.17-1.44,10.23,10.23,0,0,1-.16-1.53c0-.12,0-.27,0-.45l0-.34a.55.55,0,0,0-.1-.39l-.29-.11a1.06,1.06,0,0,0-.38.15,1.24,1.24,0,0,1-.6.15,5.23,5.23,0,0,1-1.34-.42,5.47,5.47,0,0,0-2-.42A4.26,4.26,0,0,0,134.65,14a4.21,4.21,0,0,0-1.26,3.1,4.2,4.2,0,0,0,.76,2.62,9.92,9.92,0,0,0,3.71,2.2l.1,0c2.41,1,3.62,2.09,3.62,3.23a2.85,2.85,0,0,1-.88,2.17,3.12,3.12,0,0,1-2.23.83,3.6,3.6,0,0,1-2.08-.71,6.15,6.15,0,0,1-1.75-2,8.08,8.08,0,0,1-.6-1.36c-.17-.5-.34-.74-.5-.74l-.37.11a.7.7,0,0,0-.1.41l0,.15.06.25.74,3.27Z"/><rect class="cls-2" x="146.32" y="155.37" width="1.86" height="10.22"/><path class="cls-2" d="M149.94,158.13h6.46a4.52,4.52,0,0,1,1.34.15,1.6,1.6,0,0,1,.77.54,3.21,3.21,0,0,1,.58,2v4.75h-1.76v-4.43a4.31,4.31,0,0,0,0-.75l-.18-.38a1.07,1.07,0,0,0-.83-.31h-.94v5.87h-1.75v-5.87h-1.9v5.87h-1.75Z"/><path class="cls-2" d="M160.71,158.13h3.08a5.59,5.59,0,0,1,1.35.13,2.15,2.15,0,0,1,.88.51,4.16,4.16,0,0,1,1.14,3.21,4.06,4.06,0,0,1-.84,2.66,2.56,2.56,0,0,1-1,.73,3.55,3.55,0,0,1-1.34.22h-1.55v2.81h-1.76Zm1.76,1.59V164h1.08a1.61,1.61,0,0,0,1.25-.43,3,3,0,0,0,.12-3.3,1.52,1.52,0,0,0-1.25-.55Z"/><path class="cls-2" d="M168.46,158.13h2.6a4.51,4.51,0,0,1,1.24.13,1.56,1.56,0,0,1,.73.44,1.6,1.6,0,0,1,.4.76,5.48,5.48,0,0,1,.12,1.31v.73h-1.68v-.41a1.76,1.76,0,0,0-.25-1.08,1.14,1.14,0,0,0-.9-.29h-.5v5.87h-1.76Z"/><path class="cls-2" d="M174.51,157.37v-2h1.76v2Zm0,.76h1.76v7.46h-1.76Z"/><path class="cls-2" d="M178,158.13h6.46a4.52,4.52,0,0,1,1.34.15,1.6,1.6,0,0,1,.77.54,3.21,3.21,0,0,1,.57,2v4.75H185.4v-4.43a5.66,5.66,0,0,0,0-.75l-.19-.38a1,1,0,0,0-.82-.31h-.94v5.87h-1.76v-5.87h-1.89v5.87H178Z"/><path class="cls-2" d="M194,161.06v1.59h-3.7a1.45,1.45,0,0,0,.4,1,1.72,1.72,0,0,0,1.15.31H194v1.59h-2.34a4.23,4.23,0,0,1-1.24-.15,2.61,2.61,0,0,1-.91-.54,4,4,0,0,1-1.16-3.14,4.44,4.44,0,0,1,.62-2.36,2.62,2.62,0,0,1,1-1,3.57,3.57,0,0,1,1.55-.29H194v1.59h-2.34a1.43,1.43,0,0,0-1,.29,1.67,1.67,0,0,0-.35,1.05Z"/><path class="cls-2" d="M195.47,158.13h2.6a4.41,4.41,0,0,1,1.24.13,1.52,1.52,0,0,1,.73.44,1.81,1.81,0,0,1,.41.76,6.18,6.18,0,0,1,.11,1.31v.73h-1.69v-.41a1.77,1.77,0,0,0-.24-1.08,1.14,1.14,0,0,0-.9-.29h-.5v5.87h-1.76Z"/><path class="cls-2" d="M201.52,157.37v-2h1.76v2Zm0,.76h1.76v7.46h-1.76Z"/><path class="cls-2" d="M210.24,161.06v1.59h-3.71a1.46,1.46,0,0,0,.41,1,1.7,1.7,0,0,0,1.15.31h2.15v1.59H207.9a4.19,4.19,0,0,1-1.24-.15,2.52,2.52,0,0,1-.91-.54,4,4,0,0,1-1.16-3.14,4.44,4.44,0,0,1,.61-2.36,2.64,2.64,0,0,1,1-1,3.57,3.57,0,0,1,1.55-.29h2.47v1.59H207.9a1.42,1.42,0,0,0-1,.29,1.61,1.61,0,0,0-.36,1.05Z"/><path class="cls-2" d="M218.52,158.78a1.83,1.83,0,1,1-1.3,3.12,1.74,1.74,0,0,1-.55-1.3,1.71,1.71,0,0,1,.54-1.29A1.85,1.85,0,0,1,218.52,158.78Z"/><path class="cls-2" d="M233.68,163.78v1.81h-3.05a6.46,6.46,0,0,1-1.33-.1,3.11,3.11,0,0,1-2.29-2.11,8,8,0,0,1-.45-2.87,7.1,7.1,0,0,1,.69-3.35,3.1,3.1,0,0,1,1.32-1.36,4.75,4.75,0,0,1,2.15-.43h3v1.82h-2.75a2.17,2.17,0,0,0-1.83.78,4.12,4.12,0,0,0-.48,2.34c0,1.5.25,2.5.75,3a2.35,2.35,0,0,0,1.63.49Z"/><path class="cls-2" d="M237.91,158a3,3,0,0,1,2.62,1.2,4.59,4.59,0,0,1,.78,2.73,3.93,3.93,0,0,1-1,2.8,3.16,3.16,0,0,1-2.44,1,3.12,3.12,0,0,1-2.51-1.07,4.23,4.23,0,0,1-.84-2.83,4.16,4.16,0,0,1,.8-2.61A3.1,3.1,0,0,1,237.91,158Zm0,1.57c-1.06,0-1.59.77-1.59,2.3a3.12,3.12,0,0,0,.26,1.42,1.42,1.42,0,0,0,1.34.83c1,0,1.56-.77,1.56-2.29S239,159.61,237.93,159.59Z"/><path class="cls-2" d="M242.61,158.13H246a3.89,3.89,0,0,1,1.16.13,1.64,1.64,0,0,1,.72.47,3.21,3.21,0,0,1,.67,2.27v4.59h-1.75v-4.83a1.2,1.2,0,0,0-.21-.79.92.92,0,0,0-.7-.25h-1.53v5.87h-1.76Z"/><path class="cls-2" d="M255.55,158.13v1.59h-2.11a1.74,1.74,0,0,0-1.47.56,2.66,2.66,0,0,0-.39,1.59,2.15,2.15,0,0,0,.64,1.74,1.52,1.52,0,0,0,.57.31,3.73,3.73,0,0,0,.86.08h1.9v1.59h-2.41a4.27,4.27,0,0,1-1.53-.22,2.39,2.39,0,0,1-1-.81,4.32,4.32,0,0,1-.82-2.72,4.06,4.06,0,0,1,1-3,2.19,2.19,0,0,1,.94-.56,5.08,5.08,0,0,1,1.43-.17Z"/><path class="cls-2" d="M262.12,161.06v1.59h-3.7a1.42,1.42,0,0,0,.41,1A1.7,1.7,0,0,0,260,164h2.14v1.59h-2.34a4.28,4.28,0,0,1-1.24-.15,2.49,2.49,0,0,1-.9-.54,4,4,0,0,1-1.17-3.14,4.44,4.44,0,0,1,.62-2.36,2.62,2.62,0,0,1,1-1,3.65,3.65,0,0,1,1.56-.29h2.46v1.59h-2.34a1.45,1.45,0,0,0-1,.29,1.67,1.67,0,0,0-.35,1.05Z"/><path class="cls-2" d="M263.57,158.13h3.08a5.59,5.59,0,0,1,1.35.13,2.06,2.06,0,0,1,.87.51A4.13,4.13,0,0,1,270,162a4.06,4.06,0,0,1-.84,2.66,2.52,2.52,0,0,1-1,.73,3.46,3.46,0,0,1-1.33.22h-1.55v2.81h-1.76Zm1.76,1.59V164h1.08a1.62,1.62,0,0,0,1.25-.43,3,3,0,0,0,.12-3.3,1.52,1.52,0,0,0-1.25-.55Z"/><path class="cls-2" d="M271.7,158.13v-2.76h1.76v2.76h1.63v1.59h-1.63v2.71a2.85,2.85,0,0,0,.15,1.2.84.84,0,0,0,.79.37h.69v1.59h-1.28a1.89,1.89,0,0,1-1.62-.64,3.62,3.62,0,0,1-.49-2.16v-3.07h-1.11v-1.59Z"/><path class="cls-2" d="M276.3,157.37v-2h1.76v2Zm0,.76h1.76v7.46H276.3Z"/><path class="cls-2" d="M282.74,158a3,3,0,0,1,2.61,1.2,4.59,4.59,0,0,1,.78,2.73,3.93,3.93,0,0,1-1,2.8,3.15,3.15,0,0,1-2.44,1,3.12,3.12,0,0,1-2.51-1.07,4.23,4.23,0,0,1-.83-2.83,4.1,4.1,0,0,1,.8-2.61A3.09,3.09,0,0,1,282.74,158Zm0,1.57c-1.06,0-1.58.77-1.58,2.3a3.14,3.14,0,0,0,.25,1.42,1.43,1.43,0,0,0,1.34.83c1.05,0,1.57-.77,1.57-2.29S283.8,159.61,282.75,159.59Z"/><path class="cls-2" d="M287.44,158.13h3.39a3.89,3.89,0,0,1,1.16.13,1.58,1.58,0,0,1,.72.47,3.21,3.21,0,0,1,.68,2.27v4.59h-1.76v-4.83a1.2,1.2,0,0,0-.21-.79.88.88,0,0,0-.69-.25h-1.54v5.87h-1.75Z"/><path class="cls-2" d="M301.87,158.78a1.84,1.84,0,0,1,1.8,1.82,1.83,1.83,0,0,1-1.83,1.83A1.84,1.84,0,0,1,300,160.6a1.71,1.71,0,0,1,.54-1.29A1.84,1.84,0,0,1,301.87,158.78Z"/><path class="cls-2" d="M310.28,155.37h1.86v5.74c0,.73.05,1.21.08,1.45a1.15,1.15,0,0,0,.58,1,4,4,0,0,0,1.7.26h1.79v1.81h-2a7.33,7.33,0,0,1-2-.18,2.73,2.73,0,0,1-1.83-2.15,11.23,11.23,0,0,1-.16-2.15Z"/><path class="cls-2" d="M322.56,161.06v1.59h-3.7a1.42,1.42,0,0,0,.41,1,1.72,1.72,0,0,0,1.15.31h2.14v1.59h-2.34a4.28,4.28,0,0,1-1.24-.15,2.7,2.7,0,0,1-.91-.54,4,4,0,0,1-1.15-3.14,4.44,4.44,0,0,1,.61-2.36,2.62,2.62,0,0,1,1-1,3.65,3.65,0,0,1,1.56-.29h2.46v1.59h-2.34a1.45,1.45,0,0,0-1,.29,1.67,1.67,0,0,0-.35,1.05Z"/><path class="cls-2" d="M324.5,158.13v-2.76h1.76v2.76h1.63v1.59h-1.63v2.71a3.11,3.11,0,0,0,.14,1.2.85.85,0,0,0,.79.37h.7v1.59h-1.28A1.89,1.89,0,0,1,325,165a3.62,3.62,0,0,1-.49-2.16v-3.07h-1.11v-1.59Z"/><path class="cls-2" d="M329.56,158.13v-2.76h1.76v2.76H333v1.59h-1.63v2.71a2.91,2.91,0,0,0,.14,1.2.85.85,0,0,0,.79.37h.7v1.59h-1.28A1.92,1.92,0,0,1,330,165a3.71,3.71,0,0,1-.48-2.16v-3.07h-1.12v-1.59Z"/><path class="cls-2" d="M334.16,158.13h2.6a4.38,4.38,0,0,1,1.23.13,1.55,1.55,0,0,1,.74.44,1.79,1.79,0,0,1,.4.76,5.48,5.48,0,0,1,.12,1.31v.73h-1.69v-.41a1.77,1.77,0,0,0-.24-1.08,1.14,1.14,0,0,0-.9-.29h-.51v5.87h-1.75Z"/><path class="cls-2" d="M344.55,161.06a1.52,1.52,0,0,0-.27-1.06,1.54,1.54,0,0,0-1.07-.28h-3v-1.59h3c.53,0,.9,0,1.1,0a3.61,3.61,0,0,1,.61.15c1,.43,1.43,1.45,1.39,3.08v4.2H342.6a9,9,0,0,1-1.38-.06,1.52,1.52,0,0,1-.66-.29,2.2,2.2,0,0,1-.79-1.86,2.91,2.91,0,0,1,.31-1.34,1.67,1.67,0,0,1,.82-.8,4.43,4.43,0,0,1,1.5-.18Zm0,1.59h-2.33a.66.66,0,0,0-.48.19.74.74,0,0,0-.17.5.59.59,0,0,0,.21.52,1.28,1.28,0,0,0,.74.15h2Z"/><path class="cls-2" d="M354.08,158.13v7.41a4.72,4.72,0,0,1-.13,1.12,2.48,2.48,0,0,1-.36.84,1.53,1.53,0,0,1-.72.58,3.44,3.44,0,0,1-1.25.17h-3.51v-1.59h3.27a1,1,0,0,0,.76-.21,1.38,1.38,0,0,0,.18-.86h-1.61a3.82,3.82,0,0,1-1.28-.18,2.47,2.47,0,0,1-.92-.64,4.15,4.15,0,0,1-1-2.91,3.77,3.77,0,0,1,1.17-3.09,2.64,2.64,0,0,1,.89-.5,4.33,4.33,0,0,1,1.18-.14Zm-1.76,1.59h-1.45c-1,0-1.53.72-1.53,2.15a2.65,2.65,0,0,0,.41,1.59,1.43,1.43,0,0,0,1.2.54h1.37Z"/><path class="cls-2" d="M361,161.06v1.59H357.3a1.46,1.46,0,0,0,.41,1,1.72,1.72,0,0,0,1.15.31H361v1.59h-2.34a4.23,4.23,0,0,1-1.24-.15,2.61,2.61,0,0,1-.91-.54,4,4,0,0,1-1.16-3.14,4.35,4.35,0,0,1,.62-2.36,2.62,2.62,0,0,1,1-1,3.57,3.57,0,0,1,1.55-.29H361v1.59h-2.34a1.42,1.42,0,0,0-1,.29,1.61,1.61,0,0,0-.36,1.05Z"/><path class="cls-2" d="M369.29,158.78a1.81,1.81,0,1,1-1.31.53A1.85,1.85,0,0,1,369.29,158.78Z"/><polygon class="cls-2" points="386.32 155.37 382.49 165.59 380.63 165.59 376.93 155.37 379.03 155.37 381.61 163.06 384.22 155.37 386.32 155.37"/><path class="cls-2" d="M392.43,161.06v1.59h-3.71a1.46,1.46,0,0,0,.41,1,1.72,1.72,0,0,0,1.15.31h2.15v1.59h-2.34a4.23,4.23,0,0,1-1.24-.15,2.61,2.61,0,0,1-.91-.54,4,4,0,0,1-1.16-3.14,4.44,4.44,0,0,1,.62-2.36,2.62,2.62,0,0,1,1-1,3.57,3.57,0,0,1,1.55-.29h2.47v1.59h-2.34a1.42,1.42,0,0,0-1,.29,1.67,1.67,0,0,0-.36,1.05Zm-2.2-5-.84,1.22h-1.27l1.4-2h1.41l1.39,2h-1.26Z"/><path class="cls-2" d="M394.34,158.13v-2.76h1.76v2.76h1.63v1.59H396.1v2.71a3.11,3.11,0,0,0,.14,1.2.86.86,0,0,0,.79.37h.7v1.59h-1.28a1.92,1.92,0,0,1-1.63-.64,3.71,3.71,0,0,1-.48-2.16v-3.07h-1.12v-1.59Z"/><path class="cls-2" d="M404,161.06v1.59h-3.71a1.42,1.42,0,0,0,.41,1,1.72,1.72,0,0,0,1.15.31H404v1.59h-2.35a4.28,4.28,0,0,1-1.24-.15,2.57,2.57,0,0,1-.9-.54,4,4,0,0,1-1.16-3.14,4.44,4.44,0,0,1,.61-2.36,2.69,2.69,0,0,1,1-1,3.65,3.65,0,0,1,1.56-.29H404v1.59h-2.35a1.4,1.4,0,0,0-1,.29,1.61,1.61,0,0,0-.36,1.05Z"/><path class="cls-2" d="M405.47,158.13h6.46a4.52,4.52,0,0,1,1.34.15,1.6,1.6,0,0,1,.77.54,3.21,3.21,0,0,1,.57,2v4.75h-1.75v-4.43a5.66,5.66,0,0,0,0-.75l-.19-.38a1,1,0,0,0-.82-.31h-.94v5.87h-1.76v-5.87h-1.89v5.87h-1.75Z"/><path class="cls-2" d="M421.48,161.06v1.59h-3.7a1.45,1.45,0,0,0,.4,1,1.72,1.72,0,0,0,1.15.31h2.15v1.59h-2.34a4.23,4.23,0,0,1-1.24-.15,2.61,2.61,0,0,1-.91-.54,4,4,0,0,1-1.16-3.14,4.44,4.44,0,0,1,.62-2.36,2.62,2.62,0,0,1,1-1,3.57,3.57,0,0,1,1.55-.29h2.47v1.59h-2.34a1.42,1.42,0,0,0-1,.29,1.67,1.67,0,0,0-.35,1.05Z"/><path class="cls-2" d="M422.93,158.13h3.39a3.85,3.85,0,0,1,1.16.13,1.67,1.67,0,0,1,.73.47,3.26,3.26,0,0,1,.67,2.27v4.59h-1.76v-4.83a1.2,1.2,0,0,0-.21-.79.88.88,0,0,0-.69-.25h-1.54v5.87h-1.75Z"/><path class="cls-2" d="M431,158.13v-2.76h1.76v2.76h1.62v1.59h-1.62v2.71a2.91,2.91,0,0,0,.14,1.2.84.84,0,0,0,.79.37h.69v1.59H433.1a1.91,1.91,0,0,1-1.63-.64,3.71,3.71,0,0,1-.48-2.16v-3.07h-1.12v-1.59Z"/><path class="cls-2" d="M441.13,158.13v1.59H438a2.38,2.38,0,0,0-.69.06.59.59,0,0,0-.3.6.71.71,0,0,0,.29.61,1.78,1.78,0,0,0,.85.12h1a2.31,2.31,0,0,1,1.57.5,2,2,0,0,1,.65,1.63,2.9,2.9,0,0,1-.39,1.48,1.45,1.45,0,0,1-.71.7,3.85,3.85,0,0,1-1.38.17h-3.63V164h3.12l.8,0c.31,0,.47-.24.47-.62a.64.64,0,0,0-.31-.63,1.77,1.77,0,0,0-.77-.1h-1.07a3.84,3.84,0,0,1-.95-.09,1.59,1.59,0,0,1-.63-.33,2.13,2.13,0,0,1-.56-.81,3,3,0,0,1-.2-1.1,2.31,2.31,0,0,1,.7-1.78,2.12,2.12,0,0,1,1.45-.39Z"/><path class="cls-3" d="M186,186.25a2.69,2.69,0,0,1-.94-.93,2.38,2.38,0,0,1-.28-1.23A2.09,2.09,0,0,1,186.1,182a7.59,7.59,0,0,1,2.35-.23c.9,0,1.52,0,1.88.05a2.81,2.81,0,0,1,.87.19,2,2,0,0,1,1,1,2.75,2.75,0,0,1,.27,1.21,2.1,2.1,0,0,1-1.26,2.05,3.13,3.13,0,0,1,.79.65,2.36,2.36,0,0,1,.42,1.42,2.56,2.56,0,0,1-.68,1.76,1.83,1.83,0,0,1-1,.54,9.19,9.19,0,0,1-1.95.15c-.57,0-1.1,0-1.61,0a2.49,2.49,0,0,1-1.72-.64,2.37,2.37,0,0,1-.73-1.73,2.33,2.33,0,0,1,.43-1.41A3.05,3.05,0,0,1,186,186.25Zm2.63-3a4.72,4.72,0,0,0-1.37.12,1,1,0,0,0-.57,1c0,.58.21.93.61,1a8.65,8.65,0,0,0,1.34.08c.62,0,1,0,1.11,0a1.14,1.14,0,0,0,.33-.07,1,1,0,0,0,.5-1,1,1,0,0,0-.68-1.07A5.45,5.45,0,0,0,188.63,183.22Zm0,3.73a4.35,4.35,0,0,0-1.38.13,1,1,0,0,0-.55,1q0,.88.6,1.08a10.13,10.13,0,0,0,1.33.08l1.1,0a1.07,1.07,0,0,0,.32-.08,1.25,1.25,0,0,0-.17-2.11A5.3,5.3,0,0,0,188.62,187Z"/><rect class="cls-3" x="193.78" y="181.78" width="1.73" height="8.94"/><path class="cls-3" d="M202.38,187h-2.75a6.69,6.69,0,0,1-1.38-.1,1.76,1.76,0,0,1-.76-.38,2.57,2.57,0,0,1-.79-2,2.62,2.62,0,0,1,1.21-2.33,4.2,4.2,0,0,1,2.3-.5,5.82,5.82,0,0,1,1.78.22,2.72,2.72,0,0,1,1.16.71,3.83,3.83,0,0,1,.91,1.67,7.15,7.15,0,0,1,.27,1.94,6.22,6.22,0,0,1-.57,2.7,2.67,2.67,0,0,1-1.72,1.56,6.92,6.92,0,0,1-1.89.19h-3v-1.58h2.49a3.74,3.74,0,0,0,2.12-.35,1.44,1.44,0,0,0,.46-.68A3.32,3.32,0,0,0,202.38,187Zm0-1.58a3.1,3.1,0,0,0-.36-1.56,1.21,1.21,0,0,0-.63-.53,3.49,3.49,0,0,0-1.17-.15,2.22,2.22,0,0,0-1.2.23,1.06,1.06,0,0,0-.41.93,1,1,0,0,0,.4.87,1.46,1.46,0,0,0,.92.21Z"/><path class="cls-3" d="M208.2,190.71v-1.58h3.5a1.54,1.54,0,0,0,1-.23,1,1,0,0,0,.31-.82,1,1,0,0,0-.4-.93,1.74,1.74,0,0,0-.89-.17H209V185.4h2.73a1.6,1.6,0,0,0,1-.21,1.2,1.2,0,0,0-.08-1.65.78.78,0,0,0-.32-.15,4.14,4.14,0,0,0-.6,0h-3.5v-1.58H212c.54,0,.89,0,1,0a1.91,1.91,0,0,1,.5.14,2,2,0,0,1,1,.93,2.71,2.71,0,0,1,.36,1.36,2.17,2.17,0,0,1-1.09,1.94,2.5,2.5,0,0,1,1.09,2.16,2.16,2.16,0,0,1-.87,1.9,2.55,2.55,0,0,1-.86.38,7.84,7.84,0,0,1-1.38.09Z"/><polygon class="cls-3" points="222.75 181.78 222.75 183.36 217.79 190.71 215.67 190.71 220.8 183.36 215.63 183.36 215.63 181.78 222.75 181.78"/><path class="cls-3" d="M230.45,181.78v1.58h-5v2h2.59a4.93,4.93,0,0,1,1.21.11,1.8,1.8,0,0,1,.76.37,2.59,2.59,0,0,1,.86,2.09,2.43,2.43,0,0,1-1.32,2.39,5.25,5.25,0,0,1-2.26.35h-3.57v-1.58h3.57a3.65,3.65,0,0,0,1.14-.14.68.68,0,0,0,.38-.33,1.13,1.13,0,0,0,.15-.59,1.26,1.26,0,0,0-.17-.65.69.69,0,0,0-.42-.35,5.19,5.19,0,0,0-1.08-.09h-3.57v-5.2Z"/><rect class="cls-3" x="231.31" y="186.44" width="2.86" height="1.61"/><polygon class="cls-3" points="241.62 181.78 241.62 183.36 236.66 190.71 234.54 190.71 239.67 183.36 234.5 183.36 234.5 181.78 241.62 181.78"/><path class="cls-3" d="M242.31,190.71v-1.58h3.5a1.54,1.54,0,0,0,1-.23,1,1,0,0,0,.31-.82,1,1,0,0,0-.4-.93,1.74,1.74,0,0,0-.89-.17h-2.73V185.4h2.73a1.66,1.66,0,0,0,1-.21,1,1,0,0,0,.28-.79,1,1,0,0,0-.37-.86.73.73,0,0,0-.32-.15,4.14,4.14,0,0,0-.6,0h-3.5v-1.58h3.8c.54,0,.89,0,1,0a1.91,1.91,0,0,1,.5.14,2,2,0,0,1,1,.93,2.71,2.71,0,0,1,.36,1.36,2.17,2.17,0,0,1-1.09,1.94,2.51,2.51,0,0,1,1.1,2.16,2.17,2.17,0,0,1-.88,1.9,2.46,2.46,0,0,1-.86.38,7.68,7.68,0,0,1-1.38.09Z"/><path class="cls-3" d="M251.66,189.13H257v1.58h-7.07v-2.37a3.29,3.29,0,0,1,.69-2.29,1.7,1.7,0,0,1,.72-.47,4.56,4.56,0,0,1,1.23-.12h1.33a1.89,1.89,0,0,0,1-.18.91.91,0,0,0,.44-.82,1,1,0,0,0-.41-.89,1.78,1.78,0,0,0-1-.21h-3.84v-1.58h4.2a3.24,3.24,0,0,1,2.19.57,2,2,0,0,1,.56.86,3.42,3.42,0,0,1,.2,1.17,3.7,3.7,0,0,1-.24,1.38,1.84,1.84,0,0,1-.69.88,3.53,3.53,0,0,1-1.9.41h-1.15a4.08,4.08,0,0,0-.92.08.76.76,0,0,0-.44.3,1.52,1.52,0,0,0-.21.91Z"/><path class="cls-3" d="M259.76,189.13h5.33v1.58H258v-2.37a3.29,3.29,0,0,1,.69-2.29,1.7,1.7,0,0,1,.72-.47,4.56,4.56,0,0,1,1.23-.12H262a2,2,0,0,0,1-.18.9.9,0,0,0,.43-.82,1,1,0,0,0-.4-.89,1.84,1.84,0,0,0-1-.21h-3.84v-1.58h4.21a3.22,3.22,0,0,1,2.18.57,2,2,0,0,1,.56.86,3.2,3.2,0,0,1,.2,1.17,3.7,3.7,0,0,1-.24,1.38,1.82,1.82,0,0,1-.68.88,3.55,3.55,0,0,1-1.9.41h-1.16a4,4,0,0,0-.91.08.79.79,0,0,0-.45.3,1.53,1.53,0,0,0-.2.91Z"/><path class="cls-3" d="M301.34,183.62V185h-2a1.67,1.67,0,0,0-1.37.48,2.24,2.24,0,0,0-.37,1.39,1.81,1.81,0,0,0,.6,1.52,1.34,1.34,0,0,0,.53.27,3.46,3.46,0,0,0,.81.07h1.76v1.4H299.1a4.27,4.27,0,0,1-1.43-.2,2.21,2.21,0,0,1-.93-.7,3.66,3.66,0,0,1-.77-2.38,3.44,3.44,0,0,1,.92-2.61,2.18,2.18,0,0,1,.88-.49,4.87,4.87,0,0,1,1.33-.15Z"/><path class="cls-3" d="M302.61,183.62H305a4.83,4.83,0,0,1,1.15.11,1.58,1.58,0,0,1,.68.39,1.44,1.44,0,0,1,.38.67,4.68,4.68,0,0,1,.11,1.14v.64h-1.57v-.36a1.44,1.44,0,0,0-.23-.94,1.1,1.1,0,0,0-.84-.25h-.47v5.13h-1.64Z"/><path class="cls-3" d="M313.32,186.18v1.4h-3.46a1.25,1.25,0,0,0,.38.91,1.7,1.7,0,0,0,1.07.26h2v1.4h-2.18A4.08,4.08,0,0,1,310,190a2.47,2.47,0,0,1-.85-.47,3.39,3.39,0,0,1-1.08-2.74,3.74,3.74,0,0,1,.57-2.07,2.32,2.32,0,0,1,.95-.85,3.48,3.48,0,0,1,1.45-.26h2.3V185h-2.18a1.41,1.41,0,0,0-.95.25,1.38,1.38,0,0,0-.33.91Z"/><path class="cls-3" d="M318.79,186.18a1.28,1.28,0,0,0-.26-.93,1.55,1.55,0,0,0-1-.23h-2.78v-1.4h2.78q.73,0,1,0a2.35,2.35,0,0,1,.57.13c.91.37,1.34,1.27,1.29,2.69v3.68H317a8.93,8.93,0,0,1-1.28-.06,1.36,1.36,0,0,1-.63-.26,1.87,1.87,0,0,1-.73-1.61,2.4,2.4,0,0,1,.29-1.18,1.5,1.5,0,0,1,.77-.69,4.08,4.08,0,0,1,1.39-.17Zm0,1.4h-2.17a.61.61,0,0,0-.45.16.6.6,0,0,0-.16.44.47.47,0,0,0,.2.45,1.27,1.27,0,0,0,.68.13h1.9Z"/><path class="cls-3" d="M322.39,183.62v-2.41H324v2.41h1.52V185H324v2.37a2.38,2.38,0,0,0,.14,1,.8.8,0,0,0,.74.32h.64v1.4h-1.19a1.84,1.84,0,0,1-1.51-.56,3,3,0,0,1-.45-1.89V185h-1.05v-1.4Z"/><path class="cls-3" d="M326.67,183v-1.74h1.64V183Zm0,.67h1.64v6.53h-1.64Z"/><path class="cls-3" d="M332.67,183.52a2.86,2.86,0,0,1,2.44,1,3.89,3.89,0,0,1,.72,2.4,3.32,3.32,0,0,1-.9,2.44,3.08,3.08,0,0,1-2.28.84,3,3,0,0,1-2.35-.94,3.58,3.58,0,0,1-.77-2.47,3.51,3.51,0,0,1,.74-2.28A3,3,0,0,1,332.67,183.52Zm0,1.38q-1.47,0-1.47,2a2.57,2.57,0,0,0,.24,1.24,1.32,1.32,0,0,0,1.25.72c1,0,1.45-.66,1.45-2S333.66,184.91,332.68,184.9Z"/><path class="cls-3" d="M337.05,183.62h3.16a4.29,4.29,0,0,1,1.09.11,1.55,1.55,0,0,1,.67.42,2.67,2.67,0,0,1,.63,2v4H341v-4.22a1,1,0,0,0-.2-.7.84.84,0,0,0-.64-.21h-1.43v5.13h-1.64Z"/><path class="cls-3" d="M349.31,183.62V185H346.4a2.1,2.1,0,0,0-.63,0c-.19.07-.28.24-.28.52a.6.6,0,0,0,.27.53,1.68,1.68,0,0,0,.79.11h1a2.19,2.19,0,0,1,1.46.44,1.71,1.71,0,0,1,.6,1.42,2.47,2.47,0,0,1-.36,1.3,1.32,1.32,0,0,1-.66.61,3.94,3.94,0,0,1-1.29.15h-3.39v-1.4h2.92a6.6,6.6,0,0,0,.74,0,.46.46,0,0,0,.44-.53.58.58,0,0,0-.29-.56,1.8,1.8,0,0,0-.72-.08h-1a4,4,0,0,1-.89-.08,1.51,1.51,0,0,1-.58-.29,1.73,1.73,0,0,1-.52-.71,2.36,2.36,0,0,1-.2-1,2,2,0,0,1,.66-1.56,2,2,0,0,1,1.35-.34Z"/><path class="cls-3" d="M353.6,183.52a2.86,2.86,0,0,1,2.44,1,3.89,3.89,0,0,1,.72,2.4,3.29,3.29,0,0,1-.91,2.44,3,3,0,0,1-2.28.84,3,3,0,0,1-2.34-.94,3.54,3.54,0,0,1-.78-2.47,3.46,3.46,0,0,1,.75-2.28A3,3,0,0,1,353.6,183.52Zm0,1.38c-1,0-1.48.67-1.48,2a2.57,2.57,0,0,0,.24,1.24,1.34,1.34,0,0,0,1.25.72c1,0,1.46-.66,1.46-2S354.59,184.91,353.61,184.9Z"/><path class="cls-3" d="M363,183.62V185h-2a1.67,1.67,0,0,0-1.37.48,2.18,2.18,0,0,0-.37,1.39,1.81,1.81,0,0,0,.6,1.52,1.27,1.27,0,0,0,.53.27,3.37,3.37,0,0,0,.8.07H363v1.4h-2.24a4.22,4.22,0,0,1-1.43-.2,2.3,2.3,0,0,1-.94-.7,3.65,3.65,0,0,1-.76-2.38,3.4,3.4,0,0,1,.92-2.61,2.05,2.05,0,0,1,.88-.49,4.82,4.82,0,0,1,1.33-.15Z"/><path class="cls-3" d="M369.08,186.18v1.4h-3.45a1.25,1.25,0,0,0,.38.91,1.7,1.7,0,0,0,1.07.26h2v1.4H366.9a4,4,0,0,1-1.15-.14,2.47,2.47,0,0,1-.85-.47,3.39,3.39,0,0,1-1.08-2.74,3.74,3.74,0,0,1,.57-2.07,2.32,2.32,0,0,1,.95-.85,3.4,3.4,0,0,1,1.44-.26h2.3V185H366.9a1,1,0,0,0-1.27,1.16Z"/><path class="cls-3" d="M374.55,186.18a1.28,1.28,0,0,0-.25-.93,1.57,1.57,0,0,0-1-.23h-2.77v-1.4h2.77c.5,0,.84,0,1,0a2.35,2.35,0,0,1,.57.13c.9.37,1.34,1.27,1.29,2.69v3.68h-3.45a9.2,9.2,0,0,1-1.29-.06,1.37,1.37,0,0,1-.62-.26,1.85,1.85,0,0,1-.73-1.61,2.4,2.4,0,0,1,.29-1.18,1.49,1.49,0,0,1,.76-.69,4.12,4.12,0,0,1,1.39-.17Zm0,1.4h-2.17a.6.6,0,0,0-.44.16.6.6,0,0,0-.17.44.49.49,0,0,0,.2.45,1.33,1.33,0,0,0,.69.13h1.89Z"/><path class="cls-3" d="M377.72,183.62h3.16a4.34,4.34,0,0,1,1.09.11,1.55,1.55,0,0,1,.67.42,2.67,2.67,0,0,1,.63,2v4h-1.64v-4.22a1,1,0,0,0-.2-.7.84.84,0,0,0-.64-.21h-1.43v5.13h-1.64Z"/><path class="cls-3" d="M389.67,186.18v1.4h-3.46a1.29,1.29,0,0,0,.38.91,1.74,1.74,0,0,0,1.08.26h2v1.4h-2.18a4.08,4.08,0,0,1-1.16-.14,2.43,2.43,0,0,1-.84-.47,3.36,3.36,0,0,1-1.09-2.74,3.74,3.74,0,0,1,.58-2.07,2.29,2.29,0,0,1,.94-.85,3.48,3.48,0,0,1,1.45-.26h2.3V185h-2.18a1.36,1.36,0,0,0-.94.25,1.38,1.38,0,0,0-.34.91Z"/><path class="cls-3" d="M396.19,183.62V185h-2.9a2.14,2.14,0,0,0-.64,0c-.19.07-.28.24-.28.52a.6.6,0,0,0,.27.53,1.73,1.73,0,0,0,.8.11h1a2.22,2.22,0,0,1,1.47.44,1.71,1.71,0,0,1,.6,1.42,2.47,2.47,0,0,1-.36,1.3,1.38,1.38,0,0,1-.67.61,3.87,3.87,0,0,1-1.28.15h-3.39v-1.4h2.92a6.6,6.6,0,0,0,.74,0c.29,0,.43-.21.43-.53a.57.57,0,0,0-.28-.56,1.86,1.86,0,0,0-.72-.08h-1a4.07,4.07,0,0,1-.9-.08,1.51,1.51,0,0,1-.58-.29,1.82,1.82,0,0,1-.52-.71,2.35,2.35,0,0,1-.19-1,2,2,0,0,1,.65-1.56,2.06,2.06,0,0,1,1.36-.34Z"/><rect class="cls-3" x="397.56" y="188.41" width="1.48" height="1.74"/><path class="cls-3" d="M405.45,183.62V185h-2a1.67,1.67,0,0,0-1.37.48,2.24,2.24,0,0,0-.36,1.39,1.83,1.83,0,0,0,.59,1.52,1.34,1.34,0,0,0,.53.27,3.46,3.46,0,0,0,.81.07h1.76v1.4h-2.24a4.27,4.27,0,0,1-1.43-.2,2.21,2.21,0,0,1-.93-.7,3.66,3.66,0,0,1-.77-2.38,3.44,3.44,0,0,1,.92-2.61,2.18,2.18,0,0,1,.88-.49,4.87,4.87,0,0,1,1.33-.15Z"/><path class="cls-3" d="M409.47,183.52a2.83,2.83,0,0,1,2.43,1,3.83,3.83,0,0,1,.73,2.4,3.29,3.29,0,0,1-.91,2.44,3,3,0,0,1-2.28.84,3,3,0,0,1-2.34-.94,3.54,3.54,0,0,1-.78-2.47,3.46,3.46,0,0,1,.75-2.28A3,3,0,0,1,409.47,183.52Zm0,1.38c-1,0-1.48.67-1.48,2a2.57,2.57,0,0,0,.24,1.24,1.33,1.33,0,0,0,1.25.72c1,0,1.46-.66,1.46-2S410.46,184.91,409.48,184.9Z"/><path class="cls-3" d="M413.85,183.62h6a4.4,4.4,0,0,1,1.25.13,1.54,1.54,0,0,1,.72.47,2.67,2.67,0,0,1,.54,1.77v4.16h-1.64v-3.88a3.25,3.25,0,0,0,0-.65.78.78,0,0,0-.17-.34,1,1,0,0,0-.77-.26h-.87v5.13h-1.64V185h-1.77v5.13h-1.63Z"/><path class="cls-2" d="M292.51,186a8.27,8.27,0,1,1-8.27-8.26A8.27,8.27,0,0,1,292.51,186Z"/><path class="cls-1" d="M281.46,184.1h0a.35.35,0,0,0-.33.26l-.62,2.06-.63-2.06a.35.35,0,0,0-.33-.26h-.06a.33.33,0,0,0-.32.26l-.64,2.06-.62-2.06a.35.35,0,0,0-.33-.26h0a.34.34,0,0,0-.27.16.36.36,0,0,0-.05.33l1,3.1a.33.33,0,0,0,.32.25h0a.34.34,0,0,0,.33-.25l.63-2,.63,2a.34.34,0,0,0,.33.25h.05a.33.33,0,0,0,.32-.25l1-3.1a.39.39,0,0,0,0-.33A.37.37,0,0,0,281.46,184.1Z"/><path class="cls-1" d="M286.2,184.1h0a.33.33,0,0,0-.32.26l-.63,2.06-.63-2.06a.35.35,0,0,0-.33-.26h-.06a.35.35,0,0,0-.32.26l-.63,2.06-.63-2.06a.34.34,0,0,0-.32-.26h0a.36.36,0,0,0-.28.16.43.43,0,0,0-.05.33l1,3.1a.34.34,0,0,0,.32.25h.05a.34.34,0,0,0,.33-.25l.63-2,.64,2a.33.33,0,0,0,.32.25h.05a.32.32,0,0,0,.32-.25l1-3.1a.43.43,0,0,0,0-.33A.37.37,0,0,0,286.2,184.1Z"/><path class="cls-1" d="M291,184.1h0a.35.35,0,0,0-.33.26l-.63,2.06-.63-2.06a.34.34,0,0,0-.32-.26h-.06a.33.33,0,0,0-.32.26l-.63,2.06-.63-2.06a.35.35,0,0,0-.33-.26h0a.37.37,0,0,0-.28.16.39.39,0,0,0,0,.33l1,3.1a.32.32,0,0,0,.32.25H288a.32.32,0,0,0,.32-.25l.64-2,.63,2a.34.34,0,0,0,.32.25H290a.33.33,0,0,0,.32-.25l1-3.1a.42.42,0,0,0,0-.33A.37.37,0,0,0,291,184.1Z"/><path class="cls-2" d="M181.25,186a8.27,8.27,0,1,1-8.27-8.26A8.27,8.27,0,0,1,181.25,186Z"/><path class="cls-1" d="M176.94,190.24l-1.34-1.66a.71.71,0,0,0-.53-.24h-.57c-.48.28-1.43.69-2.74-1.59s-.48-2.89,0-3.17l.29-.48a.74.74,0,0,0,0-.58l-.76-2a.43.43,0,0,0-.44-.25l-.94.18c-1.83,1.06-1.84,4.21,0,7.35s4.56,4.7,6.39,3.65l.62-.73A.41.41,0,0,0,176.94,190.24Z"/><path class="cls-1" d="M173.91,182.76a3.41,3.41,0,0,1,2.41,4.17.23.23,0,0,0,.17.29.24.24,0,0,0,.3-.17,3.89,3.89,0,0,0-2.75-4.76.24.24,0,1,0-.13.47Z"/><path class="cls-1" d="M173.39,183.81a2.45,2.45,0,0,1,1.72,3,.23.23,0,0,0,.17.29.24.24,0,0,0,.3-.17,2.93,2.93,0,0,0-2.07-3.57.23.23,0,0,0-.29.17A.24.24,0,0,0,173.39,183.81Z"/><path class="cls-1" d="M172.94,184.94a1.46,1.46,0,0,1,1,1.79.24.24,0,0,0,.18.29.23.23,0,0,0,.29-.17,1.94,1.94,0,0,0-1.37-2.38.25.25,0,0,0-.3.17A.25.25,0,0,0,172.94,184.94Z"/><path class="cls-1" d="M526.73,28.63l-.07.06a7.14,7.14,0,0,1-.76.16c-.39.06-.78.13-1.16.21a6.33,6.33,0,0,0-1.72.8,14.77,14.77,0,0,0-2.42,1.84,77.54,77.54,0,0,0-11,12.93q-6.11,8.58-9.84,15.08T496.51,66a.33.33,0,0,1,.25.37c0,.78-.61,1.77-1.84,3a3.3,3.3,0,0,1-1.72,1.11,2.63,2.63,0,0,1-1.38-.4,1.24,1.24,0,0,1-.64-1.08,1.37,1.37,0,0,1,.15-.61c.11-.2.24-.43.4-.67q.67-.8,1.54-6.59a66.16,66.16,0,0,0,.85-9.1q0-3.55-.21-6.41a40.7,40.7,0,0,0-1-6.1,18.75,18.75,0,0,0-2.09-5.42,10.61,10.61,0,0,0-9.34-5.06A12,12,0,0,0,473.16,32c-2.16,2-3.25,4.79-3.25,8.55a9.74,9.74,0,0,0,1.91,6.22,5.7,5.7,0,0,0,4.65,2.43,3.13,3.13,0,0,1,.65.06,1.2,1.2,0,0,1,.4.15l.12.22c0,.08-.11.16-.31.24a2.42,2.42,0,0,1-.86.12,8.82,8.82,0,0,1-6.77-2.81A10.18,10.18,0,0,1,467.1,40a10.75,10.75,0,0,1,4.23-9.07,17,17,0,0,1,10.72-3.25q14.77,0,14.77,21,0,1.9-.09,3.84c-.06,1.28-.17,2.68-.31,4.2s-.25,2.64-.33,3.4-.23,1.93-.43,3.52q.12-.18,2.84-4.69t4.85-7.82q2.11-3.3,5.3-8a93.79,93.79,0,0,1,6.25-8.28,40.05,40.05,0,0,1,5.58-5.55,8.19,8.19,0,0,1,4.65-2.08,3.38,3.38,0,0,1,.8.09,1.43,1.43,0,0,1,.58.28l.34.37.12.3-.06.22Z"/><path class="cls-1" d="M528.13,51.92c0,.33-.3.65-.91.95a3.77,3.77,0,0,1-1.66.46,20.15,20.15,0,0,1-3.74,12.26q-3.74,5.09-7.41,5.09t-3.56-5.15a15.81,15.81,0,0,1,.25-2.82,37.55,37.55,0,0,1,1.1-4.11,57.9,57.9,0,0,1,2.08-5.45,18.33,18.33,0,0,1,3.16-5,5.27,5.27,0,0,1,3.77-2h.43a2.27,2.27,0,0,1,.49-1.47,1.64,1.64,0,0,1,1.35-.61c.57,0,1.08,1.23,1.53,3.58s1.1,3.57,2,3.65S528.13,51.6,528.13,51.92Zm-4.28.92a4.93,4.93,0,0,1-1.35-2.17c-.54-1.25-.9-1.88-1.1-1.88-1.27,0-2.74,1.88-4.42,5.62a42.76,42.76,0,0,0-3.12,8.85,14.56,14.56,0,0,0-.25,2.58c0,2,.57,3,1.72,3q2.45,0,5.48-5A20.86,20.86,0,0,0,523.85,52.84Z"/><path class="cls-1" d="M534.81,46.53l.25-.86a5.16,5.16,0,0,0,.18-1l-.12-.46-.12-.4a3.13,3.13,0,0,1,.18-.74,18.3,18.3,0,0,1,2.24-5.2,3.53,3.53,0,0,1,3-1.29c.57,0,.9.18,1,.55Q540,40,537.63,46.53h6c1.14,0,1.71.12,1.71.37s-.94.72-2.81,1a46.64,46.64,0,0,1-5.4.33,164.18,164.18,0,0,0-5,16.56,7.93,7.93,0,0,0-.31,1.77c0,.7.22,1,.67,1,.82,0,2-.72,3.59-2.17a19,19,0,0,1,2.54-2.18c.21,0,.31.12.31.37a1.32,1.32,0,0,1-.68,1.35Q532.62,70,530.34,70c-.94,0-1.41-.6-1.41-1.78a32,32,0,0,1,1.47-5.76q.18-.61,3.92-14a27,27,0,0,1-4.1.24c-.94,0-1.41-.18-1.41-.55s.26-.62.79-1a2.44,2.44,0,0,1,1.29-.58Z"/><path class="cls-1" d="M557.8,51.43a6.65,6.65,0,0,1-1.33,1.32,2.41,2.41,0,0,1-1.25.64.33.33,0,0,1-.37-.36,9,9,0,0,1,.59-1.72,7.06,7.06,0,0,0,.58-2c0-.29-.1-.43-.31-.43q-2.15,0-6.34,6.62a56.38,56.38,0,0,0-6.22,12.93,4.13,4.13,0,0,1-1.17,1,2.69,2.69,0,0,1-1.35.49.61.61,0,0,1-.55-.31,10.78,10.78,0,0,1,.4-3c.27-.9.6-1.42,1-1.59.9-3.39,1.54-5.93,1.9-7.6l.62-2.57a3.73,3.73,0,0,0,.12-1,1.26,1.26,0,0,0-.12-.55l-.13-.49a1.63,1.63,0,0,1,.13-.67,16.82,16.82,0,0,1,2-5.27,3.41,3.41,0,0,1,3-1.41c.49,0,.78.16.86.49,0,.12-.34.84-.89,2.14s-1.06,2.54-1.53,3.68-1,2.59-1.57,4.35-1,3.37-1.34,4.85a66.46,66.46,0,0,1,6.25-9.6q4.23-5.61,7-5.61c1,0,1.47.62,1.47,1.84A6.64,6.64,0,0,1,557.8,51.43Z"/><path class="cls-1" d="M572.38,50.45a17.5,17.5,0,0,1,.37,3.07,3.21,3.21,0,0,1-.92,2.3,5.21,5.21,0,0,1-2.39,1.35,20.68,20.68,0,0,1-2.64.54,15.61,15.61,0,0,1-2.2.16l-1.38,0-.83,0a23.89,23.89,0,0,0-2,8.09c0,1.64.61,2.45,1.84,2.45a4.82,4.82,0,0,0,3-1.62,31.61,31.61,0,0,0,3-3.25c.86-1.08,1.37-1.63,1.53-1.63s.43.17.43.49q0,1.72-3.37,4.75t-5.27,3a4.55,4.55,0,0,1-2.79-.95A3.74,3.74,0,0,1,557.49,66a8.39,8.39,0,0,1,.18-1.59,37.2,37.2,0,0,1,1.14-4.54,25.43,25.43,0,0,0,.76-2.69c-.61-.17-.92-.49-.92-1s.35-.67,1-.67h.43q2.46-4.84,2.82-5.58c1.15-2.16,3.33-3.25,6.56-3.25Q571.59,46.71,572.38,50.45Zm-2.21,2.94a10.07,10.07,0,0,0-.3-2.63,3.76,3.76,0,0,0-.71-1.53,1.13,1.13,0,0,0-.83-.44c-.81,0-1.78.89-2.91,2.64a28.13,28.13,0,0,0-2.48,4.66l1,.06c.57.05,1.07.06,1.47.06a8.63,8.63,0,0,0,3.62-.55A2.39,2.39,0,0,0,570.17,53.39Z"/><path class="cls-1" d="M536.82,99.64a109.77,109.77,0,0,0-3.08,11.44,99.25,99.25,0,0,0-1.93,11.58V123c0,.32.19.46.45.43a4.5,4.5,0,0,0,1.21-.75,4.58,4.58,0,0,1,1.25-.76l.38.12c0,.31-.55,1-1.76,2a6.54,6.54,0,0,1-2.65,1.63.65.65,0,0,1-.84-.61,2.49,2.49,0,0,1,.06-.85q.68-2.94,1.23-5.81c.36-1.92.77-4.2,1.21-6.84s.79-4.58,1-5.84a2.57,2.57,0,0,0,0-.73l-.1-.29-.09-.25a2,2,0,0,1,.06-.49,11.36,11.36,0,0,1,1-3.5,2.41,2.41,0,0,1,1.87-1.08C536.55,99.31,536.76,99.4,536.82,99.64Z"/><path class="cls-1" d="M545.18,111.12a9.34,9.34,0,0,1,.48,1.95,2.06,2.06,0,0,1-.4,1.56,3.46,3.46,0,0,1-1.44,1.06,11.5,11.5,0,0,1-1.65.56,10,10,0,0,1-1.41.28l-.89.09-.54,0a15.84,15.84,0,0,0-.66,5.38c.13,1,.6,1.52,1.39,1.43a3.12,3.12,0,0,0,1.8-1.29,21.41,21.41,0,0,0,1.68-2.33c.47-.77.75-1.16.86-1.17s.29.07.31.28c.1.73-.5,1.85-1.79,3.33s-2.34,2.28-3.16,2.38a2.94,2.94,0,0,1-1.87-.39,2.4,2.4,0,0,1-1.06-1.94,5,5,0,0,1,0-1,22.92,22.92,0,0,1,.37-3,15.53,15.53,0,0,0,.27-1.81c-.41,0-.63-.24-.67-.55s.17-.47.62-.52l.28,0c.79-2.22,1.25-3.49,1.37-3.83.57-1.48,1.89-2.36,4-2.62C543.92,108.83,544.65,109.56,545.18,111.12ZM544,113.2a6.46,6.46,0,0,0-.41-1.68,2.36,2.36,0,0,0-.58-.93.76.76,0,0,0-.57-.21c-.52.07-1.08.71-1.66,1.93a18.37,18.37,0,0,0-1.23,3.2l.64,0c.37,0,.69,0,.95-.07a5.68,5.68,0,0,0,2.29-.65A1.56,1.56,0,0,0,544,113.2Z"/><path class="cls-1" d="M550.44,107.9l.09-.57a3.12,3.12,0,0,0,0-.69l-.12-.28-.11-.25a2,2,0,0,1,.06-.49,11.84,11.84,0,0,1,1-3.54,2.32,2.32,0,0,1,1.81-1.07c.37,0,.6,0,.68.28q-.64,2-1.66,6.39l3.84-.48c.73-.09,1.11-.06,1.13.1s-.55.54-1.74.84a31,31,0,0,1-3.45.65,105.11,105.11,0,0,0-1.88,11.07,5.07,5.07,0,0,0,0,1.17c0,.45.22.65.52.62.52-.07,1.23-.63,2.13-1.69a12.27,12.27,0,0,1,1.47-1.61l.23.21a.89.89,0,0,1-.33.93c-2.15,2.48-3.72,3.79-4.69,3.91-.61.08-1-.27-1.06-1a22.14,22.14,0,0,1,.49-3.84q.07-.41,1.41-9.36a17.87,17.87,0,0,1-2.63.48c-.6.08-.92,0-.95-.24s.12-.42.43-.72a1.61,1.61,0,0,1,.79-.48Z"/><path class="cls-1" d="M559.57,106.77l.09-.57a4,4,0,0,0,0-.69l-.12-.29-.11-.24a1.9,1.9,0,0,1,.06-.49,11.84,11.84,0,0,1,1-3.54,2.3,2.3,0,0,1,1.81-1.07c.37,0,.6.05.68.28q-.64,2-1.66,6.38l3.84-.47c.73-.09,1.11-.06,1.13.1s-.55.54-1.74.84a31,31,0,0,1-3.45.65,104.68,104.68,0,0,0-1.88,11.07,5,5,0,0,0,0,1.16c0,.46.22.66.51.62.53-.06,1.24-.62,2.14-1.68a11.48,11.48,0,0,1,1.47-1.61l.23.21a.86.86,0,0,1-.33.92c-2.15,2.49-3.72,3.8-4.69,3.92-.61.08-1-.27-1.06-1a21,21,0,0,1,.49-3.83q.07-.41,1.41-9.36a19.32,19.32,0,0,1-2.63.48c-.6.07-.92,0-.95-.24s.12-.43.43-.72a1.61,1.61,0,0,1,.79-.48Z"/><path class="cls-1" d="M574.79,108.1a4.71,4.71,0,0,1-.75,1,1.54,1.54,0,0,1-.76.51l-.26-.2a4.91,4.91,0,0,1,.24-1.16,4.42,4.42,0,0,0,.21-1.35c0-.18-.1-.26-.23-.25-.92.11-2.11,1.71-3.56,4.78a36.22,36.22,0,0,0-3,8.83,2.6,2.6,0,0,1-.67.73,1.75,1.75,0,0,1-.83.42l-.38-.15a6.81,6.81,0,0,1,0-2c.1-.6.28-1,.53-1.11.3-2.26.51-3.94.61-5l.19-1.71a2.28,2.28,0,0,0,0-.64l-.12-.35-.12-.3,0-.45a11,11,0,0,1,.86-3.56,2.24,2.24,0,0,1,1.81-1.15c.31,0,.51,0,.59.25s-.15.57-.4,1.46-.49,1.72-.7,2.49-.43,1.75-.66,2.93-.39,2.26-.48,3.24a43.23,43.23,0,0,1,3.26-6.69c1.52-2.64,2.88-4,4.06-4.18.63-.08,1,.28,1.1,1.07A4.35,4.35,0,0,1,574.79,108.1Z"/><path class="cls-1" d="M584.12,106.29a11.75,11.75,0,0,1,.48,1.95,2.11,2.11,0,0,1-.41,1.56,3.38,3.38,0,0,1-1.43,1.06,14.35,14.35,0,0,1-1.66.57,9.67,9.67,0,0,1-1.41.27l-.89.09-.54,0a15.87,15.87,0,0,0-.66,5.38c.13,1,.6,1.53,1.38,1.43a3.1,3.1,0,0,0,1.81-1.29,20.48,20.48,0,0,0,1.68-2.33c.47-.77.75-1.16.86-1.17s.29.07.31.28c.1.73-.5,1.85-1.79,3.34s-2.34,2.27-3.16,2.37a3,3,0,0,1-1.87-.39,2.39,2.39,0,0,1-1.06-1.93,5.14,5.14,0,0,1,0-1,23.13,23.13,0,0,1,.37-3,15.82,15.82,0,0,0,.27-1.8c-.41-.06-.63-.24-.67-.56s.17-.46.62-.52l.28,0c.79-2.22,1.25-3.49,1.37-3.83.56-1.48,1.89-2.36,4-2.62C582.85,104,583.57,104.73,584.12,106.29Zm-1.19,2.08a6.46,6.46,0,0,0-.41-1.68,2.52,2.52,0,0,0-.58-.93.76.76,0,0,0-.57-.21c-.53.07-1.08.71-1.66,1.94a17.06,17.06,0,0,0-1.23,3.2l.64,0c.37,0,.69-.05,1-.08a5.68,5.68,0,0,0,2.29-.65A1.56,1.56,0,0,0,582.93,108.37Z"/><path class="cls-1" d="M597.55,101.7c0,.25-.24,1.07-.57,2.48s-.61,2.59-.81,3.55c-.31,1.4-.61,3.1-.91,5.09a21.42,21.42,0,0,0-.38,3.62l.1.11a4.72,4.72,0,0,0,1.47-1.19c.78-.76,1.33-1.17,1.64-1.2s.33,0,.34.15-.23.53-.77,1-1.17,1-1.87,1.58l-1.18.93a11.39,11.39,0,0,0-.7.9,11.26,11.26,0,0,1-.87,1.08,1.31,1.31,0,0,1-.77.47c-.34,0-.53-.08-.57-.37s.16-.49.53-.92a3.65,3.65,0,0,0,.71-1.12c.31-1.13.82-4.39,1.51-9.78a57.8,57.8,0,0,1-4.15,6.8c-1.76,2.53-3.16,3.86-4.18,4-.37,0-.58-.17-.64-.64a5.1,5.1,0,0,1,.22-1.76s.22-.77.68-2.25.82-2.74,1.08-3.81a7.63,7.63,0,0,0,.3-2.26l-.13-.36-.11-.29a2.8,2.8,0,0,1,0-.44,11.41,11.41,0,0,1,.85-3.5,2.33,2.33,0,0,1,1.88-1.06c.37,0,.61,0,.71.27q-3.29,12.25-3.23,12.81l.14.14q.17,0,.87-.75a26.84,26.84,0,0,0,5.9-9.4,5.72,5.72,0,0,1,.44-2.62A2.3,2.3,0,0,1,597,101.4C597.32,101.37,597.5,101.47,597.55,101.7Z"/><path class="cls-1" d="M608.62,103.9a4.42,4.42,0,0,1-.75,1,1.73,1.73,0,0,1-.75.51l-.27-.21a6.42,6.42,0,0,1,.24-1.15,4.46,4.46,0,0,0,.21-1.35c0-.19-.1-.27-.23-.26-.93.12-2.11,1.71-3.56,4.78a36.71,36.71,0,0,0-3,8.84,2.72,2.72,0,0,1-.67.72,1.78,1.78,0,0,1-.83.43l-.38-.15a6.46,6.46,0,0,1,0-2c.09-.6.27-1,.52-1.11.31-2.26.51-4,.61-5.06l.19-1.7a2,2,0,0,0,0-.65l-.13-.34-.11-.31,0-.45a11,11,0,0,1,.86-3.55,2.22,2.22,0,0,1,1.81-1.15c.31,0,.51,0,.59.25s-.15.56-.4,1.45l-.7,2.5c-.21.77-.43,1.75-.65,2.93s-.4,2.25-.49,3.23a45.1,45.1,0,0,1,3.26-6.69q2.3-4,4.06-4.17c.64-.08,1,.28,1.1,1.07A4.33,4.33,0,0,1,608.62,103.9Z"/><path class="cls-1" d="M502.76,84.4c0,.09-.18.44-.41,1.06s-.42,1.15-.58,1.59-.38,1.11-.64,2-.5,1.68-.7,2.46-.39,1.69-.58,2.76-.34,2.12-.45,3.18v.32c0,.32.19.46.45.43a4.49,4.49,0,0,0,1.22-.75,3.76,3.76,0,0,1,1.29-.76c.18,0,.29,0,.33.11,0,.32-.56,1-1.8,2a7,7,0,0,1-2.6,1.62c-.5.06-.78-.14-.84-.62a2.85,2.85,0,0,1,.05-.85c.19-.85.38-1.73.58-2.64s.34-1.61.44-2.1.2-1,.31-1.52.19-.92.24-1.18.09-.52.12-.77.06-.46.07-.6v-.4l-.1-.28-.08-.21a2,2,0,0,1,.05-.54,12.78,12.78,0,0,1,1.13-3.51,2.45,2.45,0,0,1,1.88-1.07C502.47,84.08,502.68,84.17,502.76,84.4Zm1.42-7a2.24,2.24,0,0,1-.59,1.4,5.46,5.46,0,0,0-.8,1.34c-.23.92-.54,1.45-.92,1.6-.53.07-.85-.34-1-1.2a2.69,2.69,0,0,1,1-2,3.74,3.74,0,0,1,2-1.26Z"/><path class="cls-1" d="M523,82.53q-3.74,9.06-4.08,14.36a2.4,2.4,0,0,0,0,.8q.06.56.42.51a2.65,2.65,0,0,0,.77-.47,2.51,2.51,0,0,1,.72-.47l.23.21c0,.34-.21.73-.74,1.17a3.22,3.22,0,0,1-1.67.77,1,1,0,0,1-.92-.27,2.22,2.22,0,0,1-.43-1.24,8.57,8.57,0,0,1,.11-2.35,22.25,22.25,0,0,1,.5-2.45c.18-.68.45-1.58.8-2.73s.56-1.82.61-2a15.54,15.54,0,0,0,.8-3.59c0-.18-.1-.27-.23-.25a1,1,0,0,0-.41.25,19.23,19.23,0,0,0-3.8,5,21.26,21.26,0,0,0-2.5,7.62c0,.22-.28.5-.74.83a2.79,2.79,0,0,1-1.21.58c-.32,0-.49-.06-.52-.3v-.08l0-.08a84.89,84.89,0,0,1,2.21-12.6A2.65,2.65,0,0,0,513,85l-.15-.19c-.13,0-.31.19-.53.51a58.92,58.92,0,0,0-3.75,6.37,48.49,48.49,0,0,0-2.16,4.72A15.75,15.75,0,0,1,505.22,99a2.09,2.09,0,0,1-1.46,1.14q-.33,0-.36-.27a2.16,2.16,0,0,1,.09-.74c.08-.3.18-.6.29-.91s.17-.5.19-.55c.29-1.08.85-3.76,1.65-8a2.4,2.4,0,0,0,.07-.73l-.09-.29-.09-.21a2.43,2.43,0,0,1,.05-.53,13,13,0,0,1,1.13-3.51,2.35,2.35,0,0,1,1.84-1.07c.34,0,.55,0,.64.28a50.52,50.52,0,0,0-2.7,10q5.29-11.32,8.69-11.75c.53-.06.82.07.86.41a1.51,1.51,0,0,1-.18.83,34.81,34.81,0,0,0-3.08,10.78,32.36,32.36,0,0,1,3-6.41,29.57,29.57,0,0,1,4.66-5.29,3.11,3.11,0,0,1,1.9-.84c.53-.07.82.09.86.46A1.67,1.67,0,0,1,523,82.53Z"/><path class="cls-1" d="M532.26,87.33,533,87a8.31,8.31,0,0,1,.91-.44,3.23,3.23,0,0,1,.85-.22c.19,0,.28,0,.29.08s-.09.36-.33.54a6.72,6.72,0,0,1-1.15.61c-.52.23-.87.39-1,.49a12.5,12.5,0,0,1,.47,2.23,5.81,5.81,0,0,1-1,4.68,5.44,5.44,0,0,1-3.52,1.86,5.56,5.56,0,0,1-3.69-.59c-.15.72-.44,2.07-.86,4.06s-.72,3.43-.91,4.31l0,.16.18.34.2.46a3.82,3.82,0,0,1-.4,1.59c-.31.75-.68,1.15-1.1,1.2s-.51-.27-.6-.92a11.26,11.26,0,0,1,.3-3c.26-1.42.67-3.29,1.23-5.59s.84-3.51.86-3.62a1.76,1.76,0,0,1,.48-2.23q1.64-8.51,1.88-10.15a1.21,1.21,0,0,0-.45,0c-.3,0-.45-.07-.47-.2s.16-.44.56-.67l.56-.32-.19-.29a1.74,1.74,0,0,1,.6-1.3,2.2,2.2,0,0,1,1.18-.81c.21,0,.34.09.37.35a1.7,1.7,0,0,1-.11.78l-.31,1C529.78,82.43,531.29,84.42,532.26,87.33Zm-1.39,1.45a7.82,7.82,0,0,0-2.57,1.58,21.43,21.43,0,0,0-2.6,2.32l-.56,2.6a4.93,4.93,0,0,0,2.8.57,3.5,3.5,0,0,0,2.82-1.69,5.33,5.33,0,0,0,.57-3.35A11.82,11.82,0,0,0,530.87,88.78Zm-.27-.61a15.51,15.51,0,0,0-1.08-2.55,10.53,10.53,0,0,0-1.12-1.75c-.33-.38-.59-.57-.77-.54s-.2.4-.37,1.19-.39,1.91-.67,3.39-.48,2.59-.63,3.33A23.72,23.72,0,0,1,530.6,88.17Z"/><path class="cls-1" d="M544.71,82.57a4.13,4.13,0,0,1-.74,1,1.66,1.66,0,0,1-.76.51l-.27-.21a6.42,6.42,0,0,1,.24-1.15,4.46,4.46,0,0,0,.21-1.35c0-.18-.09-.27-.23-.25q-1.38.17-3.56,4.77a36.66,36.66,0,0,0-3,8.84,3,3,0,0,1-.68.73,1.75,1.75,0,0,1-.83.42l-.38-.15a6.79,6.79,0,0,1,0-2c.1-.6.27-1,.52-1.11.31-2.26.52-3.94.62-5l.19-1.71a2.35,2.35,0,0,0,0-.65l-.12-.34-.12-.31,0-.44a11.22,11.22,0,0,1,.87-3.56,2.24,2.24,0,0,1,1.8-1.15c.32,0,.51,0,.59.25s-.15.57-.4,1.46-.48,1.72-.69,2.49-.43,1.75-.66,2.93-.39,2.26-.48,3.23a43.18,43.18,0,0,1,3.26-6.69q2.28-3.94,4.06-4.17c.63-.08,1,.28,1.09,1.07A4.31,4.31,0,0,1,544.71,82.57Z"/><path class="cls-1" d="M551.14,78.4c0,.09-.18.44-.41,1.06s-.43,1.15-.59,1.59-.37,1.11-.64,2-.5,1.68-.69,2.45-.4,1.7-.59,2.77-.33,2.12-.44,3.18v.32c0,.32.19.46.45.43a4.5,4.5,0,0,0,1.21-.75,4,4,0,0,1,1.29-.76c.19,0,.3,0,.34.11q.06.48-1.8,2a6.85,6.85,0,0,1-2.61,1.63.66.66,0,0,1-.84-.62,2.59,2.59,0,0,1,.06-.85q.29-1.27.57-2.64c.2-.91.35-1.61.44-2.1s.21-1,.32-1.52.19-.92.23-1.18.09-.52.13-.77.06-.46.06-.6v-.4l-.1-.28-.09-.22a2,2,0,0,1,.06-.52,12.54,12.54,0,0,1,1.13-3.52,2.43,2.43,0,0,1,1.87-1.07C550.84,78.08,551.05,78.17,551.14,78.4Zm1.41-7a2.19,2.19,0,0,1-.59,1.4,5.68,5.68,0,0,0-.79,1.34c-.24.92-.54,1.45-.93,1.6s-.84-.33-1-1.2a2.65,2.65,0,0,1,1-2,3.75,3.75,0,0,1,2-1.26Z"/><path class="cls-1" d="M571.37,76.53c-2.48,6-3.85,10.82-4.07,14.36a2.45,2.45,0,0,0,0,.81c0,.36.18.53.42.5a2.67,2.67,0,0,0,.76-.47,2.63,2.63,0,0,1,.73-.47l.22.21c.05.34-.2.73-.73,1.17a3.18,3.18,0,0,1-1.67.77,1,1,0,0,1-.92-.26,2.32,2.32,0,0,1-.44-1.26,9.39,9.39,0,0,1,.11-2.34,24.6,24.6,0,0,1,.51-2.45c.18-.67.44-1.58.8-2.73s.55-1.82.61-2a16.05,16.05,0,0,0,.8-3.59c0-.18-.1-.27-.24-.25a1.08,1.08,0,0,0-.4.25,19.13,19.13,0,0,0-3.8,5,21.14,21.14,0,0,0-2.5,7.61c0,.22-.28.5-.74.84a2.9,2.9,0,0,1-1.22.57c-.31,0-.49-.06-.52-.3v-.08l0-.08a87.58,87.58,0,0,1,2.21-12.6,2.3,2.3,0,0,0,.11-.73l-.14-.19q-.19,0-.54.51A60.47,60.47,0,0,0,557,85.67a46.74,46.74,0,0,0-2.17,4.72A14.66,14.66,0,0,1,553.59,93a2.09,2.09,0,0,1-1.46,1.14.28.28,0,0,1-.36-.27,2.16,2.16,0,0,1,.09-.74c.09-.3.18-.61.29-.92s.17-.49.2-.54q.43-1.62,1.65-8a2.75,2.75,0,0,0,.07-.73l-.1-.3-.08-.2a1.59,1.59,0,0,1,.05-.53,12.32,12.32,0,0,1,1.13-3.51,2.35,2.35,0,0,1,1.83-1.07c.35,0,.56,0,.64.28a51.87,51.87,0,0,0-2.7,10q5.31-11.34,8.7-11.76c.53-.06.81.07.85.42a1.48,1.48,0,0,1-.17.82,34.53,34.53,0,0,0-3.08,10.78,31.79,31.79,0,0,1,3-6.41,29.45,29.45,0,0,1,4.65-5.29,3.13,3.13,0,0,1,1.91-.84c.53-.07.81.09.86.46A1.86,1.86,0,0,1,571.37,76.53Z"/><path class="cls-1" d="M580,77.56a10.55,10.55,0,0,1,.48,1.94,2,2,0,0,1-.41,1.55,3.21,3.21,0,0,1-1.43,1.07,13.17,13.17,0,0,1-1.66.57,11.22,11.22,0,0,1-1.41.27c-.26,0-.56.06-.89.09l-.54,0a15.58,15.58,0,0,0-.65,5.38c.13,1,.59,1.53,1.38,1.43a3.07,3.07,0,0,0,1.8-1.29,17.6,17.6,0,0,0,1.68-2.33c.47-.77.76-1.16.86-1.17s.29.07.32.28c.09.74-.51,1.85-1.8,3.34s-2.34,2.27-3.15,2.37a3,3,0,0,1-1.88-.38,2.44,2.44,0,0,1-1.06-1.94,5.14,5.14,0,0,1,0-1.05,22.92,22.92,0,0,1,.37-3,16.66,16.66,0,0,0,.28-1.81c-.41,0-.63-.24-.67-.55s.17-.46.61-.52l.28,0c.79-2.21,1.26-3.49,1.37-3.83.57-1.48,1.89-2.36,4-2.61C578.71,75.26,579.43,76,580,77.56Zm-1.19,2.07a6.46,6.46,0,0,0-.41-1.68,2.57,2.57,0,0,0-.57-.93.78.78,0,0,0-.57-.21c-.53.07-1.09.71-1.67,1.94a18.89,18.89,0,0,0-1.23,3.2l.64,0c.37,0,.69,0,.95-.08a5.65,5.65,0,0,0,2.29-.64A1.56,1.56,0,0,0,578.78,79.63Z"/><path class="cls-1" d="M593.4,73c0,.25-.24,1.07-.57,2.48S592.23,78,592,79c-.3,1.4-.61,3.1-.91,5.09a19.87,19.87,0,0,0-.37,3.62l.09.11a4.71,4.71,0,0,0,1.48-1.19,4.07,4.07,0,0,1,1.64-1.2c.21,0,.32,0,.34.15s-.24.53-.78,1-1.17,1-1.87,1.58l-1.17.93c-.17.18-.4.49-.71.91a11,11,0,0,1-.87,1.07,1.43,1.43,0,0,1-.76.48c-.35,0-.54-.08-.57-.38s.15-.49.52-.92a3.37,3.37,0,0,0,.71-1.12q.47-1.69,1.52-9.78a58,58,0,0,1-4.16,6.8q-2.64,3.8-4.18,4c-.37,0-.58-.17-.64-.64a5,5,0,0,1,.22-1.75s.23-.78.69-2.26.82-2.74,1.07-3.8a7.11,7.11,0,0,0,.3-2.27l-.12-.36-.12-.29s0-.17,0-.45a11.12,11.12,0,0,1,.85-3.49,2.3,2.3,0,0,1,1.87-1.06q.55-.06.72.27-3.3,12.26-3.23,12.81l.14.14a3.25,3.25,0,0,0,.87-.75,27.08,27.08,0,0,0,5.9-9.4,5.71,5.71,0,0,1,.43-2.62,2.27,2.27,0,0,1,1.94-1.56C593.17,72.63,593.35,72.73,593.4,73Z"/><path class="cls-1" d="M604.47,75.16a3.9,3.9,0,0,1-.74,1,1.62,1.62,0,0,1-.76.52l-.27-.21a6.42,6.42,0,0,1,.24-1.15,4.46,4.46,0,0,0,.21-1.35c0-.19-.09-.27-.23-.25q-1.38.17-3.56,4.77a37.15,37.15,0,0,0-3,8.84,2.58,2.58,0,0,1-.67.73,1.8,1.8,0,0,1-.83.42l-.38-.15a6.79,6.79,0,0,1,0-2c.1-.6.27-1,.52-1.11.31-2.26.52-4,.62-5.06l.19-1.71a2.28,2.28,0,0,0,0-.64l-.12-.34-.12-.31,0-.44a11,11,0,0,1,.87-3.56A2.22,2.22,0,0,1,598.3,72c.32,0,.51.05.59.25s-.15.57-.4,1.46-.48,1.71-.69,2.49-.43,1.75-.66,2.93a32.52,32.52,0,0,0-.48,3.23,43.18,43.18,0,0,1,3.26-6.69q2.28-3.94,4.06-4.17c.63-.08,1,.28,1.09,1.07A4.31,4.31,0,0,1,604.47,75.16Z"/><path class="cls-1" d="M602.4,86.81a1.09,1.09,0,0,1,.28-.8h0a1.74,1.74,0,0,1,.94-.64l.35.15a2.52,2.52,0,0,1,.26.76l-.06.37-.1.25a7.33,7.33,0,0,1-.64,1.88,7.48,7.48,0,0,1-.94,1.47,7.08,7.08,0,0,1-.91.91,1.67,1.67,0,0,1-.63.39l-.11-.11a22.07,22.07,0,0,0,1.37-2.11,3.21,3.21,0,0,0,.6-1.7l-.15-.27h0A.84.84,0,0,1,602.4,86.81Z"/></svg>