<?xml version="1.0" encoding="utf-8"?>
<!-- Generator: Adobe Illustrator 23.0.1, SVG Export Plug-In . SVG Version: 6.00 Build 0)  -->
<svg version="1.1" id="Layer_1" xmlns="http://www.w3.org/2000/svg" xmlns:xlink="http://www.w3.org/1999/xlink" x="0px" y="0px"
	 viewBox="0 0 648 273.6" style="enable-background:new 0 0 648 273.6;" xml:space="preserve">
<style type="text/css">
	.st0{fill:#FFFFFF;}
</style>
<g>
	<path class="st0" d="M491.54,216.4l-0.11-0.02c-0.26,0.05-0.72,0.33-1.48,0.84l-0.5-4.42c0.25-0.04,0.55-0.09,0.96-0.18
		c0.24-0.05,0.43-0.1,0.57-0.15l0.18-0.08l0.14-0.16l-0.02-0.13c-0.17-0.22-0.44-0.23-0.87-0.24c-0.28,0-0.63,0.03-1.06,0.07
		c-0.28-2.42-0.7-4.46-1.25-6.12l0.16-0.2l0.2-0.24l0.04-0.12v-0.13l-0.01-0.16v-0.01l-0.1-0.35l-0.3-0.17h-0.04h-0.01l-0.27,0.16
		l-0.11,0.13c-0.15-0.25-0.41-0.4-0.72-0.39l-0.14,0.01c-0.35,0.02-0.63,0.25-0.61,0.58V205c0.03,0.19,0.13,0.54,0.32,1.07
		c-1.9,2.3-3.48,4.54-4.74,6.71c-0.17,0.01-0.33,0.02-0.46,0.02h-0.01l-0.46,0.05c-0.24,0.03-0.47,0.06-0.67,0.11
		c-0.2,0.04-0.41,0.1-0.61,0.16c-0.21,0.06-0.39,0.15-0.52,0.27l-0.04,0.06l-0.13,0.33l-0.01,0.08l0.18,0.19l0.2,0.02h0.07
		c0.19-0.01,0.44-0.03,0.75-0.06l0.25-0.03h0.01l0.24-0.04l0.25-0.04l0.23-0.03l0.1-0.01c-0.68,1.31-1.22,2.54-1.6,3.69
		c-0.31,0.93-0.46,1.85-0.46,2.76c0,0.3,0.02,0.6,0.05,0.89c0.06,0.49,0.21,1,0.45,1.53c0.22,0.5,0.56,0.81,0.99,0.81h0.09
		l0.32-0.08l0.19-0.25v-0.02l-0.04-0.09l-0.22-0.27l-0.02-0.02c-0.33-0.28-0.55-0.76-0.63-1.46c-0.04-0.31-0.05-0.62-0.05-0.94
		c0-0.6,0.06-1.21,0.19-1.84c0.2-0.96,0.43-1.76,0.7-2.39c0.26-0.61,0.65-1.43,1.16-2.45c0.43-0.05,2.47-0.31,6.15-0.76l0.02,0.21
		c0.04,0.39,0.09,0.92,0.15,1.61c0.06,0.68,0.11,1.36,0.14,2.03c0.04,0.64,0.07,1.15,0.09,1.55c-0.15,0.16-0.31,0.37-0.48,0.64
		c-0.17,0.29-0.27,0.52-0.27,0.73v0.06c0,0.21,0.16,0.43,0.38,0.42h0.04l0.1-0.04l0.17-0.15l0.04-0.04
		c0.74-1.21,1.62-2.14,2.66-2.79l0.02-0.01c0.2-0.18,0.34-0.28,0.36-0.49v-0.02l-0.09-0.15L491.54,216.4z M482.83,212.69
		c0.75-1.39,2.12-3.24,4.11-5.54c0.25,0.53,0.51,1.32,0.79,2.38c0.3,1.12,0.48,1.95,0.56,2.54L482.83,212.69z"/>
	<path class="st0" d="M484.87,202.32c0.82,0.33,1.61,0.64,2.4,0.93c0.74,0.26,1.21,0.4,1.48,0.4h0.06h0.03l0.06-0.02l0.11-0.1
		l0.01-0.04l-0.01-0.15l-0.05-0.08l-0.01-0.02c-0.17-0.22-0.46-0.44-0.86-0.67c-0.4-0.23-0.87-0.47-1.42-0.74
		c-0.55-0.27-0.97-0.49-1.27-0.68l-0.05-0.02l-0.16-0.04l-0.11,0.01l-0.18,0.07l-0.06,0.04l-0.15,0.16l-0.03,0.04l-0.09,0.2
		l-0.02,0.06l-0.02,0.2l0.03,0.12l0.24,0.28L484.87,202.32z"/>
	<path class="st0" d="M502.55,208.49l-0.31-0.18h-0.05c-0.3,0.05-0.52,0.29-0.79,0.69c-0.24,0.37-0.37,0.64-0.38,0.89v0.06
		l0.01,0.04l0.12,0.31l0.11,0.32l-0.01,0.21c-0.12,0.64-0.3,1.24-0.53,1.82c-0.23,0.58-0.5,1.09-0.78,1.51
		c-0.29,0.44-0.55,0.8-0.77,1.09c-0.22,0.29-0.45,0.56-0.69,0.81l-0.09,0.09c0-0.09,0-0.18,0-0.31c0-1.03,0.02-3,0.05-5.92
		l-0.03-0.1c-0.1-0.16-0.29-0.23-0.47-0.22l-0.11,0.01c-0.45,0.05-0.79,0.24-0.92,0.6c-0.07,0.19-0.1,0.43-0.1,0.73
		c0,0.23,0.02,0.49,0.05,0.79c0.04,0.38,0.11,0.63,0.25,0.81c0.07,0.07,0.13,0.22,0.15,0.46c0.07,0.73,0.12,1.38,0.14,1.92
		c0.01,0.31,0.02,0.57,0.02,0.8l-0.01,0.45c-0.01,0.29-0.03,0.53-0.06,0.69l-0.08,0.29l-0.12,0.14v0.01l-0.08,0.11l-0.03,0.09
		l-0.02,0.2l0.08,0.16l0.14,0.09l0.11,0.03c0.39-0.05,0.82-0.37,1.39-0.92c0.56-0.56,1.12-1.23,1.68-2.02
		c0.57-0.79,1.07-1.7,1.51-2.71c0.44-1.01,0.69-1.95,0.76-2.81l0.01-0.31l-0.04-0.34L502.55,208.49z"/>
	<path class="st0" d="M508.59,209.81h-0.01h-0.01l-0.28-0.22c-0.12-0.17-0.24-0.45-0.36-0.83c-0.12-0.39-0.24-0.69-0.36-0.91
		c-0.12-0.2-0.24-0.36-0.46-0.38h-0.01h-0.01c-0.24,0.03-0.44,0.15-0.56,0.34l-0.13,0.46c-0.5,0.05-0.94,0.38-1.32,0.92
		c-0.38,0.53-0.68,1.15-0.9,1.87c-0.22,0.7-0.38,1.35-0.5,1.95c-0.11,0.59-0.19,1.08-0.22,1.46l-0.01,0.33
		c0,0.22,0.01,0.44,0.04,0.67c0.11,1.1,0.59,1.78,1.4,1.78l0.19-0.01c0.92-0.11,1.73-0.83,2.45-2.1c0.59-1.02,0.88-2.16,0.88-3.42
		c0-0.28-0.02-0.56-0.05-0.85c0.15-0.04,0.3-0.1,0.46-0.21c0.2-0.13,0.35-0.27,0.35-0.48l0.01-0.04l-0.22-0.26L508.59,209.81z
		 M506.83,214.42c-0.55,1.2-1.1,1.78-1.54,1.81h-0.05l-0.28-0.16c-0.08-0.12-0.15-0.34-0.18-0.65c-0.02-0.16-0.03-0.33-0.03-0.51
		l0.01-0.35c0.05-0.73,0.29-1.76,0.71-3.1c0.21-0.66,0.42-1.16,0.62-1.48c0.18-0.3,0.35-0.43,0.47-0.46
		c0.05,0.05,0.17,0.22,0.33,0.49c0.21,0.35,0.36,0.57,0.53,0.7c0.03,0.28,0.05,0.54,0.05,0.79
		C507.47,212.52,507.26,213.49,506.83,214.42z"/>
	<path class="st0" d="M519.58,207.45c-0.03-0.41-0.28-0.73-0.66-0.72l-0.1,0.01c-0.74,0.1-1.46,0.87-2.29,2.26
		c-0.5,0.86-0.91,1.62-1.24,2.32c0.02-0.13,0.04-0.25,0.07-0.39c0.12-0.61,0.25-1.13,0.36-1.53c0.12-0.41,0.24-0.84,0.38-1.31
		c0.14-0.47,0.21-0.71,0.22-0.79l-0.1-0.19l-0.31-0.13l-0.08-0.01c-0.48,0.05-0.87,0.28-1.09,0.68c0,0,0,0.01-0.01,0.02l-0.1-0.11
		l-0.25-0.03l-0.34,0.02l-1.78,0.21c0.35-1.42,0.63-2.47,0.85-3.1v-0.11c-0.05-0.18-0.25-0.29-0.43-0.28l-0.1,0.01
		c-0.48,0.05-0.86,0.27-1.09,0.64c-0.22,0.36-0.4,0.98-0.58,1.91v0.01l-0.03,0.26l0.01,0.09l0.05,0.12l0.05,0.12l-0.02,0.32
		l-0.03,0.16l-1.21,0.14l-0.07,0.02l-0.42,0.25l-0.06,0.06l-0.23,0.37l-0.02,0.11l0.18,0.24l0.3,0.06l0.22-0.01
		c0.48-0.06,0.85-0.12,1.16-0.19c-0.47,2.97-0.73,4.54-0.75,4.67c-0.19,1.01-0.28,1.65-0.29,1.97v0.1c0.03,0.4,0.27,0.71,0.64,0.7
		l0.09-0.01c0.63-0.09,1.44-0.78,2.6-2.09h-0.01c0.15-0.11,0.24-0.29,0.23-0.49l-0.01-0.13l-0.05-0.1l-0.12-0.11l-0.13-0.05
		l-0.11,0.05c-0.12,0.09-0.36,0.36-0.78,0.85c-0.46,0.55-0.84,0.81-1.03,0.83h-0.01l-0.03-0.01l-0.05-0.17v-0.09
		c0-0.11,0.01-0.27,0.04-0.48c0.22-1.8,0.57-3.7,1.02-5.69c0.56-0.07,1.13-0.17,1.72-0.31c0.32-0.07,0.55-0.15,0.73-0.23
		c0.02-0.01,0.04-0.02,0.06-0.04c-0.12,0.37-0.22,0.85-0.3,1.46v0.01l-0.02,0.24l0.01,0.07l0.06,0.16l0.05,0.15v0.3l-0.11,0.89
		c-0.06,0.58-0.17,1.45-0.34,2.62c-0.15,0.14-0.24,0.33-0.29,0.61c-0.03,0.19-0.05,0.39-0.05,0.6l0.03,0.48l0.1,0.14l0.2,0.08h0.14
		l0.44-0.22l0.05-0.04l0.36-0.39l0.04-0.08c0.29-1.46,0.82-3,1.6-4.6c0.39-0.79,0.74-1.4,1.04-1.8c0.26-0.35,0.49-0.53,0.65-0.58
		l0.01,0.01c0,0.1-0.04,0.31-0.11,0.6c-0.09,0.34-0.14,0.52-0.14,0.64v0.04l0.06,0.11l0.14,0.11l0.2,0.01l0.4-0.27l0.04-0.04
		l0.4-0.5l0.01-0.02c0.24-0.42,0.36-0.84,0.36-1.25L519.58,207.45z"/>
	<path class="st0" d="M524.16,207.89c-0.26-0.79-0.64-1.27-1.2-1.28l-0.1,0.01c-1.13,0.12-1.92,0.61-2.24,1.47
		c-0.06,0.17-0.3,0.81-0.71,1.9h-0.04l-0.33,0.11l-0.15,0.3v0.04c0.02,0.19,0.16,0.34,0.34,0.41c-0.02,0.15-0.07,0.42-0.14,0.79
		c-0.1,0.52-0.18,1.06-0.21,1.6l-0.01,0.32l0.02,0.26c0.06,0.53,0.26,0.94,0.63,1.15c0.27,0.16,0.57,0.25,0.88,0.25l0.21-0.01
		c0.52-0.06,1.08-0.51,1.78-1.29c0.65-0.74,1-1.31,1.01-1.79l-0.01-0.09l-0.06-0.11l-0.16-0.15l-0.13-0.04l-0.16,0.09
		c-0.1,0.1-0.23,0.29-0.42,0.59c-0.24,0.4-0.54,0.8-0.88,1.2c-0.33,0.4-0.63,0.59-0.85,0.61l-0.08,0.01
		c-0.25-0.01-0.38-0.13-0.45-0.61l-0.02-0.4c0-0.58,0.12-1.33,0.36-2.26l0.16-0.01l0.47-0.04c0.25-0.02,0.5-0.07,0.77-0.14
		s0.57-0.16,0.9-0.3c0.34-0.14,0.63-0.34,0.83-0.61c0.18-0.23,0.27-0.5,0.27-0.78l-0.01-0.16
		C524.38,208.67,524.3,208.32,524.16,207.89z M523.18,209.16c0,0.29-0.09,0.45-0.24,0.55c-0.19,0.12-0.58,0.24-1.13,0.3
		c-0.13,0.02-0.29,0.03-0.49,0.03c-0.04,0-0.06,0-0.09,0c0.13-0.42,0.31-0.88,0.58-1.42c0.3-0.6,0.59-0.88,0.74-0.9l0.2,0.08
		c0.07,0.06,0.16,0.2,0.24,0.41c0.09,0.22,0.16,0.5,0.19,0.84V209.16z"/>
	<path class="st0" d="M532.68,207.3c-0.1,0.37-0.15,0.62-0.15,0.79v0.06l0.04,0.09l0.1,0.12l0.15,0.06l0.42-0.29
		c0.13-0.16,0.26-0.38,0.4-0.66c0.27-0.55,0.42-0.98,0.42-1.31v-0.01v-0.02c-0.04-0.54-0.38-0.93-0.88-0.91l-0.15,0.01
		c-0.16,0.02-0.34,0.08-0.58,0.18h-0.01l-0.22,0.11l-0.29,0.15h-0.01l-0.32,0.17l-0.01,0.01l-0.36,0.23l-0.38,0.24l-0.01,0.01
		l-0.41,0.3l-0.01,0.01l-0.39,0.34l-0.01,0.01l-0.39,0.38l-0.01,0.01l-0.35,0.43l-0.01,0.01l-0.34,0.49
		c-0.14,0.21-0.21,0.44-0.21,0.68l0.01,0.13c0.02,0.35,0.24,0.67,0.61,0.96c0.36,0.29,0.74,0.53,1.15,0.71
		c0.38,0.17,0.75,0.38,1.08,0.6c0.33,0.21,0.47,0.41,0.47,0.51v0.02c0.02,0.17-0.29,0.52-1.04,0.87c-0.78,0.38-1.4,0.59-1.83,0.63
		l-0.12,0.07l-0.2,0.28l-0.01,0.18l0.14,0.27l0.09,0.08l0.29,0.11l0.08,0.01c0.71-0.08,1.51-0.47,2.4-1.15
		c0.82-0.64,1.28-1.26,1.28-1.92l-0.01-0.16c-0.04-0.41-0.29-0.75-0.68-0.95c-0.36-0.19-0.78-0.38-1.26-0.58
		c-0.46-0.19-0.77-0.43-0.97-0.74l-0.13-0.35v-0.08c0-0.32,0.19-0.67,0.65-1.04c0.51-0.42,0.93-0.69,1.24-0.8
		c0.2-0.06,0.36-0.1,0.47-0.13l0.13-0.04l0.04-0.01h0.07l0.16,0.13v0.02C532.82,206.71,532.77,206.95,532.68,207.3z"/>
	<path class="st0" d="M535.93,209.3l0.47-0.04h0.01c0.24-0.03,0.5-0.08,0.76-0.14c0.27-0.07,0.57-0.17,0.9-0.3
		c0.35-0.14,0.63-0.34,0.84-0.61c0.18-0.23,0.27-0.49,0.27-0.78l-0.01-0.16c-0.03-0.28-0.12-0.63-0.25-1.06
		c-0.26-0.79-0.64-1.27-1.2-1.28l-0.11,0.01c-1.13,0.12-1.91,0.61-2.24,1.47c-0.06,0.17-0.3,0.81-0.71,1.91h-0.04l-0.33,0.11
		l-0.15,0.3v0.05c0.02,0.19,0.16,0.34,0.34,0.41c-0.02,0.15-0.07,0.42-0.14,0.78c-0.1,0.53-0.18,1.07-0.22,1.61l-0.01,0.31
		l0.01,0.27c0.05,0.53,0.25,0.93,0.62,1.15c0.27,0.17,0.57,0.25,0.88,0.25l0.21-0.01c0.52-0.06,1.08-0.5,1.78-1.29
		c0.65-0.74,1-1.3,1.01-1.78l-0.01-0.1l-0.05-0.1l-0.16-0.15l-0.13-0.04l-0.16,0.09c-0.1,0.1-0.23,0.29-0.42,0.59
		c-0.24,0.4-0.54,0.8-0.88,1.2c-0.33,0.4-0.63,0.58-0.85,0.61h-0.08c-0.25-0.01-0.38-0.13-0.45-0.61l-0.02-0.4
		c0-0.58,0.12-1.33,0.36-2.26L535.93,209.3z M536.56,206.93c0.29-0.59,0.57-0.87,0.73-0.89l0.21,0.08c0.06,0.05,0.15,0.2,0.24,0.41
		c0.09,0.22,0.16,0.5,0.2,0.83v0.11c0,0.29-0.08,0.45-0.24,0.55c-0.19,0.13-0.58,0.24-1.14,0.3c-0.13,0.02-0.3,0.03-0.49,0.03h-0.01
		c-0.04,0-0.05,0-0.08,0C536.11,207.93,536.29,207.47,536.56,206.93z"/>
	<path class="st0" d="M543.6,206.57v0.02l0.06,0.12l0.14,0.11l0.2,0.01l0.4-0.27l0.04-0.04l0.4-0.5l0.01-0.02
		c0.24-0.43,0.36-0.84,0.36-1.25l-0.01-0.22c-0.03-0.42-0.28-0.74-0.66-0.72l-0.1,0.01c-0.74,0.1-1.46,0.87-2.29,2.26
		c-0.51,0.86-0.91,1.63-1.25,2.32c0.02-0.13,0.04-0.26,0.07-0.4c0.13-0.62,0.25-1.13,0.36-1.53c0.11-0.41,0.24-0.84,0.38-1.31
		c0.14-0.47,0.21-0.72,0.22-0.78l-0.1-0.19l-0.31-0.13l-0.08-0.01c-0.48,0.05-0.87,0.28-1.08,0.68c-0.21,0.39-0.37,1.02-0.5,1.93
		v0.01l-0.01,0.24l0.01,0.07l0.06,0.16l0.05,0.15v0.3l-0.11,0.89c-0.06,0.57-0.17,1.45-0.34,2.62c-0.15,0.14-0.23,0.33-0.29,0.6
		c-0.03,0.19-0.05,0.38-0.05,0.58l0.03,0.51l0.12,0.15l0.2,0.08h0.14l0.44-0.22l0.05-0.04l0.36-0.39l0.04-0.08
		c0.3-1.46,0.83-3,1.6-4.6c0.39-0.8,0.74-1.4,1.04-1.8c0.26-0.35,0.49-0.53,0.65-0.58l0.01,0.01c0,0.11-0.04,0.31-0.12,0.6
		C543.65,206.27,543.6,206.45,543.6,206.57z"/>
	<path class="st0" d="M546.15,211.29l-0.1,0.31l-0.1,0.12l-0.09,0.11l-0.04,0.09l-0.02,0.2l0.07,0.16l0.14,0.09l0.11,0.03
		c0.39-0.05,0.82-0.37,1.38-0.93s1.12-1.23,1.68-2.01c0.57-0.79,1.07-1.7,1.51-2.71s0.69-1.95,0.75-2.81l0.01-0.32l-0.02-0.3
		l-0.11-0.38l-0.31-0.18h-0.04c-0.3,0.04-0.53,0.29-0.79,0.69c-0.24,0.37-0.37,0.64-0.38,0.88v0.06l0.01,0.04l0.12,0.31l0.11,0.32
		l-0.01,0.21c-0.12,0.63-0.3,1.24-0.53,1.81c-0.23,0.58-0.49,1.09-0.78,1.51c-0.29,0.44-0.55,0.81-0.78,1.1
		c-0.22,0.29-0.45,0.56-0.69,0.81c-0.04,0.04-0.06,0.06-0.09,0.09c0-0.09,0-0.16,0-0.27c0-1.02,0.02-3.01,0.05-5.96l-0.03-0.1
		c-0.11-0.15-0.29-0.22-0.47-0.22l-0.1,0.01c-0.45,0.05-0.79,0.24-0.92,0.6c-0.07,0.19-0.1,0.43-0.1,0.73
		c0,0.23,0.02,0.49,0.05,0.79c0.08,0.38,0.14,0.63,0.28,0.81c0.07,0.08,0.13,0.22,0.15,0.46c0.07,0.73,0.12,1.38,0.14,1.92
		c0.01,0.32,0.02,0.59,0.02,0.82l-0.01,0.43C546.2,210.89,546.18,211.12,546.15,211.29z"/>
	<path class="st0" d="M556.03,199c-0.38,0.05-0.76,0.29-1.17,0.71c-0.37,0.38-0.59,0.72-0.59,1.08l0.01,0.09
		c0.03,0.23,0.08,0.42,0.18,0.56l0.43,0.23h0.07l0.04-0.01c0.3-0.13,0.46-0.46,0.6-0.95c0.03-0.12,0.17-0.35,0.4-0.65
		c0.22-0.29,0.35-0.54,0.35-0.79v-0.07l-0.11-0.14l-0.13-0.05L556.03,199z"/>
	<path class="st0" d="M559.47,203.8l-0.03,0.42v0.08l0.12,0.34l0.31,0.16h0.05c0.25-0.03,0.41-0.23,0.53-0.5
		c0.09-0.2,0.13-0.43,0.13-0.66l-0.01-0.22c-0.05-0.63-0.46-1.05-1.06-1.03l-0.22,0.01c-0.22,0.02-0.43,0.09-0.62,0.19
		c-0.17,0.09-0.37,0.21-0.6,0.37c-0.23,0.15-0.44,0.28-0.63,0.38h-0.01c-0.52,0.32-0.95,1.18-1.43,2.61
		c-0.39,1.17-0.58,2.18-0.58,3.06c0,0.12,0.01,0.24,0.02,0.36l-0.07-0.09l-0.18-0.06l-0.08-0.01c-0.2,0.03-0.41,0.17-0.77,0.43
		l-0.41,0.28l-0.09,0.05l-0.11-0.1v-0.08c0.06-0.55,0.15-1.1,0.25-1.66s0.21-1.04,0.32-1.44c0.11-0.41,0.23-0.83,0.37-1.28
		c0.15-0.45,0.26-0.79,0.35-1.03c0.09-0.23,0.19-0.51,0.32-0.83c0.12-0.32,0.2-0.52,0.21-0.53l0.02-0.14l-0.09-0.1l-0.33-0.15
		l-0.09-0.01c-0.49,0.05-0.88,0.26-1.12,0.63c-0.23,0.36-0.43,0.98-0.64,1.9v0.02l-0.03,0.28l0.01,0.08l0.04,0.11l0.04,0.12v0.17
		l-0.04,0.29l-0.07,0.41c-0.02,0.13-0.07,0.34-0.13,0.61c-0.06,0.28-0.12,0.55-0.17,0.8c-0.06,0.26-0.14,0.63-0.24,1.1
		c-0.11,0.48-0.21,0.94-0.32,1.39v0.03l-0.03,0.45v0.03c0.01,0.28,0.25,0.5,0.52,0.49l0.1-0.01c0.35-0.05,0.8-0.34,1.47-0.88
		c0.32-0.26,0.57-0.48,0.74-0.67c0.13-0.15,0.21-0.27,0.25-0.41c0,0.01,0,0.03,0,0.04c0.09,0.93,0.59,1.51,1.39,1.5l0.24-0.01
		c0.6-0.07,1.18-0.36,1.74-0.85c0.56-0.49,0.98-0.99,1.28-1.5c0.26-0.46,0.41-0.8,0.41-1.08v-0.07l-0.04-0.09l-0.12-0.13l-0.15-0.06
		l-0.1,0.05l-0.16,0.22c-0.07,0.11-0.17,0.27-0.3,0.48c-0.27,0.43-0.63,0.87-1.09,1.32c-0.45,0.44-0.91,0.67-1.37,0.72h-0.08
		c-0.25-0.01-0.36-0.12-0.43-0.55l-0.02-0.37c0-0.63,0.14-1.48,0.44-2.54c0.35-1.29,0.66-2.1,0.86-2.36
		c0.15-0.19,0.38-0.41,0.7-0.67c0.32-0.27,0.56-0.39,0.66-0.4h0.05l0.15,0.14v0.08L559.47,203.8z"/>
	<path class="st0" d="M564.11,209.24c0.65-0.74,1-1.3,1.01-1.78l-0.01-0.1l-0.05-0.1l-0.16-0.15l-0.14-0.04l-0.16,0.09
		c-0.1,0.1-0.23,0.29-0.42,0.6c-0.24,0.39-0.54,0.8-0.88,1.2c-0.33,0.4-0.63,0.59-0.85,0.61h-0.08c-0.25-0.01-0.38-0.13-0.45-0.61
		l-0.02-0.39c0-0.58,0.12-1.34,0.36-2.26l0.16-0.01l0.47-0.04h0.01c0.24-0.03,0.5-0.07,0.77-0.14s0.57-0.17,0.89-0.29
		c0.35-0.14,0.63-0.34,0.84-0.6c0.17-0.23,0.27-0.49,0.26-0.77l-0.01-0.17c-0.03-0.28-0.11-0.64-0.25-1.06
		c-0.26-0.79-0.65-1.27-1.2-1.28l-0.1,0.01c-1.13,0.13-1.91,0.62-2.24,1.47c-0.06,0.17-0.3,0.81-0.7,1.9h-0.04l-0.33,0.11l-0.15,0.3
		v0.04v0.01c0.02,0.19,0.16,0.34,0.34,0.4c-0.02,0.15-0.07,0.42-0.14,0.78c-0.11,0.53-0.18,1.07-0.21,1.61l-0.01,0.31l0.01,0.27
		c0.06,0.53,0.26,0.93,0.63,1.15c0.28,0.16,0.58,0.25,0.89,0.25l0.2-0.01C562.85,210.46,563.41,210.02,564.11,209.24z
		 M563.08,203.92c0.27-0.59,0.55-0.87,0.71-0.9l0.21,0.08c0.06,0.06,0.15,0.19,0.24,0.41c0.09,0.23,0.15,0.5,0.19,0.84l0.01,0.12
		c0,0.29-0.08,0.44-0.23,0.54c-0.19,0.13-0.58,0.24-1.13,0.3c-0.14,0.01-0.3,0.03-0.49,0.04c-0.04,0-0.06,0-0.09,0
		C562.63,204.93,562.81,204.47,563.08,203.92z"/>
	<path class="st0" d="M532.03,228.74l-0.15-0.06l-0.23,0.17l-0.24,0.32c-0.18,0.27-0.39,0.54-0.64,0.8
		c-0.24,0.27-0.44,0.38-0.58,0.4h-0.01l-0.05-0.03l-0.07-0.27l-0.01-0.13c0-0.38,0.11-1.22,0.34-2.48c0.24-1.35,0.46-2.33,0.66-2.99
		h0.03l0.17-0.01l0.08-0.03l0.2-0.15l0.05-0.21l-0.12-0.26l-0.06-0.07l-0.12-0.08c0.14-0.61,0.33-1.37,0.58-2.3
		c0.27-1.01,0.48-1.83,0.63-2.46c0.12-0.55,0.19-0.94,0.19-1.21l-0.01-0.13l-0.02-0.05l-0.08-0.18l-0.09-0.09l-0.52-0.1l-0.14,0.01
		l-0.07,0.03l-0.31,0.2l-0.06,0.07c-0.31,0.61-0.48,1.12-0.48,1.54l0.01,0.15l0.06,0.11l0.18,0.16c-0.08,0.35-0.43,1.75-1.01,4.12
		c-0.1-0.01-0.27-0.04-0.49-0.08c-0.28-0.05-0.53-0.08-0.73-0.08l-0.23,0.01l-0.06,0.02l-0.41,0.21h-0.01l-0.3,0.17h-0.05
		c-0.53,0.08-0.94,0.65-1.43,1.65c-0.48,1-0.86,2.1-1.15,3.29c-0.23,0.96-0.36,1.74-0.36,2.33l0.02,0.4
		c0.03,0.41,0.25,0.74,0.61,0.73l0.08-0.01c0.59-0.08,1.21-0.66,1.97-1.69c0.53-0.73,0.97-1.41,1.38-2.08
		c-0.15,0.85-0.23,1.55-0.23,2.11c0,0.18,0.01,0.35,0.03,0.5c0.01,0.31,0.24,0.56,0.54,0.55l0.09-0.01
		c0.39-0.05,0.82-0.33,1.36-0.81c0.53-0.48,0.93-0.9,1.23-1.26l0.02-0.03l0.04-0.08l0.02-0.04l0.04-0.18v-0.03l0.01-0.17l-0.04-0.12
		L532.03,228.74z M529.76,224.95c-0.14,0.5-0.34,1.05-0.59,1.64c-0.24,0.59-0.52,1.11-0.84,1.55l-0.02,0.03
		c-0.01,0.02-0.13,0.21-0.34,0.51c-0.23,0.33-0.44,0.63-0.63,0.91c-0.19,0.27-0.4,0.53-0.64,0.77c-0.22,0.24-0.41,0.35-0.46,0.35
		h-0.01l-0.01-0.01l-0.04-0.15l-0.01-0.24c0-0.71,0.3-1.83,0.91-3.33c0.34-0.84,0.63-1.49,0.88-1.94c0.23-0.44,0.45-0.68,0.5-0.69
		c0.09-0.03,0.25-0.06,0.47-0.09c0.31-0.04,0.56-0.05,0.75-0.05l0.29,0.03C529.93,224.36,529.87,224.59,529.76,224.95z"/>
	<path class="st0" d="M536.76,228.12l-0.05-0.11l-0.16-0.15l-0.15-0.04l-0.26,0.22c-0.08,0.11-0.18,0.26-0.31,0.46
		c-0.24,0.4-0.54,0.8-0.88,1.2c-0.33,0.4-0.63,0.59-0.85,0.61h-0.07c-0.26-0.01-0.39-0.13-0.46-0.61l-0.02-0.4
		c0-0.58,0.12-1.34,0.36-2.26l0.16-0.01l0.47-0.04h0.01c0.24-0.03,0.5-0.07,0.77-0.14c0.27-0.06,0.56-0.16,0.89-0.29
		c0.35-0.13,0.63-0.34,0.83-0.61c0.17-0.23,0.27-0.5,0.27-0.78l-0.01-0.16c-0.03-0.28-0.12-0.63-0.25-1.06
		c-0.27-0.79-0.64-1.27-1.2-1.28l-0.11,0.01c-1.13,0.12-1.91,0.61-2.24,1.47c-0.06,0.17-0.3,0.81-0.71,1.91h-0.04l-0.33,0.11
		l-0.16,0.3v0.05c0.02,0.2,0.16,0.34,0.34,0.41c-0.02,0.15-0.07,0.42-0.14,0.78c-0.1,0.53-0.18,1.06-0.22,1.61l-0.01,0.31l0.01,0.27
		c0.06,0.53,0.26,0.94,0.63,1.15c0.27,0.16,0.57,0.25,0.88,0.25l0.21-0.01c0.52-0.07,1.08-0.51,1.78-1.29
		c0.65-0.74,1-1.31,1.01-1.79L536.76,228.12z M534.7,224.67c0.29-0.58,0.57-0.86,0.73-0.89l0.2,0.07c0.07,0.06,0.15,0.2,0.24,0.42
		c0.09,0.22,0.16,0.5,0.2,0.84v0.11c0,0.29-0.09,0.44-0.24,0.54c-0.19,0.13-0.58,0.24-1.14,0.3c-0.13,0.02-0.3,0.03-0.49,0.04
		c-0.04,0-0.05,0-0.08,0C534.25,225.68,534.43,225.22,534.7,224.67z"/>
	<path class="st0" d="M543.86,225.34l0.05-0.05l0.18-0.28l0.02-0.15l-0.11-0.1l-0.15-0.05h-0.09l-0.45,0.11l-0.03,0.01l-0.48,0.22
		h-0.01l-0.22,0.11c-0.49-1.4-1.23-2.41-2.23-3.01l0.13-0.41l0.01-0.03l0.06-0.4l-0.05-0.14l-0.19-0.19l-0.14-0.05
		c-0.25,0.03-0.48,0.2-0.73,0.47c-0.23,0.26-0.37,0.5-0.37,0.75v0.07l0.03,0.07l-0.13,0.07c-0.21,0.13-0.37,0.25-0.39,0.48v0.04
		l0.1,0.13l0.25,0.11l0.05,0.01l0.05,0.01c-0.12,0.7-0.45,2.4-1,5.1c-0.25,0.22-0.39,0.49-0.39,0.8l0.01,0.13l0.01,0.03l0.09,0.31
		c-0.03,0.12-0.19,0.77-0.46,1.85c-0.31,1.21-0.53,2.2-0.68,2.94c-0.12,0.62-0.18,1.08-0.18,1.41l0.01,0.21l0.12,0.44l0.33,0.21
		h0.04c0.33-0.04,0.55-0.32,0.72-0.73c0.15-0.37,0.24-0.63,0.24-0.85v-0.07l-0.01-0.05l-0.1-0.24l-0.01-0.01l-0.07-0.13v-0.03
		c0.1-0.46,0.27-1.22,0.5-2.26c0.2-0.9,0.34-1.53,0.43-1.94c0.37,0.18,0.8,0.3,1.3,0.3c0.17,0,0.35-0.01,0.54-0.03
		c0.79-0.09,1.45-0.43,1.97-1.02c0.43-0.48,0.64-1.15,0.64-1.96c0-0.2-0.01-0.41-0.04-0.64c-0.04-0.39-0.12-0.74-0.21-1.07
		c0.1-0.05,0.23-0.11,0.42-0.19C543.51,225.55,543.72,225.44,543.86,225.34z M539.66,225.72c0.15-0.78,0.27-1.36,0.37-1.78
		c0.04-0.21,0.08-0.36,0.11-0.45l0.2,0.18c0.16,0.19,0.35,0.49,0.56,0.9c0.19,0.36,0.35,0.76,0.5,1.2
		c-0.79,0.41-1.45,0.82-1.99,1.24C539.48,226.66,539.56,226.24,539.66,225.72z M541.51,228.91c-0.26,0.46-0.69,0.72-1.37,0.79
		l-0.22,0.01c-0.32,0-0.67-0.09-1.03-0.26l0.26-1.18c0.24-0.27,0.69-0.65,1.34-1.15c0.52-0.41,0.92-0.65,1.14-0.74
		c0.09,0.33,0.15,0.63,0.18,0.88l0.02,0.39C541.83,228.13,541.72,228.55,541.51,228.91z"/>
	<path class="st0" d="M550.76,227.59l-0.1-0.14l-0.18-0.08l-0.09-0.01c-0.27,0.04-0.54,0.27-0.97,0.67c-0.2,0.2-0.37,0.34-0.49,0.44
		l-0.05,0.04c0.01-0.29,0.08-0.85,0.21-1.68c0.17-1.04,0.34-1.93,0.5-2.67c0.11-0.5,0.26-1.12,0.44-1.87
		c0.19-0.74,0.29-1.17,0.32-1.31l-0.08-0.18l-0.27-0.16l-0.1-0.02c-0.55,0.05-0.96,0.38-1.17,0.92c-0.18,0.43-0.27,0.85-0.27,1.25
		l0.01,0.16c-0.83,2.02-1.86,3.63-3.1,4.84l-0.21,0.2c0.06-0.29,0.19-0.83,0.4-1.61c0.29-1.12,0.74-2.73,1.33-4.83l-0.01-0.12
		c-0.08-0.18-0.27-0.26-0.45-0.25h-0.09c-0.52,0.06-0.92,0.27-1.13,0.63c-0.2,0.36-0.35,0.98-0.49,1.9v0.01l-0.02,0.23l0.01,0.08
		l0.06,0.14l0.06,0.17l0.01,0.1c0,0.21-0.06,0.56-0.17,1.02c-0.14,0.55-0.33,1.21-0.58,1.99c-0.12,0.39-0.22,0.68-0.28,0.88
		l-0.07,0.23l-0.02,0.09c-0.09,0.34-0.14,0.62-0.14,0.84l0.01,0.15c0.01,0.26,0.19,0.5,0.45,0.49h0.07
		c0.66-0.09,1.38-0.81,2.34-2.15c0.71-1,1.3-1.92,1.79-2.76c-0.33,2.27-0.57,3.69-0.71,4.19c-0.04,0.13-0.15,0.31-0.34,0.52
		c-0.19,0.22-0.31,0.38-0.33,0.58v0.04c0.01,0.19,0.2,0.37,0.4,0.35l0.09-0.01l0.07-0.02l0.41-0.25l0.03-0.03
		c0.15-0.16,0.31-0.35,0.48-0.57c0.16-0.22,0.28-0.37,0.36-0.45c0.06-0.05,0.25-0.2,0.61-0.47c0.38-0.29,0.71-0.56,1-0.83
		c0.28-0.27,0.45-0.41,0.47-0.65L550.76,227.59z"/>
	<path class="st0" d="M554.74,216.99v-0.07l-0.11-0.14l-0.13-0.05l-0.08-0.01c-0.39,0.04-0.76,0.29-1.17,0.7
		c-0.37,0.38-0.59,0.72-0.59,1.08l0.01,0.09c0.03,0.23,0.08,0.41,0.18,0.56l0.44,0.23h0.07l0.04-0.01c0.3-0.13,0.46-0.46,0.6-0.94
		c0.03-0.12,0.16-0.35,0.39-0.65C554.61,217.48,554.74,217.23,554.74,216.99z"/>
	<path class="st0" d="M553.44,220.33c-0.49,0.05-0.89,0.26-1.12,0.63c-0.22,0.36-0.43,0.98-0.64,1.9v0.02l-0.03,0.28l0.01,0.08
		l0.04,0.11l0.04,0.12v0.18l-0.04,0.3l-0.07,0.4c-0.02,0.13-0.07,0.33-0.13,0.61c-0.06,0.27-0.12,0.54-0.17,0.8s-0.14,0.62-0.24,1.1
		c-0.11,0.48-0.22,0.94-0.32,1.39v0.02l-0.03,0.44v0.03c0.01,0.28,0.25,0.51,0.53,0.49h0.09c0.34-0.05,0.8-0.34,1.47-0.88
		c0.32-0.26,0.57-0.48,0.74-0.66c0.17-0.19,0.27-0.31,0.28-0.5v-0.03l-0.11-0.14l-0.18-0.06l-0.08-0.01
		c-0.19,0.03-0.4,0.17-0.76,0.42l-0.41,0.28l-0.1,0.05l-0.11-0.1v-0.09c0.06-0.55,0.15-1.1,0.25-1.66c0.11-0.56,0.21-1.04,0.32-1.44
		s0.23-0.83,0.38-1.28c0.14-0.45,0.26-0.79,0.35-1.03c0.09-0.23,0.19-0.51,0.32-0.83c0.12-0.32,0.2-0.51,0.22-0.54l0.01-0.13
		l-0.42-0.27H553.44z"/>
	<path class="st0" d="M558.52,219.86l-0.16,0.01c-0.15,0.02-0.34,0.08-0.58,0.18l-0.01,0.01l-0.22,0.11l-0.29,0.15l-0.32,0.17h-0.01
		l-0.36,0.22l-0.37,0.24h-0.01l-0.41,0.3l-0.01,0.01l-0.39,0.35l-0.01,0.01l-0.39,0.38l-0.01,0.01l-0.35,0.43l-0.01,0.01l-0.35,0.49
		v0.01c-0.14,0.21-0.21,0.44-0.21,0.68l0.01,0.13c0.04,0.36,0.27,0.67,0.64,0.97c0.36,0.28,0.74,0.53,1.14,0.71
		c0.39,0.17,0.75,0.38,1.08,0.6c0.33,0.21,0.47,0.41,0.47,0.51v0.03c0.02,0.18-0.29,0.52-1.04,0.87c-0.78,0.38-1.4,0.58-1.82,0.63
		l-0.12,0.07l-0.2,0.28l-0.01,0.17l0.13,0.27l0.09,0.08l0.29,0.11l0.08,0.01c0.72-0.08,1.51-0.47,2.4-1.15
		c0.83-0.64,1.28-1.26,1.28-1.92l-0.01-0.15c-0.05-0.41-0.29-0.75-0.68-0.95c-0.36-0.18-0.78-0.38-1.26-0.58
		c-0.45-0.19-0.77-0.43-0.97-0.74l-0.13-0.36v-0.07c0-0.32,0.2-0.67,0.66-1.05c0.51-0.42,0.93-0.68,1.23-0.79
		c0.2-0.06,0.36-0.1,0.47-0.13l0.13-0.03l0.04-0.01h0.07l0.15,0.12v0.01v0.02c0,0.09-0.04,0.33-0.14,0.67
		c-0.1,0.37-0.15,0.61-0.15,0.79v0.07l0.04,0.09l0.1,0.12l0.15,0.06c0.33-0.07,0.52-0.4,0.82-0.96c0.28-0.56,0.42-0.99,0.43-1.32
		v-0.01v-0.02C559.36,220.22,559.02,219.85,558.52,219.86z"/>
	<path class="st0" d="M574.03,219.88c0.89-1.15,1.35-2.15,1.35-3.04l-0.01-0.27c-0.08-0.84-0.65-1.33-1.52-1.31l-0.38,0.02
		c-1.15,0.13-2.32,0.55-3.5,1.24c-1.17,0.69-2.2,1.51-3.08,2.43l-0.04,0.06l-0.08,0.22l0.04,0.18l0.19,0.19l0.2,0.03l0.16-0.08
		l0.05-0.04c0.94-1.1,2.23-1.96,3.9-2.6c0.22-0.08,0.44-0.15,0.64-0.21s0.38-0.09,0.55-0.11l0.29-0.02l0.17,0.01l0.34,0.11
		l0.21,0.22l0.12,0.37l0.01,0.07v0.09v0.09c-0.05,0.74-0.27,1.41-0.65,2.01c-0.39,0.62-0.96,1.29-1.7,2.01
		c-0.75,0.75-2.36,2.01-4.79,3.78h-0.02l-0.07,0.01c-0.15,0.02-0.32,0.05-0.52,0.09c-0.2,0.05-0.4,0.1-0.6,0.17
		c-0.19,0.06-0.38,0.13-0.56,0.2h-0.01l-0.42,0.21l-0.02,0.01c-0.27,0.17-0.49,0.38-0.68,0.64c-0.16,0.24-0.25,0.44-0.26,0.65v0.07
		c0.02,0.23,0.25,0.38,0.47,0.36l0.11-0.01c0.35-0.04,0.69-0.18,1.01-0.4c0.31-0.22,0.6-0.46,0.88-0.72
		c0.26-0.24,0.47-0.38,0.62-0.45l0.31-0.01h0.23c0.18,0,0.38,0.03,0.59,0.08c0.22,0.04,0.4,0.08,0.55,0.12h0.01
		c0.14,0.03,0.34,0.08,0.59,0.14c0.24,0.06,0.41,0.11,0.52,0.14c1.14,0.27,2.09,0.41,2.86,0.41c0.21,0,0.41-0.01,0.59-0.03
		c0.72-0.08,1.33-0.3,1.84-0.67c0.46-0.34,0.72-0.76,0.72-1.25l-0.01-0.17c-0.08-0.7-0.7-1.13-1.68-1.28h-0.07l-0.25,0.07l-0.11,0.1
		v0.15l0.11,0.2l0.12,0.09c0.68,0.14,0.95,0.38,0.99,0.69l-0.02,0.25c-0.13,0.43-0.64,0.75-1.64,0.86
		c-0.22,0.03-0.46,0.04-0.72,0.04c-0.64,0-1.38-0.08-2.24-0.24c-0.92-0.19-1.64-0.31-2.18-0.35c1.74-1.15,3.13-2.18,4.14-3.1
		C572.66,221.51,573.44,220.67,574.03,219.88z"/>
	<path class="st0" d="M585.95,214.37c-0.08-0.07-0.18-0.11-0.27-0.17c0.06,0.01,0.1,0.01,0.16,0.02l0.19,0.03l0.25-0.09l0.11-0.24
		v-0.03c-0.02-0.19-0.15-0.34-0.33-0.41c-0.17-0.08-0.39-0.1-0.66-0.1c-0.17,0-0.37,0.01-0.59,0.04c-0.55,0.06-0.99,0.17-1.34,0.32
		l-0.3,0.01h-0.02l-0.33,0.06h-0.01l-0.32,0.12l-0.17,0.26l0.05,0.09c-0.96,0.59-1.89,1.37-2.8,2.34c-0.95,1.02-1.66,2.04-2.13,3.07
		c-0.64,1.37-0.96,2.61-0.96,3.72c0,0.21,0.01,0.41,0.03,0.61c0.07,0.61,0.26,1.12,0.58,1.5c0.32,0.37,0.77,0.57,1.3,0.59h0.01h0.04
		c0.21,0,0.42-0.01,0.65-0.04c0.47-0.06,0.95-0.16,1.43-0.33c0.48-0.16,0.97-0.39,1.47-0.67c0.51-0.29,1.01-0.64,1.52-1.05
		c0.51-0.41,1-0.88,1.47-1.41c0.79-0.88,1.39-1.84,1.81-2.89c0.34-0.84,0.51-1.65,0.51-2.41c0-0.19-0.01-0.37-0.03-0.56
		C587.15,215.76,586.7,214.95,585.95,214.37z M585.94,218.25c-0.09,0.53-0.31,1.16-0.66,1.87c-0.35,0.71-0.83,1.38-1.42,2.03
		c-0.74,0.82-1.55,1.54-2.43,2.14c-0.88,0.61-1.73,0.95-2.56,1.04l-0.21,0.01c-0.27,0-0.46-0.07-0.59-0.2
		c-0.18-0.12-0.31-0.44-0.37-0.92l-0.03-0.47c0-1.17,0.33-2.44,1-3.77c0.47-0.97,1.17-2.02,2.11-3.15c0.92-1.11,1.89-1.88,2.92-2.35
		c0.48,0.05,1.02,0.25,1.6,0.6c0.12,0.07,0.27,0.26,0.41,0.56c0.14,0.29,0.23,0.64,0.28,1.06c0.02,0.19,0.03,0.39,0.03,0.59
		C586.02,217.6,585.99,217.92,585.94,218.25z"/>
	<path class="st0" d="M597.58,213.05c-0.08-0.07-0.18-0.11-0.27-0.17c0.06,0.01,0.1,0.01,0.16,0.02l0.19,0.03l0.25-0.09l0.1-0.25
		v-0.03c-0.02-0.19-0.15-0.34-0.32-0.41c-0.17-0.08-0.39-0.1-0.66-0.1c-0.17,0-0.37,0.01-0.59,0.04c-0.55,0.06-0.99,0.17-1.35,0.32
		l-0.3,0.01h-0.02l-0.33,0.06h-0.01l-0.32,0.12l-0.17,0.26l0.05,0.09c-0.96,0.59-1.89,1.37-2.8,2.34c-0.95,1.02-1.67,2.04-2.14,3.07
		c-0.64,1.37-0.96,2.61-0.96,3.72c0,0.21,0.01,0.41,0.03,0.61c0.07,0.62,0.26,1.12,0.58,1.5c0.32,0.37,0.77,0.57,1.3,0.59h0.01
		c0.22,0,0.45-0.01,0.69-0.04c0.47-0.05,0.95-0.16,1.43-0.32c0.48-0.17,0.97-0.39,1.48-0.68c0.5-0.29,1.01-0.64,1.52-1.05
		c0.51-0.42,1-0.89,1.46-1.41c0.79-0.88,1.39-1.84,1.81-2.89c0.34-0.85,0.51-1.66,0.51-2.42c0-0.18-0.01-0.37-0.03-0.55
		C598.78,214.44,598.34,213.63,597.58,213.05z M597.57,216.93c-0.09,0.53-0.31,1.15-0.67,1.87c-0.35,0.71-0.83,1.38-1.42,2.03
		c-0.74,0.82-1.55,1.54-2.43,2.15c-0.88,0.61-1.73,0.95-2.56,1.04l-0.21,0.01c-0.28,0-0.47-0.07-0.6-0.2
		c-0.16-0.14-0.29-0.45-0.35-0.93l-0.03-0.47c0-1.17,0.33-2.44,1-3.77c0.47-0.97,1.17-2.02,2.11-3.15c0.92-1.11,1.89-1.88,2.92-2.35
		c0.48,0.05,1.01,0.25,1.6,0.6c0.12,0.08,0.27,0.26,0.41,0.56c0.14,0.29,0.23,0.65,0.28,1.06c0.02,0.19,0.03,0.38,0.03,0.58
		C597.65,216.27,597.62,216.6,597.57,216.93z"/>
	<path class="st0" d="M610.53,214.12c-0.11-1.01-0.56-1.82-1.32-2.4c-0.08-0.07-0.18-0.11-0.27-0.17c0.06,0.01,0.1,0.01,0.16,0.02
		l0.19,0.03l0.25-0.09l0.11-0.24v-0.03c-0.02-0.19-0.15-0.34-0.33-0.41c-0.17-0.08-0.39-0.1-0.66-0.1c-0.17,0-0.37,0.01-0.59,0.04
		c-0.55,0.06-0.99,0.17-1.34,0.32l-0.3,0.01h-0.02l-0.33,0.06h-0.01l-0.31,0.12l-0.17,0.26l0.05,0.09c-0.96,0.59-1.89,1.37-2.8,2.34
		c-0.95,1.02-1.66,2.05-2.14,3.07c-0.64,1.37-0.96,2.6-0.96,3.72c0,0.21,0.01,0.42,0.03,0.62c0.07,0.62,0.26,1.12,0.58,1.5
		c0.32,0.37,0.77,0.58,1.3,0.59h0.01c0.22,0,0.45-0.01,0.69-0.04c0.47-0.05,0.95-0.16,1.43-0.32c0.48-0.17,0.97-0.39,1.47-0.67
		c0.51-0.29,1.01-0.64,1.52-1.05c0.51-0.41,1-0.88,1.47-1.41c0.79-0.87,1.39-1.84,1.81-2.89c0.34-0.85,0.51-1.65,0.51-2.42
		C610.56,214.49,610.55,214.31,610.53,214.12z M609.21,215.61c-0.09,0.53-0.31,1.15-0.67,1.87c-0.35,0.71-0.83,1.38-1.42,2.03
		c-0.74,0.82-1.55,1.54-2.43,2.14c-0.88,0.61-1.73,0.95-2.56,1.04l-0.22,0.01c-0.27,0-0.46-0.07-0.59-0.2
		c-0.17-0.13-0.3-0.45-0.35-0.93l-0.03-0.47c0-1.17,0.33-2.44,1-3.77c0.47-0.97,1.17-2.02,2.11-3.15c0.91-1.1,1.89-1.88,2.92-2.34
		c0.48,0.06,1.01,0.25,1.6,0.6c0.12,0.07,0.27,0.26,0.41,0.56c0.14,0.29,0.23,0.65,0.28,1.06c0.02,0.19,0.03,0.38,0.03,0.58
		C609.29,214.96,609.26,215.28,609.21,215.61z"/>
	<path class="st0" d="M189.33,90.19c0.68-1.21,1.8-1.83,3.34-1.83c0.92,0,1.78,0.24,2.57,0.74c0.78,0.49,1.46,1.2,2.02,2.1
		c1.25-0.78,2.19-1.65,2.87-2.62c0.66-0.97,1-1.97,1-2.99c0.01-1.28-0.48-2.31-1.47-3.13c-1.03-0.81-2.32-1.22-3.87-1.22
		c-1.98,0-3.67,0.68-5.12,2.05c-1.46,1.39-2.54,3.37-3.3,5.97l-0.77-0.2c0.01-1.14,0.09-2.28,0.19-3.42
		c0.1-1.15,0.25-2.31,0.48-3.49l-1.62-1.04c-0.84,0.46-1.97,1.16-3.37,2.05l-0.36,0.27c-2.23,0.03-3.99,0.11-5.34,0.21
		c-1.32,0.1-2.49,0.24-3.49,0.42v2.16h0.5c1.63,0,2.71,0.43,3.23,1.31c0.54,0.86,0.8,3.23,0.8,7.04v4.91v0.58
		c0,4.45-0.31,7.23-0.93,8.26c-0.62,1.04-1.81,1.61-3.61,1.73l0.04,2.14c1.58-0.11,3.17-0.28,4.83-0.53
		c1.63-0.26,3.33-0.59,5.09-1.02c2,0.44,3.97,0.81,5.9,1.06c1.95,0.26,3.86,0.42,5.79,0.49v-2.14c-2.54-0.19-4.24-0.84-5.1-1.91
		c-0.88-1.1-1.31-3.96-1.31-8.66v-3.14C188.32,93.48,188.66,91.42,189.33,90.19z"/>
	<path class="st0" d="M227.4,69.71c-0.56-0.09-1.13-0.02-1.73,0.23c-0.6,0.23-1.36,0.71-2.31,1.44l-5.78,5.05l0.76,1.3l8.31-2.57
		c0.97-0.28,1.67-0.61,2.13-1c0.46-0.38,0.73-0.86,0.83-1.43c0.12-0.72-0.03-1.38-0.45-1.96C228.73,70.2,228.16,69.84,227.4,69.71z"
		/>
	<path class="st0" d="M333.27,122.41c-0.49-0.08-0.99-0.02-1.51,0.2c-0.52,0.2-1.19,0.61-2.01,1.26l-5.05,4.4l0.66,1.13l7.25-2.24
		c0.85-0.24,1.46-0.53,1.86-0.87c0.4-0.33,0.64-0.75,0.72-1.25c0.1-0.63-0.02-1.2-0.39-1.71
		C334.43,122.83,333.93,122.52,333.27,122.41z"/>
	<path class="st0" d="M280.81,97.74h-0.01c0,6.02,0.8,10.04,2.42,12.03c1.64,2.01,4.44,3.01,8.44,3.01c2.12,0,4.09-0.37,5.91-1.1
		c1.82-0.71,3.47-1.8,4.95-3.22l-1.27-2.2c-0.74,0.68-1.48,1.18-2.27,1.52c-0.77,0.33-1.55,0.51-2.32,0.51
		c-1.73,0-2.99-0.63-3.77-1.84c-0.79-1.23-1.18-3.17-1.18-5.87v-13.4l7.24,0.18V83.5l-7.24,0.12v-8.77h-4.88
		c-0.33,2.97-1.28,5.26-2.87,6.85c-1.58,1.59-3.82,2.54-6.74,2.87v2.61h3.59V97.74z"/>
	<path class="st0" d="M314.17,110.63c1.79,0.5,3.57,0.86,5.29,1.11c1.7,0.25,3.46,0.4,5.19,0.44v-2.14
		c-2.01-0.18-3.32-0.74-3.99-1.67c-0.68-0.95-0.99-3.32-0.99-7.13V99.9v-8.29c0-2.29,0.02-4.13,0.11-5.51
		c0.08-1.39,0.21-2.66,0.42-3.8l-1.92-1.18c-0.74,0.4-1.44,0.81-2.06,1.21c-0.63,0.41-1.21,0.83-1.75,1.26
		c-0.45-0.01-0.89-0.04-1.34-0.04c-0.43-0.01-0.88-0.02-1.36-0.02c-0.99,0-2.1,0.06-3.3,0.17c-1.22,0.11-2.52,0.28-4,0.49v2.15h0.35
		c1.63,0,2.72,0.41,3.22,1.22c0.55,0.82,0.82,3.05,0.82,6.63v5.36v0.98c0,4.25-0.37,6.87-1.06,7.88c-0.69,1-2.03,1.54-4.05,1.65
		v2.14c1.59-0.02,3.24-0.16,4.99-0.42C310.45,111.5,312.27,111.12,314.17,110.63z"/>
	<path class="st0" d="M313.48,77.79c1.51,0,2.81-0.52,3.87-1.59c1.05-1.07,1.59-2.34,1.59-3.88c0-1.53-0.55-2.82-1.57-3.89
		c-1.05-1.03-2.35-1.56-3.89-1.56c-1.57,0-2.87,0.52-3.91,1.56c-1.05,1.04-1.55,2.34-1.55,3.89c0,1.55,0.5,2.84,1.56,3.88
		C310.65,77.27,311.94,77.79,313.48,77.79z"/>
	<path class="st0" d="M359.41,85.53c-3.4-2.95-7.89-4.43-13.42-4.43c-5.58,0-10.07,1.48-13.46,4.42c-3.39,2.94-5.11,6.77-5.11,11.48
		c0,4.72,1.71,8.57,5.11,11.5c3.39,2.92,7.88,4.37,13.46,4.37c5.57,0,10.04-1.45,13.42-4.37c3.4-2.94,5.08-6.78,5.08-11.5
		C364.5,92.31,362.81,88.49,359.41,85.53z M351.01,106.72c-1.11,2.21-2.81,3.32-5.01,3.32c-2.23,0-3.9-1.11-5.03-3.31
		c-1.1-2.18-1.67-5.43-1.67-9.77c0-4.28,0.56-7.54,1.67-9.72c1.13-2.2,2.8-3.29,5.03-3.29c2.2,0,3.89,1.1,5.01,3.29
		c1.15,2.21,1.75,5.45,1.75,9.71C352.76,101.26,352.17,104.51,351.01,106.72z"/>
	<path class="st0" d="M368.27,110l0.05,2.17c1.43-0.06,2.96-0.21,4.57-0.44c1.63-0.22,3.37-0.55,5.27-0.98
		c1.74,0.43,3.44,0.76,5.08,0.98c1.66,0.23,3.27,0.39,4.87,0.44l0.03-2.14c-1.82-0.16-3.05-0.75-3.68-1.77
		c-0.63-1.04-0.96-3.61-0.96-7.75v-5.24c0-3.24,0.48-5.66,1.42-7.27c0.96-1.58,2.37-2.38,4.28-2.38c2.01,0,3.39,0.77,4.17,2.3
		c0.79,1.53,1.17,4.72,1.17,9.54c0,3.09-0.05,5.89-0.15,8.41c-0.11,2.5-0.26,4.59-0.43,6.31c1.01-0.11,2.08-0.26,3.16-0.5
		c1.09-0.23,2.2-0.54,3.32-0.92c1.78,0.48,3.43,0.84,4.99,1.07c1.55,0.23,3.09,0.35,4.56,0.35v-2.14c-1.81-0.16-3.03-0.74-3.68-1.76
		c-0.65-1.01-0.94-3.58-0.94-7.7v-4.75c0-5.13-0.95-8.85-2.83-11.19c-1.86-2.35-4.83-3.53-8.89-3.53c-2.44,0-4.6,0.49-6.42,1.48
		c-1.84,0.97-3.25,2.4-4.25,4.22l-0.7-0.24c0.04-0.74,0.09-1.46,0.17-2.2c0.09-0.74,0.19-1.46,0.33-2.23l-1.61-1.04
		c-0.44,0.21-0.94,0.53-1.53,0.9c-0.58,0.38-1.22,0.86-1.96,1.42c-0.17,0-0.44-0.01-0.77-0.03c-0.35-0.02-0.6-0.03-0.8-0.03
		c-1.1,0-2.3,0.05-3.58,0.16c-1.29,0.11-2.69,0.28-4.26,0.53v2.16h0.52c1.6,0,2.67,0.43,3.21,1.31c0.54,0.87,0.82,3.23,0.82,7.05
		v4.89v0.58h0.01c0,4.45-0.32,7.19-0.94,8.23C371.28,109.32,370.07,109.88,368.27,110z"/>
	<path class="st0" d="M417.3,111.66c2.15,0.74,5.01,1.1,8.6,1.1c4.94,0,8.8-0.88,11.52-2.62c2.73-1.75,4.12-4.21,4.12-7.37
		c0-2.25-0.7-4.09-2.15-5.53c-1.42-1.46-4.21-2.97-8.38-4.53c-3.03-1.15-4.9-2.05-5.62-2.7c-0.71-0.65-1.1-1.48-1.1-2.49
		c0-1.02,0.45-1.85,1.29-2.5c0.84-0.63,1.95-0.97,3.36-0.97c2.01,0,3.72,0.65,5.11,1.9c1.4,1.28,2.4,3.09,2.97,5.46h2.61
		c0-0.76-0.07-1.5-0.17-2.19c-0.11-0.71-0.24-1.37-0.44-1.99c0.33-0.45,0.53-0.84,0.68-1.19c0.13-0.36,0.21-0.68,0.21-0.99
		c0-1.08-1.07-1.99-3.18-2.73c-2.14-0.74-4.79-1.1-8.01-1.1c-4.61,0-8.15,0.79-10.65,2.43c-2.52,1.63-3.74,3.93-3.74,6.91
		c0,2.13,0.64,3.93,1.96,5.39c1.33,1.48,3.52,2.82,6.58,4.05c0.54,0.2,1.33,0.49,2.33,0.87c4.06,1.51,6.11,3.21,6.11,5.07
		c0,1.22-0.49,2.23-1.49,2.97c-0.99,0.74-2.3,1.11-3.94,1.11c-2.47,0-4.46-0.79-5.99-2.39c-1.51-1.58-2.38-3.79-2.6-6.62h-2.96
		c0,0.84,0.06,1.71,0.16,2.63c0.11,0.91,0.25,1.92,0.49,2.99c-0.31,0.44-0.53,0.85-0.67,1.23c-0.15,0.38-0.22,0.7-0.22,0.92
		C414.1,109.98,415.15,110.96,417.3,111.66z"/>
	<path class="st0" d="M311.44,148.84c-0.78,0.56-1.57,0.97-2.38,1.23c-0.8,0.25-1.63,0.37-2.53,0.37c-2.38,0-4.29-1-5.75-3.01
		c-1.46-2.02-2.21-4.6-2.21-7.8c0-1.94,0.38-3.44,1.14-4.53c0.77-1.09,1.85-1.62,3.18-1.62c1.13,0,2.07,0.47,2.82,1.42
		c0.77,0.94,1.28,2.28,1.53,4c1.47-0.06,2.55-0.34,3.29-0.82c0.73-0.47,1.1-1.17,1.1-2.06c0-1.37-0.7-2.48-2.08-3.38
		c-1.37-0.91-3.16-1.35-5.38-1.35c-3.86,0-7.04,1.11-9.51,3.33c-2.48,2.21-3.7,5.06-3.7,8.57c0,3.21,1.01,5.75,3.08,7.63
		c2.05,1.86,4.85,2.79,8.36,2.79c2.09,0,3.97-0.29,5.68-0.86c1.72-0.58,3.12-1.38,4.19-2.44L311.44,148.84z"/>
	<path class="st0" d="M322.44,141.02c0.28-0.19,0.86-0.3,1.75-0.3h11.9c0.03-0.35,0.07-0.61,0.08-0.81
		c0.02-0.18,0.02-0.33,0.02-0.48c0-2.3-0.94-4.23-2.82-5.8c-1.89-1.55-4.25-2.34-7.06-2.34c-3.49,0-6.37,1.09-8.65,3.29
		c-2.3,2.2-3.44,4.97-3.44,8.3c0,3.25,1.06,5.84,3.17,7.84c2.12,1.98,4.92,2.97,8.41,2.97c2.39,0,4.54-0.39,6.46-1.14
		s3.45-1.8,4.56-3.15l-0.73-1.38c-0.91,0.75-1.89,1.31-2.95,1.71c-1.1,0.39-2.19,0.6-3.29,0.6c-2.26,0-4.15-0.79-5.62-2.32
		c-1.47-1.54-2.22-3.45-2.22-5.73C322.01,141.64,322.14,141.22,322.44,141.02z M321.82,138.84c0.01-0.01,0.01-0.11-0.02-0.3
		c0-0.19-0.01-0.37-0.01-0.54c0-1.39,0.31-2.54,0.95-3.39c0.66-0.87,1.54-1.31,2.6-1.31c1.09,0,2,0.47,2.75,1.38
		c0.77,0.92,1.17,1.99,1.17,3.24c0,0.37-0.09,0.61-0.25,0.73c-0.17,0.13-0.51,0.19-1.05,0.19H321.82z"/>
	<path class="st0" d="M362.7,149.59c-0.23,0.06-0.42,0.09-0.59,0.09c-0.69,0-1.17-0.29-1.43-0.89c-0.27-0.61-0.38-1.92-0.38-3.97
		v-4.29c0-3.25-0.73-5.57-2.15-6.99c-1.44-1.42-3.79-2.13-7.04-2.13c-2.92,0-5.28,0.5-7.1,1.52c-1.82,1.02-2.71,2.31-2.71,3.9
		c0,0.82,0.24,1.48,0.79,1.97c0.54,0.5,1.23,0.75,2.11,0.75c0.69,0,1.32-0.06,1.88-0.2c0.58-0.13,1.09-0.32,1.61-0.6
		c-0.18-0.45-0.32-0.89-0.42-1.28c-0.1-0.42-0.13-0.82-0.13-1.19c0-0.89,0.28-1.61,0.82-2.16c0.56-0.56,1.28-0.84,2.19-0.84
		c1.08,0,1.83,0.34,2.24,1.07c0.41,0.7,0.63,2.1,0.63,4.18c0,1-0.22,1.68-0.63,2.07c-0.38,0.39-1.66,0.78-3.74,1.16
		c-3.61,0.67-6.1,1.48-7.48,2.46c-1.35,0.97-2.04,2.33-2.04,4.05c0,1.65,0.58,2.91,1.74,3.85c1.18,0.92,2.77,1.38,4.83,1.38
		c1.79,0,3.38-0.32,4.81-0.99c1.42-0.64,2.51-1.56,3.25-2.71c0.24,1.23,0.75,2.17,1.51,2.77c0.77,0.62,1.78,0.93,3.03,0.93
		c0.94,0,1.96-0.27,3.02-0.82c1.06-0.55,1.98-1.29,2.78-2.21l-0.58-1.15C363.2,149.44,362.93,149.54,362.7,149.59z M352.92,145.9
		c0,1.39-0.3,2.42-0.83,3.13c-0.53,0.7-1.34,1.07-2.44,1.07c-0.8,0-1.46-0.27-1.99-0.8c-0.52-0.53-0.77-1.23-0.77-2.08
		c0-1.93,1.94-3.45,5.76-4.55l0.27-0.06V145.9z"/>
	<path class="st0" d="M379.5,151.68c-1.25-0.11-2.09-0.53-2.52-1.25c-0.45-0.72-0.67-2.53-0.67-5.44v-3.68c0-2.29,0.33-4,1-5.14
		c0.65-1.13,1.66-1.69,3-1.69c1.41,0,2.37,0.53,2.93,1.62c0.56,1.08,0.83,3.33,0.83,6.7c0,2.16-0.04,4.16-0.13,5.9
		c-0.07,1.76-0.18,3.26-0.3,4.44c0.69-0.07,1.46-0.19,2.23-0.37c0.76-0.17,1.54-0.41,2.34-0.67c1.23,0.35,2.4,0.61,3.48,0.78
		c1.09,0.18,2.14,0.27,3.16,0.27v-1.47c-1.23-0.1-2.07-0.53-2.51-1.24c-0.44-0.71-0.67-2.51-0.67-5.4v-3.32
		c0-3.63-0.66-6.28-1.97-7.93c-1.32-1.65-3.39-2.49-6.24-2.49c-1.72,0-3.23,0.35-4.51,1.04c-1.28,0.7-2.28,1.71-2.96,3.04
		l-0.51-0.18c0.04-0.52,0.08-1.05,0.13-1.58c0.06-0.51,0.13-1.05,0.21-1.58l-1.13-0.75c-0.3,0.17-0.68,0.38-1.08,0.63
		c-0.4,0.29-0.86,0.62-1.36,1.04c-0.13,0-0.33-0.02-0.57-0.04c-0.23-0.01-0.4-0.01-0.54-0.01c-0.78,0-1.64,0.05-2.54,0.11
		c-0.89,0.09-1.91,0.21-3.01,0.4v1.53h0.38c1.13,0,1.89,0.31,2.27,0.92c0.39,0.61,0.57,2.26,0.57,4.96v3.42v0.41
		c0,3.14-0.2,5.07-0.64,5.78c-0.45,0.73-1.28,1.14-2.58,1.22l0.04,1.49c1.01-0.04,2.09-0.15,3.23-0.32
		c1.14-0.18,2.39-0.41,3.74-0.72c1.2,0.31,2.36,0.54,3.49,0.72c1.15,0.17,2.28,0.29,3.37,0.32L379.5,151.68z"/>
	<path class="st0" d="M419.23,149.4l-0.72-1.38c-0.9,0.75-1.91,1.31-2.96,1.71c-1.07,0.39-2.18,0.6-3.29,0.6
		c-2.27,0-4.15-0.79-5.63-2.32c-1.46-1.54-2.19-3.45-2.19-5.73c0-0.64,0.12-1.06,0.4-1.26c0.28-0.19,0.87-0.3,1.77-0.3h11.87
		c0.04-0.35,0.08-0.61,0.09-0.81c0.02-0.18,0.02-0.33,0.02-0.48c0-2.3-0.95-4.23-2.82-5.8c-1.88-1.55-4.25-2.34-7.07-2.34
		c-3.45,0-6.35,1.09-8.62,3.29c-2.29,2.2-3.45,4.97-3.45,8.3c0,3.25,1.06,5.84,3.19,7.84c2.12,1.98,4.91,2.97,8.4,2.97
		c2.37,0,4.5-0.39,6.45-1.14C416.59,151.8,418.11,150.75,419.23,149.4z M404.23,138.54c-0.02-0.19-0.02-0.37-0.02-0.54
		c0-1.39,0.34-2.54,0.97-3.39c0.66-0.87,1.52-1.31,2.61-1.31c1.07,0,1.99,0.47,2.76,1.38c0.76,0.92,1.14,1.99,1.14,3.24
		c0,0.37-0.09,0.61-0.27,0.73c-0.15,0.13-0.5,0.19-1.04,0.19h-6.13C404.26,138.83,404.24,138.73,404.23,138.54z"/>
	<path class="st0" d="M434.28,139.52c-2.14-0.81-3.48-1.43-3.97-1.89c-0.51-0.45-0.78-1.02-0.78-1.73s0.31-1.29,0.91-1.76
		c0.6-0.43,1.38-0.66,2.36-0.66c1.43,0,2.63,0.44,3.63,1.32c0.97,0.88,1.66,2.16,2.07,3.8h1.84c0-0.53-0.04-1.05-0.12-1.55
		c-0.06-0.48-0.18-0.94-0.31-1.37c0.22-0.31,0.39-0.59,0.48-0.84c0.1-0.24,0.14-0.47,0.14-0.7c0-0.74-0.74-1.4-2.23-1.91
		c-1.48-0.51-3.36-0.78-5.63-0.78c-3.23,0-5.72,0.58-7.47,1.74c-1.75,1.11-2.62,2.74-2.62,4.83c0,1.49,0.45,2.75,1.39,3.79
		c0.91,1.03,2.44,1.97,4.58,2.83c0.38,0.14,0.92,0.35,1.62,0.61c2.89,1.05,4.34,2.23,4.34,3.51c0,0.88-0.36,1.55-1.05,2.07
		c-0.69,0.52-1.62,0.77-2.79,0.77c-1.73,0-3.12-0.54-4.18-1.65c-1.07-1.1-1.68-2.64-1.85-4.59h-2.06c0,0.58,0.04,1.18,0.12,1.82
		c0.08,0.64,0.19,1.33,0.35,2.07c-0.21,0.3-0.36,0.57-0.48,0.84c-0.11,0.26-0.15,0.47-0.15,0.64c0,0.83,0.74,1.5,2.24,2
		c1.51,0.49,3.51,0.75,6.02,0.75c3.48,0,6.19-0.61,8.09-1.82c1.92-1.23,2.89-2.94,2.89-5.15c0-1.56-0.51-2.85-1.49-3.86
		C439.16,141.66,437.18,140.61,434.28,139.52z"/>
	<path class="st0" d="M424.25,162.76c0.35,0.05,0.69,0.09,0.99,0.12c0.31,0.04,0.59,0.06,0.85,0.07v-0.24
		c-0.42-0.03-0.71-0.16-0.86-0.39c-0.15-0.23-0.23-0.76-0.23-1.61v-2.09v-0.76c0-0.82,0.08-1.34,0.23-1.56
		c0.15-0.22,0.44-0.34,0.87-0.37v-0.24c-0.26,0.01-0.54,0.04-0.85,0.07c-0.3,0.03-0.63,0.08-0.99,0.13c-0.35-0.05-0.69-0.1-1-0.13
		c-0.31-0.03-0.59-0.06-0.85-0.07h-0.01v0.25c0.42,0.03,0.71,0.16,0.86,0.39c0.16,0.23,0.23,0.76,0.23,1.61v2.09v0.74
		c0,0.83-0.08,1.35-0.23,1.57c-0.15,0.22-0.44,0.35-0.86,0.37v0.24c0.23-0.01,0.48-0.03,0.77-0.06
		C423.46,162.87,423.82,162.82,424.25,162.76z"/>
	<path class="st0" d="M429.88,162.74c-0.33-0.02-0.56-0.12-0.67-0.28c-0.12-0.17-0.17-0.6-0.17-1.29v-0.78c0-0.57,0.11-1,0.31-1.28
		c0.2-0.29,0.51-0.43,0.92-0.43c0.41,0,0.69,0.15,0.85,0.44c0.16,0.29,0.24,0.89,0.24,1.81c0,0.54-0.01,0.96-0.02,1.26
		c-0.01,0.31-0.03,0.57-0.05,0.78c0.18-0.03,0.33-0.05,0.47-0.08l0.39-0.1c0.27,0.06,0.52,0.1,0.75,0.13
		c0.23,0.03,0.46,0.04,0.66,0.05l0.01-0.24c-0.34-0.02-0.56-0.12-0.67-0.28c-0.11-0.17-0.17-0.6-0.17-1.29v-0.75
		c0-0.82-0.14-1.4-0.44-1.75c-0.29-0.35-0.77-0.52-1.42-0.52c-0.45,0-0.83,0.09-1.15,0.26c-0.32,0.18-0.57,0.44-0.74,0.79
		l-0.08-0.04l0.02-0.49l0.05-0.47l-0.19-0.09l-0.23,0.14l-0.22,0.18c-0.2,0-0.42,0.01-0.66,0.04c-0.23,0.03-0.5,0.06-0.81,0.11v0.23
		h0.11c0.28,0,0.47,0.07,0.57,0.21c0.1,0.15,0.15,0.55,0.15,1.19v0.77v0.12c0,0.74-0.06,1.2-0.17,1.37
		c-0.12,0.16-0.35,0.26-0.68,0.28l0.01,0.24c0.2-0.01,0.42-0.02,0.67-0.06c0.25-0.03,0.53-0.07,0.85-0.12
		c0.34,0.06,0.64,0.1,0.87,0.13c0.23,0.03,0.44,0.04,0.64,0.05V162.74z"/>
	<path class="st0" d="M438.07,162.87c0.39-0.14,0.72-0.33,0.97-0.57l-0.15-0.23c-0.2,0.14-0.42,0.24-0.63,0.3
		c-0.22,0.07-0.45,0.1-0.7,0.1c-0.61,0-1.11-0.22-1.51-0.67c-0.39-0.46-0.59-1.03-0.59-1.72c0-0.48,0.12-0.87,0.36-1.16
		c0.24-0.29,0.55-0.44,0.94-0.44c0.32,0,0.58,0.1,0.8,0.29c0.21,0.21,0.36,0.49,0.44,0.85c0.28-0.02,0.49-0.08,0.65-0.18l0.23-0.4
		c0-0.26-0.16-0.47-0.47-0.65c-0.32-0.18-0.73-0.26-1.23-0.26c-0.89,0-1.62,0.24-2.19,0.72c-0.58,0.49-0.87,1.1-0.87,1.86
		c0,0.72,0.24,1.3,0.71,1.72c0.48,0.43,1.13,0.64,1.94,0.64C437.24,163.07,437.68,163,438.07,162.87z"/>
	<path class="st0" d="M440.9,161.73c-0.2,0-0.37,0.07-0.53,0.2c-0.14,0.13-0.21,0.29-0.21,0.47s0.07,0.35,0.21,0.48
		c0.15,0.13,0.32,0.2,0.52,0.2c0.2,0,0.37-0.07,0.52-0.2c0.16-0.14,0.23-0.3,0.23-0.48s-0.07-0.34-0.22-0.47
		C441.28,161.8,441.11,161.73,440.9,161.73z"/>
	<path class="st0" d="M106.91,29.67c0.51,0.07,0.9,0.2,1.15,0.4c0.23,0.25,0.4,0.54,0.49,0.86c0.09,0.32,0.14,0.84,0.14,1.56v8.87
		c0,0.55-0.08,0.99-0.23,1.32c-0.15,0.32-0.37,0.57-0.68,0.73c-0.12,0.09-0.3,0.2-0.53,0.32c-0.36,0.18-0.54,0.38-0.54,0.58
		l0.14,0.35c0.09,0.07,0.24,0.12,0.42,0.12c0.01,0,0.42-0.04,1.22-0.1c0.8-0.07,1.59-0.1,2.36-0.1c0.64,0,1.43,0.03,2.37,0.1
		c0.94,0.06,1.55,0.1,1.86,0.1c0.72,0,1.32-0.1,1.8-0.31c0.48-0.21,0.88-0.53,1.19-0.97c0.24-0.35,0.45-0.78,0.62-1.28
		s0.26-0.9,0.26-1.2l-0.09-0.32l-0.24-0.13c-0.15,0-0.33,0.2-0.57,0.6c-0.23,0.4-0.51,0.73-0.82,1c-0.46,0.4-1.06,0.72-1.79,0.96
		c-0.73,0.23-1.47,0.36-2.23,0.36c-0.7,0-1.17-0.1-1.42-0.3c-0.25-0.21-0.37-0.77-0.37-1.68v-9.24c-0.02-0.76,0.02-1.26,0.11-1.53
		c0.1-0.26,0.26-0.49,0.49-0.67c0.17-0.17,0.42-0.31,0.75-0.43c0.33-0.12,0.49-0.27,0.49-0.46l-0.11-0.35l-0.32-0.12
		c-0.05,0-0.18,0.01-0.4,0.03c-0.98,0.1-1.91,0.16-2.8,0.16c-0.62,0-1.25-0.03-1.91-0.09c-0.66-0.06-1-0.1-1.03-0.1
		c-0.18,0-0.32,0.04-0.42,0.12l-0.14,0.35C106.13,29.45,106.39,29.61,106.91,29.67z"/>
	<path class="st0" d="M119.63,29.69c0.53,0.08,0.92,0.23,1.17,0.46c0.22,0.22,0.39,0.47,0.47,0.77c0.09,0.3,0.13,0.83,0.13,1.59
		v8.85c0,0.55-0.07,0.99-0.22,1.32c-0.14,0.33-0.37,0.59-0.69,0.76c-0.11,0.08-0.27,0.18-0.49,0.29c-0.36,0.18-0.54,0.38-0.54,0.59
		l0.14,0.34c0.09,0.07,0.23,0.11,0.4,0.11c0.02,0,0.43-0.04,1.22-0.1c0.79-0.07,1.57-0.1,2.34-0.1c0.63,0,1.42,0.03,2.35,0.1
		c0.93,0.06,1.55,0.1,1.87,0.1c0.71,0,1.31-0.1,1.79-0.31c0.48-0.21,0.88-0.53,1.19-0.97c0.25-0.35,0.46-0.78,0.63-1.28
		c0.17-0.5,0.25-0.9,0.25-1.2l-0.09-0.32l-0.23-0.13c-0.15,0-0.33,0.2-0.58,0.6c-0.24,0.4-0.53,0.74-0.85,1.01
		c-0.46,0.39-1.06,0.71-1.79,0.95c-0.73,0.23-1.47,0.36-2.22,0.36c-0.73,0-1.22-0.12-1.45-0.34c-0.24-0.23-0.36-0.8-0.36-1.73v-3.54
		c0-0.53,0.07-0.87,0.2-1.03c0.14-0.16,0.38-0.23,0.75-0.23h0.88c0.7,0,1.22,0.08,1.54,0.25c0.32,0.18,0.57,0.48,0.74,0.92
		c0.06,0.16,0.11,0.39,0.15,0.67c0.06,0.4,0.2,0.61,0.44,0.61l0.25-0.1l0.08-0.33c0-0.04-0.01-0.15-0.02-0.34
		c-0.07-0.94-0.1-1.88-0.1-2.79c0-0.35,0.02-0.68,0.06-1.01c0.04-0.34,0.06-0.51,0.06-0.51l-0.09-0.35l-0.26-0.13
		c-0.25,0-0.47,0.22-0.65,0.64c-0.13,0.3-0.25,0.51-0.35,0.66c-0.2,0.27-0.45,0.47-0.76,0.59c-0.3,0.11-0.71,0.18-1.23,0.18h-0.73
		c-0.34,0-0.59-0.07-0.74-0.23c-0.15-0.14-0.23-0.38-0.23-0.72V31.1c0.03-0.49,0.16-0.83,0.43-1.02c0.27-0.19,0.74-0.28,1.42-0.28
		c1.15,0,2.01,0.09,2.58,0.28c0.56,0.19,0.96,0.51,1.19,0.99c0.08,0.17,0.14,0.44,0.17,0.8c0.03,0.36,0.17,0.54,0.42,0.54l0.29-0.09
		c0.05-0.06,0.07-0.18,0.07-0.37v-0.2c-0.01-0.59-0.02-1.17-0.02-1.74v-0.47c0-0.35-0.05-0.58-0.15-0.68
		c-0.1-0.1-0.35-0.15-0.75-0.15c-0.26,0-1.04,0.03-2.36,0.1c-1.32,0.06-2.51,0.09-3.57,0.09c-1.47,0-2.83-0.05-4.09-0.17l-0.26-0.02
		c-0.18,0-0.33,0.04-0.43,0.13l-0.15,0.34C118.85,29.45,119.11,29.62,119.63,29.69z"/>
	<path class="st0" d="M133.15,40.05l0.74,3.26l0.05,0.21c0.08,0.35,0.31,0.55,0.7,0.61c0.31,0.04,0.85,0.18,1.64,0.42
		c0.78,0.25,1.42,0.37,1.92,0.37c1.55,0,2.79-0.45,3.71-1.38c0.92-0.91,1.38-2.15,1.38-3.71c0-0.71-0.12-1.37-0.34-1.96
		c-0.23-0.6-0.56-1.11-1-1.53c-0.47-0.46-1.45-0.96-2.93-1.54c-0.28-0.1-0.49-0.18-0.63-0.23c-1.2-0.45-2.03-0.9-2.48-1.33
		c-0.46-0.43-0.69-0.96-0.69-1.57c0-0.63,0.23-1.16,0.71-1.59c0.47-0.42,1.07-0.63,1.8-0.63s1.42,0.19,2.08,0.56
		c0.66,0.37,1.19,0.88,1.58,1.51c0.26,0.44,0.47,0.92,0.6,1.4c0.14,0.48,0.32,0.73,0.54,0.73l0.25-0.11l0.09-0.31
		c0-0.29-0.05-0.77-0.17-1.44c-0.11-0.68-0.16-1.18-0.16-1.53c0-0.13,0.01-0.27,0.02-0.45l0.02-0.35c0-0.18-0.03-0.32-0.09-0.39
		l-0.29-0.11c-0.07,0-0.19,0.05-0.38,0.15c-0.19,0.1-0.38,0.15-0.6,0.15c-0.2,0-0.64-0.14-1.35-0.42c-0.7-0.28-1.38-0.42-2.03-0.42
		c-1.28,0-2.34,0.42-3.18,1.28c-0.84,0.84-1.27,1.88-1.27,3.11c0,1.08,0.25,1.95,0.76,2.61c0.51,0.66,1.74,1.39,3.71,2.21l0.1,0.05
		c2.41,1.02,3.62,2.09,3.62,3.23c0,0.89-0.29,1.61-0.88,2.17c-0.58,0.55-1.33,0.83-2.23,0.83c-0.71,0-1.4-0.24-2.08-0.71
		c-0.67-0.47-1.25-1.13-1.75-1.97c-0.24-0.41-0.44-0.87-0.6-1.36c-0.17-0.5-0.34-0.74-0.5-0.74l-0.37,0.11
		c-0.06,0.08-0.11,0.22-0.11,0.41l0.03,0.15L133.15,40.05z"/>
	<rect x="146.32" y="171.06" class="st0" width="1.86" height="10.22"/>
	<path class="st0" d="M157.74,173.97c-0.3-0.1-0.75-0.15-1.34-0.15h-6.46h-0.02v7.46h1.76v-5.87h1.89v5.87h1.76v-5.87h0.94
		c0.37,0,0.65,0.1,0.83,0.31l0.18,0.38c0.03,0.14,0.04,0.39,0.04,0.75v4.43h1.76v-4.75c0-0.86-0.19-1.53-0.58-2.02
		C158.3,174.25,158.04,174.07,157.74,173.97z"/>
	<path class="st0" d="M165.14,173.95c-0.31-0.08-0.76-0.13-1.36-0.13h-3.07v10.28h1.76v-2.81h1.55c0.52,0,0.97-0.07,1.33-0.23
		c0.36-0.15,0.68-0.39,0.96-0.73c0.56-0.68,0.84-1.57,0.84-2.66c0-1.44-0.38-2.51-1.14-3.21
		C165.74,174.2,165.45,174.04,165.14,173.95z M164.81,179.27c-0.27,0.28-0.69,0.42-1.26,0.42h-1.08v-4.28h1.2
		c0.55,0,0.96,0.19,1.25,0.55c0.29,0.36,0.44,0.88,0.44,1.55C165.36,178.3,165.18,178.88,164.81,179.27z"/>
	<path class="st0" d="M173.03,174.39c-0.19-0.21-0.44-0.36-0.73-0.44c-0.3-0.09-0.71-0.13-1.24-0.13h-2.6v7.47h1.76v-5.87h0.51
		c0.44,0,0.74,0.1,0.9,0.29c0.16,0.19,0.24,0.55,0.24,1.08v0.41h1.68v-0.73c0-0.57-0.04-1.01-0.12-1.31
		C173.36,174.85,173.22,174.6,173.03,174.39z"/>
	<rect x="174.51" y="171.07" class="st0" width="1.76" height="1.99"/>
	<rect x="174.51" y="173.82" class="st0" width="1.76" height="7.46"/>
	<path class="st0" d="M185.81,173.97c-0.3-0.1-0.75-0.15-1.34-0.15h-6.46H178v7.46h1.76v-5.87h1.89v5.87h1.76v-5.87h0.94
		c0.38,0,0.65,0.1,0.83,0.31l0.18,0.38c0.03,0.14,0.04,0.39,0.04,0.75v4.43h1.76v-4.75c0-0.86-0.2-1.53-0.58-2.02
		C186.37,174.25,186.11,174.07,185.81,173.97z"/>
	<path class="st0" d="M190.67,175.69c0.19-0.19,0.53-0.29,1.01-0.29h2.34v-1.59h-2.47c-0.64,0-1.16,0.1-1.55,0.29
		c-0.39,0.2-0.73,0.53-1.01,0.98c-0.42,0.67-0.62,1.47-0.62,2.37c0,1.39,0.39,2.43,1.16,3.13c0.29,0.26,0.59,0.44,0.91,0.54
		c0.32,0.11,0.73,0.16,1.24,0.16h2.34v-1.59h-2.15c-0.53,0-0.91-0.1-1.15-0.31c-0.24-0.2-0.38-0.55-0.41-1.04h3.71v-1.59v-0.01h-3.7
		C190.36,176.23,190.47,175.88,190.67,175.69z"/>
	<path class="st0" d="M200.04,174.39c-0.19-0.21-0.44-0.36-0.73-0.44c-0.29-0.09-0.7-0.13-1.23-0.13h-2.61v7.47h1.76v-5.87h0.51
		c0.44,0,0.74,0.1,0.9,0.29c0.16,0.19,0.24,0.55,0.24,1.08v0.41h1.69v-0.73c0-0.57-0.05-1.01-0.12-1.31
		C200.37,174.85,200.23,174.6,200.04,174.39z"/>
	<rect x="201.52" y="173.82" class="st0" width="1.76" height="7.46"/>
	<rect x="201.52" y="171.07" class="st0" width="1.76" height="1.99"/>
	<path class="st0" d="M206.22,174.1c-0.39,0.2-0.73,0.53-1.01,0.98c-0.41,0.67-0.62,1.47-0.62,2.37c0,1.39,0.39,2.43,1.16,3.13
		c0.29,0.26,0.59,0.44,0.91,0.54c0.32,0.11,0.73,0.16,1.24,0.16h2.34v-1.59h-2.15c-0.53,0-0.91-0.1-1.15-0.31
		c-0.24-0.2-0.37-0.55-0.41-1.04h3.71v-1.59v-0.01h-3.71c0.05-0.51,0.16-0.86,0.36-1.05c0.19-0.19,0.53-0.29,1.01-0.29h2.34v-1.59
		h-2.47C207.13,173.81,206.61,173.9,206.22,174.1z"/>
	<path class="st0" d="M218.52,174.47c-0.5,0-0.94,0.18-1.3,0.52c-0.36,0.35-0.54,0.79-0.54,1.3c0,0.51,0.18,0.94,0.54,1.3
		c0.36,0.34,0.78,0.52,1.28,0.52c0.51,0,0.94-0.18,1.29-0.53c0.35-0.35,0.53-0.78,0.53-1.29c0-0.5-0.18-0.94-0.54-1.29
		C219.42,174.65,219,174.47,218.52,174.47z"/>
	<path class="st0" d="M229.36,178.98c-0.5-0.48-0.75-1.47-0.75-2.98c0-1.13,0.16-1.91,0.48-2.34c0.39-0.52,1-0.78,1.83-0.78h2.75
		v-1.82h-2.96c-0.88,0-1.6,0.15-2.15,0.43c-0.55,0.29-0.99,0.74-1.32,1.36c-0.45,0.87-0.68,1.99-0.68,3.36
		c0,1.14,0.15,2.1,0.45,2.87c0.46,1.17,1.22,1.87,2.29,2.11c0.31,0.07,0.75,0.1,1.33,0.1h3.05v-1.82h-2.69
		C230.25,179.47,229.71,179.31,229.36,178.98z"/>
	<path class="st0" d="M237.91,173.71c-1.12,0.01-1.97,0.41-2.56,1.2c-0.53,0.69-0.8,1.56-0.8,2.61c0,1.23,0.27,2.16,0.83,2.82
		c0.61,0.71,1.44,1.07,2.51,1.07c1.03,0,1.84-0.33,2.44-0.96c0.64-0.7,0.97-1.63,0.97-2.8c0-1.1-0.26-2.01-0.78-2.74
		C239.96,174.11,239.09,173.71,237.91,173.71z M237.95,179.82c-0.61,0-1.05-0.27-1.34-0.82c-0.18-0.32-0.26-0.8-0.26-1.42
		c0-1.53,0.52-2.3,1.58-2.3c1.05,0.02,1.57,0.77,1.58,2.26C239.51,179.05,238.99,179.82,237.95,179.82z"/>
	<path class="st0" d="M247.16,173.95c-0.27-0.09-0.66-0.13-1.16-0.13h-3.39h-0.01v7.46h1.76v-5.87h1.53c0.32,0,0.55,0.09,0.69,0.25
		s0.21,0.42,0.21,0.79v4.83h1.76v-4.59c0-1.04-0.22-1.8-0.67-2.27C247.67,174.19,247.43,174.03,247.16,173.95z"/>
	<path class="st0" d="M251.72,173.97c-0.37,0.11-0.68,0.3-0.94,0.56c-0.66,0.66-0.99,1.66-0.99,2.98c0,1.1,0.27,2.01,0.82,2.72
		c0.3,0.39,0.63,0.66,1.01,0.81c0.37,0.16,0.89,0.23,1.53,0.23h2.4v-1.59h-1.9c-0.37,0-0.66-0.02-0.86-0.08
		c-0.2-0.05-0.39-0.15-0.57-0.3c-0.43-0.35-0.64-0.94-0.64-1.74c0-0.71,0.13-1.24,0.39-1.59c0.28-0.37,0.77-0.56,1.47-0.56h2.11
		v-1.59v-0.02h-2.4C252.56,173.8,252.09,173.86,251.72,173.97z"/>
	<path class="st0" d="M258.1,174.1c-0.4,0.2-0.74,0.53-1.02,0.98c-0.4,0.67-0.61,1.47-0.61,2.37c0,1.39,0.39,2.43,1.16,3.13
		c0.29,0.26,0.59,0.44,0.91,0.54c0.32,0.11,0.73,0.16,1.24,0.16h2.34v-1.59h-2.15c-0.53,0-0.91-0.1-1.15-0.31
		c-0.24-0.2-0.38-0.55-0.41-1.04h3.71v-1.59v-0.01h-3.71c0.05-0.51,0.17-0.86,0.36-1.05c0.2-0.19,0.53-0.29,1.01-0.29h2.34v-1.59
		h-2.47C259.01,173.81,258.49,173.91,258.1,174.1z"/>
	<path class="st0" d="M268,173.95c-0.31-0.08-0.76-0.13-1.36-0.13h-3.07v10.28h1.76v-2.81h1.55c0.52,0,0.97-0.07,1.33-0.23
		c0.36-0.15,0.68-0.39,0.96-0.73c0.56-0.68,0.84-1.57,0.84-2.66c0-1.44-0.38-2.51-1.14-3.21C268.6,174.2,268.31,174.04,268,173.95z
		 M267.66,179.27c-0.26,0.28-0.68,0.42-1.25,0.42h-1.08v-4.28h1.19c0.54,0,0.96,0.19,1.25,0.55c0.3,0.36,0.44,0.88,0.44,1.55
		C268.21,178.3,268.03,178.88,267.66,179.27z"/>
	<path class="st0" d="M273.46,171.06h-1.76v2.76h-1.12v1.59h1.11v3.07c0,1.01,0.17,1.73,0.49,2.16c0.33,0.42,0.87,0.64,1.63,0.64
		h1.28v-1.59h-0.69c-0.38,0-0.64-0.12-0.79-0.37c-0.1-0.16-0.15-0.56-0.15-1.2v-2.71h1.63v-1.59h-1.63V171.06z"/>
	<rect x="276.3" y="171.07" class="st0" width="1.76" height="1.99"/>
	<rect x="276.3" y="173.82" class="st0" width="1.76" height="7.46"/>
	<path class="st0" d="M282.74,173.71c-1.12,0.01-1.98,0.41-2.57,1.2c-0.53,0.69-0.8,1.56-0.8,2.61c0,1.23,0.27,2.16,0.83,2.82
		c0.6,0.71,1.44,1.07,2.51,1.07c1.03,0,1.85-0.33,2.44-0.96c0.65-0.7,0.98-1.63,0.98-2.8c0-1.1-0.25-2.01-0.77-2.74
		C284.79,174.11,283.92,173.71,282.74,173.71z M282.77,179.82c-0.61,0-1.05-0.27-1.34-0.82c-0.17-0.32-0.26-0.8-0.26-1.42
		c0-1.53,0.52-2.3,1.58-2.3c1.05,0.02,1.58,0.77,1.58,2.26C284.33,179.05,283.82,179.82,282.77,179.82z"/>
	<path class="st0" d="M291.99,173.95c-0.27-0.09-0.66-0.13-1.16-0.13h-3.39v7.46h1.76v-5.87h1.53c0.32,0,0.55,0.09,0.69,0.25
		s0.21,0.42,0.21,0.79v4.83h1.76v-4.59c0-1.04-0.22-1.8-0.67-2.27C292.5,174.19,292.26,174.04,291.99,173.95z"/>
	<path class="st0" d="M301.87,174.47c-0.51,0-0.94,0.18-1.3,0.52c-0.36,0.35-0.54,0.79-0.54,1.3c0,0.51,0.18,0.94,0.54,1.3
		c0.36,0.34,0.79,0.52,1.28,0.52c0.51,0,0.93-0.18,1.29-0.53c0.35-0.35,0.53-0.78,0.53-1.29c0-0.5-0.18-0.94-0.54-1.29
		C302.77,174.65,302.35,174.47,301.87,174.47z"/>
	<path class="st0" d="M312.8,179.21c-0.33-0.18-0.52-0.5-0.58-0.96c-0.03-0.24-0.06-0.72-0.08-1.45v-5.74h-1.85v5.75
		c0,1,0.05,1.72,0.15,2.15c0.25,1.1,0.86,1.82,1.83,2.15c0.42,0.12,1.1,0.19,2.04,0.18h1.98v-1.82h-1.79
		C313.69,179.47,313.12,179.38,312.8,179.21z"/>
	<path class="st0" d="M318.55,174.1c-0.39,0.2-0.73,0.53-1.01,0.98c-0.42,0.67-0.62,1.47-0.62,2.37c0,1.39,0.39,2.43,1.16,3.13
		c0.29,0.26,0.59,0.44,0.91,0.54c0.32,0.11,0.73,0.16,1.24,0.16h2.34v-1.59h-2.15c-0.53,0-0.91-0.1-1.15-0.31
		c-0.24-0.2-0.38-0.55-0.41-1.04h3.7v-1.59v-0.01h-3.69c0.04-0.51,0.16-0.86,0.35-1.05c0.2-0.19,0.53-0.29,1.01-0.29h2.34v-1.59
		h-2.47C319.46,173.81,318.94,173.91,318.55,174.1z"/>
	<path class="st0" d="M326.25,171.06h-1.75v2.76h-1.12v1.59h1.12v3.07c0,1.01,0.16,1.73,0.48,2.16c0.32,0.42,0.86,0.64,1.62,0.64
		h1.28v-1.59h-0.69c-0.38,0-0.64-0.12-0.79-0.37c-0.1-0.16-0.15-0.56-0.15-1.2v-2.71h1.63v-1.59h-1.63V171.06z"/>
	<path class="st0" d="M331.32,171.06h-1.76v2.76h-1.11v1.59h1.12v3.07c0,1.01,0.16,1.73,0.48,2.16c0.32,0.42,0.86,0.64,1.62,0.64
		h1.28v-1.59h-0.69c-0.38,0-0.64-0.12-0.79-0.37c-0.1-0.16-0.15-0.56-0.15-1.2v-2.71h1.63v-1.59h-1.63V171.06z"/>
	<path class="st0" d="M338.73,174.39c-0.2-0.21-0.45-0.36-0.74-0.44c-0.29-0.09-0.7-0.13-1.23-0.13h-2.6v7.47h1.76v-5.87h0.51
		c0.44,0,0.74,0.1,0.9,0.29c0.16,0.19,0.24,0.55,0.24,1.08v0.41h1.68v-0.73c0-0.57-0.04-1.01-0.12-1.31
		C339.05,174.85,338.92,174.6,338.73,174.39z"/>
	<path class="st0" d="M344.92,174c-0.2-0.07-0.41-0.12-0.61-0.15c-0.2-0.02-0.57-0.03-1.1-0.03h-2.98v1.59h2.98
		c0.53,0,0.89,0.1,1.07,0.28s0.27,0.53,0.27,1.06v0.01h-2.16c-0.69,0-1.19,0.05-1.49,0.18c-0.34,0.14-0.61,0.41-0.82,0.8
		c-0.21,0.39-0.31,0.84-0.31,1.34c0,0.82,0.26,1.44,0.78,1.85c0.19,0.15,0.42,0.25,0.67,0.29c0.26,0.05,0.72,0.07,1.38,0.07h3.71
		v-4.21C346.35,175.45,345.89,174.43,344.92,174z M344.55,179.69h-2.03c-0.34,0-0.59-0.04-0.73-0.15c-0.15-0.1-0.22-0.27-0.22-0.52
		c0-0.21,0.06-0.37,0.18-0.5s0.28-0.19,0.48-0.19l0.29,0.01h2.03V179.69z"/>
	<path class="st0" d="M349.62,173.96c-0.31,0.11-0.61,0.27-0.89,0.5c-0.78,0.64-1.17,1.67-1.17,3.09c0,1.24,0.32,2.2,0.96,2.9
		c0.28,0.29,0.58,0.51,0.92,0.64c0.34,0.13,0.76,0.19,1.28,0.19h1.61c0,0.44-0.06,0.72-0.18,0.86s-0.37,0.21-0.76,0.21h-3.27v1.59
		h3.51c0.54,0,0.95-0.06,1.24-0.17c0.29-0.1,0.53-0.3,0.73-0.58c0.16-0.24,0.28-0.51,0.36-0.84c0.08-0.33,0.12-0.7,0.12-1.12v-7.41
		h-3.27C350.33,173.82,349.93,173.87,349.62,173.96z M352.32,175.41v4.28h-1.36c-0.52,0-0.93-0.18-1.2-0.54
		c-0.27-0.36-0.41-0.89-0.41-1.59c0-1.43,0.51-2.15,1.52-2.15H352.32z"/>
	<path class="st0" d="M356.99,174.1c-0.39,0.2-0.73,0.53-1.01,0.98c-0.42,0.67-0.62,1.47-0.62,2.37c0,1.39,0.39,2.43,1.16,3.13
		c0.29,0.26,0.59,0.44,0.91,0.54c0.32,0.11,0.73,0.16,1.24,0.16h2.34v-1.59h-2.15c-0.53,0-0.91-0.1-1.15-0.31
		c-0.24-0.2-0.37-0.55-0.41-1.04h3.71v-1.59v-0.01h-3.71c0.05-0.51,0.16-0.86,0.36-1.05c0.19-0.19,0.53-0.29,1.01-0.29h2.34v-1.59
		h-2.47C357.9,173.81,357.38,173.91,356.99,174.1z"/>
	<path class="st0" d="M369.29,174.47c-0.5,0-0.94,0.18-1.29,0.52c-0.36,0.35-0.54,0.79-0.54,1.3c0,0.51,0.18,0.94,0.54,1.3
		c0.35,0.34,0.77,0.52,1.27,0.52c0.51,0,0.94-0.18,1.29-0.53c0.35-0.35,0.53-0.78,0.53-1.29c0-0.5-0.18-0.94-0.54-1.29
		C370.19,174.65,369.77,174.47,369.29,174.47z"/>
	<polygon class="st0" points="381.61,178.75 379.03,171.06 376.93,171.06 380.62,181.28 382.49,181.28 386.32,171.06 384.22,171.06 
			"/>
	<path class="st0" d="M388.42,174.1c-0.39,0.2-0.73,0.53-1.01,0.98c-0.41,0.67-0.62,1.47-0.62,2.37c0,1.39,0.39,2.43,1.16,3.13
		c0.29,0.26,0.59,0.44,0.91,0.54c0.32,0.11,0.73,0.16,1.24,0.16h2.34v-1.59h-2.15c-0.53,0-0.91-0.1-1.15-0.31
		c-0.24-0.2-0.38-0.55-0.41-1.04h3.7v-1.59v-0.01h-3.7c0.05-0.51,0.16-0.86,0.36-1.05c0.19-0.19,0.53-0.29,1.01-0.29h2.34v-1.59
		h-2.47C389.33,173.81,388.81,173.91,388.42,174.1z"/>
	<polygon class="st0" points="389.52,170.94 388.12,172.94 389.39,172.94 390.23,171.72 391.06,172.94 392.32,172.94 390.93,170.94 
			"/>
	<path class="st0" d="M396.1,171.06h-1.76v2.76h-1.12v1.59h1.12v3.07c0,1.01,0.16,1.73,0.48,2.16c0.32,0.42,0.86,0.64,1.62,0.64
		h1.28v-1.59h-0.69c-0.38,0-0.64-0.12-0.79-0.37c-0.09-0.16-0.14-0.56-0.14-1.2v-2.71h1.63v-1.59h-1.63V171.06z"/>
	<path class="st0" d="M400.67,175.69c0.2-0.19,0.53-0.29,1.01-0.29h2.34v-1.59h-2.47c-0.64,0-1.16,0.1-1.55,0.29
		c-0.39,0.2-0.73,0.53-1.01,0.98c-0.41,0.67-0.62,1.47-0.62,2.37c0,1.39,0.38,2.43,1.16,3.13c0.29,0.26,0.59,0.44,0.91,0.54
		c0.32,0.11,0.73,0.16,1.24,0.16h2.34v-1.59h-2.15c-0.53,0-0.91-0.1-1.15-0.31c-0.23-0.2-0.37-0.55-0.4-1.04h3.7v-1.59v-0.01h-3.7
		C400.36,176.23,400.47,175.88,400.67,175.69z"/>
	<path class="st0" d="M413.27,173.97c-0.3-0.1-0.75-0.15-1.34-0.15h-6.46h0v7.46h1.75v-5.87h1.9v5.87h1.76v-5.87h0.93
		c0.38,0,0.65,0.1,0.83,0.31l0.18,0.38c0.03,0.14,0.04,0.39,0.04,0.75v4.43h1.76v-4.75c0-0.86-0.2-1.53-0.58-2.02
		C413.83,174.25,413.58,174.07,413.27,173.97z"/>
	<path class="st0" d="M417.46,174.1c-0.39,0.2-0.73,0.53-1.01,0.98c-0.41,0.67-0.61,1.47-0.61,2.37c0,1.39,0.39,2.43,1.16,3.13
		c0.28,0.26,0.58,0.44,0.9,0.54c0.32,0.11,0.73,0.16,1.24,0.16h2.34v-1.59h-2.15c-0.53,0-0.91-0.1-1.15-0.31
		c-0.24-0.2-0.38-0.55-0.41-1.04h3.71v-1.59v-0.01h-3.7c0.04-0.51,0.16-0.86,0.35-1.05s0.53-0.29,1.01-0.29h2.34v-1.59h-2.47
		C418.37,173.81,417.85,173.9,417.46,174.1z"/>
	<path class="st0" d="M427.48,173.95c-0.27-0.09-0.65-0.13-1.16-0.13h-3.39v7.46h1.75v-5.87h1.54c0.32,0,0.55,0.09,0.69,0.25
		s0.21,0.42,0.21,0.79v4.83h1.76v-4.59c0-1.04-0.22-1.8-0.67-2.27C427.99,174.19,427.75,174.03,427.48,173.95z"/>
	<path class="st0" d="M432.75,171.06h-1.76v2.76h-1.11v1.59H431v3.07c0,1.01,0.16,1.73,0.48,2.16c0.32,0.42,0.86,0.64,1.62,0.64
		h1.28v-1.59h-0.69c-0.38,0-0.64-0.12-0.79-0.37c-0.1-0.16-0.15-0.56-0.15-1.2v-2.71h1.63v-1.59h-1.63V171.06z"/>
	<path class="st0" d="M439.21,176.8h-1.04c-0.46,0-0.75-0.04-0.85-0.12c-0.19-0.14-0.29-0.35-0.29-0.61c0-0.32,0.1-0.52,0.3-0.6
		c0.1-0.04,0.33-0.06,0.68-0.06h3.12v-1.58h-3.76c-0.7,0-1.18,0.14-1.46,0.39c-0.47,0.44-0.7,1.03-0.7,1.78c0,0.4,0.06,0.76,0.2,1.1
		c0.14,0.34,0.33,0.61,0.56,0.81c0.19,0.16,0.4,0.27,0.62,0.33c0.23,0.06,0.55,0.09,0.96,0.09h1.07c0.4,0,0.66,0.04,0.77,0.1
		c0.21,0.12,0.31,0.33,0.31,0.64c0,0.37-0.16,0.57-0.47,0.61c-0.15,0.01-0.41,0.02-0.8,0.02h-3.13v1.59h3.64
		c0.64,0,1.1-0.05,1.38-0.17c0.27-0.12,0.51-0.35,0.71-0.7c0.26-0.45,0.39-0.95,0.39-1.49c0-0.72-0.21-1.26-0.64-1.63
		C440.4,176.97,439.87,176.8,439.21,176.8z"/>
	<path class="st0" d="M496.51,81.7c-0.33,0.12,0.76-1.98,3.25-6.31c2.5-4.33,5.77-9.36,9.84-15.08c4.06-5.72,7.73-10.03,11-12.93
		c0.86-0.78,1.66-1.39,2.42-1.84c0.76-0.45,1.33-0.72,1.72-0.8c0.39-0.07,0.77-0.15,1.16-0.21s0.65-0.11,0.77-0.15l0.06-0.06
		l0.17-0.17l0.06-0.22l-0.12-0.31l-0.34-0.36c-0.14-0.13-0.34-0.22-0.58-0.28c-0.25-0.06-0.52-0.09-0.8-0.09
		c-1.31,0-2.86,0.69-4.66,2.08c-1.68,1.31-3.54,3.16-5.58,5.55c-2.04,2.4-4.13,5.16-6.25,8.28c-2.12,3.13-3.89,5.79-5.3,8
		c-1.41,2.21-3.02,4.82-4.84,7.82s-2.77,4.56-2.85,4.69c0.2-1.6,0.35-2.77,0.43-3.53c0.08-0.75,0.2-1.89,0.34-3.4
		c0.14-1.51,0.25-2.92,0.31-4.2c0.06-1.29,0.09-2.56,0.09-3.83c0-14.01-4.92-21.02-14.77-21.02c-4.33,0-7.9,1.09-10.72,3.25
		c-2.82,2.16-4.23,5.19-4.23,9.07c0,2.9,0.86,5.29,2.6,7.17c1.73,1.88,3.99,2.82,6.77,2.82c0.37,0,0.66-0.04,0.86-0.12
		c0.21-0.08,0.31-0.16,0.31-0.24l-0.12-0.22c-0.08-0.06-0.21-0.11-0.4-0.15c-0.18-0.04-0.4-0.06-0.64-0.06
		c-1.84,0-3.39-0.8-4.66-2.42c-1.27-1.61-1.9-3.69-1.9-6.22c0-3.76,1.08-6.61,3.25-8.55c2.16-1.94,4.94-2.91,8.33-2.91
		c2.17,0,4.05,0.48,5.64,1.44c1.6,0.96,2.83,2.17,3.71,3.62c0.87,1.45,1.57,3.25,2.08,5.42c0.51,2.17,0.84,4.2,0.98,6.1
		c0.15,1.9,0.22,4.04,0.22,6.41c0,2.2-0.29,5.24-0.86,9.1s-1.08,6.06-1.53,6.59c-0.16,0.24-0.3,0.47-0.4,0.67
		c-0.1,0.2-0.15,0.41-0.15,0.61c0,0.45,0.21,0.81,0.64,1.07s0.89,0.4,1.38,0.4c0.45-0.05,1.03-0.42,1.72-1.11
		c1.23-1.22,1.84-2.22,1.84-3C496.76,81.86,496.67,81.74,496.51,81.7z"/>
	<path class="st0" d="M525.01,63.29c-0.45-2.35-0.96-3.54-1.53-3.58c-0.58,0-1.03,0.2-1.35,0.61c-0.33,0.41-0.49,0.9-0.49,1.47
		h-0.43c-1.27,0-2.52,0.68-3.77,2.05c-1.25,1.38-2.3,3.04-3.16,5c-0.85,1.96-1.55,3.78-2.08,5.45c-0.53,1.68-0.9,3.05-1.1,4.11
		c-0.17,0.94-0.25,1.88-0.25,2.82c0,3.43,1.18,5.14,3.55,5.14c2.46,0,4.93-1.69,7.42-5.08s3.74-7.48,3.74-12.26
		c0.49,0,1.04-0.15,1.65-0.46s0.92-0.62,0.92-0.95c0-0.32-0.39-0.55-1.16-0.67C526.11,66.86,525.46,65.64,525.01,63.29z
		 M520.82,79.53c-2.03,3.34-3.86,5-5.49,5c-1.15,0-1.72-1.01-1.72-3.01c0-0.77,0.09-1.63,0.25-2.57c0.41-2.17,1.46-5.12,3.13-8.86
		s3.14-5.61,4.41-5.61c0.2,0,0.57,0.63,1.1,1.87c0.53,1.25,0.98,1.98,1.35,2.18C523.85,72.54,522.83,76.2,520.82,79.53z"/>
	<path class="st0" d="M530.2,64.34c1.76,0,3.13-0.08,4.11-0.24c-2.49,8.95-3.8,13.63-3.92,14.04c-0.98,3.18-1.47,5.11-1.47,5.76
		c0,1.19,0.47,1.78,1.41,1.78c1.52,0,4.15-1.7,7.91-5.09c0.45-0.21,0.68-0.66,0.68-1.35c0-0.25-0.11-0.37-0.31-0.37
		c-0.12,0-0.97,0.73-2.54,2.18c-1.58,1.46-2.77,2.18-3.59,2.18c-0.45,0-0.67-0.34-0.67-1.04c0-0.37,0.1-0.96,0.31-1.78
		c1.26-5.27,2.92-10.79,4.96-16.55c1.71,0,3.51-0.1,5.39-0.33s2.82-0.54,2.82-0.95c0-0.25-0.58-0.37-1.72-0.37h-5.94
		c1.59-4.37,2.84-7.52,3.74-9.44c-0.08-0.37-0.41-0.55-0.98-0.55c-1.31,0-2.3,0.43-2.97,1.29c-0.68,0.86-1.42,2.6-2.24,5.21
		c-0.12,0.37-0.18,0.62-0.18,0.74l0.12,0.4l0.12,0.46c0,0.2-0.06,0.55-0.18,1.04l-0.25,0.86V62.2h-3.93c-0.33,0-0.76,0.19-1.29,0.58
		c-0.54,0.38-0.8,0.72-0.8,1.01C528.79,64.16,529.26,64.34,530.2,64.34z"/>
	<path class="st0" d="M543.88,68.47l0.12,0.49c0.08,0.16,0.12,0.35,0.12,0.55c0,0.37-0.04,0.69-0.12,0.98l-0.61,2.57
		c-0.37,1.67-1,4.21-1.9,7.6c-0.41,0.16-0.74,0.69-1.01,1.59c-0.27,0.9-0.4,1.9-0.4,3c0.12,0.21,0.3,0.31,0.55,0.31
		c0.37,0,0.82-0.17,1.35-0.49c0.53-0.32,0.92-0.65,1.17-0.98c1.35-4.2,3.42-8.52,6.22-12.93c2.79-4.41,4.91-6.62,6.34-6.62
		c0.21,0,0.31,0.14,0.31,0.43c0,0.37-0.19,1.04-0.58,2.02c-0.39,0.99-0.58,1.56-0.58,1.72c0,0.25,0.12,0.37,0.37,0.37
		c0.28,0,0.7-0.21,1.25-0.64c0.55-0.43,0.99-0.87,1.32-1.32c0.93-1.3,1.4-2.59,1.4-3.87c0-1.23-0.49-1.84-1.47-1.84
		c-1.84,0-4.17,1.87-6.99,5.61s-4.9,6.93-6.25,9.59c0.33-1.47,0.78-3.08,1.35-4.84c0.57-1.75,1.09-3.2,1.56-4.35
		c0.47-1.15,0.98-2.37,1.53-3.68c0.56-1.3,0.85-2.02,0.89-2.14c-0.08-0.33-0.37-0.49-0.86-0.49c-1.31,0-2.3,0.47-2.97,1.41
		s-1.34,2.7-1.99,5.27C543.92,68,543.88,68.22,543.88,68.47z"/>
	<path class="st0" d="M558.63,71.92c0,0.49,0.31,0.81,0.92,0.98c-0.04,0.32-0.29,1.22-0.76,2.69c-0.47,1.47-0.85,2.99-1.13,4.54
		c-0.13,0.61-0.19,1.14-0.19,1.59c0,1.47,0.42,2.53,1.26,3.16c0.84,0.63,1.77,0.95,2.79,0.95c1.26,0,3.02-1.02,5.27-3.04
		c2.25-2.03,3.37-3.61,3.37-4.75c0-0.33-0.14-0.49-0.43-0.49c-0.16,0-0.67,0.54-1.53,1.62c-0.85,1.08-1.86,2.17-3,3.25
		s-2.14,1.62-3,1.62c-1.23,0-1.84-0.81-1.84-2.45c0-1.96,0.67-4.66,2.02-8.09c0.04,0,0.32,0.01,0.83,0.03s0.97,0.03,1.38,0.03
		c0.7,0,1.43-0.06,2.21-0.16s1.66-0.28,2.64-0.55c0.98-0.27,1.78-0.72,2.39-1.35s0.92-1.4,0.92-2.3c0-0.77-0.13-1.79-0.37-3.06
		c-0.53-2.49-1.49-3.74-2.9-3.73c-3.23,0-5.42,1.08-6.56,3.25c-0.25,0.49-1.19,2.35-2.82,5.58h-0.43
		C558.98,71.24,558.63,71.47,558.63,71.92z M565.42,67.12c1.12-1.76,2.1-2.64,2.91-2.64c0.29,0,0.56,0.15,0.83,0.43
		c0.26,0.29,0.5,0.8,0.7,1.53c0.21,0.74,0.31,1.62,0.31,2.64c-0.04,1.15-0.43,1.9-1.17,2.27c-0.73,0.37-1.94,0.55-3.61,0.55
		c-0.41,0-0.9-0.02-1.47-0.06s-0.9-0.06-0.98-0.06C563.47,70.43,564.3,68.87,565.42,67.12z"/>
	<path class="st0" d="M535.09,137.7l-0.37-0.11c-0.19,0.02-0.6,0.28-1.25,0.76s-1.05,0.73-1.21,0.75c-0.26,0.03-0.41-0.11-0.45-0.43
		v-0.32c0.31-3.28,0.96-7.14,1.93-11.58c0.98-4.45,2-8.25,3.08-11.44c-0.06-0.24-0.27-0.33-0.65-0.28
		c-0.87,0.11-1.49,0.47-1.87,1.08c-0.38,0.61-0.73,1.78-1.05,3.5c-0.05,0.25-0.07,0.42-0.06,0.49l0.09,0.25l0.1,0.29
		c0.03,0.24,0.02,0.48-0.03,0.73c-0.22,1.25-0.55,3.21-1,5.84c-0.45,2.63-0.86,4.91-1.22,6.83c-0.37,1.92-0.78,3.85-1.23,5.81
		c-0.07,0.3-0.09,0.58-0.06,0.85c0.06,0.48,0.34,0.68,0.84,0.62c0.55-0.07,1.44-0.61,2.65-1.63
		C534.54,138.69,535.13,138.01,535.09,137.7z"/>
	<path class="st0" d="M545.66,128.76c-0.06-0.5-0.22-1.15-0.48-1.95c-0.53-1.56-1.26-2.29-2.14-2.18c-2.08,0.26-3.4,1.14-3.97,2.62
		c-0.11,0.34-0.57,1.62-1.37,3.83l-0.28,0.03c-0.45,0.05-0.66,0.23-0.62,0.52c0.04,0.32,0.26,0.51,0.67,0.56
		c0,0.21-0.1,0.82-0.28,1.8c-0.19,0.99-0.31,1.99-0.37,3.02c-0.03,0.41-0.03,0.75,0.01,1.04c0.12,0.96,0.47,1.6,1.06,1.94
		c0.59,0.34,1.21,0.47,1.87,0.39c0.82-0.11,1.87-0.9,3.16-2.38c1.28-1.48,1.88-2.59,1.79-3.33c-0.03-0.21-0.14-0.3-0.32-0.28
		c-0.11,0.01-0.39,0.4-0.86,1.17c-0.47,0.76-1.03,1.54-1.68,2.33c-0.64,0.79-1.25,1.22-1.8,1.29c-0.79,0.1-1.25-0.38-1.38-1.43
		c-0.15-1.27,0.06-3.06,0.66-5.38c0.03,0,0.21-0.02,0.54-0.05c0.33-0.03,0.63-0.06,0.89-0.09c0.44-0.06,0.92-0.15,1.41-0.28
		c0.49-0.13,1.04-0.32,1.65-0.57s1.08-0.6,1.43-1.06C545.6,129.86,545.73,129.34,545.66,128.76z M543.43,130.45
		c-0.45,0.29-1.21,0.51-2.29,0.64c-0.26,0.04-0.58,0.06-0.95,0.08c-0.38,0.02-0.59,0.03-0.64,0.04c0.23-0.91,0.64-1.98,1.22-3.2
		c0.59-1.22,1.14-1.86,1.67-1.93c0.19-0.02,0.38,0.05,0.57,0.21c0.19,0.16,0.39,0.47,0.58,0.93c0.19,0.45,0.33,1.01,0.41,1.67
		C544.06,129.63,543.87,130.15,543.43,130.45z"/>
	<path class="st0" d="M561.16,123.35c1.11-0.14,2.26-0.36,3.45-0.65s1.77-0.58,1.74-0.84c-0.01-0.16-0.39-0.19-1.13-0.1l-3.84,0.47
		c0.68-2.94,1.23-5.07,1.66-6.38c-0.09-0.23-0.31-0.33-0.68-0.28c-0.84,0.11-1.45,0.46-1.81,1.07c-0.37,0.61-0.71,1.79-1.03,3.54
		c-0.05,0.25-0.07,0.41-0.06,0.49l0.11,0.25l0.12,0.28c0.02,0.14,0.01,0.37-0.03,0.69l-0.09,0.57l-2.53,0.3
		c-0.06,0.01-0.13,0.05-0.2,0.08c-0.19-0.01-0.42,0.01-0.74,0.04l-3.83,0.47c0.68-2.94,1.23-5.07,1.66-6.38
		c-0.09-0.23-0.32-0.33-0.68-0.28c-0.85,0.1-1.45,0.46-1.82,1.07c-0.37,0.61-0.71,1.79-1.03,3.54c-0.05,0.25-0.07,0.41-0.06,0.49
		l0.11,0.25l0.12,0.28c0.01,0.14,0,0.37-0.04,0.69l-0.09,0.58l-2.5,0.32c-0.21,0.03-0.47,0.19-0.78,0.48
		c-0.31,0.29-0.45,0.54-0.43,0.72c0.03,0.24,0.34,0.31,0.95,0.24c1.13-0.14,2.01-0.31,2.63-0.49c-0.89,5.97-1.36,9.1-1.41,9.37
		c-0.38,2.13-0.54,3.41-0.49,3.83c0.1,0.76,0.45,1.1,1.05,1.03c0.97-0.13,2.54-1.43,4.69-3.92c0.28-0.16,0.38-0.47,0.33-0.92
		l-0.23-0.21c-0.08,0-0.57,0.54-1.47,1.6s-1.62,1.62-2.14,1.69c-0.29,0.04-0.47-0.17-0.52-0.62c-0.03-0.24-0.02-0.63,0.05-1.17
		c0.4-3.5,1.02-7.19,1.88-11.07c1.11-0.14,2.26-0.36,3.45-0.65c0.13-0.03,0.26-0.07,0.38-0.1c-0.04,0.09-0.07,0.17-0.06,0.24
		c0.03,0.24,0.34,0.31,0.95,0.24c1.13-0.14,2.01-0.3,2.63-0.48c-0.9,5.97-1.37,9.09-1.41,9.36c-0.38,2.13-0.54,3.41-0.49,3.83
		c0.09,0.77,0.44,1.12,1.05,1.04c0.97-0.12,2.54-1.42,4.69-3.91c0.28-0.16,0.39-0.47,0.33-0.92l-0.23-0.21
		c-0.07,0.01-0.56,0.55-1.46,1.61s-1.61,1.62-2.14,1.69c-0.29,0.04-0.46-0.17-0.52-0.62c-0.02-0.24-0.01-0.63,0.06-1.17
		C559.68,130.92,560.3,127.23,561.16,123.35z"/>
	<path class="st0" d="M574.31,120.1c-1.19,0.15-2.54,1.55-4.06,4.18c-1.52,2.64-2.61,4.87-3.26,6.69c0.09-0.97,0.25-2.05,0.48-3.23
		s0.45-2.15,0.66-2.93c0.21-0.77,0.44-1.6,0.69-2.49s0.38-1.38,0.4-1.46c-0.07-0.2-0.27-0.29-0.59-0.25
		c-0.84,0.1-1.44,0.49-1.8,1.15c-0.36,0.66-0.64,1.85-0.86,3.56l-0.03,0.44l0.12,0.31l0.12,0.35c0.03,0.23,0.03,0.45,0,0.64
		l-0.19,1.71c-0.11,1.12-0.31,2.8-0.62,5.06c-0.24,0.14-0.42,0.51-0.52,1.11c-0.1,0.6-0.11,1.26-0.02,1.97l0.38,0.15
		c0.23-0.02,0.51-0.17,0.83-0.42c0.31-0.26,0.54-0.5,0.67-0.73c0.54-2.83,1.53-5.77,2.98-8.84s2.64-4.67,3.56-4.78
		c0.13-0.02,0.21,0.07,0.23,0.25c0.03,0.23-0.04,0.69-0.21,1.35c-0.18,0.66-0.25,1.05-0.24,1.15l0.26,0.21
		c0.19-0.03,0.44-0.2,0.76-0.52s0.57-0.63,0.74-0.95c0.5-0.92,0.7-1.78,0.61-2.61C575.31,120.38,574.94,120.02,574.31,120.1z"/>
	<path class="st0" d="M578.71,135.55c0.81-0.11,1.86-0.9,3.15-2.38c1.29-1.49,1.89-2.6,1.8-3.34c-0.03-0.21-0.13-0.3-0.32-0.28
		c-0.11,0.01-0.39,0.39-0.86,1.16c-0.47,0.78-1.03,1.55-1.68,2.34c-0.65,0.8-1.26,1.22-1.81,1.29c-0.79,0.1-1.25-0.38-1.38-1.43
		c-0.15-1.27,0.06-3.06,0.66-5.38c0.02-0.01,0.2-0.02,0.53-0.05c0.33-0.03,0.63-0.06,0.89-0.09c0.45-0.06,0.92-0.15,1.41-0.28
		c0.5-0.13,1.05-0.32,1.66-0.57c0.61-0.24,1.09-0.6,1.43-1.06c0.34-0.45,0.48-0.97,0.41-1.55c-0.06-0.5-0.22-1.16-0.48-1.95
		c-0.55-1.56-1.27-2.29-2.14-2.17c-2.08,0.26-3.41,1.13-3.97,2.62c-0.12,0.33-0.57,1.61-1.37,3.82l-0.28,0.04
		c-0.45,0.06-0.66,0.23-0.62,0.52c0.04,0.32,0.26,0.51,0.67,0.56c0,0.22-0.09,0.82-0.28,1.8c-0.19,0.99-0.31,1.99-0.37,3.02
		c-0.03,0.41-0.03,0.75,0.01,1.04c0.11,0.95,0.47,1.59,1.06,1.93C577.43,135.5,578.05,135.63,578.71,135.55z M579.7,123.18
		c0.59-1.22,1.14-1.86,1.67-1.93c0.18-0.03,0.37,0.05,0.57,0.21c0.2,0.16,0.39,0.47,0.58,0.93c0.19,0.46,0.33,1.01,0.41,1.67
		c0.06,0.74-0.13,1.26-0.58,1.55c-0.45,0.3-1.21,0.52-2.29,0.65c-0.26,0.03-0.58,0.06-0.95,0.08s-0.59,0.03-0.64,0.04
		C578.71,125.47,579.12,124.4,579.7,123.18z"/>
	<path class="st0" d="M594.47,123.81c-0.69,5.38-1.2,8.64-1.51,9.78c-0.1,0.3-0.34,0.67-0.71,1.11c-0.38,0.43-0.55,0.74-0.53,0.93
		c0.04,0.29,0.23,0.41,0.57,0.37c0.23-0.03,0.49-0.19,0.76-0.48c0.27-0.28,0.56-0.64,0.87-1.07s0.55-0.73,0.71-0.91
		c0.07-0.06,0.46-0.38,1.17-0.93c0.71-0.56,1.33-1.08,1.87-1.58c0.54-0.5,0.8-0.84,0.77-1.02c-0.02-0.13-0.13-0.19-0.34-0.16
		c-0.32,0.03-0.86,0.44-1.64,1.2c-0.78,0.77-1.27,1.16-1.48,1.19l-0.09-0.11c-0.05-0.42,0.07-1.63,0.37-3.62
		c0.31-1.99,0.61-3.69,0.92-5.09c0.2-0.96,0.47-2.14,0.8-3.55c0.33-1.41,0.52-2.23,0.57-2.48c-0.05-0.23-0.23-0.33-0.51-0.28
		c-0.92,0.12-1.57,0.64-1.93,1.57c-0.37,0.92-0.52,1.8-0.44,2.62c-1.55,3.91-3.51,7.05-5.9,9.4c-0.47,0.49-0.77,0.74-0.87,0.75
		l-0.14-0.14c-0.04-0.37,1.03-4.63,3.23-12.8c-0.11-0.23-0.35-0.32-0.72-0.27c-0.92,0.11-1.54,0.47-1.87,1.06
		c-0.33,0.58-0.61,1.75-0.85,3.49c-0.03,0.26-0.03,0.41-0.03,0.44l0.12,0.29l0.13,0.36c0.06,0.45-0.05,1.2-0.3,2.26
		c-0.26,1.06-0.62,2.33-1.08,3.81c-0.46,1.47-0.68,2.23-0.68,2.25c-0.2,0.77-0.27,1.36-0.22,1.75c0.06,0.48,0.27,0.69,0.64,0.65
		c1.03-0.13,2.42-1.46,4.18-3.99C592.08,128.07,593.46,125.81,594.47,123.81z"/>
	<path class="st0" d="M600.53,131.72c0.54-2.83,1.53-5.77,2.98-8.84s2.64-4.66,3.56-4.78c0.13-0.02,0.21,0.06,0.23,0.25
		c0.03,0.23-0.05,0.69-0.22,1.35c-0.17,0.66-0.25,1.04-0.24,1.15l0.27,0.21c0.19-0.02,0.44-0.19,0.76-0.51
		c0.33-0.33,0.57-0.64,0.75-0.96c0.5-0.92,0.7-1.79,0.59-2.6c-0.09-0.79-0.46-1.15-1.09-1.07c-1.19,0.15-2.54,1.54-4.06,4.18
		c-1.51,2.64-2.6,4.87-3.26,6.69c0.09-0.98,0.25-2.05,0.48-3.23c0.23-1.18,0.45-2.15,0.66-2.93c0.22-0.78,0.45-1.61,0.7-2.5
		c0.25-0.88,0.39-1.37,0.4-1.45c-0.08-0.21-0.27-0.29-0.59-0.25c-0.84,0.11-1.44,0.49-1.8,1.15c-0.36,0.66-0.65,1.85-0.86,3.56
		l-0.03,0.45l0.12,0.31l0.12,0.34c0.03,0.23,0.03,0.45,0,0.64l-0.19,1.71c-0.1,1.11-0.31,2.79-0.62,5.05
		c-0.25,0.14-0.42,0.51-0.52,1.11c-0.1,0.6-0.11,1.26-0.02,1.97l0.38,0.15c0.24-0.04,0.51-0.18,0.83-0.43
		C600.17,132.19,600.4,131.95,600.53,131.72z"/>
	<path class="st0" d="M504.18,93.05l-0.25-0.09c-0.6,0.07-1.27,0.49-2.01,1.25c-0.73,0.76-1.07,1.42-1,1.97
		c0.1,0.87,0.42,1.28,0.95,1.21c0.38-0.15,0.69-0.69,0.93-1.6c0.09-0.3,0.36-0.75,0.79-1.34C504.03,93.86,504.22,93.39,504.18,93.05
		z"/>
	<path class="st0" d="M502.11,99.84c-0.87,0.11-1.5,0.46-1.88,1.07s-0.76,1.78-1.13,3.51c-0.05,0.25-0.06,0.42-0.05,0.53l0.09,0.21
		l0.1,0.29l0.01,0.4c-0.02,0.13-0.04,0.33-0.07,0.59c-0.03,0.26-0.07,0.52-0.12,0.78s-0.13,0.65-0.24,1.17s-0.21,1.03-0.31,1.52
		c-0.1,0.49-0.25,1.19-0.44,2.1s-0.38,1.79-0.57,2.64c-0.07,0.33-0.09,0.62-0.06,0.85c0.06,0.47,0.34,0.68,0.84,0.62
		c0.5-0.07,1.37-0.61,2.61-1.63c1.24-1.03,1.84-1.7,1.8-2.02c-0.04-0.09-0.16-0.13-0.34-0.11c-0.21,0.02-0.64,0.28-1.29,0.76
		c-0.65,0.48-1.05,0.73-1.21,0.75c-0.26,0.03-0.41-0.11-0.45-0.43v-0.32c0.11-1.05,0.26-2.12,0.45-3.18
		c0.19-1.07,0.38-1.99,0.58-2.76c0.2-0.78,0.43-1.6,0.7-2.46c0.27-0.86,0.48-1.52,0.64-1.97c0.15-0.45,0.35-0.98,0.58-1.6
		c0.23-0.62,0.37-0.97,0.41-1.06C502.68,99.86,502.47,99.77,502.11,99.84z"/>
	<path class="st0" d="M503.75,115.85c0.55-0.06,1.04-0.44,1.46-1.14c0.42-0.7,0.83-1.58,1.22-2.64s1.11-2.64,2.16-4.72
		c1.06-2.09,2.31-4.21,3.75-6.37c0.23-0.33,0.41-0.5,0.54-0.51l0.14,0.18c0.01,0.14-0.02,0.38-0.11,0.74
		c-1.17,4.83-1.9,9.03-2.21,12.6l-0.03,0.08l0.01,0.08c0.03,0.24,0.2,0.34,0.52,0.3c0.34-0.05,0.74-0.24,1.21-0.58
		c0.47-0.34,0.71-0.61,0.74-0.83c0.4-2.83,1.24-5.37,2.51-7.62c1.28-2.24,2.54-3.91,3.8-5c0.19-0.16,0.33-0.24,0.41-0.25
		c0.13-0.02,0.21,0.07,0.23,0.25c0.04,0.37-0.22,1.56-0.8,3.59c-0.05,0.22-0.26,0.9-0.61,2.04c-0.35,1.14-0.62,2.05-0.8,2.73
		s-0.35,1.5-0.5,2.45c-0.15,0.95-0.18,1.73-0.11,2.34c0.08,0.61,0.22,1.02,0.44,1.25s0.53,0.32,0.92,0.27
		c0.58-0.07,1.13-0.33,1.67-0.77c0.54-0.43,0.78-0.83,0.74-1.17l-0.23-0.21c-0.09,0.01-0.33,0.16-0.73,0.47s-0.66,0.47-0.76,0.48
		c-0.24,0.03-0.38-0.15-0.43-0.51c-0.03-0.27-0.02-0.54,0.02-0.81c0.23-3.53,1.59-8.31,4.08-14.35c0.12-0.33,0.17-0.59,0.12-0.8
		c-0.05-0.37-0.33-0.53-0.86-0.46c-0.81,0.1-1.45,0.38-1.9,0.84c-2.11,1.97-3.66,3.74-4.66,5.29c-1,1.56-1.99,3.69-2.96,6.41
		c0.24-3.03,1.27-6.62,3.08-10.78c0.15-0.32,0.21-0.59,0.18-0.83c-0.05-0.34-0.33-0.47-0.86-0.41c-2.26,0.28-5.16,4.19-8.69,11.75
		c0.19-1.95,1.09-5.28,2.7-9.97c-0.08-0.23-0.3-0.32-0.64-0.28c-0.84,0.1-1.45,0.46-1.83,1.07c-0.38,0.61-0.76,1.78-1.13,3.51
		c-0.05,0.25-0.06,0.42-0.05,0.53l0.09,0.21l0.09,0.29c0.02,0.16-0.01,0.41-0.07,0.73c-0.8,4.28-1.35,6.96-1.65,8.04
		c-0.02,0.06-0.08,0.24-0.19,0.55c-0.11,0.32-0.21,0.61-0.29,0.92c-0.08,0.31-0.11,0.55-0.09,0.74
		C503.42,115.78,503.54,115.87,503.75,115.85z"/>
	<path class="st0" d="M528.47,112.48c1.42-0.17,2.59-0.79,3.52-1.86c0.92-1.07,1.25-2.63,1-4.68c-0.1-0.82-0.26-1.56-0.48-2.23
		c0.17-0.1,0.52-0.26,1.04-0.49c0.52-0.22,0.9-0.42,1.15-0.6c0.24-0.18,0.35-0.36,0.33-0.54c-0.01-0.08-0.11-0.12-0.29-0.09
		c-0.29,0.04-0.57,0.11-0.85,0.23c-0.28,0.11-0.58,0.26-0.91,0.43c-0.33,0.17-0.57,0.3-0.72,0.37c-0.97-2.91-2.48-4.9-4.51-6l0.32-1
		c0.09-0.28,0.13-0.53,0.1-0.77c-0.04-0.27-0.16-0.38-0.37-0.36c-0.34,0.04-0.73,0.32-1.18,0.81c-0.44,0.5-0.64,0.93-0.6,1.3
		l0.2,0.3l-0.56,0.31c-0.4,0.24-0.59,0.46-0.56,0.67c0.02,0.13,0.17,0.2,0.47,0.2s0.45,0.01,0.45,0.04
		c-0.16,1.09-0.78,4.48-1.87,10.15c-0.54,0.44-0.77,0.96-0.69,1.57c0.03,0.27,0.1,0.49,0.2,0.66c-0.02,0.11-0.3,1.32-0.86,3.62
		c-0.56,2.3-0.97,4.17-1.23,5.59c-0.27,1.43-0.37,2.42-0.3,2.97c0.09,0.66,0.28,0.97,0.6,0.93c0.42-0.05,0.79-0.45,1.1-1.2
		c0.3-0.75,0.44-1.28,0.4-1.6l-0.2-0.45l-0.18-0.34l0.02-0.16c0.19-0.88,0.49-2.32,0.91-4.31s0.71-3.34,0.86-4.06
		C525.71,112.47,526.94,112.67,528.47,112.48z M526.59,103.59c0.27-1.48,0.49-2.61,0.66-3.39c0.18-0.78,0.3-1.18,0.38-1.19
		c0.18-0.02,0.44,0.16,0.77,0.55c0.33,0.39,0.7,0.97,1.12,1.75c0.42,0.77,0.78,1.63,1.08,2.55c-1.93,1.02-3.48,2.04-4.64,3.06
		C526.11,106.18,526.32,105.07,526.59,103.59z M525.15,110.96l0.56-2.6c0.47-0.54,1.33-1.31,2.6-2.31c1.27-0.99,2.12-1.52,2.57-1.58
		c0.23,0.78,0.38,1.45,0.46,2.03c0.15,1.26-0.03,2.38-0.57,3.34s-1.47,1.52-2.82,1.69C527.08,111.64,526.15,111.45,525.15,110.96z"
		/>
	<path class="st0" d="M535.9,103.24c-0.11,1.11-0.31,2.79-0.62,5.05c-0.24,0.14-0.42,0.51-0.52,1.11c-0.1,0.6-0.11,1.26-0.02,1.97
		l0.38,0.15c0.23-0.03,0.51-0.17,0.83-0.42c0.31-0.25,0.54-0.49,0.67-0.72c0.54-2.82,1.53-5.77,2.98-8.84
		c1.45-3.06,2.64-4.66,3.56-4.77c0.13-0.02,0.21,0.07,0.23,0.25c0.03,0.23-0.04,0.68-0.21,1.35c-0.18,0.66-0.25,1.04-0.24,1.15
		l0.27,0.21c0.18-0.03,0.44-0.2,0.76-0.52c0.32-0.31,0.57-0.64,0.74-0.95c0.5-0.92,0.7-1.79,0.61-2.59c-0.1-0.79-0.47-1.15-1.1-1.07
		c-1.19,0.14-2.54,1.53-4.06,4.17s-2.61,4.87-3.26,6.69c0.09-0.97,0.25-2.05,0.48-3.23c0.23-1.18,0.44-2.16,0.66-2.93
		c0.21-0.78,0.44-1.61,0.69-2.5c0.25-0.89,0.39-1.38,0.4-1.46c-0.08-0.21-0.27-0.29-0.59-0.25c-0.84,0.1-1.44,0.49-1.8,1.15
		c-0.36,0.65-0.65,1.84-0.86,3.55l-0.03,0.45l0.12,0.31l0.12,0.34c0.03,0.23,0.03,0.45,0,0.64L535.9,103.24z"/>
	<path class="st0" d="M547.42,101.21c-0.04,0.27-0.12,0.66-0.23,1.18c-0.11,0.52-0.21,1.03-0.31,1.52s-0.25,1.19-0.44,2.1
		c-0.2,0.91-0.39,1.79-0.58,2.64c-0.06,0.33-0.08,0.61-0.05,0.85c0.06,0.47,0.34,0.68,0.84,0.62s1.37-0.61,2.61-1.63
		c1.24-1.02,1.84-1.7,1.8-2.01c-0.04-0.1-0.15-0.14-0.34-0.12c-0.21,0.02-0.64,0.28-1.29,0.76c-0.65,0.48-1.05,0.73-1.21,0.75
		c-0.26,0.03-0.41-0.11-0.45-0.43v-0.32c0.11-1.06,0.26-2.13,0.45-3.19c0.19-1.07,0.38-1.98,0.58-2.76c0.2-0.78,0.43-1.59,0.7-2.46
		c0.27-0.86,0.48-1.51,0.64-1.96c0.16-0.45,0.36-0.98,0.59-1.6s0.37-0.97,0.41-1.06c-0.09-0.23-0.3-0.32-0.67-0.25
		c-0.87,0.11-1.49,0.46-1.87,1.07c-0.38,0.62-0.76,1.79-1.13,3.52c-0.05,0.25-0.07,0.43-0.06,0.53l0.09,0.21l0.1,0.28l0.01,0.4
		c-0.01,0.13-0.04,0.33-0.07,0.59C547.51,100.69,547.47,100.95,547.42,101.21z"/>
	<path class="st0" d="M551.17,89.79c0.09-0.3,0.35-0.75,0.79-1.34c0.44-0.59,0.63-1.06,0.59-1.4l-0.24-0.09
		c-0.6,0.07-1.27,0.49-2.01,1.25c-0.73,0.76-1.07,1.41-1,1.97c0.1,0.87,0.42,1.28,0.95,1.21C550.63,91.24,550.94,90.71,551.17,89.79
		z"/>
	<path class="st0" d="M571.37,92.22c0.12-0.33,0.17-0.59,0.12-0.8c-0.05-0.37-0.33-0.53-0.86-0.46c-0.82,0.1-1.46,0.38-1.91,0.84
		c-2.11,1.97-3.66,3.74-4.66,5.29c-1,1.56-1.99,3.69-2.96,6.41c0.24-3.03,1.27-6.62,3.08-10.78c0.15-0.31,0.21-0.59,0.18-0.82
		c-0.04-0.35-0.32-0.48-0.85-0.42c-2.27,0.28-5.17,4.2-8.7,11.76c0.19-1.95,1.09-5.28,2.7-9.97c-0.09-0.23-0.3-0.32-0.64-0.28
		c-0.84,0.1-1.45,0.46-1.83,1.07c-0.38,0.61-0.76,1.78-1.13,3.51c-0.05,0.25-0.06,0.43-0.05,0.53l0.09,0.21l0.09,0.29
		c0.02,0.16,0,0.4-0.07,0.73c-0.81,4.27-1.36,6.95-1.65,8.03c-0.03,0.06-0.09,0.24-0.2,0.55s-0.2,0.62-0.29,0.92
		c-0.08,0.3-0.11,0.55-0.09,0.73c0.03,0.22,0.15,0.31,0.36,0.28c0.55-0.07,1.04-0.45,1.46-1.14c0.42-0.7,0.83-1.58,1.22-2.64
		c0.39-1.06,1.12-2.64,2.17-4.72c1.06-2.09,2.3-4.21,3.75-6.37c0.23-0.32,0.41-0.48,0.54-0.5l0.14,0.18
		c0.02,0.14-0.02,0.38-0.11,0.74c-1.17,4.83-1.9,9.03-2.21,12.6l-0.03,0.08l0.01,0.08c0.03,0.24,0.2,0.34,0.52,0.3
		c0.34-0.04,0.74-0.23,1.21-0.57c0.46-0.33,0.71-0.61,0.74-0.83c0.39-2.84,1.23-5.37,2.5-7.62c1.28-2.24,2.54-3.91,3.8-5
		c0.2-0.16,0.33-0.24,0.41-0.25c0.13-0.02,0.21,0.07,0.23,0.25c0.04,0.37-0.22,1.57-0.8,3.59c-0.06,0.22-0.26,0.9-0.61,2.04
		c-0.35,1.14-0.62,2.05-0.8,2.73s-0.35,1.5-0.5,2.45c-0.15,0.96-0.19,1.74-0.11,2.34c0.08,0.61,0.22,1.02,0.44,1.25
		s0.53,0.32,0.92,0.27c0.58-0.07,1.14-0.33,1.67-0.77c0.54-0.44,0.78-0.83,0.74-1.17l-0.23-0.21c-0.08,0.01-0.32,0.16-0.72,0.47
		s-0.66,0.47-0.76,0.48c-0.23,0.02-0.38-0.15-0.42-0.51c-0.03-0.27-0.03-0.54,0.02-0.81C567.52,103.04,568.88,98.26,571.37,92.22z"
		/>
	<path class="st0" d="M572.21,97.54c-0.45,0.06-0.65,0.23-0.62,0.52c0.04,0.32,0.26,0.51,0.67,0.56c0,0.22-0.1,0.82-0.28,1.81
		c-0.19,0.98-0.31,1.99-0.37,3.01c-0.03,0.4-0.03,0.75,0.01,1.04c0.11,0.95,0.47,1.6,1.06,1.94c0.58,0.34,1.21,0.47,1.87,0.39
		c0.82-0.11,1.87-0.9,3.16-2.38c1.28-1.49,1.88-2.6,1.79-3.34c-0.02-0.21-0.13-0.3-0.31-0.28c-0.11,0.01-0.39,0.4-0.86,1.17
		c-0.47,0.76-1.03,1.54-1.68,2.33c-0.64,0.79-1.25,1.22-1.8,1.29c-0.79,0.1-1.25-0.37-1.38-1.43c-0.16-1.26,0.05-3.06,0.65-5.38
		c0.03-0.01,0.21-0.02,0.54-0.05c0.33-0.03,0.63-0.05,0.89-0.09c0.45-0.05,0.92-0.15,1.41-0.27c0.49-0.13,1.04-0.32,1.65-0.57
		c0.61-0.24,1.09-0.6,1.43-1.06c0.35-0.45,0.48-0.97,0.41-1.55c-0.06-0.5-0.22-1.15-0.48-1.95c-0.54-1.57-1.26-2.3-2.14-2.19
		c-2.08,0.26-3.4,1.13-3.97,2.62c-0.11,0.33-0.58,1.61-1.37,3.82L572.21,97.54z M575.55,94.43c0.59-1.22,1.14-1.86,1.67-1.93
		c0.19-0.02,0.38,0.04,0.57,0.21c0.2,0.16,0.39,0.48,0.58,0.93c0.19,0.46,0.33,1.02,0.41,1.68c0.06,0.74-0.12,1.26-0.58,1.54
		c-0.45,0.3-1.21,0.52-2.29,0.65c-0.26,0.04-0.57,0.06-0.95,0.08s-0.59,0.03-0.64,0.04C574.56,96.72,574.97,95.65,575.55,94.43z"/>
	<path class="st0" d="M582,105.84c1.03-0.13,2.42-1.46,4.18-3.99s3.14-4.8,4.15-6.8c-0.7,5.39-1.21,8.64-1.52,9.78
		c-0.1,0.31-0.34,0.68-0.71,1.11c-0.38,0.44-0.55,0.75-0.53,0.93c0.04,0.29,0.23,0.41,0.57,0.37c0.23-0.04,0.49-0.19,0.76-0.48
		c0.27-0.28,0.56-0.64,0.87-1.07c0.31-0.42,0.55-0.73,0.71-0.91c0.07-0.06,0.46-0.37,1.17-0.93c0.7-0.55,1.33-1.08,1.87-1.57
		c0.54-0.49,0.8-0.83,0.78-1.02c-0.02-0.13-0.13-0.18-0.34-0.15c-0.32,0.04-0.86,0.45-1.64,1.21c-0.78,0.76-1.27,1.15-1.48,1.18
		l-0.1-0.11c-0.05-0.42,0.08-1.63,0.38-3.62s0.6-3.69,0.91-5.09c0.2-0.96,0.47-2.14,0.8-3.55c0.33-1.41,0.52-2.23,0.57-2.48
		c-0.05-0.23-0.23-0.33-0.48-0.3c-0.93,0.11-1.57,0.63-1.94,1.56s-0.52,1.8-0.44,2.62c-1.55,3.91-3.52,7.04-5.9,9.4
		c-0.48,0.49-0.77,0.74-0.87,0.75l-0.14-0.15c-0.04-0.37,1.03-4.63,3.23-12.8c-0.1-0.22-0.34-0.31-0.71-0.27
		c-0.93,0.12-1.55,0.47-1.88,1.06c-0.33,0.59-0.61,1.76-0.85,3.5c-0.02,0.28-0.02,0.42-0.02,0.45l0.12,0.29l0.13,0.37
		c0.05,0.44-0.05,1.2-0.31,2.26c-0.25,1.06-0.61,2.33-1.07,3.8c-0.45,1.48-0.68,2.23-0.68,2.26c-0.2,0.77-0.28,1.36-0.23,1.75
		C581.42,105.67,581.63,105.88,582,105.84z"/>
	<path class="st0" d="M594.88,104.13c0.24-0.03,0.51-0.17,0.83-0.42c0.31-0.26,0.54-0.5,0.67-0.73c0.54-2.82,1.53-5.77,2.98-8.84
		s2.64-4.66,3.56-4.78c0.13-0.02,0.21,0.06,0.23,0.25c0.03,0.24-0.04,0.69-0.21,1.35c-0.17,0.67-0.25,1.05-0.24,1.16l0.27,0.2
		c0.19-0.03,0.44-0.2,0.76-0.52c0.32-0.32,0.57-0.64,0.74-0.95c0.5-0.92,0.7-1.79,0.62-2.62c-0.1-0.79-0.46-1.15-1.1-1.07
		c-1.19,0.15-2.54,1.54-4.06,4.18c-1.51,2.64-2.6,4.87-3.26,6.69c0.09-0.98,0.25-2.05,0.48-3.23c0.23-1.17,0.45-2.16,0.66-2.93
		c0.21-0.77,0.44-1.61,0.69-2.49c0.25-0.89,0.38-1.37,0.4-1.45c-0.08-0.21-0.27-0.29-0.59-0.25c-0.84,0.1-1.44,0.49-1.8,1.15
		c-0.36,0.66-0.64,1.85-0.86,3.56l-0.03,0.44l0.12,0.31l0.12,0.35c0.03,0.24,0.03,0.45,0,0.64l-0.19,1.71
		c-0.11,1.11-0.31,2.8-0.62,5.06c-0.25,0.14-0.43,0.51-0.53,1.11c-0.1,0.6-0.11,1.26-0.02,1.97L594.88,104.13z"/>
	<path class="st0" d="M600.85,107.12l0.11,0.11c0.15-0.02,0.36-0.15,0.64-0.38c0.29-0.24,0.59-0.55,0.91-0.92
		c0.33-0.37,0.64-0.86,0.94-1.46s0.51-1.22,0.64-1.88l0.1-0.25l0.07-0.37c-0.02-0.19-0.11-0.44-0.26-0.76l-0.36-0.15
		c-0.27,0.03-0.58,0.24-0.93,0.64h-0.02c-0.23,0.28-0.32,0.55-0.29,0.8c0.03,0.22,0.11,0.41,0.25,0.55h0.02l0.15,0.27
		c0.05,0.35-0.15,0.91-0.6,1.7C601.77,105.8,601.32,106.5,600.85,107.12z"/>
	<path class="st0" d="M288.15,137.36c0.01-4.72-1.68-8.63-5.05-11.67c-3.37-3.06-7.67-4.59-12.94-4.59c-5.23,0-9.54,1.53-12.93,4.6
		c-1.18,1.08-2.14,2.26-2.91,3.55c0,0,0.01,0,0.01,0c-0.29,0.49-0.56,0.99-0.79,1.52c2.15,1.15,4.61,2.1,7.11,2.11
		c0.36-0.01,0.8-0.02,1.26-0.04c0.03,0,0.06,0,0.09,0c0.08-0.59,0.18-1.15,0.3-1.69c-0.13,0-0.25,0-0.38,0.01h-0.01
		c0.13,0,0.25,0,0.38-0.01c0.37-1.67,0.9-3.1,1.62-4.29c1.47-2.45,3.56-3.69,6.25-3.69s4.79,1.24,6.27,3.7
		c1.48,2.47,2.22,5.97,2.22,10.49c0,4.56-0.74,8.06-2.22,10.54c-1.48,2.48-3.58,3.72-6.27,3.72s-4.78-1.24-6.25-3.72
		c-1.05-1.77-1.72-4.06-2.02-6.88c-0.01,0-0.01,0-0.02,0.01c0.01,0,0.01,0,0.02-0.01c-0.06-0.55-0.11-1.12-0.14-1.71
		c-0.12,0.04-0.23,0.08-0.34,0.11c-1.98,0.59-4.97,1.14-8.94,1.1c0.02,0.12,0.05,0.24,0.07,0.37c-0.03-0.12-0.06-0.24-0.08-0.36
		c-1.66-0.02-3.5-0.13-5.54-0.41c-1.29-0.17-2.46-0.34-3.5-0.49c-7.33-1.04-8.65-1.22-11.8,0.88c-0.74,0.49-3.11,2.24-3.17,2.29
		c-0.11,0.11-4.87,3.93-8.58,6.23c-0.38,0.24-0.76,0.47-1.14,0.71c-2.51,1.47-5.19,2.92-7.81,4.3l-0.37,0.18
		c-5.02,2.45-10.28,4.49-15.71,6.09c-8.9,2.62-17.89,3.94-26.73,3.94c-18.28,0-33.7-5.43-45.8-16.12
		c-12.19-10.74-18.36-24.13-18.36-39.8c0-5.37,0.74-10.03,2.19-13.84c1.42-3.78,3.82-7.49,7.13-11.01
		c2.59-7.16,6.78-13.95,12.47-20.2c5.7-6.25,12.92-11.97,21.46-16.97c8.63-5.26,18-9.31,27.83-12.04c0.81-0.23,1.61-0.43,2.42-0.64
		c0.01,0,0.02-0.01,0.02-0.01c8.99-2.32,18.11-3.51,27.17-3.51c11.64,0,19.07,0.97,22.71,2.97c1.74,0.95,3.06,2.37,4.01,4.21
		c0,0,0.01,0,0.01,0.01c1.13,2.21,1.73,5.02,1.73,8.46c0,3.31-0.74,5.91-2.2,7.75c-1.52,1.93-3.6,2.92-6.17,2.92
		c-0.57,0-1.68-0.18-5.17-1.54c-10.21-3.73-20.89-5.63-31.73-5.63c-17.95,0-32.6,4.35-43.53,12.93
		c-10.85,8.51-16.34,19.87-16.34,33.77c0,13.79,5.75,25.79,17.08,35.63c11.38,9.89,25.34,14.9,41.49,14.9
		c10.61,0,21.28-2.61,31.78-7.76c5.8-2.94,9.19-5.75,9.9-6.74c1.02-1.39,1.88-3.31,1.35-11.34c-0.23-3.44,0.04-6.76,0.76-9.86
		c0,0,0,0,0,0c0.32-1.37,0.73-2.69,1.22-3.96c0,0,0,0-0.01,0c1.1-2.83,2.62-5.41,4.55-7.63c0.86-0.99,1.74-0.84,2.08-0.73
		c1.17,0.39,1.35,1.54,1.45,3.76c0,0.01-0.01,0.01-0.01,0.02c0.01,0.29,0.03,0.6,0.04,0.93c0.04,1.02,0.09,2.23,0.21,3.46
		c0.02,0.18,0.04,0.37,0.06,0.55c0.02,0.22,0.04,0.43,0.07,0.64c0.05,0.39,0.11,0.79,0.18,1.17c0.02,0.08,0.02,0.17,0.04,0.25
		c0,0.01,0.01,0.01,0.02,0.02c0.1,0.5,0.21,1,0.35,1.46c0.25,0.83,0.53,1.71,0.82,2.63c1.56,4.93,2.67,8.72,2.56,11.31
		c1.24,0.31,2.4,1.17,3.73,2.17c0.34,0.25,0.71,0.53,1.1,0.81c1.18,0.85,2.83,2.04,4.75,3.07c0.23-0.52,0.5-1.02,0.79-1.52
		c-1.81-0.94-3.4-2.09-4.53-2.91c-0.36-0.26-0.7-0.52-1.02-0.75l-0.06-0.04c-1.05-0.78-2.03-1.52-3.11-2.01
		c-0.18-2.8-1.29-6.49-2.61-10.66c-0.16-0.51-0.33-1.03-0.49-1.54c1.55,0.88,3.52,1.33,5.92,1.33c2.52,0,4.82-0.46,6.85-1.41
		c2.03-0.92,3.58-2.21,4.64-3.87c0.33,1.76,1.06,3.07,2.18,3.96c1.09,0.89,2.53,1.32,4.32,1.32c1.35,0,2.77-0.39,4.29-1.19
		c1.52-0.78,2.84-1.84,3.96-3.14l-0.83-1.58c-0.4,0.16-0.76,0.27-1.09,0.36c-0.34,0.09-0.63,0.1-0.82,0.1
		c-0.98,0-1.66-0.43-2.04-1.27c-0.37-0.87-0.55-2.75-0.55-5.64v-6.05c0-4.64-1.05-7.96-3.09-9.98c-2.06-2.01-5.43-3.01-10.09-3.01
		c-4.16,0-7.53,0.71-10.14,2.17c-2.6,1.46-3.9,3.29-3.9,5.56c0,1.18,0.39,2.12,1.13,2.83c0.77,0.7,1.76,1.05,3.01,1.05
		c0.99,0,1.87-0.09,2.67-0.27c0.81-0.18,1.58-0.46,2.3-0.84c-0.27-0.66-0.46-1.26-0.59-1.84c-0.13-0.59-0.21-1.15-0.21-1.69
		c0-1.27,0.41-2.3,1.19-3.07c0.79-0.79,1.86-1.18,3.14-1.18c1.54,0,2.62,0.5,3.2,1.49c0.6,1,0.9,2.97,0.9,5.93
		c0,1.42-0.3,2.39-0.89,2.93c-0.59,0.56-2.38,1.1-5.39,1.64c-5.15,0.94-8.69,2.1-10.63,3.49c-0.31,0.22-0.58,0.45-0.84,0.69
		c-0.25-1.58-0.82-2.72-2.38-3.23c-0.34-0.11-0.69-0.17-1.04-0.17c-1.05,0-2.07,0.5-2.86,1.42c-0.16,0.19-0.33,0.38-0.48,0.57
		c-2.12,2.59-3.74,5.59-4.85,8.88c-1.22,0.36-2.45,0.55-3.7,0.55c-3.19,0-5.84-1.09-7.93-3.27c-2.1-2.2-3.15-4.92-3.15-8.14
		c0-0.91,0.2-1.52,0.6-1.79c0.4-0.29,1.24-0.43,2.48-0.43h16.86c0.06-0.5,0.1-0.88,0.12-1.13c0.02-0.26,0.02-0.49,0.02-0.69
		c0-2.18-0.61-4.12-1.8-5.84c0.43-0.42,1.05-0.98,2.21-1.83c4.13-3.01,13.79-5.62,21.33-6.53c7.54-0.91,14.87-4.69,17.31-7.84
		s2.38-5.98,1.48-6.68c2.4-3.1,1.93-8.32-0.15-9.93c-2.08-1.61-5.4-2.2-7.35-2.36c-1.95-0.15-10.54-0.55-13.07-0.66
		c-3.83-0.17-2.61,1.85,0.26,2.45c1.47,0.3,14.16,2.04,16.36,3.74c2.19,1.7-1.8,5.35-3.89,6.89c-2.09,1.54-3.18,1.32-6.79,1.68
		s-16.79,1.6-19.73,2.02c-2.94,0.43-6.15,3.53-9.06,6.67c2.59,0.11,5.13-2.51,7.96-3.38s7.38,0.23,17.96,0.04s14.5-3.63,15.94-5.49
		c-0.67,3.08-3.91,5.88-9.49,6.69c-5.58,0.82-16.11,2.11-23.38,4.41c-4.46,1.41-8.7,4.25-11.85,6.5c-2.35-1.4-5.12-2.12-8.32-2.12
		c-4.94,0-9.03,1.56-12.3,4.67c-3.25,3.1-4.88,7.04-4.88,11.8c0,4.59,1.51,8.29,4.52,11.08c3.02,2.83,7,4.21,11.97,4.21
		c3.06,0,5.87-0.45,8.41-1.34c-0.59,2.96-0.79,6.08-0.57,9.3c0.53,8.07-0.4,9.35-1.02,10.2l-0.02,0.02
		c-0.41,0.5-1.95,1.91-4.83,3.69c-11.69,6.61-23.64,9.96-35.5,9.96c-15.71,0-29.27-4.87-40.31-14.46
		c-10.93-9.49-16.47-21.02-16.47-34.29c0-13.51,5.12-24.1,15.66-32.38c10.6-8.32,24.88-12.54,42.43-12.54
		c10.59,0,21.05,1.85,31.08,5.49c3.72,1.47,5,1.68,5.82,1.68c3.16,0,5.71-1.21,7.58-3.6c1.71-2.17,2.58-5.15,2.58-8.85
		c0-2.76-0.36-5.16-1.04-7.23c1.19,0.63,2.34,1.29,3.37,1.96c3.22,2.08,9.21,9.65,10.52,11.37c0.21-1.28-3.38-10.05-10.85-15.83
		c-3.16-2.45-6.91-4.23-10.78-5.43c-0.02-0.01-0.03-0.01-0.05-0.02c-0.1-0.03-0.19-0.05-0.29-0.08c-1.46-0.49-3.21-0.89-5.27-1.22
		c-0.52-0.09-1.04-0.16-1.55-0.22c-0.06-0.01-0.12-0.02-0.19-0.02c-0.29-0.03-0.57-0.07-0.86-0.1c-3.64-0.41-8.04-0.61-13.26-0.61
		c-6.44,0-12.94,0.6-19.42,1.77c-0.02,0-0.04,0-0.06,0c-0.02,0-0.04,0.01-0.06,0.01c-0.2,0.01-0.38,0.02-0.52,0.03
		c-0.4,0.03-0.85,0.15-1.34,0.33c-0.01,0-0.02,0-0.03,0.01c-0.01,0-0.03,0.01-0.04,0.02c-2.88,0.58-5.75,1.25-8.62,2.05
		c-10,2.79-19.5,6.9-28.24,12.22c-8.69,5.08-16.06,10.91-21.89,17.3c-5.74,6.31-10.01,13.19-12.69,20.45
		c-3.36,3.63-5.8,7.45-7.26,11.34c-1.52,4.01-2.29,8.88-2.29,14.46c0,16.21,6.38,30.04,18.96,41.13
		c12.44,11,28.25,16.59,46.98,16.59c9,0,18.17-1.36,27.23-4.03c9.02-2.65,17.59-6.5,25.46-11.44c4.02-2.49,6.78-4.7,8.95-6.53
		l0.4-0.35c0.21-0.18,0.42-0.37,0.56-0.48c0.25-0.2,1.25-0.93,1.79-1.29c1.48-0.99,2.3-1.34,3.95-1.34c1.41,0,3.45,0.28,6.67,0.73
		l0.05,0.01c0.96,0.13,2.15,0.3,3.46,0.48c2.12,0.29,4.19,0.43,6.16,0.43c0.02,0,0.05,0,0.07,0c-0.03-0.12-0.05-0.25-0.09-0.37
		c0.03,0.12,0.06,0.24,0.1,0.36h0c0.78,2.63,2.23,4.92,4.35,6.86c3.39,3.08,7.7,4.61,12.93,4.61c5.27,0,9.57-1.53,12.94-4.61
		C286.46,146,288.15,142.08,288.15,137.36z M260.78,131.18L260.78,131.18c0.31,0,0.69-0.01,1.09-0.02h0.01
		C261.48,131.17,261.09,131.18,260.78,131.18z M258.36,97.19l0.36-0.08v4.7h0.02c0,1.98-0.39,3.47-1.17,4.47
		c-0.76,1-1.94,1.49-3.51,1.49c-1.17,0-2.13-0.37-2.89-1.12c-0.73-0.75-1.1-1.75-1.1-2.96C250.07,100.95,252.83,98.78,258.36,97.19z
		 M214.44,91.37c-0.02-0.27-0.04-0.53-0.04-0.77c0-1.98,0.47-3.57,1.37-4.8c0.94-1.24,2.13-1.84,3.66-1.84
		c1.5,0,2.79,0.66,3.88,1.94c1.07,1.29,1.61,2.83,1.61,4.59c0,0.51-0.11,0.84-0.32,1.04c-0.26,0.17-0.75,0.26-1.5,0.26h-8.63
		C214.47,91.77,214.47,91.61,214.44,91.37z M252.9,142.22c3.26-0.01,6.23-0.4,8.86-1.16C259.14,141.82,256.16,142.22,252.9,142.22z"
		/>
	<path class="st0" d="M267.04,136.37c-0.88,1.08-2.84,2.17-5.28,2.94c0.03,0.59,0.08,1.16,0.14,1.71c2.92-0.87,5.26-2.18,6.43-3.6
		v-0.01c0.26-0.32,0.47-0.66,0.62-0.99c0.51-1.14,0.43-2.42-0.21-3.41c-1.01-1.57-2.74-1.88-5.2-1.88c-0.39,0-0.81,0.01-1.23,0.02
		c-0.12,0.54-0.22,1.1-0.3,1.69c2.88-0.06,4.56-0.03,5.31,1.12c0.34,0.54,0.38,1.2,0.1,1.82
		C267.33,135.97,267.21,136.17,267.04,136.37z"/>
	<path class="st0" d="M247.88,128.94c-2.68-1.94-4.05-3.31-5.84-2.65c1.47-2.24-1.3-9.7-2.91-15.02s-0.39-12.83-1.93-11.06
		c-4.5,5.18-6.66,12.39-6.14,20.31c0.53,7.92,0.49,10.15-1.14,12.38c-1.87,2.55-4.36,4.35-7.63,6.27
		c-10.41,6.11-23.79,9.53-35.77,9.53c-16.7,0-31.14-5.19-42.92-15.44c-11.85-10.28-17.85-22.83-17.85-37.29
		c0-14.61,5.78-26.55,17.19-35.49c11.31-8.89,26.41-13.4,44.88-13.4c11.1,0,22.04,1.94,32.52,5.76c3.28,1.3,4.18,1.4,4.38,1.4
		c1.88,0,3.34-0.68,4.44-2.07c1.15-1.45,1.73-3.6,1.73-6.4c0-5.48-1.55-9.11-4.61-10.77c-3.28-1.8-10.57-2.71-21.65-2.71
		c-9.64,0-19.4,1.37-29.01,4.07c-9.62,2.67-18.81,6.64-27.31,11.8c-8.35,4.9-15.4,10.47-20.96,16.57
		c-5.54,6.1-9.61,12.72-12.08,19.69l-0.06,0.12l-0.22,0.3c-3.15,3.31-5.46,6.82-6.81,10.41c-1.35,3.55-2.04,7.95-2.04,13.06
		c0,15,5.93,27.84,17.61,38.16c11.69,10.32,26.61,15.56,44.35,15.56c8.67,0,17.45-1.29,26.12-3.85c8.69-2.55,16.69-5.88,24.23-10.63
		c2.01-1.24,4.21-2.67,5.82-3.86c1.3-0.9,4.78-3.36,6.83-4.64l0.06-0.04l0.34-0.21c3.67-2.24,5.7-1.54,15.66-0.2
		c12.32,1.67,18.36-2.26,18.87-3.41c0.53-1.14-3.33-0.8-5.45-0.8C255.46,134.37,250.56,130.87,247.88,128.94z"/>
</g>
</svg>
