<?xml version="1.0" encoding="utf-8"?>
<!-- Generator: Adobe Illustrator 23.0.1, SVG Export Plug-In . SVG Version: 6.00 Build 0)  -->
<svg version="1.1" id="Layer_1" xmlns="http://www.w3.org/2000/svg" xmlns:xlink="http://www.w3.org/1999/xlink" x="0px" y="0px"
	 viewBox="0 0 648 273.6" style="enable-background:new 0 0 648 273.6;" xml:space="preserve">
<style type="text/css">
	.st0{fill:#FFFFFF;}
	.st1{fill:none;}
</style>
<g>
	<path class="st0" d="M491.74,216.53l-0.2-0.13l-0.11-0.02c-0.26,0.05-0.72,0.33-1.48,0.84l-0.5-4.42c0.25-0.04,0.55-0.09,0.96-0.18
		c0.24-0.05,0.43-0.1,0.57-0.15l0.18-0.08l0.14-0.16l-0.02-0.13c-0.17-0.22-0.44-0.23-0.87-0.24c-0.28,0-0.63,0.03-1.06,0.07
		c-0.28-2.42-0.7-4.46-1.25-6.12l0.16-0.2l0.2-0.24l0.04-0.12l0-0.13l-0.01-0.16l0-0.01l-0.1-0.35l-0.3-0.17l-0.04,0v0l0,0l-0.01,0
		l0,0l-0.27,0.16l-0.11,0.13c-0.15-0.25-0.41-0.4-0.72-0.39l-0.14,0.01c-0.35,0.02-0.63,0.25-0.61,0.58l0,0.08l0,0
		c0.03,0.19,0.13,0.54,0.32,1.07c-1.9,2.3-3.48,4.54-4.74,6.71c-0.17,0.01-0.33,0.02-0.46,0.02l-0.01,0l-0.46,0.05
		c-0.24,0.03-0.47,0.06-0.67,0.11c-0.2,0.04-0.41,0.1-0.61,0.16c-0.21,0.06-0.39,0.15-0.52,0.27l-0.04,0.06l-0.13,0.33l-0.01,0.08
		l0.18,0.19l0.2,0.02l0.07,0c0.19-0.01,0.44-0.03,0.75-0.06l0.25-0.03l0.01,0l0.24-0.04l0.25-0.04l0.23-0.03l0.1-0.01
		c-0.68,1.31-1.22,2.54-1.6,3.69c-0.31,0.93-0.46,1.85-0.46,2.76c0,0.3,0.02,0.6,0.05,0.89c0.06,0.49,0.21,1,0.45,1.53
		c0.22,0.5,0.56,0.81,0.99,0.81l0.09,0l0,0l0.32-0.08l0.19-0.25l0-0.02l-0.04-0.09l-0.22-0.27l-0.02-0.02
		c-0.33-0.28-0.55-0.76-0.63-1.46c-0.04-0.31-0.05-0.62-0.05-0.94c0-0.6,0.06-1.21,0.19-1.84c0.2-0.96,0.43-1.76,0.7-2.39
		c0.26-0.61,0.65-1.43,1.16-2.45c0.43-0.05,2.47-0.31,6.15-0.76l0.02,0.21c0.04,0.39,0.09,0.92,0.15,1.61
		c0.06,0.68,0.11,1.36,0.14,2.03c0.04,0.64,0.07,1.15,0.09,1.55c-0.15,0.16-0.31,0.37-0.48,0.64l0,0c-0.17,0.29-0.27,0.52-0.27,0.73
		l0,0.06c0,0.21,0.16,0.43,0.38,0.42l0.04,0l0.1-0.04l0.17-0.15l0.04-0.04c0.74-1.21,1.62-2.14,2.66-2.79l0.02-0.01
		c0.2-0.18,0.34-0.28,0.36-0.49l0-0.02L491.74,216.53z M486.94,207.15c0.25,0.53,0.51,1.32,0.79,2.38c0.3,1.12,0.48,1.95,0.56,2.54
		l-5.46,0.62C483.58,211.3,484.95,209.45,486.94,207.15z"/>
	<path class="st0" d="M484.8,202.27l0.07,0.05c0.82,0.33,1.61,0.64,2.4,0.93c0.74,0.26,1.21,0.4,1.48,0.4l0.06,0l0.03,0l0.06-0.02
		l0.11-0.1l0.01-0.04l-0.01-0.15l-0.05-0.08l-0.01-0.02c-0.17-0.22-0.46-0.44-0.86-0.67c-0.4-0.23-0.87-0.47-1.42-0.74
		c-0.55-0.27-0.97-0.49-1.27-0.68l-0.05-0.02l-0.16-0.04l-0.11,0.01l-0.18,0.07l-0.06,0.04l-0.15,0.16l-0.03,0.04l-0.09,0.2
		l-0.02,0.06l-0.02,0.2l0.03,0.12L484.8,202.27z"/>
	<path class="st0" d="M502.66,208.87l-0.11-0.38l-0.31-0.18l-0.05,0c-0.3,0.05-0.52,0.29-0.79,0.69c-0.24,0.37-0.37,0.64-0.38,0.89
		l0,0.06l0.01,0.04l0.12,0.31l0.11,0.32l-0.01,0.21c-0.12,0.64-0.3,1.24-0.53,1.82c-0.23,0.58-0.5,1.09-0.78,1.51
		c-0.29,0.44-0.55,0.8-0.77,1.09c-0.22,0.29-0.45,0.56-0.69,0.81l-0.09,0.09c0-0.09,0-0.18,0-0.31c0-1.03,0.02-3,0.05-5.92
		l-0.03-0.1c-0.1-0.16-0.29-0.23-0.47-0.22l-0.11,0.01c-0.45,0.05-0.79,0.24-0.92,0.6c-0.07,0.19-0.1,0.43-0.1,0.73
		c0,0.23,0.02,0.49,0.05,0.79c0.04,0.38,0.11,0.63,0.25,0.81c0.07,0.07,0.13,0.22,0.15,0.46c0.07,0.73,0.12,1.38,0.14,1.92
		c0.01,0.31,0.02,0.57,0.02,0.8l-0.01,0.45c-0.01,0.29-0.03,0.53-0.06,0.69l-0.08,0.29l-0.12,0.14l0,0.01l-0.08,0.11l-0.03,0.09
		l-0.02,0.2l0.08,0.16l0.14,0.09l0.11,0.03c0.39-0.05,0.82-0.37,1.39-0.92c0.56-0.56,1.12-1.23,1.68-2.02
		c0.57-0.79,1.07-1.7,1.51-2.71c0.44-1.01,0.69-1.95,0.76-2.81h0l0.01-0.31L502.66,208.87z"/>
	<path class="st0" d="M509.18,210.14l-0.22-0.26l-0.37-0.07l-0.01,0l-0.01,0l-0.28-0.22c-0.12-0.17-0.24-0.45-0.36-0.83
		c-0.12-0.39-0.24-0.69-0.36-0.91c-0.12-0.2-0.24-0.36-0.46-0.38l-0.01,0l-0.01,0c-0.24,0.03-0.44,0.15-0.56,0.34l-0.13,0.46l0,0
		c-0.5,0.05-0.94,0.38-1.32,0.92c-0.38,0.53-0.68,1.15-0.9,1.87c-0.22,0.7-0.38,1.35-0.5,1.95c-0.11,0.59-0.19,1.08-0.22,1.46l0,0
		l-0.01,0.33c0,0.22,0.01,0.44,0.04,0.67c0.11,1.1,0.59,1.78,1.4,1.78l0.19-0.01c0.92-0.11,1.73-0.83,2.45-2.1
		c0.59-1.02,0.88-2.16,0.88-3.42c0-0.28-0.02-0.56-0.05-0.85c0.15-0.04,0.3-0.1,0.46-0.21c0.2-0.13,0.35-0.27,0.35-0.48
		L509.18,210.14L509.18,210.14z M507.47,211.5c0,1.02-0.21,1.99-0.64,2.92c-0.55,1.2-1.1,1.78-1.54,1.81l-0.05,0l-0.28-0.16
		c-0.08-0.12-0.15-0.34-0.18-0.65c-0.02-0.16-0.03-0.33-0.03-0.51l0.01-0.35c0.05-0.73,0.29-1.76,0.71-3.1
		c0.21-0.66,0.42-1.16,0.62-1.48c0.18-0.3,0.35-0.43,0.47-0.46c0.05,0.05,0.17,0.22,0.33,0.49c0.21,0.35,0.36,0.57,0.53,0.7
		C507.45,210.99,507.47,211.25,507.47,211.5z"/>
	<path class="st0" d="M519.58,207.45c-0.03-0.41-0.28-0.73-0.66-0.72l-0.1,0.01c-0.74,0.1-1.46,0.87-2.29,2.26
		c-0.5,0.86-0.91,1.62-1.24,2.32c0.02-0.13,0.04-0.25,0.07-0.39c0.12-0.61,0.25-1.13,0.36-1.53c0.12-0.41,0.24-0.84,0.38-1.31
		c0.14-0.47,0.21-0.71,0.22-0.79l-0.1-0.19l-0.31-0.13l-0.08-0.01c-0.48,0.05-0.87,0.28-1.09,0.68c0,0,0,0.01-0.01,0.02l-0.1-0.11
		l-0.25-0.03l-0.34,0.02l-1.78,0.21c0.35-1.42,0.63-2.47,0.85-3.1l0-0.11c-0.05-0.18-0.25-0.29-0.43-0.28l-0.1,0.01
		c-0.48,0.05-0.86,0.27-1.09,0.64c-0.22,0.36-0.4,0.98-0.58,1.91l0,0.01l-0.03,0.26l0.01,0.09l0.05,0.12l0.05,0.12l-0.02,0.32
		l-0.03,0.16l-1.21,0.14l-0.07,0.02l-0.42,0.25l-0.06,0.06l-0.23,0.37l-0.02,0.11l0.18,0.24l0.3,0.06l0.22-0.01
		c0.48-0.06,0.85-0.12,1.16-0.19c-0.47,2.97-0.73,4.54-0.75,4.67c-0.19,1.01-0.28,1.65-0.29,1.97l0,0.1c0.03,0.4,0.27,0.71,0.64,0.7
		l0.09-0.01c0.63-0.09,1.44-0.78,2.6-2.09l-0.01,0c0.15-0.11,0.24-0.29,0.23-0.49l-0.01-0.13l-0.05-0.1l-0.12-0.11l-0.13-0.05
		l-0.11,0.05c-0.12,0.09-0.36,0.36-0.78,0.85c-0.46,0.55-0.84,0.81-1.03,0.83l-0.01,0l-0.03-0.01l-0.05-0.17l0,0l0-0.09
		c0-0.11,0.01-0.27,0.04-0.48c0.22-1.8,0.57-3.7,1.02-5.69c0.56-0.07,1.13-0.17,1.72-0.31c0.32-0.07,0.55-0.15,0.73-0.23
		c0.02-0.01,0.04-0.02,0.06-0.04c-0.12,0.37-0.22,0.85-0.3,1.46l0,0.01l-0.02,0.24l0.01,0.07l0.06,0.16l0.05,0.15l0,0.3l-0.11,0.89
		l0,0c-0.06,0.58-0.17,1.45-0.34,2.62c-0.15,0.14-0.24,0.33-0.29,0.61c-0.03,0.19-0.05,0.39-0.05,0.6l0.03,0.48l0.1,0.14l0.2,0.08
		l0.14,0l0.44-0.22l0.05-0.04l0.36-0.39l0.04-0.08c0.29-1.46,0.82-3,1.6-4.6c0.39-0.79,0.74-1.4,1.04-1.8
		c0.26-0.35,0.49-0.53,0.65-0.58l0.01,0.01c0,0.1-0.04,0.31-0.11,0.6c-0.09,0.34-0.14,0.52-0.14,0.64l0,0.04l0.06,0.11l0.14,0.11
		l0.2,0.01l0.4-0.27l0.04-0.04l0.4-0.5l0.01-0.02c0.24-0.42,0.36-0.84,0.36-1.25L519.58,207.45z"/>
	<path class="st0" d="M524.16,207.89L524.16,207.89c-0.26-0.79-0.64-1.27-1.2-1.28l-0.1,0.01c-1.13,0.12-1.92,0.61-2.24,1.47l0,0
		c-0.06,0.17-0.3,0.81-0.71,1.9l-0.04,0l-0.33,0.11l-0.15,0.3l0,0.04l0,0c0.02,0.19,0.16,0.34,0.34,0.41
		c-0.02,0.15-0.07,0.42-0.14,0.79c-0.1,0.52-0.18,1.06-0.21,1.6h0l0,0c0,0,0,0,0,0h0l-0.01,0.32l0.02,0.26h0c0,0,0,0,0,0l0,0l0,0
		c0.06,0.53,0.26,0.94,0.63,1.15c0.27,0.16,0.57,0.25,0.88,0.25l0.21-0.01c0.52-0.06,1.08-0.51,1.78-1.29
		c0.65-0.74,1-1.31,1.01-1.79l-0.01-0.09l-0.06-0.11l-0.16-0.15l-0.13-0.04l-0.16,0.09c-0.1,0.1-0.23,0.29-0.42,0.59l0,0
		c-0.24,0.4-0.54,0.8-0.88,1.2c-0.33,0.4-0.63,0.59-0.85,0.61l-0.08,0.01c-0.25-0.01-0.38-0.13-0.45-0.61l-0.02-0.4
		c0-0.58,0.12-1.33,0.36-2.26l0.16-0.01l0.47-0.04c0.25-0.02,0.5-0.07,0.77-0.14c0.27-0.07,0.57-0.16,0.9-0.3
		c0.34-0.14,0.63-0.34,0.83-0.61c0.18-0.23,0.27-0.5,0.27-0.78l-0.01-0.16C524.38,208.67,524.3,208.32,524.16,207.89z
		 M522.55,207.72l0.2,0.08c0.07,0.06,0.16,0.2,0.24,0.41c0.09,0.22,0.16,0.5,0.19,0.84l0,0.11c0,0.29-0.09,0.45-0.24,0.55
		c-0.19,0.12-0.58,0.24-1.13,0.3l0,0c-0.13,0.02-0.29,0.03-0.49,0.03c-0.04,0-0.06,0-0.09,0c0.13-0.42,0.31-0.88,0.58-1.42
		C522.11,208.02,522.4,207.74,522.55,207.72z"/>
	<path class="st0" d="M529.33,210.08c0.36,0.29,0.74,0.53,1.15,0.71c0.38,0.17,0.75,0.38,1.08,0.6c0.33,0.21,0.47,0.41,0.47,0.51
		l0,0.02c0.02,0.17-0.29,0.52-1.04,0.87c-0.78,0.38-1.4,0.59-1.83,0.63l-0.12,0.07l-0.2,0.28l-0.01,0.18l0.14,0.27l0.09,0.08
		l0.29,0.11l0.08,0.01c0.71-0.08,1.51-0.47,2.4-1.15c0.82-0.64,1.28-1.26,1.28-1.92l-0.01-0.16c-0.04-0.41-0.29-0.75-0.68-0.95
		c-0.36-0.19-0.78-0.38-1.26-0.58c-0.46-0.19-0.77-0.43-0.97-0.74l-0.13-0.35l0-0.08c0-0.32,0.19-0.67,0.65-1.04
		c0.51-0.42,0.93-0.69,1.24-0.8c0.2-0.06,0.36-0.1,0.47-0.13l0.13-0.04l0.04-0.01l0,0l0.07,0l0.16,0.13l0,0.02
		c0,0.09-0.05,0.33-0.14,0.68c-0.1,0.37-0.15,0.62-0.15,0.79l0,0.06l0.04,0.09l0.1,0.12l0.15,0.06l0.42-0.29
		c0.13-0.16,0.26-0.38,0.4-0.66c0.27-0.55,0.42-0.98,0.42-1.31v-0.01l0-0.02c-0.04-0.54-0.38-0.93-0.88-0.91l-0.15,0.01
		c-0.16,0.02-0.34,0.08-0.58,0.18l-0.01,0l-0.22,0.11l-0.29,0.15l-0.01,0l-0.32,0.17l-0.01,0.01l-0.36,0.23l-0.38,0.24l-0.01,0.01
		l-0.41,0.3l-0.01,0.01l-0.39,0.34l-0.01,0.01l-0.39,0.38l-0.01,0.01l-0.35,0.43l-0.01,0.01l-0.34,0.49l0,0
		c-0.14,0.21-0.21,0.44-0.21,0.68l0.01,0.13C528.74,209.47,528.96,209.79,529.33,210.08z"/>
	<path class="st0" d="M534.74,213.31c0.27,0.17,0.57,0.25,0.88,0.25l0.21-0.01c0.52-0.06,1.08-0.5,1.78-1.29
		c0.65-0.74,1-1.3,1.01-1.78l-0.01-0.1l-0.05-0.1l-0.16-0.15l-0.13-0.04l-0.16,0.09c-0.1,0.1-0.23,0.29-0.42,0.59l0,0
		c-0.24,0.4-0.54,0.8-0.88,1.2c-0.33,0.4-0.63,0.58-0.85,0.61l-0.08,0c-0.25-0.01-0.38-0.13-0.45-0.61l-0.02-0.4
		c0-0.58,0.12-1.33,0.36-2.26l0.16-0.01l0.47-0.04l0.01,0c0.24-0.03,0.5-0.08,0.76-0.14c0.27-0.07,0.57-0.17,0.9-0.3
		c0.35-0.14,0.63-0.34,0.84-0.61c0.18-0.23,0.27-0.49,0.27-0.78l-0.01-0.16c-0.03-0.28-0.12-0.63-0.25-1.06l0,0
		c-0.26-0.79-0.64-1.27-1.2-1.28l-0.11,0.01c-1.13,0.12-1.91,0.61-2.24,1.47l0,0c-0.06,0.17-0.3,0.81-0.71,1.91l-0.04,0l-0.33,0.11
		l-0.15,0.3l0,0.05c0.02,0.19,0.16,0.34,0.34,0.41c-0.02,0.15-0.07,0.42-0.14,0.78c-0.1,0.53-0.18,1.07-0.22,1.61l-0.01,0.31
		l0.01,0.27C534.17,212.69,534.37,213.09,534.74,213.31z M537.29,206.04l0.21,0.08c0.06,0.05,0.15,0.2,0.24,0.41
		c0.09,0.22,0.16,0.5,0.2,0.83l0,0.11c0,0.29-0.08,0.45-0.24,0.55c-0.19,0.13-0.58,0.24-1.14,0.3c-0.13,0.02-0.3,0.03-0.49,0.03
		l-0.01,0c-0.04,0-0.05,0-0.08,0c0.13-0.42,0.31-0.88,0.58-1.42C536.85,206.34,537.13,206.06,537.29,206.04z"/>
	<path class="st0" d="M539.33,212.94l0.2,0.08l0.14,0l0.44-0.22l0.05-0.04l0.36-0.39l0.04-0.08c0.3-1.46,0.83-3,1.6-4.6
		c0.39-0.8,0.74-1.4,1.04-1.8c0.26-0.35,0.49-0.53,0.65-0.58l0.01,0.01c0,0.11-0.04,0.31-0.12,0.6c-0.09,0.35-0.14,0.53-0.14,0.65
		l0,0.02l0.06,0.12l0.14,0.11l0.2,0.01l0.4-0.27l0.04-0.04l0.4-0.5l0.01-0.02c0.24-0.43,0.36-0.84,0.36-1.25l-0.01-0.22
		c-0.03-0.42-0.28-0.74-0.66-0.72l-0.1,0.01c-0.74,0.1-1.46,0.87-2.29,2.26c-0.51,0.86-0.91,1.63-1.25,2.32
		c0.02-0.13,0.04-0.26,0.07-0.4c0.13-0.62,0.25-1.13,0.36-1.53c0.11-0.41,0.24-0.84,0.38-1.31c0.14-0.47,0.21-0.72,0.22-0.78
		l-0.1-0.19l-0.31-0.13l-0.08-0.01c-0.48,0.05-0.87,0.28-1.08,0.68c-0.21,0.39-0.37,1.02-0.5,1.93l0,0.01l-0.01,0.24l0.01,0.07
		l0.06,0.16l0.05,0.15l0,0.3l-0.11,0.89l0,0c-0.06,0.57-0.17,1.45-0.34,2.62c-0.15,0.14-0.23,0.33-0.29,0.6
		c-0.03,0.19-0.05,0.38-0.05,0.58l0.03,0.51L539.33,212.94z"/>
	<path class="st0" d="M545.92,206.98c0.07,0.08,0.13,0.22,0.15,0.46c0.07,0.73,0.12,1.38,0.14,1.92c0.01,0.32,0.02,0.59,0.02,0.82
		l-0.01,0.43c-0.02,0.28-0.04,0.51-0.07,0.68l-0.1,0.31l-0.1,0.12l-0.09,0.11l-0.04,0.09l-0.02,0.2l0.07,0.16l0.14,0.09l0.11,0.03
		c0.39-0.05,0.82-0.37,1.38-0.93c0.56-0.56,1.12-1.23,1.68-2.01c0.57-0.79,1.07-1.7,1.51-2.71c0.44-1.01,0.69-1.95,0.75-2.81l0,0v0
		c0,0,0,0,0,0h0l0.01-0.32l-0.02-0.3l-0.11-0.38l-0.31-0.18l-0.04,0c-0.3,0.04-0.53,0.29-0.79,0.69c-0.24,0.37-0.37,0.64-0.38,0.88
		l0,0.06l0.01,0.04l0.12,0.31l0.11,0.32l-0.01,0.21c-0.12,0.63-0.3,1.24-0.53,1.81c-0.23,0.58-0.49,1.09-0.78,1.51
		c-0.29,0.44-0.55,0.81-0.78,1.1c-0.22,0.29-0.45,0.56-0.69,0.81c-0.04,0.04-0.06,0.06-0.09,0.09c0-0.09,0-0.16,0-0.27
		c0-1.02,0.02-3.01,0.05-5.96l-0.03-0.1c-0.11-0.15-0.29-0.22-0.47-0.22l-0.1,0.01c-0.45,0.05-0.79,0.24-0.92,0.6
		c-0.07,0.19-0.1,0.43-0.1,0.73c0,0.23,0.02,0.49,0.05,0.79C545.72,206.55,545.78,206.8,545.92,206.98z"/>
	<path class="st0" d="M554.46,201.44l0.43,0.23l0.07,0l0.04-0.01c0.3-0.13,0.46-0.46,0.6-0.95h0c0.03-0.12,0.17-0.35,0.4-0.65l0,0
		c0.22-0.29,0.35-0.54,0.35-0.79l0-0.07l-0.11-0.14l-0.13-0.05l-0.08-0.01c-0.38,0.05-0.76,0.29-1.17,0.71
		c-0.37,0.38-0.59,0.72-0.59,1.08l0.01,0.09C554.31,201.11,554.36,201.3,554.46,201.44z"/>
	<path class="st0" d="M559.44,204.22l0,0.08l0.12,0.34l0.31,0.16l0.05,0c0.25-0.03,0.41-0.23,0.53-0.5c0.09-0.2,0.13-0.43,0.13-0.66
		l-0.01-0.22l-0.17,0.02l0.17-0.02c-0.05-0.63-0.46-1.05-1.06-1.03l-0.22,0.01c-0.22,0.02-0.43,0.09-0.62,0.19
		c-0.17,0.09-0.37,0.21-0.6,0.37l0,0c-0.23,0.15-0.44,0.28-0.63,0.38l-0.01,0c-0.52,0.32-0.95,1.18-1.43,2.61
		c-0.39,1.17-0.58,2.18-0.58,3.06c0,0.12,0.01,0.24,0.02,0.36l-0.07-0.09l-0.18-0.06l-0.08-0.01c-0.2,0.03-0.41,0.17-0.77,0.43
		l-0.41,0.28l-0.09,0.05l-0.11-0.1l0-0.08c0.06-0.55,0.15-1.1,0.25-1.66c0.1-0.56,0.21-1.04,0.32-1.44
		c0.11-0.41,0.23-0.83,0.37-1.28c0.15-0.45,0.26-0.79,0.35-1.03c0.09-0.23,0.19-0.51,0.32-0.83c0.12-0.32,0.2-0.52,0.21-0.53
		l0.02-0.14l-0.09-0.1l-0.33-0.15l-0.09-0.01c-0.49,0.05-0.88,0.26-1.12,0.63c-0.23,0.36-0.43,0.98-0.64,1.9l0,0.02l-0.03,0.28
		l0.01,0.08l0.04,0.11l0.04,0.12l0,0.17l-0.04,0.29l-0.07,0.41l0,0c-0.02,0.13-0.07,0.34-0.13,0.61c-0.06,0.28-0.12,0.55-0.17,0.8
		c-0.06,0.26-0.14,0.63-0.24,1.1c-0.11,0.48-0.21,0.94-0.32,1.39l0,0.03l-0.03,0.45l0,0.03c0.01,0.28,0.25,0.5,0.52,0.49l0.1-0.01
		c0.35-0.05,0.8-0.34,1.47-0.88c0.32-0.26,0.57-0.48,0.74-0.67c0.13-0.15,0.21-0.27,0.25-0.41c0,0.01,0,0.03,0,0.04
		c0.09,0.93,0.59,1.51,1.39,1.5l0.24-0.01c0.6-0.07,1.18-0.36,1.74-0.85c0.56-0.49,0.98-0.99,1.28-1.5c0.26-0.46,0.41-0.8,0.41-1.08
		l0-0.07l-0.04-0.09l-0.12-0.13l-0.15-0.06l-0.1,0.05l-0.16,0.22c-0.07,0.11-0.17,0.27-0.3,0.48c-0.27,0.43-0.63,0.87-1.09,1.32
		c-0.45,0.44-0.91,0.67-1.37,0.72l-0.08,0c-0.25-0.01-0.36-0.12-0.43-0.55l-0.02-0.37c0-0.63,0.14-1.48,0.44-2.54
		c0.35-1.29,0.66-2.1,0.86-2.36c0.15-0.19,0.38-0.41,0.7-0.67c0.32-0.27,0.56-0.39,0.66-0.4l0.05,0l0.15,0.14l0,0l0,0.08l-0.03,0.37
		L559.44,204.22z"/>
	<path class="st0" d="M564.11,209.24c0.65-0.74,1-1.3,1.01-1.78l-0.01-0.1l-0.05-0.1l-0.16-0.15l-0.14-0.04l-0.16,0.09
		c-0.1,0.1-0.23,0.29-0.42,0.6c-0.24,0.39-0.54,0.8-0.88,1.2c-0.33,0.4-0.63,0.59-0.85,0.61l-0.08,0c-0.25-0.01-0.38-0.13-0.45-0.61
		l-0.02-0.39c0-0.58,0.12-1.34,0.36-2.26l0.16-0.01l0.47-0.04l0.01,0c0.24-0.03,0.5-0.07,0.77-0.14c0.27-0.07,0.57-0.17,0.89-0.29
		c0.35-0.14,0.63-0.34,0.84-0.6c0.17-0.23,0.27-0.49,0.26-0.77l-0.01-0.17h0c0,0,0,0,0,0l0,0l0,0c-0.03-0.28-0.11-0.64-0.25-1.06
		l0,0c-0.26-0.79-0.65-1.27-1.2-1.28l-0.1,0.01c-1.13,0.13-1.91,0.62-2.24,1.47l0,0c-0.06,0.17-0.3,0.81-0.7,1.9l-0.04,0l-0.33,0.11
		l-0.15,0.3l0,0.04l0,0.01c0.02,0.19,0.16,0.34,0.34,0.4c-0.02,0.15-0.07,0.42-0.14,0.78c-0.11,0.53-0.18,1.07-0.21,1.61l-0.01,0.31
		l0.01,0.27c0.06,0.53,0.26,0.93,0.63,1.15c0.28,0.16,0.58,0.25,0.89,0.25l0.2-0.01C562.85,210.46,563.41,210.02,564.11,209.24z
		 M563.79,203.02l0.21,0.08c0.06,0.06,0.15,0.19,0.24,0.41c0.09,0.23,0.15,0.5,0.19,0.84l0.01,0.12c0,0.29-0.08,0.44-0.23,0.54
		c-0.19,0.13-0.58,0.24-1.13,0.3c-0.14,0.01-0.3,0.03-0.49,0.04c-0.04,0-0.06,0-0.09,0c0.13-0.42,0.31-0.88,0.58-1.43
		C563.35,203.33,563.63,203.05,563.79,203.02z"/>
	<path class="st0" d="M532.03,228.74l-0.15-0.06l-0.23,0.17l-0.24,0.32c-0.18,0.27-0.39,0.54-0.64,0.8
		c-0.24,0.27-0.44,0.38-0.58,0.4l-0.01,0l-0.05-0.03l-0.07-0.27l0,0l-0.01-0.13c0-0.38,0.11-1.22,0.34-2.48
		c0.24-1.35,0.46-2.33,0.66-2.99l0.03,0l0.17-0.01l0.08-0.03l0.2-0.15l0.05-0.21l-0.12-0.26l-0.06-0.07l-0.12-0.08
		c0.14-0.61,0.33-1.37,0.58-2.3c0.27-1.01,0.48-1.83,0.63-2.46c0.12-0.55,0.19-0.94,0.19-1.21l-0.01-0.13l-0.02-0.05l-0.08-0.18
		l-0.09-0.09l-0.52-0.1l-0.14,0.01l-0.07,0.03l-0.31,0.2l-0.06,0.07c-0.31,0.61-0.48,1.12-0.48,1.54l0.01,0.15l0.06,0.11l0.18,0.16
		c-0.08,0.35-0.43,1.75-1.01,4.12c-0.1-0.01-0.27-0.04-0.49-0.08c-0.28-0.05-0.53-0.08-0.73-0.08l-0.23,0.01l-0.06,0.02l-0.41,0.21
		l-0.01,0l-0.3,0.17l-0.05,0c-0.53,0.08-0.94,0.65-1.43,1.65c-0.48,1-0.86,2.1-1.15,3.29c-0.23,0.96-0.36,1.74-0.36,2.33l0.02,0.4
		c0.03,0.41,0.25,0.74,0.61,0.73l0.08-0.01c0.59-0.08,1.21-0.66,1.97-1.69c0.53-0.73,0.97-1.41,1.38-2.08
		c-0.15,0.85-0.23,1.55-0.23,2.11c0,0.18,0.01,0.35,0.03,0.5c0.01,0.31,0.24,0.56,0.54,0.55l0.09-0.01
		c0.39-0.05,0.82-0.33,1.36-0.81c0.53-0.48,0.93-0.9,1.23-1.26l0.02-0.03l0.04-0.08l0.02-0.04l0.04-0.18l0-0.03l0.01-0.17
		l-0.04-0.12L532.03,228.74z M528.33,228.14l-0.02,0.03l0,0c-0.01,0.02-0.13,0.21-0.34,0.51c-0.23,0.33-0.44,0.63-0.63,0.91
		c-0.19,0.27-0.4,0.53-0.64,0.77c-0.22,0.24-0.41,0.35-0.46,0.35l-0.01,0l-0.01-0.01l-0.04-0.15l-0.01-0.24
		c0-0.71,0.3-1.83,0.91-3.33c0.34-0.84,0.63-1.49,0.88-1.94c0.23-0.44,0.45-0.68,0.5-0.69c0.09-0.03,0.25-0.06,0.47-0.09
		c0.31-0.04,0.56-0.05,0.75-0.05l0.29,0.03c-0.04,0.12-0.1,0.35-0.21,0.71c-0.14,0.5-0.34,1.05-0.59,1.64
		C528.93,227.18,528.65,227.7,528.33,228.14z"/>
	<path class="st0" d="M536.76,228.12l-0.05-0.11l-0.16-0.15l-0.15-0.04l-0.26,0.22c-0.08,0.11-0.18,0.26-0.31,0.46
		c-0.24,0.4-0.54,0.8-0.88,1.2c-0.33,0.4-0.63,0.59-0.85,0.61l-0.07,0c-0.26-0.01-0.39-0.13-0.46-0.61l-0.02-0.4
		c0-0.58,0.12-1.34,0.36-2.26l0.16-0.01l0.47-0.04l0.01,0c0.24-0.03,0.5-0.07,0.77-0.14c0.27-0.06,0.56-0.16,0.89-0.29
		c0.35-0.13,0.63-0.34,0.83-0.61c0.17-0.23,0.27-0.5,0.27-0.78l-0.01-0.16c-0.03-0.28-0.12-0.63-0.25-1.06l0,0
		c-0.27-0.79-0.64-1.27-1.2-1.28l-0.11,0.01c-1.13,0.12-1.91,0.61-2.24,1.47l0,0c-0.06,0.17-0.3,0.81-0.71,1.91l-0.04,0l-0.33,0.11
		l-0.16,0.3l0,0.05c0.02,0.2,0.16,0.34,0.34,0.41c-0.02,0.15-0.07,0.42-0.14,0.78c-0.1,0.53-0.18,1.06-0.22,1.61l-0.01,0.31
		l0.01,0.27c0.06,0.53,0.26,0.94,0.63,1.15c0.27,0.16,0.57,0.25,0.88,0.25l0.21-0.01c0.52-0.07,1.08-0.51,1.78-1.29
		c0.65-0.74,1-1.31,1.01-1.79L536.76,228.12z M535.43,223.78l0.2,0.07c0.07,0.06,0.15,0.2,0.24,0.42c0.09,0.22,0.16,0.5,0.2,0.84
		l0,0.11c0,0.29-0.09,0.44-0.24,0.54c-0.19,0.13-0.58,0.24-1.14,0.3c-0.13,0.02-0.3,0.03-0.49,0.04c-0.04,0-0.05,0-0.08,0
		c0.13-0.42,0.31-0.88,0.58-1.43C534.99,224.09,535.27,223.81,535.43,223.78z"/>
	<path class="st0" d="M543.86,225.34l0.05-0.05l0.18-0.28l0.02-0.15l-0.11-0.1l-0.15-0.05l-0.09,0l-0.45,0.11l-0.03,0.01l-0.48,0.22
		l-0.01,0l-0.22,0.11c-0.49-1.4-1.23-2.41-2.23-3.01l0.13-0.41l0.01-0.03l0.06-0.4l-0.05-0.14l-0.19-0.19l-0.14-0.05
		c-0.25,0.03-0.48,0.2-0.73,0.47c-0.23,0.26-0.37,0.5-0.37,0.75l0,0.07l0.03,0.07l0,0l-0.13,0.07l0,0
		c-0.21,0.13-0.37,0.25-0.39,0.48l0,0.04l0.1,0.13l0.25,0.11l0.05,0.01l0.05,0.01c-0.12,0.7-0.45,2.4-1,5.1
		c-0.25,0.22-0.39,0.49-0.39,0.8l0.01,0.13l0.01,0.03l0.09,0.31c-0.03,0.12-0.19,0.77-0.46,1.85c-0.31,1.21-0.53,2.2-0.68,2.94
		c-0.12,0.62-0.18,1.08-0.18,1.41l0.01,0.21l0.12,0.44l0.33,0.21l0.04,0c0.33-0.04,0.55-0.32,0.72-0.73
		c0.15-0.37,0.24-0.63,0.24-0.85l0-0.07l-0.01-0.05l-0.1-0.24l-0.01-0.01l-0.07-0.13l0-0.03c0.1-0.46,0.27-1.22,0.5-2.26
		c0.2-0.9,0.34-1.53,0.43-1.94c0.37,0.18,0.8,0.3,1.3,0.3c0.17,0,0.35-0.01,0.54-0.03c0.79-0.09,1.45-0.43,1.97-1.02
		c0.43-0.48,0.64-1.15,0.64-1.96c0-0.2-0.01-0.41-0.04-0.64c-0.04-0.39-0.12-0.74-0.21-1.07c0.1-0.05,0.23-0.11,0.42-0.19
		C543.51,225.55,543.72,225.44,543.86,225.34z M539.15,228.27c0.24-0.27,0.69-0.65,1.34-1.15c0.52-0.41,0.92-0.65,1.14-0.74
		c0.09,0.33,0.15,0.63,0.18,0.88l0.02,0.39c0,0.48-0.11,0.9-0.32,1.26c-0.26,0.46-0.69,0.72-1.37,0.79l-0.22,0.01
		c-0.32,0-0.67-0.09-1.03-0.26L539.15,228.27z M540.14,223.49l0.2,0.18c0.16,0.19,0.35,0.49,0.56,0.9c0.19,0.36,0.35,0.76,0.5,1.2
		c-0.79,0.41-1.45,0.82-1.99,1.24c0.07-0.35,0.15-0.77,0.25-1.29c0.15-0.78,0.27-1.36,0.37-1.78
		C540.07,223.73,540.11,223.58,540.14,223.49z"/>
	<path class="st0" d="M550.76,227.59l-0.1-0.14l-0.18-0.08l-0.09-0.01c-0.27,0.04-0.54,0.27-0.97,0.67c-0.2,0.2-0.37,0.34-0.49,0.44
		l-0.05,0.04c0.01-0.29,0.08-0.85,0.21-1.68c0.17-1.04,0.34-1.93,0.5-2.67c0.11-0.5,0.26-1.12,0.44-1.87
		c0.19-0.74,0.29-1.17,0.32-1.31l-0.08-0.18l-0.27-0.16l-0.1-0.02c-0.55,0.05-0.96,0.38-1.17,0.92c-0.18,0.43-0.27,0.85-0.27,1.25
		l0.01,0.16c-0.83,2.02-1.86,3.63-3.1,4.84l-0.21,0.2c0.06-0.29,0.19-0.83,0.4-1.61c0.29-1.12,0.74-2.73,1.33-4.83l-0.01-0.12
		c-0.08-0.18-0.27-0.26-0.45-0.25l-0.09,0c-0.52,0.06-0.92,0.27-1.13,0.63c-0.2,0.36-0.35,0.98-0.49,1.9l0,0.01l-0.02,0.23
		l0.01,0.08l0.06,0.14l0.06,0.17l0.01,0.1c0,0.21-0.06,0.56-0.17,1.02c-0.14,0.55-0.33,1.21-0.58,1.99
		c-0.12,0.39-0.22,0.68-0.28,0.88l-0.07,0.23l-0.02,0.09l0,0c-0.09,0.34-0.14,0.62-0.14,0.84l0.01,0.15
		c0.01,0.26,0.19,0.5,0.45,0.49l0.07,0c0.66-0.09,1.38-0.81,2.34-2.15c0.71-1,1.3-1.92,1.79-2.76c-0.33,2.27-0.57,3.69-0.71,4.19
		c-0.04,0.13-0.15,0.31-0.34,0.52l0,0c-0.19,0.22-0.31,0.38-0.33,0.58l0,0.04h0c0,0,0,0,0,0l0,0l0,0c0.01,0.19,0.2,0.37,0.4,0.35
		l0.09-0.01l0.07-0.02l0.41-0.25l0.03-0.03c0.15-0.16,0.31-0.35,0.48-0.57l0,0c0.16-0.22,0.28-0.37,0.36-0.45
		c0.06-0.05,0.25-0.2,0.61-0.47c0.38-0.29,0.71-0.56,1-0.83c0.28-0.27,0.45-0.41,0.47-0.65L550.76,227.59z"/>
	<path class="st0" d="M554.39,217.78c0.22-0.3,0.35-0.55,0.35-0.79l0-0.07l-0.11-0.14l-0.13-0.05l-0.08-0.01
		c-0.39,0.04-0.76,0.29-1.17,0.7c-0.37,0.38-0.59,0.72-0.59,1.08l0.01,0.09c0.03,0.23,0.08,0.41,0.18,0.56l0.44,0.23l0.07,0
		l0.04-0.01c0.3-0.13,0.46-0.46,0.6-0.94h0C554.03,218.31,554.16,218.08,554.39,217.78z"/>
	<path class="st0" d="M553.44,220.33c-0.49,0.05-0.89,0.26-1.12,0.63c-0.22,0.36-0.43,0.98-0.64,1.9l0,0.02l-0.03,0.28l0.01,0.08
		l0.04,0.11l0.04,0.12l0,0.18l-0.04,0.3l-0.07,0.4c-0.02,0.13-0.07,0.33-0.13,0.61c-0.06,0.27-0.12,0.54-0.17,0.8
		c-0.05,0.26-0.14,0.62-0.24,1.1c-0.11,0.48-0.22,0.94-0.32,1.39l0,0.02l-0.03,0.44l0,0.03c0.01,0.28,0.25,0.51,0.53,0.49l0.09,0
		l0,0c0.34-0.05,0.8-0.34,1.47-0.88c0.32-0.26,0.57-0.48,0.74-0.66c0.17-0.19,0.27-0.31,0.28-0.5l0-0.03l-0.11-0.14l-0.18-0.06
		l-0.08-0.01c-0.19,0.03-0.4,0.17-0.76,0.42l-0.41,0.28l-0.1,0.05l-0.11-0.1l0-0.09c0.06-0.55,0.15-1.1,0.25-1.66
		c0.11-0.56,0.21-1.04,0.32-1.44c0.11-0.4,0.23-0.83,0.38-1.28c0.14-0.45,0.26-0.79,0.35-1.03l0,0c0.09-0.23,0.19-0.51,0.32-0.83
		c0.12-0.32,0.2-0.51,0.22-0.54l0.01-0.13l-0.42-0.27L553.44,220.33z"/>
	<path class="st0" d="M558.52,219.86l-0.16,0.01c-0.15,0.02-0.34,0.08-0.58,0.18l-0.01,0.01l-0.22,0.11l-0.29,0.15l-0.32,0.17
		l-0.01,0l-0.36,0.22l0,0l-0.37,0.24l-0.01,0l-0.41,0.3l-0.01,0.01l-0.39,0.35l-0.01,0.01l-0.39,0.38l-0.01,0.01l-0.35,0.43
		l-0.01,0.01l-0.35,0.49l0,0.01c-0.14,0.21-0.21,0.44-0.21,0.68l0.01,0.13c0.04,0.36,0.27,0.67,0.64,0.97
		c0.36,0.28,0.74,0.53,1.14,0.71c0.39,0.17,0.75,0.38,1.08,0.6c0.33,0.21,0.47,0.41,0.47,0.51l0,0.03c0.02,0.18-0.29,0.52-1.04,0.87
		c-0.78,0.38-1.4,0.58-1.82,0.63l-0.12,0.07l-0.2,0.28l-0.01,0.17l0.13,0.27l0.09,0.08l0.29,0.11l0.08,0.01
		c0.72-0.08,1.51-0.47,2.4-1.15c0.83-0.64,1.28-1.26,1.28-1.92l-0.01-0.15c-0.05-0.41-0.29-0.75-0.68-0.95
		c-0.36-0.18-0.78-0.38-1.26-0.58c-0.45-0.19-0.77-0.43-0.97-0.74l-0.13-0.36l0-0.07c0-0.32,0.2-0.67,0.66-1.05
		c0.51-0.42,0.93-0.68,1.23-0.79c0.2-0.06,0.36-0.1,0.47-0.13l0.13-0.03l0.04-0.01l0,0l0,0l0.07,0l0.15,0.12l0,0.01l0,0.02
		c0,0.09-0.04,0.33-0.14,0.67l0,0c-0.1,0.37-0.15,0.61-0.15,0.79l0,0.07l0.04,0.09l0.1,0.12l0.15,0.06c0.33-0.07,0.52-0.4,0.82-0.96
		c0.28-0.56,0.42-0.99,0.43-1.32l0-0.01l0-0.02C559.36,220.22,559.02,219.85,558.52,219.86z"/>
	<path class="st0" d="M574.03,219.88c0.89-1.15,1.35-2.15,1.35-3.04l-0.01-0.27c-0.08-0.84-0.65-1.33-1.52-1.31l-0.38,0.02
		c-1.15,0.13-2.32,0.55-3.5,1.24c-1.17,0.69-2.2,1.51-3.08,2.43l-0.04,0.06l-0.08,0.22l0.04,0.18l0.19,0.19l0.2,0.03l0.16-0.08
		l0.05-0.04c0.94-1.1,2.23-1.96,3.9-2.6c0.22-0.08,0.44-0.15,0.64-0.21c0.2-0.06,0.38-0.09,0.55-0.11l0.29-0.02l0.17,0.01l0.34,0.11
		l0.21,0.22l0.12,0.37l0.01,0.07l0,0.09l0,0v0.09c-0.05,0.74-0.27,1.41-0.65,2.01c-0.39,0.62-0.96,1.29-1.7,2.01
		c-0.75,0.75-2.36,2.01-4.79,3.78l-0.02,0l-0.07,0.01c-0.15,0.02-0.32,0.05-0.52,0.09l0,0c-0.2,0.05-0.4,0.1-0.6,0.17
		c-0.19,0.06-0.38,0.13-0.56,0.2l-0.01,0l-0.42,0.21l-0.02,0.01c-0.27,0.17-0.49,0.38-0.68,0.64l0,0c-0.16,0.24-0.25,0.44-0.26,0.65
		l0,0.07c0.02,0.23,0.25,0.38,0.47,0.36l0.11-0.01c0.35-0.04,0.69-0.18,1.01-0.4c0.31-0.22,0.6-0.46,0.88-0.72
		c0.26-0.24,0.47-0.38,0.62-0.45l0.31-0.01l0.23,0c0.18,0,0.38,0.03,0.59,0.08c0.22,0.04,0.4,0.08,0.55,0.12l0.01,0
		c0.14,0.03,0.34,0.08,0.59,0.14c0.24,0.06,0.41,0.11,0.52,0.14c1.14,0.27,2.09,0.41,2.86,0.41c0.21,0,0.41-0.01,0.59-0.03
		c0.72-0.08,1.33-0.3,1.84-0.67c0.46-0.34,0.72-0.76,0.72-1.25l-0.01-0.17c-0.08-0.7-0.7-1.13-1.68-1.28l-0.07,0l-0.25,0.07
		l-0.11,0.1l0,0.15l0.11,0.2l0.12,0.09c0.68,0.14,0.95,0.38,0.99,0.69l-0.02,0.25c-0.13,0.43-0.64,0.75-1.64,0.86
		c-0.22,0.03-0.46,0.04-0.72,0.04c-0.64,0-1.38-0.08-2.24-0.24c-0.92-0.19-1.64-0.31-2.18-0.35c1.74-1.15,3.13-2.18,4.14-3.1
		C572.66,221.51,573.44,220.67,574.03,219.88z"/>
	<path class="st0" d="M585.95,214.37c-0.08-0.07-0.18-0.11-0.27-0.17c0.06,0.01,0.1,0.01,0.16,0.02l0,0l0.19,0.03l0.25-0.09
		l0.11-0.24l0-0.03c-0.02-0.19-0.15-0.34-0.33-0.41c-0.17-0.08-0.39-0.1-0.66-0.1c-0.17,0-0.37,0.01-0.59,0.04
		c-0.55,0.06-0.99,0.17-1.34,0.32l-0.3,0.01l-0.02,0l-0.33,0.06l-0.01,0l-0.32,0.12l-0.17,0.26l0.05,0.09
		c-0.96,0.59-1.89,1.37-2.8,2.34c-0.95,1.02-1.66,2.04-2.13,3.07c-0.64,1.37-0.96,2.61-0.96,3.72c0,0.21,0.01,0.41,0.03,0.61
		c0.07,0.61,0.26,1.12,0.58,1.5c0.32,0.37,0.77,0.57,1.3,0.59h0.01l0.04,0c0.21,0,0.42-0.01,0.65-0.04
		c0.47-0.06,0.95-0.16,1.43-0.33c0.48-0.16,0.97-0.39,1.47-0.67c0.51-0.29,1.01-0.64,1.52-1.05c0.51-0.41,1-0.88,1.47-1.41
		c0.79-0.88,1.39-1.84,1.81-2.89c0.34-0.84,0.51-1.65,0.51-2.41c0-0.19-0.01-0.37-0.03-0.56
		C587.15,215.76,586.7,214.95,585.95,214.37z M577.7,224.22l-0.03-0.47c0-1.17,0.33-2.44,1-3.77c0.47-0.97,1.17-2.02,2.11-3.15
		c0.92-1.11,1.89-1.88,2.92-2.35c0.48,0.05,1.02,0.25,1.6,0.6c0.12,0.07,0.27,0.26,0.41,0.56c0.14,0.29,0.23,0.64,0.28,1.06
		c0.02,0.19,0.03,0.39,0.03,0.59c0,0.31-0.03,0.63-0.08,0.96c-0.09,0.53-0.31,1.16-0.66,1.87c-0.35,0.71-0.83,1.38-1.42,2.03
		c-0.74,0.82-1.55,1.54-2.43,2.14c-0.88,0.61-1.73,0.95-2.56,1.04l-0.21,0.01c-0.27,0-0.46-0.07-0.59-0.2
		C577.89,225.02,577.76,224.7,577.7,224.22z"/>
	<path class="st0" d="M597.58,213.05c-0.08-0.07-0.18-0.11-0.27-0.17c0.06,0.01,0.1,0.01,0.16,0.02l0,0l0.19,0.03l0.25-0.09
		l0.1-0.25l0-0.03c-0.02-0.19-0.15-0.34-0.32-0.41c-0.17-0.08-0.39-0.1-0.66-0.1c-0.17,0-0.37,0.01-0.59,0.04
		c-0.55,0.06-0.99,0.17-1.35,0.32l-0.3,0.01l-0.02,0l-0.33,0.06l-0.01,0l-0.32,0.12l-0.17,0.26l0.05,0.09
		c-0.96,0.59-1.89,1.37-2.8,2.34c-0.95,1.02-1.67,2.04-2.14,3.07c-0.64,1.37-0.96,2.61-0.96,3.72c0,0.21,0.01,0.41,0.03,0.61
		c0.07,0.62,0.26,1.12,0.58,1.5c0.32,0.37,0.77,0.57,1.3,0.59h0.01c0.22,0,0.45-0.01,0.69-0.04c0.47-0.05,0.95-0.16,1.43-0.32
		c0.48-0.17,0.97-0.39,1.48-0.68c0.5-0.29,1.01-0.64,1.52-1.05c0.51-0.42,1-0.89,1.46-1.41c0.79-0.88,1.39-1.84,1.81-2.89
		c0.34-0.85,0.51-1.66,0.51-2.42c0-0.18-0.01-0.37-0.03-0.55C598.78,214.44,598.34,213.63,597.58,213.05z M589.33,222.9l-0.03-0.47
		c0-1.17,0.33-2.44,1-3.77c0.47-0.97,1.17-2.02,2.11-3.15c0.92-1.11,1.89-1.88,2.92-2.35c0.48,0.05,1.01,0.25,1.6,0.6
		c0.12,0.08,0.27,0.26,0.41,0.56c0.14,0.29,0.23,0.65,0.28,1.06c0.02,0.19,0.03,0.38,0.03,0.58c0,0.31-0.03,0.64-0.08,0.97
		c-0.09,0.53-0.31,1.15-0.67,1.87c-0.35,0.71-0.83,1.38-1.42,2.03c-0.74,0.82-1.55,1.54-2.43,2.15c-0.88,0.61-1.73,0.95-2.56,1.04
		l-0.21,0.01c-0.28,0-0.47-0.07-0.6-0.2C589.52,223.69,589.39,223.38,589.33,222.9z"/>
	<path class="st0" d="M610.53,214.12c-0.11-1.01-0.56-1.82-1.32-2.4c-0.08-0.07-0.18-0.11-0.27-0.17c0.06,0.01,0.1,0.01,0.16,0.02
		l0,0l0.19,0.03l0.25-0.09l0.11-0.24l0-0.03c-0.02-0.19-0.15-0.34-0.33-0.41c-0.17-0.08-0.39-0.1-0.66-0.1
		c-0.17,0-0.37,0.01-0.59,0.04c-0.55,0.06-0.99,0.17-1.34,0.32l-0.3,0.01l-0.02,0l-0.33,0.06l-0.01,0l-0.31,0.12l-0.17,0.26
		l0.05,0.09c-0.96,0.59-1.89,1.37-2.8,2.34c-0.95,1.02-1.66,2.05-2.14,3.07c-0.64,1.37-0.96,2.6-0.96,3.72
		c0,0.21,0.01,0.42,0.03,0.62c0.07,0.62,0.26,1.12,0.58,1.5c0.32,0.37,0.77,0.58,1.3,0.59l0.01,0c0.22,0,0.45-0.01,0.69-0.04
		c0.47-0.05,0.95-0.16,1.43-0.32c0.48-0.17,0.97-0.39,1.47-0.67c0.51-0.29,1.01-0.64,1.52-1.05c0.51-0.41,1-0.88,1.47-1.41
		c0.79-0.87,1.39-1.84,1.81-2.89c0.34-0.85,0.51-1.65,0.51-2.42C610.56,214.49,610.55,214.31,610.53,214.12z M600.97,221.57
		l-0.03-0.47c0-1.17,0.33-2.44,1-3.77c0.47-0.97,1.17-2.02,2.11-3.15c0.91-1.1,1.89-1.88,2.92-2.34c0.48,0.06,1.01,0.25,1.6,0.6
		c0.12,0.07,0.27,0.26,0.41,0.56c0.14,0.29,0.23,0.65,0.28,1.06c0.02,0.19,0.03,0.38,0.03,0.58c0,0.32-0.03,0.64-0.08,0.97
		c-0.09,0.53-0.31,1.15-0.67,1.87c-0.35,0.71-0.83,1.38-1.42,2.03c-0.74,0.82-1.55,1.54-2.43,2.14c-0.88,0.61-1.73,0.95-2.56,1.04
		l-0.22,0.01c-0.27,0-0.46-0.07-0.59-0.2C601.15,222.37,601.02,222.05,600.97,221.57z"/>
</g>
<path class="st0" d="M224.61,86.28c2.34-1.16,9.02-7.24,16.28-9.54c7.27-2.3,17.8-3.59,23.38-4.41c5.58-0.81,8.82-3.61,9.49-6.69
	c-1.44,1.86-5.36,5.3-15.94,5.49c-10.58,0.19-15.13-0.91-17.96-0.04c-2.83,0.87-5.37,3.49-7.96,3.38c2.91-3.14,6.12-6.24,9.06-6.67
	c2.94-0.42,16.12-1.66,19.73-2.02c3.61-0.36,4.7-0.14,6.79-1.68c2.09-1.54,6.08-5.19,3.89-6.89c-2.2-1.7-14.89-3.44-16.36-3.74
	c-2.87-0.6-4.09-2.62-0.26-2.45c2.53,0.11,11.12,0.51,13.07,0.66c1.95,0.16,5.27,0.75,7.35,2.36c2.08,1.61,2.55,6.83,0.15,9.93
	c0.9,0.7,0.96,3.53-1.48,6.68c-2.44,3.15-9.77,6.93-17.31,7.84c-7.54,0.91-17.2,3.52-21.33,6.53c-4.13,3.02-1.42,2.54-7.82,4.07
	L224.61,86.28z"/>
<path class="st0" d="M199.66,82.46c-1.03-0.81-2.32-1.22-3.87-1.22c-1.98,0-3.67,0.68-5.12,2.05c-1.46,1.39-2.54,3.37-3.3,5.97
	l-0.77-0.2c0.01-1.14,0.09-2.28,0.19-3.42c0.1-1.15,0.25-2.31,0.48-3.49l-1.62-1.04c-0.84,0.46-1.97,1.16-3.37,2.05l-0.36,0.27
	c-2.23,0.03-3.99,0.11-5.34,0.21c-1.32,0.1-2.49,0.24-3.49,0.42v2.16h0.5c1.63,0,2.71,0.43,3.23,1.31c0.54,0.86,0.8,3.23,0.8,7.04
	v4.91v0.58c0,4.45-0.31,7.23-0.93,8.26c-0.62,1.04-1.81,1.61-3.61,1.73l0.04,2.14c1.58-0.11,3.17-0.28,4.83-0.53
	c1.63-0.26,3.33-0.59,5.09-1.02c2,0.44,3.97,0.81,5.9,1.06c1.95,0.26,3.86,0.42,5.79,0.49v-2.14c-2.54-0.19-4.24-0.84-5.1-1.91
	c-0.88-1.1-1.31-3.96-1.31-8.66v-3.14c0-2.86,0.34-4.92,1.01-6.15c0.68-1.21,1.8-1.83,3.34-1.83c0.92,0,1.78,0.24,2.57,0.74
	c0.78,0.49,1.46,1.2,2.02,2.1c1.25-0.78,2.19-1.65,2.87-2.62c0.66-0.97,1-1.97,1-2.99C201.14,84.31,200.65,83.28,199.66,82.46z"/>
<path class="st0" d="M226.65,75.16c0.97-0.28,1.67-0.61,2.13-1c0.46-0.38,0.73-0.86,0.83-1.43c0.12-0.72-0.03-1.38-0.45-1.96
	c-0.43-0.57-1-0.93-1.76-1.06c-0.56-0.09-1.13-0.02-1.73,0.23c-0.6,0.23-1.36,0.71-2.31,1.44l-5.78,5.05l0.76,1.3L226.65,75.16z"/>
<path class="st0" d="M332.61,127.16c0.85-0.24,1.46-0.53,1.86-0.87c0.4-0.33,0.64-0.75,0.72-1.25c0.1-0.63-0.02-1.2-0.39-1.71
	c-0.37-0.5-0.87-0.81-1.53-0.92c-0.49-0.08-0.99-0.02-1.51,0.2c-0.52,0.2-1.19,0.61-2.01,1.26l-5.05,4.4l0.66,1.13L332.61,127.16z"
	/>
<path class="st0" d="M280.8,97.74c0,6.02,0.8,10.04,2.42,12.03c1.64,2.01,4.44,3.01,8.44,3.01c2.12,0,4.09-0.37,5.91-1.1
	c1.82-0.71,3.47-1.8,4.95-3.22l-1.27-2.2c-0.74,0.68-1.48,1.18-2.27,1.52c-0.77,0.33-1.55,0.51-2.32,0.51
	c-1.73,0-2.99-0.63-3.77-1.84c-0.79-1.23-1.18-3.17-1.18-5.87v-13.4l7.24,0.18v-3.86l-7.24,0.12v-8.77h-4.88
	c-0.33,2.97-1.28,5.26-2.87,6.85c-1.58,1.59-3.82,2.54-6.74,2.87v2.61h3.59V97.74z"/>
<path class="st0" d="M314.17,110.63c1.79,0.5,3.57,0.86,5.29,1.11c1.7,0.25,3.46,0.4,5.19,0.44v-2.14
	c-2.01-0.18-3.32-0.74-3.99-1.67c-0.68-0.95-0.99-3.32-0.99-7.13v-1.34v-8.29c0-2.29,0.02-4.13,0.11-5.51
	c0.08-1.39,0.21-2.66,0.42-3.8l-1.92-1.18c-0.74,0.4-1.44,0.81-2.06,1.21c-0.63,0.41-1.21,0.83-1.75,1.26
	c-0.45-0.01-0.89-0.04-1.34-0.04c-0.43-0.01-0.88-0.02-1.36-0.02c-0.99,0-2.1,0.06-3.3,0.17c-1.22,0.11-2.52,0.28-4,0.49v2.15h0.35
	c1.63,0,2.72,0.41,3.22,1.22c0.55,0.82,0.82,3.05,0.82,6.63v5.36v0.98c0,4.25-0.37,6.87-1.06,7.88c-0.69,1-2.03,1.54-4.05,1.65v2.14
	c1.59-0.02,3.24-0.16,4.99-0.42C310.45,111.5,312.27,111.12,314.17,110.63z"/>
<path class="st0" d="M313.48,77.79c1.51,0,2.81-0.52,3.87-1.59c1.05-1.07,1.59-2.34,1.59-3.88c0-1.53-0.55-2.82-1.57-3.89
	c-1.05-1.03-2.35-1.56-3.89-1.56c-1.57,0-2.87,0.52-3.91,1.56c-1.05,1.04-1.55,2.34-1.55,3.89c0,1.55,0.5,2.84,1.56,3.88
	C310.65,77.27,311.94,77.79,313.48,77.79z"/>
<path class="st0" d="M359.41,85.53c-3.4-2.95-7.89-4.43-13.42-4.43c-5.58,0-10.07,1.48-13.46,4.42c-3.39,2.94-5.11,6.77-5.11,11.48
	c0,4.72,1.71,8.57,5.11,11.5c3.39,2.92,7.88,4.37,13.46,4.37c5.57,0,10.04-1.45,13.42-4.37c3.4-2.94,5.08-6.78,5.08-11.5
	C364.5,92.31,362.81,88.49,359.41,85.53z M351.01,106.72c-1.11,2.21-2.81,3.32-5.01,3.32c-2.23,0-3.9-1.11-5.03-3.31
	c-1.1-2.18-1.67-5.43-1.67-9.77c0-4.28,0.56-7.54,1.67-9.72c1.13-2.2,2.8-3.29,5.03-3.29c2.2,0,3.89,1.1,5.01,3.29
	c1.15,2.21,1.75,5.45,1.75,9.71C352.76,101.26,352.17,104.51,351.01,106.72z"/>
<path class="st0" d="M372.83,100.04c0,4.45-0.32,7.19-0.94,8.23c-0.61,1.05-1.82,1.61-3.62,1.73l0.05,2.17
	c1.43-0.06,2.96-0.21,4.57-0.44c1.63-0.22,3.37-0.55,5.27-0.98c1.74,0.43,3.44,0.76,5.08,0.98c1.66,0.23,3.27,0.39,4.87,0.44
	l0.03-2.14c-1.82-0.16-3.05-0.75-3.68-1.77c-0.63-1.04-0.96-3.61-0.96-7.75v-5.24c0-3.24,0.48-5.66,1.42-7.27
	c0.96-1.58,2.37-2.38,4.28-2.38c2.01,0,3.39,0.77,4.17,2.3c0.79,1.53,1.17,4.72,1.17,9.54c0,3.09-0.05,5.89-0.15,8.41
	c-0.11,2.5-0.26,4.59-0.43,6.31c1.01-0.11,2.08-0.26,3.16-0.5c1.09-0.23,2.2-0.54,3.32-0.92c1.78,0.48,3.43,0.84,4.99,1.07
	c1.55,0.23,3.09,0.35,4.56,0.35v-2.14c-1.81-0.16-3.03-0.74-3.68-1.76c-0.65-1.01-0.94-3.58-0.94-7.7v-4.75
	c0-5.13-0.95-8.85-2.83-11.19c-1.86-2.35-4.83-3.53-8.89-3.53c-2.44,0-4.6,0.49-6.42,1.48c-1.84,0.97-3.25,2.4-4.25,4.22l-0.7-0.24
	c0.04-0.74,0.09-1.46,0.17-2.2c0.09-0.74,0.19-1.46,0.33-2.23l-1.61-1.04c-0.44,0.21-0.94,0.53-1.53,0.9
	c-0.58,0.38-1.22,0.86-1.96,1.42c-0.17,0-0.44-0.01-0.77-0.03c-0.35-0.02-0.6-0.03-0.8-0.03c-1.1,0-2.3,0.05-3.58,0.16
	c-1.29,0.11-2.69,0.28-4.26,0.53v2.16h0.52c1.6,0,2.67,0.43,3.21,1.31c0.54,0.87,0.82,3.23,0.82,7.05v4.89V100.04z"/>
<path class="st0" d="M417.3,111.66c2.15,0.74,5.01,1.1,8.6,1.1c4.94,0,8.8-0.88,11.52-2.62c2.73-1.75,4.12-4.21,4.12-7.37
	c0-2.25-0.7-4.09-2.15-5.53c-1.42-1.46-4.21-2.97-8.38-4.53c-3.03-1.15-4.9-2.05-5.62-2.7c-0.71-0.65-1.1-1.48-1.1-2.49
	c0-1.02,0.45-1.85,1.29-2.5c0.84-0.63,1.95-0.97,3.36-0.97c2.01,0,3.72,0.65,5.11,1.9c1.4,1.28,2.4,3.09,2.97,5.46h2.61
	c0-0.76-0.07-1.5-0.17-2.19c-0.11-0.71-0.24-1.37-0.44-1.99c0.33-0.45,0.53-0.84,0.68-1.19c0.13-0.36,0.21-0.68,0.21-0.99
	c0-1.08-1.07-1.99-3.18-2.73c-2.14-0.74-4.79-1.1-8.01-1.1c-4.61,0-8.15,0.79-10.65,2.43c-2.52,1.63-3.74,3.93-3.74,6.91
	c0,2.13,0.64,3.93,1.96,5.39c1.33,1.48,3.52,2.82,6.58,4.05c0.54,0.2,1.33,0.49,2.33,0.87c4.06,1.51,6.11,3.21,6.11,5.07
	c0,1.22-0.49,2.23-1.49,2.97c-0.99,0.74-2.3,1.11-3.94,1.11c-2.47,0-4.46-0.79-5.99-2.39c-1.51-1.58-2.38-3.79-2.6-6.62h-2.96
	c0,0.84,0.06,1.71,0.16,2.63c0.11,0.91,0.25,1.92,0.49,2.99c-0.31,0.44-0.53,0.85-0.67,1.23c-0.15,0.38-0.22,0.7-0.22,0.92
	C414.1,109.98,415.15,110.96,417.3,111.66z"/>
<path class="st0" d="M309.06,150.07c-0.8,0.25-1.63,0.37-2.53,0.37c-2.38,0-4.29-1-5.75-3.01c-1.46-2.02-2.21-4.6-2.21-7.8
	c0-1.94,0.38-3.44,1.14-4.53c0.77-1.09,1.85-1.62,3.18-1.62c1.13,0,2.07,0.47,2.82,1.42c0.77,0.94,1.28,2.28,1.53,4
	c1.47-0.06,2.55-0.34,3.29-0.82c0.73-0.47,1.1-1.17,1.1-2.06c0-1.37-0.7-2.48-2.08-3.38c-1.37-0.91-3.16-1.35-5.38-1.35
	c-3.86,0-7.04,1.11-9.51,3.33c-2.48,2.21-3.7,5.06-3.7,8.57c0,3.21,1.01,5.75,3.08,7.63c2.05,1.86,4.85,2.79,8.36,2.79
	c2.09,0,3.97-0.29,5.68-0.86c1.72-0.58,3.12-1.38,4.19-2.44l-0.83-1.47C310.66,149.4,309.87,149.81,309.06,150.07z"/>
<path class="st0" d="M333.14,149.73c-1.1,0.39-2.19,0.6-3.29,0.6c-2.26,0-4.15-0.79-5.62-2.32c-1.47-1.54-2.22-3.45-2.22-5.73
	c0-0.64,0.13-1.06,0.43-1.26c0.28-0.19,0.86-0.3,1.75-0.3h11.9c0.03-0.35,0.07-0.61,0.08-0.81c0.02-0.18,0.02-0.33,0.02-0.48
	c0-2.3-0.94-4.23-2.82-5.8c-1.89-1.55-4.25-2.34-7.06-2.34c-3.49,0-6.37,1.09-8.65,3.29c-2.3,2.2-3.44,4.97-3.44,8.3
	c0,3.25,1.06,5.84,3.17,7.84c2.12,1.98,4.92,2.97,8.41,2.97c2.39,0,4.54-0.39,6.46-1.14c1.92-0.75,3.45-1.8,4.56-3.15l-0.73-1.38
	C335.18,148.77,334.2,149.33,333.14,149.73z M321.8,138.54c0-0.19-0.01-0.37-0.01-0.54c0-1.39,0.31-2.54,0.95-3.39
	c0.66-0.87,1.54-1.31,2.6-1.31c1.09,0,2,0.47,2.75,1.38c0.77,0.92,1.17,1.99,1.17,3.24c0,0.37-0.09,0.61-0.25,0.73
	c-0.17,0.13-0.51,0.19-1.05,0.19h-6.14C321.83,138.83,321.83,138.73,321.8,138.54z"/>
<path class="st0" d="M362.7,149.59c-0.23,0.06-0.42,0.09-0.59,0.09c-0.69,0-1.17-0.29-1.43-0.89c-0.27-0.61-0.38-1.92-0.38-3.97
	v-4.29c0-3.25-0.73-5.57-2.15-6.99c-1.44-1.42-3.79-2.13-7.04-2.13c-2.92,0-5.28,0.5-7.1,1.52c-1.82,1.02-2.71,2.31-2.71,3.9
	c0,0.82,0.24,1.48,0.79,1.97c0.54,0.5,1.23,0.75,2.11,0.75c0.69,0,1.32-0.06,1.88-0.2c0.58-0.13,1.09-0.32,1.61-0.6
	c-0.18-0.45-0.32-0.89-0.42-1.28c-0.1-0.42-0.13-0.82-0.13-1.19c0-0.89,0.28-1.61,0.82-2.16c0.56-0.56,1.28-0.84,2.19-0.84
	c1.08,0,1.83,0.34,2.24,1.07c0.41,0.7,0.63,2.1,0.63,4.18c0,1-0.22,1.68-0.63,2.07c-0.38,0.39-1.66,0.78-3.74,1.16
	c-3.61,0.67-6.1,1.48-7.48,2.46c-1.35,0.97-2.04,2.33-2.04,4.05c0,1.65,0.58,2.91,1.74,3.85c1.18,0.92,2.77,1.38,4.83,1.38
	c1.79,0,3.38-0.32,4.81-0.99c1.42-0.64,2.51-1.56,3.25-2.71c0.24,1.23,0.75,2.17,1.51,2.77c0.77,0.62,1.78,0.93,3.03,0.93
	c0.94,0,1.96-0.27,3.02-0.82c1.06-0.55,1.98-1.29,2.78-2.21l-0.58-1.15C363.2,149.44,362.93,149.54,362.7,149.59z M352.92,145.9
	c0,1.39-0.3,2.42-0.83,3.13c-0.53,0.7-1.34,1.07-2.44,1.07c-0.8,0-1.46-0.27-1.99-0.8c-0.52-0.53-0.77-1.23-0.77-2.08
	c0-1.93,1.94-3.45,5.76-4.55l0.27-0.06V145.9z"/>
<path class="st0" d="M392.34,150.44c-0.44-0.71-0.67-2.51-0.67-5.4v-3.32c0-3.63-0.66-6.28-1.97-7.93
	c-1.32-1.65-3.39-2.49-6.24-2.49c-1.72,0-3.23,0.35-4.51,1.04c-1.28,0.7-2.28,1.71-2.96,3.04l-0.51-0.18
	c0.04-0.52,0.08-1.05,0.13-1.58c0.06-0.51,0.13-1.05,0.21-1.58l-1.13-0.75c-0.3,0.17-0.68,0.38-1.08,0.63
	c-0.4,0.29-0.86,0.62-1.36,1.04c-0.13,0-0.33-0.02-0.57-0.04c-0.23-0.01-0.4-0.01-0.54-0.01c-0.78,0-1.64,0.05-2.54,0.11
	c-0.89,0.09-1.91,0.21-3.01,0.4v1.53h0.38c1.13,0,1.89,0.31,2.27,0.92c0.39,0.61,0.57,2.26,0.57,4.96v3.42v0.41
	c0,3.14-0.2,5.07-0.64,5.78c-0.45,0.73-1.28,1.14-2.58,1.22l0.04,1.49c1.01-0.04,2.09-0.15,3.23-0.32c1.14-0.18,2.39-0.41,3.74-0.72
	c1.2,0.31,2.36,0.54,3.49,0.72c1.15,0.17,2.28,0.29,3.37,0.32l0.04-1.47c-1.25-0.11-2.09-0.53-2.52-1.25
	c-0.45-0.72-0.67-2.53-0.67-5.44v-3.68c0-2.29,0.33-4,1-5.14c0.65-1.13,1.66-1.69,3-1.69c1.41,0,2.37,0.53,2.93,1.62
	c0.56,1.08,0.83,3.33,0.83,6.7c0,2.16-0.04,4.16-0.13,5.9c-0.07,1.76-0.18,3.26-0.3,4.44c0.69-0.07,1.46-0.19,2.23-0.37
	c0.76-0.17,1.54-0.41,2.34-0.67c1.23,0.35,2.4,0.61,3.48,0.78c1.09,0.18,2.14,0.27,3.16,0.27v-1.47
	C393.62,151.58,392.78,151.15,392.34,150.44z"/>
<path class="st0" d="M415.55,149.73c-1.07,0.39-2.18,0.6-3.29,0.6c-2.27,0-4.15-0.79-5.63-2.32c-1.46-1.54-2.19-3.45-2.19-5.73
	c0-0.64,0.12-1.06,0.4-1.26c0.28-0.19,0.87-0.3,1.77-0.3h11.87c0.04-0.35,0.08-0.61,0.09-0.81c0.02-0.18,0.02-0.33,0.02-0.48
	c0-2.3-0.95-4.23-2.82-5.8c-1.88-1.55-4.25-2.34-7.07-2.34c-3.45,0-6.35,1.09-8.62,3.29c-2.29,2.2-3.45,4.97-3.45,8.3
	c0,3.25,1.06,5.84,3.19,7.84c2.12,1.98,4.91,2.97,8.4,2.97c2.37,0,4.5-0.39,6.45-1.14c1.92-0.75,3.44-1.8,4.56-3.15l-0.72-1.38
	C417.61,148.77,416.6,149.33,415.55,149.73z M404.23,138.54c-0.02-0.19-0.02-0.37-0.02-0.54c0-1.39,0.34-2.54,0.97-3.39
	c0.66-0.87,1.52-1.31,2.61-1.31c1.07,0,1.99,0.47,2.76,1.38c0.76,0.92,1.14,1.99,1.14,3.24c0,0.37-0.09,0.61-0.27,0.73
	c-0.15,0.13-0.5,0.19-1.04,0.19h-6.13C404.26,138.83,404.24,138.73,404.23,138.54z"/>
<path class="st0" d="M434.28,139.52c-2.14-0.81-3.48-1.43-3.97-1.89c-0.51-0.45-0.78-1.02-0.78-1.73c0-0.71,0.31-1.29,0.91-1.76
	c0.6-0.43,1.38-0.66,2.36-0.66c1.43,0,2.63,0.44,3.63,1.32c0.97,0.88,1.66,2.16,2.07,3.8h1.84c0-0.53-0.04-1.05-0.12-1.55
	c-0.06-0.48-0.18-0.94-0.31-1.37c0.22-0.31,0.39-0.59,0.48-0.84c0.1-0.24,0.14-0.47,0.14-0.7c0-0.74-0.74-1.4-2.23-1.91
	c-1.48-0.51-3.36-0.78-5.63-0.78c-3.23,0-5.72,0.58-7.47,1.74c-1.75,1.11-2.62,2.74-2.62,4.83c0,1.49,0.45,2.75,1.39,3.79
	c0.91,1.03,2.44,1.97,4.58,2.83c0.38,0.14,0.92,0.35,1.62,0.61c2.89,1.05,4.34,2.23,4.34,3.51c0,0.88-0.36,1.55-1.05,2.07
	c-0.69,0.52-1.62,0.77-2.79,0.77c-1.73,0-3.12-0.54-4.18-1.65c-1.07-1.1-1.68-2.64-1.85-4.59h-2.06c0,0.58,0.04,1.18,0.12,1.82
	c0.08,0.64,0.19,1.33,0.35,2.07c-0.21,0.3-0.36,0.57-0.48,0.84c-0.11,0.26-0.15,0.47-0.15,0.64c0,0.83,0.74,1.5,2.24,2
	c1.51,0.49,3.51,0.75,6.02,0.75c3.48,0,6.19-0.61,8.09-1.82c1.92-1.23,2.89-2.94,2.89-5.15c0-1.56-0.51-2.85-1.49-3.86
	C439.16,141.66,437.18,140.61,434.28,139.52z"/>
<path class="st1" d="M250.09,103.69c0,1.21,0.37,2.21,1.1,2.96c0.76,0.75,1.71,1.12,2.89,1.12c1.56,0,2.75-0.49,3.51-1.49
	c0.78-1,1.17-2.49,1.17-4.47v-4.7l-0.36,0.08C252.85,98.79,250.09,100.96,250.09,103.69z"/>
<path class="st1" d="M224.6,91.52c0.21-0.2,0.32-0.53,0.32-1.04c0-1.76-0.54-3.3-1.61-4.59c-1.09-1.29-2.37-1.94-3.88-1.94
	c-1.54,0-2.73,0.6-3.66,1.84c-0.9,1.23-1.37,2.82-1.37,4.8c0,0.25,0.02,0.51,0.04,0.77c0.03,0.25,0.03,0.4,0.03,0.41h8.63
	C223.85,91.78,224.34,91.69,224.6,91.52z"/>
<path class="st0" d="M230.47,107.27c-1.53,0.58-3.09,0.87-4.68,0.87c-3.19,0-5.84-1.09-7.93-3.27c-2.1-2.2-3.15-4.92-3.15-8.14
	c0-0.91,0.2-1.52,0.6-1.79c0.4-0.29,1.24-0.43,2.48-0.43h16.86c0.06-0.5,0.1-0.88,0.12-1.13c0.02-0.26,0.02-0.49,0.02-0.69
	c0-3.27-1.33-6.01-4.02-8.24c-2.67-2.21-6.03-3.33-10.05-3.33c-4.94,0-9.03,1.56-12.3,4.67c-3.25,3.1-4.88,7.04-4.88,11.8
	c0,4.59,1.51,8.29,4.52,11.08c3.02,2.83,7,4.21,11.97,4.21c3.36,0,6.43-0.52,9.17-1.59c0.4-0.15,0.75-0.33,1.12-0.5
	c0.32-1.37,0.73-2.69,1.22-3.96C231.19,106.98,230.84,107.13,230.47,107.27z M214.44,91.37c-0.02-0.27-0.04-0.53-0.04-0.77
	c0-1.98,0.47-3.57,1.37-4.8c0.94-1.24,2.13-1.84,3.66-1.84c1.5,0,2.79,0.66,3.88,1.94c1.07,1.29,1.61,2.83,1.61,4.59
	c0,0.51-0.11,0.84-0.32,1.04c-0.26,0.17-0.75,0.26-1.5,0.26h-8.63C214.47,91.77,214.47,91.61,214.44,91.37z"/>
<path class="st0" d="M273.83,106.72c-0.4,0.16-0.76,0.27-1.09,0.36c-0.34,0.09-0.63,0.1-0.82,0.1c-0.98,0-1.66-0.43-2.04-1.27
	c-0.37-0.87-0.55-2.75-0.55-5.64v-6.05c0-4.64-1.05-7.96-3.09-9.98c-2.06-2.01-5.43-3.01-10.09-3.01c-4.16,0-7.53,0.71-10.14,2.17
	c-2.6,1.46-3.9,3.29-3.9,5.56c0,1.18,0.39,2.12,1.13,2.83c0.77,0.7,1.76,1.05,3.01,1.05c0.99,0,1.87-0.09,2.67-0.27
	c0.81-0.18,1.58-0.46,2.3-0.84c-0.27-0.66-0.46-1.26-0.59-1.84c-0.13-0.59-0.21-1.15-0.21-1.69c0-1.27,0.41-2.3,1.19-3.07
	c0.79-0.79,1.86-1.18,3.14-1.18c1.54,0,2.62,0.5,3.2,1.49c0.6,1,0.9,2.97,0.9,5.93c0,1.42-0.3,2.39-0.89,2.93
	c-0.59,0.56-2.38,1.1-5.39,1.64c-5.15,0.94-8.69,2.1-10.63,3.49c-1.09,0.77-1.86,1.71-2.34,2.82c0.01,0.29,0.03,0.6,0.04,0.93
	c0.06,1.75,0.16,4.02,0.56,6.08c0.36,0.51,0.79,0.98,1.31,1.39c1.66,1.31,3.97,1.98,6.91,1.98c2.52,0,4.82-0.46,6.85-1.41
	c2.03-0.92,3.58-2.21,4.64-3.87c0.33,1.76,1.06,3.07,2.18,3.96c1.09,0.89,2.53,1.32,4.32,1.32c1.35,0,2.77-0.39,4.29-1.19
	c1.52-0.78,2.84-1.84,3.96-3.14L273.83,106.72z M258.74,101.81c0,1.98-0.39,3.47-1.17,4.47c-0.76,1-1.94,1.49-3.51,1.49
	c-1.17,0-2.13-0.37-2.89-1.12c-0.73-0.75-1.1-1.75-1.1-2.96c0-2.74,2.76-4.91,8.29-6.5l0.36-0.08V101.81z"/>
<path class="st0" d="M422.41,155.69c0.26,0.01,0.54,0.04,0.85,0.07c0.31,0.03,0.65,0.08,1,0.13c0.36-0.05,0.69-0.1,0.99-0.13
	c0.31-0.03,0.59-0.06,0.85-0.07v0.24c-0.43,0.03-0.72,0.15-0.87,0.37c-0.15,0.22-0.23,0.74-0.23,1.56v0.76v2.09
	c0,0.85,0.08,1.38,0.23,1.61c0.15,0.23,0.44,0.36,0.86,0.39v0.24c-0.26-0.01-0.54-0.03-0.85-0.07c-0.3-0.03-0.64-0.07-0.99-0.12
	c-0.43,0.06-0.79,0.11-1.08,0.13c-0.29,0.03-0.54,0.05-0.77,0.06v-0.24c0.42-0.02,0.71-0.15,0.86-0.37
	c0.15-0.22,0.23-0.74,0.23-1.57v-0.74v-2.09c0-0.85-0.07-1.38-0.23-1.61c-0.15-0.23-0.44-0.36-0.86-0.39V155.69z"/>
<path class="st0" d="M427.69,160.97v-0.77c0-0.64-0.05-1.04-0.15-1.19c-0.1-0.14-0.29-0.21-0.57-0.21h-0.11v-0.23
	c0.31-0.05,0.58-0.08,0.81-0.11c0.24-0.03,0.46-0.04,0.66-0.04l0.22-0.18l0.23-0.14l0.19,0.09l-0.05,0.47l-0.02,0.49l0.08,0.04
	c0.17-0.35,0.42-0.61,0.74-0.79c0.32-0.17,0.7-0.26,1.15-0.26c0.65,0,1.13,0.17,1.42,0.52c0.3,0.35,0.44,0.93,0.44,1.75v0.75
	c0,0.69,0.06,1.12,0.17,1.29c0.11,0.16,0.33,0.26,0.67,0.28l-0.01,0.24c-0.2-0.01-0.43-0.02-0.66-0.05
	c-0.23-0.03-0.48-0.07-0.75-0.13l-0.39,0.1c-0.14,0.03-0.29,0.05-0.47,0.08c0.02-0.21,0.04-0.47,0.05-0.78
	c0.01-0.3,0.02-0.72,0.02-1.26c0-0.92-0.08-1.52-0.24-1.81c-0.16-0.29-0.44-0.44-0.85-0.44c-0.41,0-0.72,0.14-0.92,0.43
	c-0.2,0.28-0.31,0.71-0.31,1.28v0.78c0,0.69,0.05,1.12,0.17,1.29c0.11,0.16,0.34,0.26,0.67,0.28l0,0.24
	c-0.2-0.01-0.41-0.02-0.64-0.05c-0.23-0.03-0.53-0.07-0.87-0.13c-0.32,0.05-0.6,0.09-0.85,0.12c-0.25,0.04-0.47,0.05-0.67,0.06
	l-0.01-0.24c0.33-0.02,0.56-0.12,0.68-0.28c0.11-0.17,0.17-0.63,0.17-1.37V160.97z"/>
<path class="st0" d="M438,159.62c-0.08-0.36-0.23-0.64-0.44-0.85c-0.22-0.19-0.48-0.29-0.8-0.29c-0.39,0-0.7,0.15-0.94,0.44
	c-0.24,0.29-0.36,0.68-0.36,1.16c0,0.69,0.2,1.26,0.59,1.72c0.4,0.45,0.9,0.67,1.51,0.67c0.25,0,0.48-0.03,0.7-0.1
	c0.21-0.06,0.43-0.16,0.63-0.3l0.15,0.23c-0.25,0.24-0.58,0.43-0.97,0.57c-0.39,0.13-0.83,0.2-1.3,0.2c-0.81,0-1.46-0.21-1.94-0.64
	c-0.47-0.42-0.71-1-0.71-1.72c0-0.76,0.29-1.37,0.87-1.86c0.57-0.48,1.3-0.72,2.19-0.72c0.5,0,0.91,0.08,1.23,0.26
	c0.31,0.18,0.47,0.39,0.47,0.65l-0.23,0.4C438.49,159.54,438.28,159.6,438,159.62z"/>
<path class="st0" d="M440.9,161.73c0.21,0,0.38,0.07,0.52,0.2c0.15,0.13,0.22,0.29,0.22,0.47c0,0.18-0.07,0.34-0.23,0.48
	c-0.15,0.13-0.32,0.2-0.52,0.2c-0.2,0-0.37-0.07-0.52-0.2c-0.14-0.13-0.21-0.3-0.21-0.48c0-0.18,0.07-0.34,0.21-0.47
	C440.53,161.8,440.7,161.73,440.9,161.73z"/>
<path class="st0" d="M111.53,30.74c0.1-0.26,0.26-0.49,0.49-0.67c0.17-0.17,0.42-0.31,0.75-0.43c0.33-0.12,0.49-0.27,0.49-0.46
	l-0.11-0.35l-0.32-0.12c-0.05,0-0.18,0.01-0.4,0.03c-0.98,0.1-1.91,0.16-2.8,0.16c-0.62,0-1.25-0.03-1.91-0.09
	c-0.66-0.06-1-0.1-1.03-0.1c-0.18,0-0.32,0.04-0.42,0.12l-0.14,0.35c0,0.27,0.26,0.43,0.78,0.49c0.51,0.07,0.9,0.2,1.15,0.4
	c0.23,0.25,0.4,0.54,0.49,0.86c0.09,0.32,0.14,0.84,0.14,1.56v8.87c0,0.55-0.08,0.99-0.23,1.32c-0.15,0.32-0.37,0.57-0.68,0.73
	c-0.12,0.09-0.3,0.2-0.53,0.32c-0.36,0.18-0.54,0.38-0.54,0.58l0.14,0.35c0.09,0.07,0.24,0.12,0.42,0.12c0.01,0,0.42-0.04,1.22-0.1
	c0.8-0.07,1.59-0.1,2.36-0.1c0.64,0,1.43,0.03,2.37,0.1c0.94,0.06,1.55,0.1,1.86,0.1c0.72,0,1.32-0.1,1.8-0.31
	c0.48-0.21,0.88-0.53,1.19-0.97c0.24-0.35,0.45-0.78,0.62-1.28c0.17-0.5,0.26-0.9,0.26-1.2l-0.09-0.32l-0.24-0.13
	c-0.15,0-0.33,0.2-0.57,0.6c-0.23,0.4-0.51,0.73-0.82,1c-0.46,0.4-1.06,0.72-1.79,0.96c-0.73,0.23-1.47,0.36-2.23,0.36
	c-0.7,0-1.17-0.1-1.42-0.3c-0.25-0.21-0.37-0.77-0.37-1.68v-9.24C111.4,31.51,111.44,31.01,111.53,30.74z"/>
<path class="st0" d="M124.49,30.08c0.27-0.19,0.74-0.28,1.42-0.28c1.15,0,2.01,0.09,2.58,0.28c0.56,0.19,0.96,0.51,1.19,0.99
	c0.08,0.17,0.14,0.44,0.17,0.8c0.03,0.36,0.17,0.54,0.42,0.54l0.29-0.09c0.05-0.06,0.07-0.18,0.07-0.37v-0.2
	c-0.01-0.59-0.02-1.17-0.02-1.74v-0.47c0-0.35-0.05-0.58-0.15-0.68c-0.1-0.1-0.35-0.15-0.75-0.15c-0.26,0-1.04,0.03-2.36,0.1
	c-1.32,0.06-2.51,0.09-3.57,0.09c-1.47,0-2.83-0.05-4.09-0.17l-0.26-0.02c-0.18,0-0.33,0.04-0.43,0.13l-0.15,0.34
	c0,0.27,0.26,0.44,0.78,0.51c0.53,0.08,0.92,0.23,1.17,0.46c0.22,0.22,0.39,0.47,0.47,0.77c0.09,0.3,0.13,0.83,0.13,1.59v8.85
	c0,0.55-0.07,0.99-0.22,1.32c-0.14,0.33-0.37,0.59-0.69,0.76c-0.11,0.08-0.27,0.18-0.49,0.29c-0.36,0.18-0.54,0.38-0.54,0.59
	l0.14,0.34c0.09,0.07,0.23,0.11,0.4,0.11c0.02,0,0.43-0.04,1.22-0.1c0.79-0.07,1.57-0.1,2.34-0.1c0.63,0,1.42,0.03,2.35,0.1
	c0.93,0.06,1.55,0.1,1.87,0.1c0.71,0,1.31-0.1,1.79-0.31c0.48-0.21,0.88-0.53,1.19-0.97c0.25-0.35,0.46-0.78,0.63-1.28
	c0.17-0.5,0.25-0.9,0.25-1.2l-0.09-0.32l-0.23-0.13c-0.15,0-0.33,0.2-0.58,0.6c-0.24,0.4-0.53,0.74-0.85,1.01
	c-0.46,0.39-1.06,0.71-1.79,0.95c-0.73,0.23-1.47,0.36-2.22,0.36c-0.73,0-1.22-0.12-1.45-0.34c-0.24-0.23-0.36-0.8-0.36-1.73v-3.54
	c0-0.53,0.07-0.87,0.2-1.03c0.14-0.16,0.38-0.23,0.75-0.23h0.88c0.7,0,1.22,0.08,1.54,0.25c0.32,0.18,0.57,0.48,0.74,0.92
	c0.06,0.16,0.11,0.39,0.15,0.67c0.06,0.4,0.2,0.61,0.44,0.61l0.25-0.1l0.08-0.33c0-0.04-0.01-0.15-0.02-0.34
	c-0.07-0.94-0.1-1.88-0.1-2.79c0-0.35,0.02-0.68,0.06-1.01c0.04-0.34,0.06-0.51,0.06-0.51l-0.09-0.35l-0.26-0.13
	c-0.25,0-0.47,0.22-0.65,0.64c-0.13,0.3-0.25,0.51-0.35,0.66c-0.2,0.27-0.45,0.47-0.76,0.59c-0.3,0.11-0.71,0.18-1.23,0.18h-0.73
	c-0.34,0-0.59-0.07-0.74-0.23c-0.15-0.14-0.23-0.38-0.23-0.72v-3.52C124.09,30.61,124.22,30.27,124.49,30.08z"/>
<path class="st0" d="M133.94,43.52c0.08,0.35,0.31,0.55,0.7,0.61c0.31,0.04,0.85,0.18,1.64,0.42c0.78,0.25,1.42,0.37,1.92,0.37
	c1.55,0,2.79-0.45,3.71-1.38c0.92-0.91,1.38-2.15,1.38-3.71c0-0.71-0.12-1.37-0.34-1.96c-0.23-0.6-0.56-1.11-1-1.53
	c-0.47-0.46-1.45-0.96-2.93-1.54c-0.28-0.1-0.49-0.18-0.63-0.23c-1.2-0.45-2.03-0.9-2.48-1.33c-0.46-0.43-0.69-0.96-0.69-1.57
	c0-0.63,0.23-1.16,0.71-1.59c0.47-0.42,1.07-0.63,1.8-0.63c0.73,0,1.42,0.19,2.08,0.56c0.66,0.37,1.19,0.88,1.58,1.51
	c0.26,0.44,0.47,0.92,0.6,1.4c0.14,0.48,0.32,0.73,0.54,0.73l0.25-0.11l0.09-0.31c0-0.29-0.05-0.77-0.17-1.44
	c-0.11-0.68-0.16-1.18-0.16-1.53c0-0.13,0.01-0.27,0.02-0.45l0.02-0.35c0-0.18-0.03-0.32-0.09-0.39l-0.29-0.11
	c-0.07,0-0.19,0.05-0.38,0.15c-0.19,0.1-0.38,0.15-0.6,0.15c-0.2,0-0.64-0.14-1.35-0.42c-0.7-0.28-1.38-0.42-2.03-0.42
	c-1.28,0-2.34,0.42-3.18,1.28c-0.84,0.84-1.27,1.88-1.27,3.11c0,1.08,0.25,1.95,0.76,2.61c0.51,0.66,1.74,1.39,3.71,2.21l0.1,0.05
	c2.41,1.02,3.62,2.09,3.62,3.23c0,0.89-0.29,1.61-0.88,2.17c-0.58,0.55-1.33,0.83-2.23,0.83c-0.71,0-1.4-0.24-2.08-0.71
	c-0.67-0.47-1.25-1.13-1.75-1.97c-0.24-0.41-0.44-0.87-0.6-1.36c-0.17-0.5-0.34-0.74-0.5-0.74l-0.37,0.11
	c-0.06,0.08-0.11,0.22-0.11,0.41l0.03,0.15l0.06,0.25l0.74,3.26L133.94,43.52z"/>
<rect x="146.32" y="171.06" class="st0" width="1.86" height="10.22"/>
<path class="st0" d="M149.94,173.82h6.46c0.59,0,1.04,0.05,1.34,0.15c0.3,0.1,0.56,0.28,0.76,0.54c0.39,0.49,0.58,1.16,0.58,2.02
	v4.75h-1.76v-4.43c0-0.36-0.01-0.61-0.04-0.75l-0.18-0.38c-0.18-0.21-0.46-0.31-0.83-0.31h-0.94v5.87h-1.76v-5.87h-1.89v5.87h-1.76
	V173.82z"/>
<path class="st0" d="M160.71,173.82h3.07c0.6,0,1.05,0.05,1.36,0.13c0.31,0.09,0.6,0.25,0.87,0.51c0.76,0.7,1.14,1.77,1.14,3.21
	c0,1.09-0.28,1.98-0.84,2.66c-0.28,0.34-0.6,0.58-0.96,0.73c-0.36,0.16-0.81,0.23-1.33,0.23h-1.55v2.81h-1.76V173.82z
	 M162.47,175.41v4.28h1.08c0.57,0,0.99-0.14,1.26-0.42c0.37-0.39,0.55-0.97,0.55-1.76c0-0.67-0.15-1.19-0.44-1.55
	c-0.29-0.36-0.7-0.55-1.25-0.55H162.47z"/>
<path class="st0" d="M168.46,173.82h2.6c0.53,0,0.94,0.04,1.24,0.13c0.29,0.08,0.54,0.23,0.73,0.44c0.19,0.21,0.33,0.46,0.4,0.77
	c0.08,0.3,0.12,0.74,0.12,1.31v0.73h-1.68v-0.41c0-0.53-0.08-0.89-0.24-1.08c-0.16-0.19-0.46-0.29-0.9-0.29h-0.51v5.87h-1.76V173.82
	z"/>
<path class="st0" d="M174.51,173.06v-1.99h1.76v1.99H174.51z M174.51,173.82h1.76v7.46h-1.76V173.82z"/>
<path class="st0" d="M178.01,173.82h6.46c0.59,0,1.04,0.05,1.34,0.15c0.3,0.1,0.56,0.28,0.77,0.54c0.38,0.49,0.58,1.16,0.58,2.02
	v4.75h-1.76v-4.43c0-0.36-0.01-0.61-0.04-0.75l-0.18-0.38c-0.18-0.21-0.45-0.31-0.83-0.31h-0.94v5.87h-1.76v-5.87h-1.89v5.87h-1.76
	V173.82z"/>
<path class="st0" d="M194.02,176.75v1.59h-3.71c0.03,0.49,0.17,0.84,0.41,1.04c0.24,0.21,0.62,0.31,1.15,0.31h2.15v1.59h-2.34
	c-0.51,0-0.92-0.05-1.24-0.16c-0.32-0.1-0.62-0.28-0.91-0.54c-0.77-0.7-1.16-1.74-1.16-3.13c0-0.9,0.2-1.7,0.62-2.37
	c0.28-0.45,0.62-0.78,1.01-0.98c0.39-0.19,0.91-0.29,1.55-0.29h2.47v1.59h-2.34c-0.48,0-0.82,0.1-1.01,0.29
	c-0.2,0.19-0.31,0.54-0.35,1.05H194.02z"/>
<path class="st0" d="M195.47,173.82h2.61c0.53,0,0.94,0.04,1.23,0.13c0.29,0.08,0.54,0.23,0.73,0.44c0.19,0.21,0.33,0.46,0.41,0.77
	c0.07,0.3,0.12,0.74,0.12,1.31v0.73h-1.69v-0.41c0-0.53-0.08-0.89-0.24-1.08c-0.16-0.19-0.46-0.29-0.9-0.29h-0.51v5.87h-1.76V173.82
	z"/>
<path class="st0" d="M201.52,173.06v-1.99h1.76v1.99H201.52z M201.52,173.82h1.76v7.46h-1.76V173.82z"/>
<path class="st0" d="M210.24,176.75v1.59h-3.71c0.04,0.49,0.17,0.84,0.41,1.04c0.24,0.21,0.62,0.31,1.15,0.31h2.15v1.59h-2.34
	c-0.51,0-0.92-0.05-1.24-0.16c-0.32-0.1-0.62-0.28-0.91-0.54c-0.77-0.7-1.16-1.74-1.16-3.13c0-0.9,0.21-1.7,0.62-2.37
	c0.28-0.45,0.62-0.78,1.01-0.98s0.91-0.29,1.55-0.29h2.47v1.59h-2.34c-0.48,0-0.82,0.1-1.01,0.29c-0.2,0.19-0.31,0.54-0.36,1.05
	H210.24z"/>
<path class="st0" d="M218.52,174.47c0.48,0,0.9,0.18,1.26,0.53c0.36,0.35,0.54,0.79,0.54,1.29c0,0.51-0.18,0.94-0.53,1.29
	c-0.35,0.35-0.78,0.53-1.29,0.53c-0.5,0-0.92-0.18-1.28-0.52c-0.36-0.36-0.54-0.79-0.54-1.3c0-0.51,0.18-0.95,0.54-1.3
	C217.58,174.65,218.02,174.47,218.52,174.47z"/>
<path class="st0" d="M233.68,179.47v1.82h-3.05c-0.58,0-1.02-0.03-1.33-0.1c-1.07-0.24-1.83-0.94-2.29-2.11
	c-0.3-0.77-0.45-1.73-0.45-2.87c0-1.37,0.23-2.49,0.68-3.36c0.33-0.62,0.77-1.07,1.32-1.36c0.55-0.28,1.27-0.43,2.15-0.43h2.96v1.82
	h-2.75c-0.83,0-1.44,0.26-1.83,0.78c-0.32,0.43-0.48,1.21-0.48,2.34c0,1.51,0.25,2.5,0.75,2.98c0.35,0.33,0.89,0.49,1.63,0.49
	H233.68z"/>
<path class="st0" d="M237.91,173.71c1.18,0,2.05,0.4,2.61,1.2c0.52,0.73,0.78,1.64,0.78,2.74c0,1.17-0.33,2.1-0.97,2.8
	c-0.6,0.63-1.41,0.96-2.44,0.96c-1.07,0-1.9-0.36-2.51-1.07c-0.56-0.66-0.83-1.59-0.83-2.82c0-1.05,0.27-1.92,0.8-2.61
	C235.94,174.12,236.79,173.72,237.91,173.71z M237.93,175.28c-1.06,0-1.58,0.77-1.58,2.3c0,0.62,0.08,1.1,0.26,1.42
	c0.29,0.55,0.73,0.82,1.34,0.82c1.04,0,1.56-0.77,1.56-2.28C239.5,176.05,238.98,175.3,237.93,175.28z"/>
<path class="st0" d="M242.61,173.82h3.39c0.5,0,0.89,0.04,1.16,0.13c0.27,0.08,0.51,0.24,0.72,0.47c0.45,0.47,0.67,1.23,0.67,2.27
	v4.59h-1.76v-4.83c0-0.37-0.07-0.63-0.21-0.79c-0.14-0.16-0.37-0.25-0.69-0.25h-1.53v5.87h-1.76V173.82z"/>
<path class="st0" d="M255.55,173.82v1.59h-2.11c-0.7,0-1.19,0.19-1.47,0.56c-0.26,0.35-0.39,0.88-0.39,1.59
	c0,0.8,0.21,1.39,0.64,1.74c0.18,0.15,0.37,0.25,0.57,0.3c0.2,0.06,0.49,0.08,0.86,0.08h1.9v1.59h-2.4c-0.64,0-1.16-0.07-1.53-0.23
	c-0.38-0.15-0.71-0.42-1.01-0.81c-0.55-0.71-0.82-1.62-0.82-2.72c0-1.32,0.33-2.32,0.99-2.98c0.26-0.26,0.57-0.45,0.94-0.56
	c0.37-0.11,0.84-0.17,1.43-0.17H255.55z"/>
<path class="st0" d="M262.12,176.75v1.59h-3.71c0.03,0.49,0.17,0.84,0.41,1.04c0.24,0.21,0.62,0.31,1.15,0.31h2.15v1.59h-2.34
	c-0.51,0-0.92-0.05-1.24-0.16c-0.32-0.1-0.62-0.28-0.91-0.54c-0.77-0.7-1.16-1.74-1.16-3.13c0-0.9,0.21-1.7,0.61-2.37
	c0.28-0.45,0.62-0.78,1.02-0.98c0.39-0.19,0.91-0.29,1.55-0.29h2.47v1.59h-2.34c-0.48,0-0.81,0.1-1.01,0.29
	c-0.19,0.19-0.31,0.54-0.36,1.05H262.12z"/>
<path class="st0" d="M263.57,173.82h3.07c0.6,0,1.05,0.05,1.36,0.13c0.31,0.09,0.6,0.25,0.87,0.51c0.76,0.7,1.14,1.77,1.14,3.21
	c0,1.09-0.28,1.98-0.84,2.66c-0.28,0.34-0.6,0.58-0.96,0.73c-0.36,0.16-0.81,0.23-1.33,0.23h-1.55v2.81h-1.76V173.82z
	 M265.33,175.41v4.28h1.08c0.57,0,0.99-0.14,1.25-0.42c0.37-0.39,0.55-0.97,0.55-1.76c0-0.67-0.14-1.19-0.44-1.55
	c-0.29-0.36-0.71-0.55-1.25-0.55H265.33z"/>
<path class="st0" d="M271.7,173.82v-2.76h1.76v2.76h1.63v1.59h-1.63v2.71c0,0.64,0.05,1.04,0.15,1.2c0.15,0.25,0.41,0.37,0.79,0.37
	h0.69v1.59h-1.28c-0.76,0-1.3-0.22-1.63-0.64c-0.32-0.43-0.49-1.15-0.49-2.16v-3.07h-1.11v-1.59H271.7z"/>
<path class="st0" d="M276.3,173.06v-1.99h1.76v1.99H276.3z M276.3,173.82h1.76v7.46h-1.76V173.82z"/>
<path class="st0" d="M282.74,173.71c1.18,0,2.05,0.4,2.62,1.2c0.52,0.73,0.77,1.64,0.77,2.74c0,1.17-0.33,2.1-0.98,2.8
	c-0.59,0.63-1.41,0.96-2.44,0.96c-1.07,0-1.91-0.36-2.51-1.07c-0.56-0.66-0.83-1.59-0.83-2.82c0-1.05,0.27-1.92,0.8-2.61
	C280.76,174.12,281.62,173.72,282.74,173.71z M282.75,175.28c-1.06,0-1.58,0.77-1.58,2.3c0,0.62,0.09,1.1,0.26,1.42
	c0.29,0.55,0.73,0.82,1.34,0.82c1.05,0,1.56-0.77,1.56-2.28C284.33,176.05,283.8,175.3,282.75,175.28z"/>
<path class="st0" d="M287.44,173.82h3.39c0.5,0,0.89,0.04,1.16,0.13s0.51,0.24,0.73,0.47c0.45,0.47,0.67,1.23,0.67,2.27v4.59h-1.76
	v-4.83c0-0.37-0.07-0.63-0.21-0.79c-0.14-0.16-0.37-0.25-0.69-0.25h-1.53v5.87h-1.76V173.82z"/>
<path class="st0" d="M301.87,174.47c0.48,0,0.9,0.18,1.26,0.53c0.36,0.35,0.54,0.79,0.54,1.29c0,0.51-0.18,0.94-0.53,1.29
	c-0.36,0.35-0.78,0.53-1.29,0.53c-0.49,0-0.92-0.18-1.28-0.52c-0.36-0.36-0.54-0.79-0.54-1.3c0-0.51,0.18-0.95,0.54-1.3
	C300.93,174.65,301.36,174.47,301.87,174.47z"/>
<path class="st0" d="M310.28,171.06h1.86v5.74c0.02,0.73,0.05,1.21,0.08,1.45c0.06,0.46,0.25,0.78,0.58,0.96
	c0.32,0.17,0.89,0.26,1.7,0.26h1.79v1.82h-1.98c-0.94,0.01-1.62-0.06-2.04-0.18c-0.97-0.33-1.58-1.05-1.83-2.15
	c-0.1-0.43-0.15-1.15-0.15-2.15V171.06z"/>
<path class="st0" d="M322.56,176.75v1.59h-3.7c0.03,0.49,0.17,0.84,0.41,1.04c0.24,0.21,0.62,0.31,1.15,0.31h2.15v1.59h-2.34
	c-0.51,0-0.92-0.05-1.24-0.16c-0.32-0.1-0.62-0.28-0.91-0.54c-0.77-0.7-1.16-1.74-1.16-3.13c0-0.9,0.2-1.7,0.62-2.37
	c0.28-0.45,0.62-0.78,1.01-0.98c0.39-0.19,0.91-0.29,1.55-0.29h2.47v1.59h-2.34c-0.48,0-0.81,0.1-1.01,0.29
	c-0.19,0.19-0.31,0.54-0.35,1.05H322.56z"/>
<path class="st0" d="M324.5,173.82v-2.76h1.75v2.76h1.63v1.59h-1.63v2.71c0,0.64,0.05,1.04,0.15,1.2c0.15,0.25,0.41,0.37,0.79,0.37
	h0.69v1.59h-1.28c-0.76,0-1.3-0.22-1.62-0.64c-0.32-0.43-0.48-1.15-0.48-2.16v-3.07h-1.12v-1.59H324.5z"/>
<path class="st0" d="M329.56,173.82v-2.76h1.76v2.76h1.63v1.59h-1.63v2.71c0,0.64,0.05,1.04,0.15,1.2c0.15,0.25,0.41,0.37,0.79,0.37
	h0.69v1.59h-1.28c-0.76,0-1.3-0.22-1.62-0.64c-0.32-0.43-0.48-1.15-0.48-2.16v-3.07h-1.12v-1.59H329.56z"/>
<path class="st0" d="M334.16,173.82h2.6c0.53,0,0.94,0.04,1.23,0.13c0.29,0.08,0.54,0.23,0.74,0.44c0.19,0.21,0.32,0.46,0.4,0.77
	c0.08,0.3,0.12,0.74,0.12,1.31v0.73h-1.68v-0.41c0-0.53-0.08-0.89-0.24-1.08c-0.16-0.19-0.46-0.29-0.9-0.29h-0.51v5.87h-1.76V173.82
	z"/>
<path class="st0" d="M344.55,176.75c0-0.53-0.09-0.88-0.27-1.06c-0.18-0.18-0.54-0.28-1.07-0.28h-2.98v-1.59h2.98
	c0.53,0,0.9,0.01,1.1,0.03c0.2,0.03,0.41,0.08,0.61,0.15c0.97,0.43,1.43,1.45,1.39,3.08v4.21h-3.71c-0.66,0-1.12-0.02-1.38-0.07
	c-0.25-0.04-0.48-0.14-0.67-0.29c-0.52-0.41-0.78-1.03-0.78-1.85c0-0.5,0.1-0.95,0.31-1.34c0.21-0.39,0.48-0.66,0.82-0.8
	c0.3-0.13,0.8-0.18,1.49-0.18H344.55z M344.55,178.34h-2.03l-0.29-0.01c-0.2,0-0.36,0.06-0.48,0.19c-0.12,0.13-0.18,0.29-0.18,0.5
	c0,0.25,0.07,0.42,0.22,0.52c0.14,0.11,0.39,0.15,0.73,0.15h2.03V178.34z"/>
<path class="st0" d="M354.08,173.82v7.41c0,0.42-0.04,0.79-0.12,1.12c-0.08,0.33-0.2,0.6-0.36,0.84c-0.2,0.28-0.44,0.48-0.73,0.58
	c-0.29,0.11-0.7,0.17-1.24,0.17h-3.51v-1.59h3.27c0.39,0,0.64-0.07,0.76-0.21c0.12-0.14,0.18-0.42,0.18-0.86h-1.61
	c-0.52,0-0.94-0.06-1.28-0.19c-0.34-0.13-0.64-0.35-0.92-0.64c-0.64-0.7-0.96-1.66-0.96-2.9c0-1.42,0.39-2.45,1.17-3.09
	c0.28-0.23,0.58-0.39,0.89-0.5c0.31-0.09,0.71-0.14,1.19-0.14H354.08z M352.32,175.41h-1.45c-1.01,0-1.52,0.72-1.52,2.15
	c0,0.7,0.14,1.23,0.41,1.59c0.27,0.36,0.68,0.54,1.2,0.54h1.36V175.41z"/>
<path class="st0" d="M361.01,176.75v1.59h-3.71c0.04,0.49,0.17,0.84,0.41,1.04c0.24,0.21,0.62,0.31,1.15,0.31h2.15v1.59h-2.34
	c-0.51,0-0.92-0.05-1.24-0.16c-0.32-0.1-0.62-0.28-0.91-0.54c-0.77-0.7-1.16-1.74-1.16-3.13c0-0.9,0.2-1.7,0.62-2.37
	c0.28-0.45,0.62-0.78,1.01-0.98c0.39-0.19,0.91-0.29,1.55-0.29h2.47v1.59h-2.34c-0.48,0-0.82,0.1-1.01,0.29
	c-0.2,0.19-0.31,0.54-0.36,1.05H361.01z"/>
<path class="st0" d="M369.29,174.47c0.48,0,0.9,0.18,1.26,0.53c0.36,0.35,0.54,0.79,0.54,1.29c0,0.51-0.18,0.94-0.53,1.29
	c-0.35,0.35-0.78,0.53-1.29,0.53c-0.5,0-0.92-0.18-1.27-0.52c-0.36-0.36-0.54-0.79-0.54-1.3c0-0.51,0.18-0.95,0.54-1.3
	C368.35,174.65,368.79,174.47,369.29,174.47z"/>
<polygon class="st0" points="386.32,171.06 382.49,181.28 380.62,181.28 376.93,171.06 379.03,171.06 381.61,178.75 384.22,171.06 
	"/>
<path class="st0" d="M392.43,176.75v1.59h-3.7c0.03,0.49,0.17,0.84,0.41,1.04c0.24,0.21,0.62,0.31,1.15,0.31h2.15v1.59h-2.34
	c-0.51,0-0.92-0.05-1.24-0.16c-0.32-0.1-0.62-0.28-0.91-0.54c-0.77-0.7-1.16-1.74-1.16-3.13c0-0.9,0.21-1.7,0.62-2.37
	c0.28-0.45,0.62-0.78,1.01-0.98c0.39-0.19,0.91-0.29,1.55-0.29h2.47v1.59h-2.34c-0.48,0-0.82,0.1-1.01,0.29
	c-0.2,0.19-0.31,0.54-0.36,1.05H392.43z M390.23,171.72l-0.84,1.22h-1.27l1.4-2h1.41l1.39,2h-1.26L390.23,171.72z"/>
<path class="st0" d="M394.34,173.82v-2.76h1.76v2.76h1.63v1.59h-1.63v2.71c0,0.64,0.05,1.04,0.14,1.2c0.15,0.25,0.41,0.37,0.79,0.37
	h0.69v1.59h-1.28c-0.76,0-1.3-0.22-1.62-0.64c-0.32-0.43-0.48-1.15-0.48-2.16v-3.07h-1.12v-1.59H394.34z"/>
<path class="st0" d="M404.02,176.75v1.59h-3.7c0.03,0.49,0.17,0.84,0.4,1.04c0.24,0.21,0.62,0.31,1.15,0.31h2.15v1.59h-2.34
	c-0.51,0-0.92-0.05-1.24-0.16c-0.32-0.1-0.62-0.28-0.91-0.54c-0.78-0.7-1.16-1.74-1.16-3.13c0-0.9,0.21-1.7,0.62-2.37
	c0.28-0.45,0.62-0.78,1.01-0.98c0.39-0.19,0.91-0.29,1.55-0.29h2.47v1.59h-2.34c-0.48,0-0.81,0.1-1.01,0.29
	c-0.2,0.19-0.31,0.54-0.35,1.05H404.02z"/>
<path class="st0" d="M405.47,173.82h6.46c0.59,0,1.04,0.05,1.34,0.15c0.31,0.1,0.56,0.28,0.77,0.54c0.38,0.49,0.58,1.16,0.58,2.02
	v4.75h-1.76v-4.43c0-0.36-0.01-0.61-0.04-0.75l-0.18-0.38c-0.18-0.21-0.45-0.31-0.83-0.31h-0.93v5.87h-1.76v-5.87h-1.9v5.87h-1.75
	V173.82z"/>
<path class="st0" d="M421.48,176.75v1.59h-3.71c0.03,0.49,0.17,0.84,0.41,1.04c0.24,0.21,0.62,0.31,1.15,0.31h2.15v1.59h-2.34
	c-0.51,0-0.92-0.05-1.24-0.16c-0.32-0.1-0.62-0.28-0.9-0.54c-0.77-0.7-1.16-1.74-1.16-3.13c0-0.9,0.2-1.7,0.61-2.37
	c0.28-0.45,0.62-0.78,1.01-0.98s0.91-0.29,1.55-0.29h2.47v1.59h-2.34c-0.48,0-0.82,0.1-1.01,0.29c-0.19,0.19-0.31,0.54-0.35,1.05
	H421.48z"/>
<path class="st0" d="M422.93,173.82h3.39c0.51,0,0.89,0.04,1.16,0.13c0.27,0.08,0.51,0.24,0.73,0.47c0.45,0.47,0.67,1.23,0.67,2.27
	v4.59h-1.76v-4.83c0-0.37-0.07-0.63-0.21-0.79c-0.14-0.16-0.37-0.25-0.69-0.25h-1.54v5.87h-1.75V173.82z"/>
<path class="st0" d="M430.99,173.82v-2.76h1.76v2.76h1.63v1.59h-1.63v2.71c0,0.64,0.05,1.04,0.15,1.2c0.15,0.25,0.41,0.37,0.79,0.37
	h0.69v1.59h-1.28c-0.76,0-1.3-0.22-1.62-0.64c-0.32-0.43-0.48-1.15-0.48-2.16v-3.07h-1.12v-1.59H430.99z"/>
<path class="st0" d="M441.13,173.82v1.59h-3.12c-0.35,0-0.58,0.02-0.68,0.06c-0.2,0.08-0.3,0.28-0.3,0.6c0,0.26,0.1,0.47,0.29,0.61
	c0.1,0.08,0.39,0.12,0.85,0.12h1.04c0.66,0,1.19,0.17,1.57,0.5c0.43,0.37,0.64,0.91,0.64,1.63c0,0.54-0.13,1.04-0.39,1.49
	c-0.2,0.35-0.44,0.58-0.71,0.7c-0.28,0.12-0.74,0.17-1.38,0.17h-3.64v-1.59h3.13c0.39,0,0.65-0.01,0.8-0.02
	c0.31-0.04,0.47-0.24,0.47-0.61c0-0.31-0.1-0.52-0.31-0.64c-0.11-0.06-0.37-0.1-0.77-0.1h-1.07c-0.41,0-0.73-0.03-0.96-0.09
	c-0.22-0.06-0.43-0.17-0.62-0.33c-0.23-0.2-0.42-0.47-0.56-0.81c-0.14-0.34-0.2-0.7-0.2-1.1c0-0.75,0.23-1.34,0.7-1.78
	c0.28-0.25,0.76-0.39,1.46-0.39H441.13z"/>
<g>
	<path class="st0" d="M526.73,44.32l-0.06,0.06c-0.12,0.04-0.38,0.09-0.77,0.15c-0.39,0.06-0.77,0.14-1.16,0.21
		c-0.39,0.08-0.96,0.35-1.72,0.8c-0.76,0.45-1.56,1.06-2.42,1.84c-3.27,2.9-6.94,7.21-11,12.93c-4.07,5.72-7.34,10.75-9.84,15.08
		c-2.49,4.33-3.58,6.43-3.25,6.31c0.16,0.04,0.25,0.16,0.25,0.37c0,0.78-0.61,1.78-1.84,3c-0.69,0.69-1.27,1.06-1.72,1.11
		c-0.49,0-0.95-0.14-1.38-0.4c-0.43-0.26-0.64-0.62-0.64-1.07c0-0.2,0.05-0.41,0.15-0.61c0.1-0.2,0.24-0.43,0.4-0.67
		c0.45-0.53,0.96-2.73,1.53-6.59c0.57-3.86,0.86-6.9,0.86-9.1c0-2.37-0.07-4.51-0.22-6.41c-0.14-1.9-0.47-3.93-0.98-6.1
		c-0.51-2.17-1.21-3.97-2.08-5.42c-0.88-1.45-2.11-2.66-3.71-3.62c-1.59-0.96-3.47-1.44-5.64-1.44c-3.39,0-6.17,0.97-8.33,2.91
		c-2.17,1.94-3.25,4.79-3.25,8.55c0,2.53,0.63,4.61,1.9,6.22c1.27,1.62,2.82,2.42,4.66,2.42c0.24,0,0.46,0.02,0.64,0.06
		c0.19,0.04,0.32,0.09,0.4,0.15l0.12,0.22c0,0.08-0.1,0.16-0.31,0.24c-0.2,0.08-0.49,0.12-0.86,0.12c-2.78,0-5.04-0.94-6.77-2.82
		c-1.74-1.88-2.6-4.27-2.6-7.17c0-3.88,1.41-6.91,4.23-9.07c2.82-2.16,6.39-3.25,10.72-3.25c9.85,0,14.77,7.01,14.77,21.02
		c0,1.27-0.03,2.54-0.09,3.83c-0.06,1.28-0.17,2.69-0.31,4.2c-0.14,1.51-0.26,2.65-0.34,3.4c-0.08,0.76-0.23,1.93-0.43,3.53
		c0.08-0.13,1.03-1.69,2.85-4.69c1.82-3,3.43-5.61,4.84-7.82c1.41-2.21,3.18-4.87,5.3-8c2.12-3.12,4.21-5.88,6.25-8.28
		c2.04-2.39,3.9-4.24,5.58-5.55c1.8-1.39,3.35-2.08,4.66-2.08c0.28,0,0.55,0.03,0.8,0.09c0.24,0.06,0.44,0.15,0.58,0.28l0.34,0.36
		l0.12,0.31l-0.06,0.22L526.73,44.32z"/>
	<path class="st0" d="M528.13,67.61c0,0.33-0.31,0.64-0.92,0.95c-0.61,0.31-1.16,0.46-1.65,0.46c0,4.78-1.25,8.87-3.74,12.26
		c-2.49,3.39-4.96,5.08-7.42,5.08c-2.37,0-3.55-1.71-3.55-5.14c0-0.94,0.08-1.88,0.25-2.82c0.2-1.06,0.57-2.43,1.1-4.11
		c0.53-1.67,1.23-3.49,2.08-5.45c0.86-1.96,1.91-3.62,3.16-5c1.25-1.37,2.5-2.05,3.77-2.05h0.43c0-0.57,0.16-1.06,0.49-1.47
		c0.32-0.41,0.77-0.61,1.35-0.61c0.57,0.04,1.08,1.23,1.53,3.58c0.45,2.35,1.1,3.57,1.96,3.65
		C527.74,67.06,528.13,67.29,528.13,67.61z M523.85,68.53c-0.37-0.2-0.82-0.93-1.35-2.18c-0.53-1.24-0.9-1.87-1.1-1.87
		c-1.27,0-2.74,1.87-4.41,5.61c-1.67,3.74-2.72,6.69-3.13,8.86c-0.16,0.94-0.25,1.8-0.25,2.57c0,2,0.57,3.01,1.72,3.01
		c1.63,0,3.46-1.66,5.49-5C522.83,76.2,523.85,72.54,523.85,68.53z"/>
	<path class="st0" d="M534.81,62.22l0.25-0.86c0.12-0.49,0.18-0.84,0.18-1.04l-0.12-0.46l-0.12-0.4c0-0.12,0.06-0.37,0.18-0.74
		c0.82-2.61,1.56-4.35,2.24-5.21c0.67-0.86,1.66-1.29,2.97-1.29c0.57,0,0.9,0.18,0.98,0.55c-0.9,1.92-2.15,5.07-3.74,9.44h5.94
		c1.14,0,1.72,0.12,1.72,0.37c0,0.41-0.94,0.72-2.82,0.95c-1.88,0.23-3.68,0.33-5.39,0.33c-2.04,5.76-3.7,11.28-4.96,16.55
		c-0.21,0.82-0.31,1.41-0.31,1.78c0,0.7,0.22,1.04,0.67,1.04c0.82,0,2.01-0.72,3.59-2.18c1.57-1.45,2.42-2.18,2.54-2.18
		c0.2,0,0.31,0.12,0.31,0.37c0,0.69-0.23,1.14-0.68,1.35c-3.76,3.39-6.39,5.09-7.91,5.09c-0.94,0-1.41-0.59-1.41-1.78
		c0-0.65,0.49-2.58,1.47-5.76c0.12-0.41,1.43-5.09,3.92-14.04c-0.98,0.16-2.35,0.24-4.11,0.24c-0.94,0-1.41-0.18-1.41-0.55
		c0-0.29,0.26-0.63,0.8-1.01c0.53-0.39,0.96-0.58,1.29-0.58H534.81z"/>
	<path class="st0" d="M557.8,67.12c-0.33,0.45-0.77,0.89-1.32,1.32c-0.55,0.43-0.97,0.64-1.25,0.64c-0.25,0-0.37-0.12-0.37-0.37
		c0-0.16,0.19-0.73,0.58-1.72c0.39-0.98,0.58-1.65,0.58-2.02c0-0.29-0.1-0.43-0.31-0.43c-1.43,0-3.55,2.21-6.34,6.62
		c-2.8,4.41-4.87,8.73-6.22,12.93c-0.25,0.33-0.64,0.66-1.17,0.98s-0.98,0.49-1.35,0.49c-0.25,0-0.43-0.1-0.55-0.31
		c0-1.1,0.13-2.1,0.4-3c0.27-0.9,0.6-1.43,1.01-1.59c0.9-3.39,1.53-5.93,1.9-7.6l0.61-2.57c0.08-0.29,0.12-0.61,0.12-0.98
		c0-0.2-0.04-0.39-0.12-0.55l-0.12-0.49c0-0.25,0.04-0.47,0.12-0.68c0.65-2.57,1.32-4.33,1.99-5.27c0.67-0.94,1.66-1.41,2.97-1.41
		c0.49,0,0.78,0.16,0.86,0.49c-0.04,0.12-0.33,0.84-0.89,2.14c-0.55,1.31-1.06,2.53-1.53,3.68c-0.47,1.15-0.99,2.6-1.56,4.35
		c-0.57,1.76-1.02,3.37-1.35,4.84c1.35-2.66,3.43-5.85,6.25-9.59c2.82-3.74,5.15-5.61,6.99-5.61c0.98,0,1.47,0.61,1.47,1.84
		C559.2,64.53,558.73,65.82,557.8,67.12z"/>
	<path class="st0" d="M572.38,66.14c0.24,1.27,0.37,2.29,0.37,3.06c0,0.9-0.31,1.67-0.92,2.3c-0.61,0.63-1.41,1.08-2.39,1.35
		c-0.98,0.27-1.86,0.45-2.64,0.55c-0.78,0.1-1.51,0.16-2.21,0.16c-0.41,0-0.87-0.01-1.38-0.03c-0.51-0.02-0.79-0.03-0.83-0.03
		c-1.35,3.43-2.02,6.13-2.02,8.09c0,1.64,0.61,2.45,1.84,2.45c0.86,0,1.86-0.54,3-1.62c1.14-1.08,2.15-2.17,3-3.25
		c0.86-1.08,1.37-1.62,1.53-1.62c0.29,0,0.43,0.16,0.43,0.49c0,1.14-1.12,2.72-3.37,4.75c-2.25,2.02-4.01,3.04-5.27,3.04
		c-1.02,0-1.95-0.32-2.79-0.95c-0.84-0.63-1.26-1.69-1.26-3.16c0-0.45,0.06-0.98,0.19-1.59c0.28-1.55,0.66-3.07,1.13-4.54
		c0.47-1.47,0.72-2.37,0.76-2.69c-0.61-0.17-0.92-0.49-0.92-0.98c0-0.45,0.35-0.68,1.04-0.68h0.43c1.63-3.23,2.57-5.09,2.82-5.58
		c1.14-2.17,3.33-3.25,6.56-3.25C570.89,62.4,571.85,63.65,572.38,66.14z M570.17,69.08c0-1.02-0.1-1.9-0.31-2.64
		c-0.2-0.73-0.44-1.24-0.7-1.53c-0.27-0.28-0.54-0.43-0.83-0.43c-0.81,0-1.79,0.88-2.91,2.64c-1.12,1.75-1.95,3.31-2.48,4.66
		c0.08,0,0.41,0.02,0.98,0.06c0.57,0.04,1.06,0.06,1.47,0.06c1.67,0,2.88-0.18,3.61-0.55C569.74,70.98,570.13,70.23,570.17,69.08z"
		/>
	<path class="st0" d="M536.82,115.33c-1.08,3.19-2.1,6.99-3.08,11.44c-0.97,4.44-1.62,8.3-1.93,11.58v0.32
		c0.04,0.32,0.19,0.46,0.45,0.43c0.16-0.02,0.56-0.27,1.21-0.75c0.65-0.48,1.06-0.74,1.25-0.76l0.37,0.11
		c0.04,0.31-0.55,0.99-1.76,2.01c-1.21,1.02-2.1,1.56-2.65,1.63c-0.5,0.06-0.78-0.14-0.84-0.62c-0.03-0.27-0.01-0.55,0.06-0.85
		c0.45-1.96,0.86-3.89,1.23-5.81c0.36-1.92,0.77-4.2,1.22-6.83c0.45-2.63,0.78-4.59,1-5.84c0.05-0.25,0.06-0.49,0.03-0.73l-0.1-0.29
		l-0.09-0.25c-0.01-0.07,0.01-0.24,0.06-0.49c0.32-1.72,0.67-2.89,1.05-3.5c0.38-0.61,1-0.97,1.87-1.08
		C536.55,115,536.76,115.09,536.82,115.33z"/>
	<path class="st0" d="M545.18,126.81c0.26,0.8,0.42,1.45,0.48,1.95c0.07,0.58-0.06,1.1-0.41,1.56c-0.35,0.46-0.82,0.81-1.43,1.06
		c-0.61,0.25-1.16,0.44-1.65,0.57c-0.49,0.13-0.97,0.22-1.41,0.28c-0.26,0.03-0.56,0.06-0.89,0.09s-0.51,0.05-0.54,0.05
		c-0.6,2.32-0.81,4.11-0.66,5.38c0.13,1.05,0.59,1.53,1.38,1.43c0.55-0.07,1.16-0.5,1.8-1.29c0.65-0.79,1.21-1.57,1.68-2.33
		c0.47-0.77,0.75-1.16,0.86-1.17c0.18-0.02,0.29,0.07,0.32,0.28c0.09,0.74-0.51,1.85-1.79,3.33c-1.29,1.48-2.34,2.27-3.16,2.38
		c-0.66,0.08-1.28-0.05-1.87-0.39c-0.59-0.34-0.94-0.98-1.06-1.94c-0.04-0.29-0.04-0.63-0.01-1.04c0.06-1.03,0.18-2.03,0.37-3.02
		c0.18-0.98,0.28-1.59,0.28-1.8c-0.41-0.05-0.63-0.24-0.67-0.56c-0.04-0.29,0.17-0.47,0.62-0.52l0.28-0.03
		c0.8-2.21,1.26-3.49,1.37-3.83c0.57-1.48,1.89-2.36,3.97-2.62C543.92,124.52,544.65,125.25,545.18,126.81z M544,128.89
		c-0.08-0.66-0.22-1.22-0.41-1.67c-0.19-0.46-0.39-0.77-0.58-0.93c-0.19-0.16-0.38-0.23-0.57-0.21c-0.53,0.07-1.08,0.71-1.67,1.93
		c-0.58,1.22-0.99,2.29-1.22,3.2c0.05-0.01,0.26-0.02,0.64-0.04c0.37-0.02,0.69-0.04,0.95-0.08c1.08-0.13,1.84-0.35,2.29-0.64
		C543.87,130.15,544.06,129.63,544,128.89z"/>
	<path class="st0" d="M550.44,123.59l0.09-0.58c0.04-0.32,0.05-0.55,0.04-0.69l-0.12-0.28l-0.11-0.25
		c-0.01-0.08,0.01-0.24,0.06-0.49c0.32-1.75,0.66-2.93,1.03-3.54c0.37-0.61,0.97-0.97,1.82-1.07c0.36-0.05,0.59,0.05,0.68,0.28
		c-0.43,1.31-0.98,3.44-1.66,6.38l3.83-0.47c0.74-0.09,1.12-0.06,1.14,0.1c0.03,0.26-0.55,0.54-1.74,0.84
		c-1.19,0.29-2.34,0.51-3.45,0.65c-0.86,3.88-1.48,7.57-1.88,11.07c-0.07,0.54-0.08,0.93-0.05,1.17c0.05,0.45,0.23,0.66,0.52,0.62
		c0.52-0.07,1.24-0.63,2.14-1.69c0.9-1.06,1.39-1.6,1.47-1.6l0.23,0.21c0.05,0.45-0.05,0.76-0.33,0.92
		c-2.15,2.49-3.72,3.79-4.69,3.92c-0.6,0.07-0.95-0.27-1.05-1.03c-0.05-0.42,0.11-1.7,0.49-3.83c0.05-0.27,0.52-3.4,1.41-9.37
		c-0.62,0.18-1.5,0.35-2.63,0.49c-0.61,0.07-0.92,0-0.95-0.24c-0.02-0.18,0.12-0.43,0.43-0.72c0.31-0.29,0.57-0.45,0.78-0.48
		L550.44,123.59z"/>
	<path class="st0" d="M559.57,122.46l0.09-0.57c0.04-0.32,0.05-0.55,0.03-0.69l-0.12-0.28l-0.11-0.25
		c-0.01-0.08,0.01-0.24,0.06-0.49c0.32-1.75,0.66-2.93,1.03-3.54c0.36-0.61,0.97-0.96,1.81-1.07c0.37-0.05,0.59,0.05,0.68,0.28
		c-0.43,1.31-0.98,3.44-1.66,6.38l3.84-0.47c0.74-0.09,1.12-0.06,1.13,0.1c0.03,0.26-0.55,0.55-1.74,0.84
		c-1.19,0.29-2.34,0.51-3.45,0.65c-0.86,3.88-1.48,7.57-1.88,11.07c-0.07,0.54-0.08,0.93-0.06,1.17c0.06,0.45,0.23,0.66,0.52,0.62
		c0.53-0.07,1.24-0.63,2.14-1.69c0.9-1.06,1.39-1.6,1.46-1.61l0.23,0.21c0.06,0.45-0.05,0.76-0.33,0.92
		c-2.15,2.49-3.72,3.79-4.69,3.91c-0.61,0.08-0.96-0.27-1.05-1.04c-0.05-0.42,0.11-1.7,0.49-3.83c0.04-0.27,0.51-3.39,1.41-9.36
		c-0.62,0.18-1.5,0.34-2.63,0.48c-0.61,0.07-0.92,0-0.95-0.24c-0.02-0.18,0.12-0.42,0.43-0.72s0.57-0.45,0.79-0.48L559.57,122.46z"
		/>
	<path class="st0" d="M574.79,123.78c-0.17,0.32-0.42,0.63-0.74,0.95c-0.32,0.32-0.57,0.49-0.76,0.52l-0.26-0.21
		c-0.01-0.1,0.06-0.49,0.24-1.15c0.17-0.66,0.24-1.12,0.21-1.35c-0.02-0.18-0.1-0.27-0.23-0.25c-0.92,0.11-2.11,1.71-3.56,4.78
		c-1.45,3.07-2.44,6.01-2.98,8.84c-0.13,0.23-0.36,0.47-0.67,0.73c-0.32,0.25-0.6,0.4-0.83,0.42l-0.38-0.15
		c-0.09-0.71-0.08-1.37,0.02-1.97c0.1-0.6,0.28-0.97,0.52-1.11c0.31-2.26,0.51-3.94,0.62-5.06l0.19-1.71c0.03-0.19,0.03-0.41,0-0.64
		l-0.12-0.35l-0.12-0.31l0.03-0.44c0.22-1.71,0.5-2.9,0.86-3.56c0.36-0.66,0.96-1.05,1.8-1.15c0.32-0.04,0.52,0.05,0.59,0.25
		c-0.02,0.08-0.15,0.57-0.4,1.46c-0.25,0.89-0.48,1.72-0.69,2.49c-0.21,0.78-0.43,1.75-0.66,2.93c-0.23,1.18-0.39,2.26-0.48,3.23
		c0.65-1.82,1.74-4.05,3.26-6.69c1.52-2.63,2.87-4.03,4.06-4.18c0.63-0.08,1,0.28,1.09,1.07C575.49,122,575.29,122.86,574.79,123.78
		z"/>
	<path class="st0" d="M584.12,121.98c0.26,0.79,0.42,1.45,0.48,1.95c0.07,0.58-0.07,1.1-0.41,1.55c-0.34,0.46-0.82,0.82-1.43,1.06
		c-0.61,0.25-1.16,0.44-1.66,0.57c-0.49,0.13-0.96,0.22-1.41,0.28c-0.26,0.03-0.56,0.06-0.89,0.09c-0.33,0.03-0.51,0.04-0.53,0.05
		c-0.6,2.32-0.81,4.11-0.66,5.38c0.13,1.05,0.59,1.53,1.38,1.43c0.55-0.07,1.16-0.49,1.81-1.29c0.65-0.79,1.21-1.56,1.68-2.34
		c0.47-0.77,0.75-1.15,0.86-1.16c0.19-0.02,0.29,0.07,0.32,0.28c0.09,0.74-0.51,1.85-1.8,3.34c-1.29,1.48-2.34,2.27-3.15,2.38
		c-0.66,0.08-1.28-0.05-1.88-0.39c-0.59-0.34-0.95-0.98-1.06-1.93c-0.04-0.29-0.04-0.63-0.01-1.04c0.06-1.03,0.18-2.03,0.37-3.02
		c0.19-0.98,0.28-1.58,0.28-1.8c-0.41-0.05-0.63-0.24-0.67-0.56c-0.04-0.29,0.17-0.46,0.62-0.52l0.28-0.04
		c0.8-2.21,1.25-3.49,1.37-3.82c0.56-1.49,1.89-2.36,3.97-2.62C582.85,119.69,583.57,120.42,584.12,121.98z M582.93,124.06
		c-0.08-0.66-0.22-1.21-0.41-1.67c-0.19-0.46-0.38-0.77-0.58-0.93c-0.2-0.16-0.39-0.24-0.57-0.21c-0.53,0.07-1.08,0.71-1.67,1.93
		c-0.58,1.22-0.99,2.29-1.23,3.2c0.05-0.01,0.27-0.02,0.64-0.04c0.37-0.02,0.69-0.05,0.95-0.08c1.08-0.13,1.84-0.35,2.29-0.65
		C582.8,125.32,582.99,124.8,582.93,124.06z"/>
	<path class="st0" d="M597.55,117.39c-0.05,0.25-0.24,1.07-0.57,2.48c-0.33,1.41-0.6,2.59-0.8,3.55c-0.31,1.4-0.61,3.1-0.92,5.09
		c-0.3,1.99-0.42,3.2-0.37,3.62l0.09,0.11c0.21-0.03,0.7-0.42,1.48-1.19c0.78-0.76,1.32-1.17,1.64-1.2
		c0.21-0.03,0.32,0.03,0.34,0.16c0.03,0.18-0.23,0.52-0.77,1.02c-0.54,0.5-1.16,1.02-1.87,1.58c-0.71,0.55-1.1,0.87-1.17,0.93
		c-0.16,0.18-0.4,0.48-0.71,0.91c-0.31,0.43-0.6,0.79-0.87,1.07c-0.27,0.29-0.53,0.45-0.76,0.48c-0.34,0.04-0.53-0.08-0.57-0.37
		c-0.02-0.19,0.15-0.5,0.53-0.93c0.37-0.44,0.61-0.81,0.71-1.11c0.31-1.14,0.82-4.4,1.51-9.78c-1.01,2-2.39,4.26-4.16,6.8
		c-1.76,2.53-3.15,3.86-4.18,3.99c-0.37,0.04-0.58-0.17-0.64-0.65c-0.05-0.39,0.02-0.98,0.22-1.75c0-0.02,0.22-0.78,0.68-2.25
		c0.46-1.48,0.82-2.75,1.08-3.81c0.25-1.06,0.36-1.81,0.3-2.26l-0.13-0.36l-0.12-0.29c0-0.03,0-0.18,0.03-0.44
		c0.24-1.74,0.52-2.91,0.85-3.49c0.33-0.59,0.95-0.95,1.87-1.06c0.37-0.05,0.61,0.04,0.72,0.27c-2.2,8.17-3.27,12.43-3.23,12.8
		l0.14,0.14c0.1-0.01,0.4-0.26,0.87-0.75c2.39-2.35,4.35-5.49,5.9-9.4c-0.08-0.82,0.07-1.7,0.44-2.62c0.36-0.93,1.01-1.45,1.93-1.57
		C597.32,117.06,597.5,117.16,597.55,117.39z"/>
	<path class="st0" d="M608.62,119.59c-0.18,0.32-0.42,0.63-0.75,0.96c-0.32,0.32-0.57,0.49-0.76,0.51l-0.27-0.21
		c-0.01-0.11,0.07-0.49,0.24-1.15c0.17-0.66,0.25-1.12,0.22-1.35c-0.02-0.19-0.1-0.27-0.23-0.25c-0.92,0.12-2.11,1.71-3.56,4.78
		c-1.45,3.07-2.44,6.01-2.98,8.84c-0.13,0.23-0.36,0.47-0.67,0.72c-0.32,0.25-0.59,0.39-0.83,0.43l-0.38-0.15
		c-0.09-0.71-0.08-1.37,0.02-1.97c0.1-0.6,0.27-0.97,0.52-1.11c0.31-2.26,0.52-3.94,0.62-5.05l0.19-1.71c0.03-0.19,0.03-0.41,0-0.64
		l-0.12-0.34l-0.12-0.31l0.03-0.45c0.21-1.71,0.5-2.9,0.86-3.56c0.36-0.66,0.96-1.04,1.8-1.15c0.32-0.04,0.51,0.04,0.59,0.25
		c-0.01,0.08-0.15,0.57-0.4,1.45c-0.25,0.89-0.48,1.72-0.7,2.5c-0.21,0.78-0.43,1.75-0.66,2.93c-0.23,1.18-0.39,2.25-0.48,3.23
		c0.66-1.82,1.75-4.05,3.26-6.69c1.52-2.64,2.87-4.03,4.06-4.18c0.63-0.08,1,0.28,1.09,1.07
		C609.32,117.8,609.12,118.67,608.62,119.59z"/>
	<path class="st0" d="M502.76,100.09c-0.04,0.09-0.18,0.44-0.41,1.06c-0.23,0.62-0.43,1.15-0.58,1.6c-0.16,0.45-0.37,1.11-0.64,1.97
		c-0.27,0.86-0.5,1.68-0.7,2.46c-0.2,0.77-0.39,1.69-0.58,2.76c-0.19,1.06-0.34,2.13-0.45,3.18v0.32c0.04,0.32,0.19,0.46,0.45,0.43
		c0.16-0.02,0.56-0.27,1.21-0.75c0.65-0.48,1.08-0.74,1.29-0.76c0.18-0.02,0.3,0.02,0.34,0.11c0.04,0.32-0.56,0.99-1.8,2.02
		c-1.24,1.02-2.11,1.56-2.61,1.63c-0.5,0.06-0.78-0.15-0.84-0.62c-0.03-0.23-0.01-0.52,0.06-0.85c0.19-0.85,0.38-1.73,0.57-2.64
		c0.19-0.91,0.34-1.61,0.44-2.1c0.1-0.49,0.2-1,0.31-1.52c0.11-0.52,0.19-0.91,0.24-1.17c0.05-0.26,0.09-0.52,0.12-0.78
		c0.03-0.26,0.05-0.46,0.07-0.59l-0.01-0.4l-0.1-0.29l-0.09-0.21c-0.01-0.11,0-0.28,0.05-0.53c0.37-1.73,0.75-2.9,1.13-3.51
		c0.38-0.61,1.01-0.96,1.88-1.07C502.47,99.77,502.68,99.86,502.76,100.09z M504.18,93.05c0.04,0.34-0.15,0.81-0.59,1.4
		c-0.43,0.59-0.7,1.04-0.79,1.34c-0.24,0.91-0.55,1.45-0.93,1.6c-0.53,0.07-0.85-0.34-0.95-1.21c-0.07-0.55,0.27-1.21,1-1.97
		c0.74-0.76,1.41-1.18,2.01-1.25L504.18,93.05z"/>
	<path class="st0" d="M523,98.22c-2.49,6.04-3.85,10.82-4.08,14.35c-0.04,0.27-0.05,0.54-0.02,0.81c0.05,0.36,0.19,0.54,0.43,0.51
		c0.1-0.01,0.36-0.17,0.76-0.48c0.4-0.31,0.64-0.46,0.73-0.47l0.23,0.21c0.04,0.34-0.2,0.74-0.74,1.17
		c-0.54,0.44-1.09,0.7-1.67,0.77c-0.39,0.05-0.7-0.04-0.92-0.27c-0.22-0.23-0.36-0.64-0.44-1.25c-0.07-0.61-0.04-1.39,0.11-2.34
		c0.15-0.95,0.32-1.77,0.5-2.45c0.18-0.68,0.45-1.59,0.8-2.73c0.35-1.14,0.56-1.82,0.61-2.04c0.58-2.03,0.84-3.22,0.8-3.59
		c-0.02-0.18-0.1-0.27-0.23-0.25c-0.08,0.01-0.22,0.09-0.41,0.25c-1.26,1.09-2.52,2.76-3.8,5c-1.27,2.25-2.11,4.79-2.51,7.62
		c-0.03,0.22-0.27,0.49-0.74,0.83c-0.47,0.34-0.87,0.53-1.21,0.58c-0.32,0.04-0.49-0.06-0.52-0.3l-0.01-0.08l0.03-0.08
		c0.31-3.57,1.04-7.77,2.21-12.6c0.09-0.36,0.12-0.6,0.11-0.74l-0.14-0.18c-0.13,0.01-0.31,0.18-0.54,0.51
		c-1.44,2.16-2.69,4.28-3.75,6.37c-1.05,2.08-1.77,3.66-2.16,4.72c-0.39,1.06-0.8,1.94-1.22,2.64c-0.42,0.7-0.91,1.08-1.46,1.14
		c-0.21,0.02-0.33-0.07-0.36-0.28c-0.02-0.19,0.01-0.43,0.09-0.74c0.08-0.31,0.18-0.6,0.29-0.92c0.11-0.31,0.17-0.49,0.19-0.55
		c0.3-1.08,0.85-3.76,1.65-8.04c0.06-0.32,0.09-0.57,0.07-0.73l-0.09-0.29l-0.09-0.21c-0.01-0.11,0-0.28,0.05-0.53
		c0.37-1.73,0.75-2.9,1.13-3.51c0.38-0.61,0.99-0.97,1.83-1.07c0.34-0.04,0.56,0.05,0.64,0.28c-1.61,4.69-2.51,8.02-2.7,9.97
		c3.53-7.56,6.43-11.47,8.69-11.75c0.53-0.06,0.81,0.07,0.86,0.41c0.03,0.24-0.03,0.51-0.18,0.83c-1.81,4.16-2.84,7.75-3.08,10.78
		c0.97-2.72,1.96-4.85,2.96-6.41c1-1.55,2.55-3.32,4.66-5.29c0.45-0.46,1.09-0.74,1.9-0.84c0.53-0.07,0.81,0.09,0.86,0.46
		C523.17,97.63,523.12,97.89,523,98.22z"/>
	<path class="st0" d="M532.26,103.02c0.15-0.07,0.39-0.2,0.72-0.37c0.33-0.17,0.63-0.32,0.91-0.43c0.28-0.12,0.56-0.19,0.85-0.23
		c0.18-0.03,0.28,0.01,0.29,0.09c0.02,0.18-0.09,0.36-0.33,0.54c-0.25,0.18-0.63,0.38-1.15,0.6c-0.52,0.23-0.87,0.39-1.04,0.49
		c0.22,0.67,0.38,1.41,0.48,2.23c0.25,2.05-0.08,3.61-1,4.68c-0.93,1.07-2.1,1.69-3.52,1.86c-1.53,0.19-2.76-0.01-3.69-0.59
		c-0.15,0.72-0.44,2.07-0.86,4.06c-0.42,1.99-0.72,3.43-0.91,4.31l-0.02,0.16l0.18,0.34l0.2,0.45c0.04,0.32-0.1,0.85-0.4,1.6
		c-0.31,0.75-0.68,1.15-1.1,1.2c-0.32,0.04-0.51-0.27-0.6-0.93c-0.07-0.55,0.03-1.54,0.3-2.97c0.26-1.42,0.67-3.29,1.23-5.59
		c0.56-2.3,0.84-3.51,0.86-3.62c-0.1-0.17-0.17-0.39-0.2-0.66c-0.08-0.61,0.15-1.13,0.69-1.57c1.09-5.67,1.71-9.06,1.87-10.15
		c0-0.03-0.15-0.04-0.45-0.04c-0.3,0-0.45-0.07-0.47-0.2c-0.03-0.21,0.16-0.43,0.56-0.67l0.56-0.31l-0.2-0.3
		c-0.04-0.37,0.16-0.8,0.6-1.3c0.45-0.49,0.84-0.77,1.18-0.81c0.21-0.02,0.33,0.09,0.37,0.36c0.03,0.24-0.01,0.49-0.1,0.77l-0.32,1
		C529.78,98.12,531.29,100.11,532.26,103.02z M530.88,104.47c-0.45,0.06-1.3,0.59-2.57,1.58c-1.27,1-2.13,1.77-2.6,2.31l-0.56,2.6
		c1,0.49,1.93,0.68,2.8,0.57c1.35-0.17,2.28-0.73,2.82-1.69c0.54-0.96,0.72-2.08,0.57-3.34
		C531.26,105.92,531.11,105.25,530.88,104.47z M530.6,103.86c-0.3-0.92-0.66-1.78-1.08-2.55c-0.42-0.78-0.79-1.36-1.12-1.75
		c-0.33-0.39-0.59-0.57-0.77-0.55c-0.08,0.01-0.2,0.41-0.38,1.19c-0.17,0.78-0.39,1.91-0.66,3.39c-0.27,1.48-0.48,2.59-0.63,3.33
		C527.12,105.9,528.67,104.88,530.6,103.86z"/>
	<path class="st0" d="M544.71,98.26c-0.17,0.31-0.42,0.64-0.74,0.95c-0.32,0.32-0.58,0.49-0.76,0.52l-0.27-0.21
		c-0.01-0.11,0.06-0.49,0.24-1.15c0.17-0.67,0.24-1.12,0.21-1.35c-0.02-0.18-0.1-0.27-0.23-0.25c-0.92,0.11-2.11,1.71-3.56,4.77
		c-1.45,3.07-2.44,6.02-2.98,8.84c-0.13,0.23-0.36,0.47-0.67,0.72c-0.32,0.25-0.6,0.39-0.83,0.42l-0.38-0.15
		c-0.09-0.71-0.08-1.37,0.02-1.97c0.1-0.6,0.28-0.97,0.52-1.11c0.31-2.26,0.51-3.94,0.62-5.05l0.19-1.71c0.03-0.19,0.03-0.41,0-0.64
		l-0.12-0.34l-0.12-0.31l0.03-0.45c0.21-1.71,0.5-2.9,0.86-3.55c0.36-0.66,0.96-1.05,1.8-1.15c0.32-0.04,0.51,0.04,0.59,0.25
		c-0.01,0.08-0.15,0.57-0.4,1.46c-0.25,0.89-0.48,1.72-0.69,2.5c-0.22,0.77-0.43,1.75-0.66,2.93c-0.23,1.18-0.39,2.26-0.48,3.23
		c0.65-1.82,1.74-4.05,3.26-6.69c1.52-2.64,2.87-4.03,4.06-4.17c0.63-0.08,1,0.28,1.1,1.07C545.41,96.47,545.21,97.34,544.71,98.26z
		"/>
	<path class="st0" d="M551.14,94.09c-0.04,0.09-0.18,0.44-0.41,1.06c-0.23,0.62-0.43,1.15-0.59,1.6c-0.16,0.45-0.37,1.1-0.64,1.96
		c-0.27,0.87-0.5,1.68-0.7,2.46c-0.2,0.78-0.39,1.69-0.58,2.76c-0.19,1.06-0.34,2.13-0.45,3.19v0.32c0.04,0.32,0.19,0.46,0.45,0.43
		c0.16-0.02,0.56-0.27,1.21-0.75c0.65-0.48,1.08-0.74,1.29-0.76c0.19-0.02,0.3,0.02,0.34,0.12c0.04,0.31-0.56,0.99-1.8,2.01
		c-1.24,1.02-2.11,1.57-2.61,1.63c-0.5,0.06-0.78-0.15-0.84-0.62c-0.03-0.24-0.01-0.52,0.05-0.85c0.19-0.85,0.38-1.73,0.58-2.64
		c0.19-0.91,0.34-1.61,0.44-2.1c0.1-0.49,0.2-1,0.31-1.52c0.11-0.52,0.19-0.91,0.23-1.18c0.05-0.26,0.09-0.52,0.12-0.77
		c0.03-0.26,0.06-0.46,0.07-0.59l-0.01-0.4l-0.1-0.28l-0.09-0.21c-0.01-0.1,0.01-0.28,0.06-0.53c0.37-1.73,0.75-2.9,1.13-3.52
		c0.38-0.61,1-0.96,1.87-1.07C550.84,93.77,551.05,93.86,551.14,94.09z M552.55,87.05c0.04,0.34-0.15,0.81-0.59,1.4
		c-0.44,0.59-0.7,1.04-0.79,1.34c-0.23,0.92-0.54,1.45-0.92,1.6c-0.53,0.07-0.85-0.34-0.95-1.21c-0.07-0.56,0.27-1.21,1-1.97
		c0.74-0.76,1.41-1.18,2.01-1.25L552.55,87.05z"/>
	<path class="st0" d="M571.37,92.22c-2.49,6.04-3.85,10.82-4.08,14.36c-0.05,0.27-0.05,0.54-0.02,0.81
		c0.04,0.36,0.19,0.53,0.42,0.51c0.1-0.01,0.36-0.17,0.76-0.48c0.4-0.31,0.64-0.46,0.72-0.47l0.23,0.21
		c0.04,0.34-0.2,0.73-0.74,1.17c-0.53,0.44-1.09,0.7-1.67,0.77c-0.39,0.05-0.7-0.04-0.92-0.27c-0.22-0.23-0.36-0.64-0.44-1.25
		c-0.08-0.6-0.04-1.38,0.11-2.34c0.15-0.95,0.32-1.77,0.5-2.45c0.18-0.68,0.45-1.59,0.8-2.73c0.35-1.14,0.55-1.82,0.61-2.04
		c0.58-2.02,0.84-3.22,0.8-3.59c-0.02-0.18-0.1-0.27-0.23-0.25c-0.08,0.01-0.21,0.09-0.41,0.25c-1.26,1.09-2.52,2.76-3.8,5
		c-1.27,2.25-2.11,4.78-2.5,7.62c-0.03,0.22-0.28,0.5-0.74,0.83c-0.47,0.34-0.87,0.53-1.21,0.57c-0.32,0.04-0.49-0.06-0.52-0.3
		l-0.01-0.08l0.03-0.08c0.31-3.57,1.04-7.77,2.21-12.6c0.09-0.36,0.13-0.6,0.11-0.74l-0.14-0.18c-0.13,0.02-0.31,0.18-0.54,0.5
		c-1.45,2.16-2.69,4.28-3.75,6.37c-1.05,2.08-1.78,3.66-2.17,4.72c-0.39,1.06-0.8,1.94-1.22,2.64c-0.42,0.69-0.91,1.07-1.46,1.14
		c-0.21,0.03-0.33-0.06-0.36-0.28c-0.02-0.18,0.01-0.43,0.09-0.73c0.09-0.3,0.18-0.61,0.29-0.92c0.11-0.31,0.17-0.49,0.2-0.55
		c0.29-1.08,0.84-3.76,1.65-8.03c0.07-0.33,0.09-0.57,0.07-0.73l-0.09-0.29l-0.09-0.21c-0.01-0.1,0-0.28,0.05-0.53
		c0.37-1.73,0.75-2.9,1.13-3.51c0.38-0.61,0.99-0.97,1.83-1.07c0.34-0.04,0.55,0.05,0.64,0.28c-1.61,4.69-2.51,8.02-2.7,9.97
		c3.53-7.56,6.43-11.48,8.7-11.76c0.53-0.06,0.81,0.07,0.85,0.42c0.03,0.23-0.03,0.51-0.18,0.82c-1.81,4.16-2.84,7.75-3.08,10.78
		c0.97-2.72,1.96-4.85,2.96-6.41c1-1.55,2.55-3.32,4.66-5.29c0.45-0.46,1.09-0.74,1.91-0.84c0.53-0.07,0.81,0.09,0.86,0.46
		C571.54,91.63,571.49,91.89,571.37,92.22z"/>
	<path class="st0" d="M579.97,93.25c0.26,0.8,0.42,1.45,0.48,1.95c0.07,0.58-0.06,1.1-0.41,1.55c-0.34,0.46-0.82,0.82-1.43,1.06
		c-0.61,0.25-1.16,0.44-1.65,0.57c-0.49,0.12-0.96,0.22-1.41,0.27c-0.26,0.04-0.56,0.06-0.89,0.09c-0.33,0.03-0.51,0.04-0.54,0.05
		c-0.6,2.32-0.81,4.12-0.65,5.38c0.13,1.06,0.59,1.53,1.38,1.43c0.55-0.07,1.16-0.5,1.8-1.29c0.65-0.79,1.21-1.57,1.68-2.33
		c0.47-0.77,0.75-1.16,0.86-1.17c0.18-0.02,0.29,0.07,0.31,0.28c0.09,0.74-0.51,1.85-1.79,3.34c-1.29,1.48-2.34,2.27-3.16,2.38
		c-0.66,0.08-1.29-0.05-1.87-0.39c-0.59-0.34-0.95-0.99-1.06-1.94c-0.04-0.29-0.04-0.64-0.01-1.04c0.06-1.02,0.18-2.03,0.37-3.01
		c0.18-0.99,0.28-1.59,0.28-1.81c-0.41-0.05-0.63-0.24-0.67-0.56c-0.03-0.29,0.17-0.46,0.62-0.52l0.28-0.04
		c0.79-2.21,1.26-3.49,1.37-3.82c0.57-1.49,1.89-2.36,3.97-2.62C578.71,90.95,579.43,91.68,579.97,93.25z M578.78,95.32
		c-0.08-0.66-0.22-1.22-0.41-1.68c-0.19-0.45-0.38-0.77-0.58-0.93c-0.19-0.17-0.38-0.23-0.57-0.21c-0.53,0.07-1.08,0.71-1.67,1.93
		c-0.58,1.22-0.99,2.29-1.23,3.2c0.05-0.01,0.26-0.02,0.64-0.04c0.38-0.02,0.69-0.04,0.95-0.08c1.08-0.13,1.84-0.35,2.29-0.65
		C578.66,96.58,578.84,96.06,578.78,95.32z"/>
	<path class="st0" d="M593.4,88.65c-0.05,0.25-0.24,1.07-0.57,2.48c-0.33,1.41-0.6,2.59-0.8,3.55c-0.31,1.4-0.61,3.1-0.91,5.09
		s-0.43,3.2-0.38,3.62l0.1,0.11c0.21-0.03,0.7-0.42,1.48-1.18c0.78-0.76,1.32-1.17,1.64-1.21c0.21-0.03,0.32,0.02,0.34,0.15
		c0.02,0.19-0.24,0.53-0.78,1.02c-0.54,0.49-1.17,1.02-1.87,1.57c-0.71,0.56-1.1,0.87-1.17,0.93c-0.16,0.18-0.4,0.49-0.71,0.91
		c-0.31,0.43-0.6,0.79-0.87,1.07c-0.27,0.29-0.53,0.44-0.76,0.48c-0.34,0.04-0.53-0.08-0.57-0.37c-0.02-0.18,0.15-0.49,0.53-0.93
		c0.37-0.43,0.61-0.8,0.71-1.11c0.31-1.14,0.82-4.39,1.52-9.78c-1.01,2-2.39,4.27-4.15,6.8c-1.76,2.53-3.15,3.86-4.18,3.99
		c-0.37,0.04-0.58-0.17-0.64-0.64c-0.05-0.39,0.03-0.98,0.23-1.75c0-0.03,0.23-0.78,0.68-2.26c0.46-1.47,0.82-2.74,1.07-3.8
		c0.26-1.06,0.36-1.82,0.31-2.26l-0.13-0.37l-0.12-0.29c0-0.03,0-0.17,0.02-0.45c0.24-1.74,0.52-2.91,0.85-3.5
		c0.33-0.59,0.95-0.94,1.88-1.06c0.37-0.04,0.61,0.05,0.71,0.27c-2.2,8.17-3.27,12.43-3.23,12.8l0.14,0.15
		c0.1-0.01,0.39-0.26,0.87-0.75c2.38-2.36,4.35-5.49,5.9-9.4c-0.08-0.82,0.07-1.69,0.44-2.62c0.37-0.93,1.01-1.45,1.94-1.56
		C593.17,88.32,593.35,88.42,593.4,88.65z"/>
	<path class="st0" d="M604.47,90.85c-0.17,0.31-0.42,0.63-0.74,0.95c-0.32,0.32-0.57,0.49-0.76,0.52l-0.27-0.2
		c-0.01-0.11,0.07-0.49,0.24-1.16c0.17-0.66,0.24-1.11,0.21-1.35c-0.02-0.19-0.1-0.27-0.23-0.25c-0.92,0.12-2.11,1.71-3.56,4.78
		c-1.45,3.07-2.44,6.02-2.98,8.84c-0.13,0.23-0.36,0.47-0.67,0.73c-0.32,0.25-0.59,0.39-0.83,0.42l-0.38-0.15
		c-0.09-0.71-0.08-1.37,0.02-1.97c0.1-0.6,0.28-0.97,0.53-1.11c0.31-2.26,0.51-3.95,0.62-5.06l0.19-1.71c0.03-0.19,0.03-0.4,0-0.64
		l-0.12-0.35l-0.12-0.31l0.03-0.44c0.22-1.71,0.5-2.9,0.86-3.56c0.36-0.66,0.96-1.05,1.8-1.15c0.32-0.04,0.51,0.04,0.59,0.25
		c-0.02,0.08-0.15,0.56-0.4,1.45c-0.25,0.88-0.48,1.72-0.69,2.49c-0.21,0.77-0.43,1.76-0.66,2.93c-0.23,1.18-0.39,2.25-0.48,3.23
		c0.66-1.82,1.75-4.05,3.26-6.69c1.52-2.64,2.87-4.03,4.06-4.18c0.64-0.08,1,0.28,1.1,1.07C605.17,89.06,604.97,89.93,604.47,90.85z
		"/>
	<path class="st0" d="M602.4,102.5c-0.03-0.25,0.06-0.52,0.29-0.8l0.02,0c0.35-0.4,0.66-0.61,0.93-0.64l0.36,0.15
		c0.15,0.32,0.24,0.57,0.26,0.76l-0.07,0.37l-0.1,0.25c-0.13,0.66-0.34,1.28-0.64,1.88c-0.3,0.6-0.61,1.09-0.94,1.46
		c-0.32,0.37-0.62,0.68-0.91,0.92c-0.28,0.23-0.49,0.36-0.64,0.38l-0.11-0.11c0.47-0.62,0.92-1.32,1.37-2.1
		c0.45-0.79,0.65-1.35,0.6-1.7l-0.15-0.27l-0.02,0C602.51,102.91,602.43,102.72,602.4,102.5z"/>
</g>
<path class="st1" d="M210.41,33.03c-5.15,0.46-27.31,7.07-31.35,6.88c-4.05-0.19-5.64-4.95-3.99-5.24c0.62-0.11,1.45-0.52,2.39-1.04
	c-0.81,0.21-1.62,0.41-2.42,0.64c-9.83,2.73-19.2,6.78-27.83,12.04c-8.55,5-15.77,10.72-21.46,16.97
	c-5.68,6.24-9.87,13.04-12.47,20.2c-3.31,3.52-5.71,7.23-7.13,11.01c-1.45,3.81-2.19,8.47-2.19,13.84c0,15.67,6.18,29.06,18.36,39.8
	c12.11,10.69,27.52,16.12,45.8,16.12c8.84,0,17.83-1.32,26.73-3.94c5.43-1.59,10.69-3.63,15.71-6.09l0.37-0.18
	c2.62-1.39,5.29-2.83,7.81-4.3c0.38-0.23,0.77-0.47,1.14-0.71c3.71-2.3,8.47-6.12,8.58-6.23c0.05-0.05,2.43-1.8,3.17-2.29
	c3.15-2.1,4.47-1.92,11.8-0.88c1.03,0.15,2.2,0.31,3.5,0.49c6.87,0.93,11.67,0.13,14.49-0.7c2.6-0.77,4.7-1.92,5.63-3.05
	c0.17-0.2,0.29-0.4,0.38-0.59c0.28-0.62,0.24-1.28-0.1-1.82c-0.75-1.17-2.46-1.19-5.41-1.12c-0.46,0.01-0.9,0.02-1.27,0.02
	c-4.72-0.02-9.36-3.38-11.86-5.18c-0.39-0.28-0.76-0.56-1.1-0.81c-1.33-1-2.5-1.86-3.73-2.17c0.11-2.59-1-6.38-2.56-11.31
	c-0.29-0.92-0.57-1.8-0.82-2.63c-0.72-2.39-0.84-5.39-0.92-7.58c-0.11-2.83-0.16-4.25-1.49-4.69c-0.34-0.11-1.22-0.26-2.08,0.73
	c-4.76,5.48-7.08,13.1-6.52,21.45c0.53,8.03-0.33,9.95-1.35,11.34c-0.72,0.98-4.1,3.8-9.9,6.74c-10.51,5.15-21.18,7.76-31.78,7.76
	c-16.15,0-30.11-5.02-41.49-14.9c-11.33-9.84-17.08-21.84-17.08-35.63c0-13.9,5.49-25.26,16.34-33.77
	c10.94-8.58,25.59-12.93,43.53-12.93c10.84,0,21.52,1.89,31.73,5.63c3.49,1.36,4.59,1.54,5.17,1.54c2.57,0,4.65-0.99,6.17-2.92
	c1.46-1.84,2.2-4.45,2.2-7.75c0-3.46-0.59-6.28-1.74-8.49c-2.55-1.21-5.06-2.2-6.81-2.7C221.93,33.86,215.56,32.57,210.41,33.03z"/>
<path class="st0" d="M184.57,30.14c-0.41,0.03-0.88,0.16-1.39,0.35c0.65-0.13,1.3-0.26,1.95-0.38
	C184.91,30.12,184.72,30.13,184.57,30.14z"/>
<path class="st0" d="M233.82,38.53c1.19,0.63,2.34,1.29,3.38,1.96c3.22,2.08,9.21,9.65,10.52,11.37
	c0.21-1.28-3.38-10.05-10.85-15.83c-3.18-2.46-6.95-4.25-10.84-5.45c0.81,0.29,1.54,0.6,2.16,0.94
	C230.88,32.99,232.75,35.35,233.82,38.53z"/>
<path class="st0" d="M226.03,30.59c-4.32-1.52-11.36-2.26-21.4-2.26c-6.47,0-12.99,0.6-19.5,1.78c3.79-0.17,18.38-0.54,25.76-1.23
	C215.39,28.46,220.81,28.98,226.03,30.59z"/>
<path class="st1" d="M267.04,136.37c0.17-0.2,0.29-0.4,0.38-0.59c0.28-0.62,0.24-1.28-0.1-1.82c-0.74-1.16-2.43-1.19-5.32-1.12
	c-0.19,1.37-0.29,2.87-0.29,4.52c0,0.68,0.02,1.32,0.05,1.95C264.2,138.55,266.16,137.45,267.04,136.37z"/>
<path class="st1" d="M268.73,133.01c0.64,1,0.72,2.27,0.21,3.41c-0.15,0.34-0.36,0.67-0.62,0.99l0,0.01
	c-1.16,1.42-3.51,2.73-6.43,3.6c0.3,2.82,0.96,5.11,2.02,6.88c1.47,2.48,3.56,3.72,6.25,3.72c2.69,0,4.79-1.24,6.27-3.72
	c1.48-2.48,2.22-5.98,2.22-10.54c0-4.52-0.74-8.02-2.22-10.49c-1.48-2.45-3.58-3.7-6.27-3.7c-2.69,0-4.78,1.24-6.25,3.69
	c-0.71,1.19-1.25,2.62-1.62,4.29c0.42-0.01,0.84-0.02,1.23-0.02C265.99,131.13,267.72,131.45,268.73,133.01z"/>
<path class="st0" d="M283.1,125.69c-3.37-3.06-7.67-4.59-12.94-4.59c-5.23,0-9.54,1.53-12.93,4.6c-1.18,1.08-2.14,2.26-2.91,3.55
	c1.97,1.06,4.2,1.92,6.38,1.93l0.07,0c0.32,0,0.7-0.01,1.1-0.02h0.04c0.13,0,0.25,0,0.38-0.01c0.37-1.67,0.9-3.1,1.62-4.29
	c1.47-2.45,3.56-3.69,6.25-3.69c2.69,0,4.79,1.24,6.27,3.7c1.48,2.47,2.22,5.97,2.22,10.49c0,4.56-0.74,8.06-2.22,10.54
	c-1.48,2.48-3.58,3.72-6.27,3.72c-2.69,0-4.78-1.24-6.25-3.72c-1.05-1.77-1.72-4.06-2.02-6.88c-0.02,0.01-0.04,0.01-0.06,0.02
	c-2.65,0.78-5.66,1.18-8.96,1.18c0.78,2.63,2.23,4.92,4.35,6.86c3.39,3.08,7.7,4.61,12.93,4.61c5.27,0,9.57-1.53,12.94-4.61
	c3.37-3.08,5.06-7,5.06-11.72C288.16,132.64,286.47,128.73,283.1,125.69z"/>
<path class="st0" d="M246.92,140.12c-1.29-0.17-2.46-0.34-3.5-0.49c-7.33-1.04-8.65-1.22-11.8,0.88c-0.74,0.49-3.11,2.24-3.17,2.29
	c-0.11,0.11-4.87,3.93-8.58,6.23c-0.38,0.24-0.76,0.47-1.14,0.71c-2.51,1.47-5.19,2.92-7.81,4.3l-0.37,0.18
	c-5.02,2.45-10.28,4.49-15.71,6.09c-8.9,2.62-17.89,3.94-26.73,3.94c-18.28,0-33.7-5.43-45.8-16.12
	c-12.19-10.74-18.36-24.13-18.36-39.8c0-5.37,0.74-10.03,2.19-13.84c1.42-3.78,3.82-7.49,7.13-11.01
	c2.59-7.16,6.78-13.95,12.47-20.2c5.7-6.25,12.92-11.97,21.46-16.97c8.63-5.26,18-9.31,27.83-12.04c0.81-0.23,1.61-0.43,2.42-0.64
	c1.81-1.02,3.99-2.48,5.74-3.14c-2.89,0.58-5.77,1.25-8.65,2.06c-10,2.79-19.5,6.9-28.24,12.22c-8.69,5.08-16.06,10.91-21.89,17.3
	c-5.74,6.31-10.01,13.19-12.69,20.45c-3.36,3.63-5.8,7.45-7.26,11.34c-1.52,4.01-2.29,8.88-2.29,14.46
	c0,16.21,6.38,30.04,18.96,41.13c12.44,11,28.25,16.59,46.98,16.59c9,0,18.17-1.36,27.23-4.03c9.02-2.65,17.59-6.5,25.46-11.44
	c4.02-2.49,6.78-4.7,8.95-6.53l0.4-0.35c0.21-0.18,0.42-0.37,0.56-0.48c0.25-0.2,1.25-0.93,1.79-1.29c1.48-0.99,2.3-1.34,3.95-1.34
	c1.41,0,3.45,0.28,6.67,0.73l0.05,0.01c0.96,0.13,2.15,0.3,3.46,0.48c2.12,0.29,4.19,0.43,6.16,0.43c0.02,0,0.05,0,0.07,0
	c-0.16-0.55-0.29-1.12-0.4-1.7C250.8,140.51,248.96,140.4,246.92,140.12z"/>
<path class="st0" d="M249.79,126.3c-0.36-0.26-0.7-0.52-1.02-0.75l-0.06-0.04c-1.05-0.78-2.03-1.52-3.11-2.01
	c-0.18-2.8-1.29-6.49-2.61-10.66c-0.28-0.87-0.57-1.78-0.82-2.61c-0.66-2.18-0.77-5.06-0.85-7.16c-0.12-3.13-0.2-5.39-2.6-6.18
	c-0.34-0.11-0.69-0.17-1.04-0.17c-1.05,0-2.07,0.5-2.86,1.42c-0.16,0.19-0.33,0.38-0.48,0.57c-4.73,5.78-7.03,13.64-6.47,22.13
	c0.53,8.07-0.4,9.35-1.02,10.2l-0.02,0.02c-0.41,0.5-1.95,1.91-4.83,3.69c-11.69,6.61-23.64,9.96-35.5,9.96
	c-15.71,0-29.27-4.87-40.31-14.46c-10.93-9.49-16.47-21.02-16.47-34.29c0-13.51,5.12-24.1,15.66-32.38
	c10.6-8.32,24.88-12.54,42.43-12.54c10.59,0,21.05,1.85,31.08,5.49c3.72,1.47,5,1.68,5.82,1.68c3.16,0,5.71-1.21,7.58-3.6
	c1.71-2.17,2.58-5.15,2.58-8.85c0-2.77-0.36-5.18-1.05-7.25c-0.81-0.43-1.64-0.84-2.46-1.24c1.14,2.21,1.74,5.03,1.74,8.49
	c0,3.31-0.74,5.91-2.2,7.75c-1.52,1.93-3.6,2.92-6.17,2.92c-0.57,0-1.68-0.18-5.17-1.54c-10.21-3.73-20.89-5.63-31.73-5.63
	c-17.95,0-32.6,4.35-43.53,12.93c-10.85,8.51-16.34,19.87-16.34,33.77c0,13.79,5.75,25.79,17.08,35.63
	c11.38,9.89,25.34,14.9,41.49,14.9c10.61,0,21.28-2.61,31.78-7.76c5.8-2.94,9.19-5.75,9.9-6.74c1.02-1.39,1.88-3.31,1.35-11.34
	c-0.55-8.35,1.76-15.97,6.52-21.45c0.86-0.99,1.74-0.84,2.08-0.73c1.33,0.44,1.38,1.86,1.49,4.69c0.08,2.19,0.19,5.19,0.92,7.58
	c0.25,0.83,0.53,1.71,0.82,2.63c1.56,4.93,2.67,8.72,2.56,11.31c1.24,0.31,2.4,1.17,3.73,2.17c0.34,0.25,0.71,0.53,1.1,0.81
	c1.18,0.85,2.83,2.04,4.75,3.07c0.23-0.52,0.5-1.02,0.79-1.52C252.51,128.27,250.92,127.12,249.79,126.3z"/>
<path class="st0" d="M267.32,133.96c0.34,0.54,0.38,1.2,0.1,1.82c-0.09,0.19-0.21,0.39-0.38,0.59c-0.88,1.08-2.84,2.17-5.28,2.94
	c0.03,0.59,0.08,1.16,0.14,1.71c2.92-0.87,5.26-2.18,6.43-3.6l0-0.01c0.26-0.32,0.47-0.66,0.62-0.99c0.51-1.14,0.43-2.42-0.21-3.41
	c-1.01-1.57-2.74-1.88-5.2-1.88c-0.39,0-0.81,0.01-1.23,0.02c-0.12,0.54-0.22,1.1-0.3,1.69
	C264.89,132.78,266.57,132.81,267.32,133.96z"/>
<path class="st0" d="M261.89,141.02c-0.06-0.55-0.11-1.12-0.14-1.71c-0.12,0.04-0.23,0.08-0.34,0.11c-1.98,0.59-4.97,1.14-8.94,1.1
	c0.1,0.58,0.23,1.15,0.4,1.7c3.3-0.01,6.31-0.4,8.96-1.18C261.86,141.04,261.87,141.03,261.89,141.02z"/>
<path class="st0" d="M261.91,132.84c0.03,0,0.06,0,0.09,0c0.08-0.59,0.18-1.15,0.3-1.69c-0.13,0-0.25,0-0.38,0.01h-0.04
	c-0.4,0.01-0.79,0.02-1.1,0.02l-0.07,0c-2.18-0.01-4.41-0.87-6.38-1.93c-0.29,0.49-0.56,0.99-0.79,1.52
	c2.15,1.15,4.61,2.1,7.11,2.11C261.01,132.87,261.45,132.86,261.91,132.84z"/>
<path class="st0" d="M204.64,30.11c11.64,0,19.07,0.97,22.71,2.97c1.74,0.95,3.06,2.37,4.01,4.21c0.82,0.39,1.65,0.81,2.46,1.24
	c-1.07-3.19-2.94-5.54-5.62-7.01c-0.62-0.34-1.35-0.65-2.16-0.94c-5.22-1.61-10.65-2.13-15.13-1.71
	c-7.38,0.69-21.97,1.05-25.76,1.23c-0.65,0.12-1.3,0.25-1.95,0.38c-1.75,0.66-3.93,2.12-5.74,3.14
	C186.45,31.3,195.58,30.11,204.64,30.11z"/>
<path class="st0" d="M260.58,134.39c-5.12-0.02-10.02-3.52-12.7-5.45c-2.68-1.94-4.05-3.31-5.84-2.65c1.47-2.24-1.3-9.7-2.91-15.02
	c-1.61-5.32-0.39-12.83-1.93-11.06c-4.5,5.18-6.66,12.39-6.14,20.31c0.53,7.92,0.49,10.15-1.14,12.38
	c-1.87,2.55-4.36,4.35-7.63,6.27c-10.41,6.11-23.79,9.53-35.77,9.53c-16.7,0-31.14-5.19-42.92-15.44
	c-11.85-10.28-17.85-22.83-17.85-37.29c0-14.61,5.78-26.55,17.19-35.49c11.31-8.89,26.41-13.4,44.88-13.4
	c11.1,0,22.04,1.94,32.52,5.76c3.28,1.3,4.18,1.4,4.38,1.4c1.88,0,3.34-0.68,4.44-2.07c1.15-1.45,1.73-3.6,1.73-6.4
	c0-5.48-1.55-9.11-4.61-10.77c-3.28-1.8-10.57-2.71-21.65-2.71c-9.64,0-19.4,1.37-29.01,4.07c-9.62,2.67-18.81,6.64-27.31,11.8
	c-8.35,4.9-15.4,10.47-20.96,16.57c-5.54,6.1-9.61,12.72-12.08,19.69l-0.06,0.12l-0.22,0.3c-3.15,3.31-5.46,6.82-6.81,10.41
	c-1.35,3.55-2.04,7.95-2.04,13.06c0,15,5.93,27.84,17.61,38.16c11.69,10.32,26.61,15.56,44.35,15.56c8.67,0,17.45-1.29,26.12-3.85
	c8.69-2.55,16.69-5.88,24.23-10.63c2.01-1.24,4.21-2.67,5.82-3.86c1.3-0.9,4.78-3.36,6.83-4.64l0.06-0.04l0.34-0.21
	c3.67-2.24,5.7-1.54,15.66-0.2c12.32,1.67,18.36-2.26,18.87-3.41C266.56,134.05,262.7,134.39,260.58,134.39z"/>
</svg>
